<?xml version="1.0" encoding="utf-8"?>
<!-- Generator: Adobe Illustrator 23.0.3, SVG Export Plug-In . SVG Version: 6.00 Build 0)  -->
<svg version="1.1" id="Layer_1" xmlns="http://www.w3.org/2000/svg" xmlns:xlink="http://www.w3.org/1999/xlink" x="0px" y="0px"
	 viewBox="0 0 460 85" style="enable-background:new 0 0 460 85;" xml:space="preserve">
<style type="text/css">
	.st0{enable-background:new    ;}
	.st1{fill:#EF6620;}
</style>
<g class="st0">
	<path d="M9,24.2H6.3v-2.7h8.4v2.7h-2.7v12H9V24.2z"/>
	<path d="M20.5,36.2v-7.5c0-0.5-0.3-0.7-0.7-0.7c-0.4,0-0.8,0.1-1,0.2v7.9h-2.9V21.1l2.9-0.4v5.5c0.6-0.5,1.6-0.9,2.4-0.9
		c1.5,0,2.3,0.7,2.3,2.3v8.6H20.5z"/>
	<path d="M25.1,24.4v-3.2h2.9v3.2H25.1z M25.1,36.2V25.5h2.9v10.7H25.1z"/>
	<path d="M34.5,36.2v-7.5c0-0.5-0.3-0.7-0.7-0.7c-0.4,0-0.8,0.1-1,0.2v7.9h-2.9V25.5h2.4l0.3,0.8c0.7-0.6,1.7-1,2.6-1
		c1.5,0,2.3,0.7,2.3,2.3v8.6H34.5z"/>
	<path d="M50.7,36.2h-2.4L48,35.4c-0.5,0.5-1.4,1-2.5,1c-2,0-2.7-1.3-2.7-3.4c0-2.3,0.9-3.2,3.2-3.2h1.7v-0.9c0-0.8-0.4-1-1.4-1
		c-1,0-1.8,0.2-2.6,0.5L43.4,26c0.9-0.4,2.3-0.7,3.7-0.7c2.4,0,3.6,0.7,3.6,3V36.2z M47.8,32.1h-1.1c-0.6,0-0.8,0.3-0.8,0.9
		c0,0.7,0.2,1,0.9,1c0.4,0,0.8-0.1,1.1-0.2V32.1z"/>
	<path d="M57,36.2v-7.5c0-0.5-0.3-0.7-0.7-0.7c-0.4,0-0.8,0.1-1,0.2v7.9h-2.9V25.5h2.4l0.3,0.8c0.7-0.6,1.7-1,2.6-1
		c1.5,0,2.3,0.7,2.3,2.3v8.6H57z"/>
	<path d="M61.3,28.7c0-2.5,1.3-3.4,3.3-3.4c0.6,0,1.3,0.1,1.7,0.3v-4.4l2.9-0.4v15.5h-2.3l-0.3-0.8c-0.6,0.5-1.5,1-2.6,1
		c-2,0-2.8-1.1-2.8-3.1V28.7z M66.3,28c-0.2-0.1-0.6-0.1-0.9-0.1c-0.7,0-1.1,0.3-1.1,1.1v4.2c0,0.5,0.2,0.8,0.9,0.8
		c0.5,0,0.9-0.1,1.2-0.3V28z"/>
	<path d="M75.2,36.2V21.1l2.9-0.4v15.5H75.2z"/>
	<path d="M79.9,24.4v-3.2h2.9v3.2H79.9z M79.9,36.2V25.5h2.9v10.7H79.9z"/>
	<path d="M91.6,29.5c0,2.6-1.3,3.8-3.7,3.8c-0.1,0.2-0.2,0.4-0.2,0.6c0,0.3,0.1,0.4,0.4,0.5l1.3,0.2c1.8,0.2,2.5,0.9,2.5,2.9
		c0,2.3-1.4,3.3-4.1,3.3c-1.1,0-2.4-0.2-3.4-0.5l0.4-2.3c1,0.3,2,0.5,3,0.5c1.1,0,1.4-0.2,1.4-0.7c0-0.4-0.2-0.6-0.7-0.6l-1.8-0.2
		c-1.3-0.2-1.9-0.8-1.9-1.9c0-0.8,0.4-1.4,1-1.9c-1.2-0.5-1.8-1.7-1.8-3.4v-0.5c0-2.4,1.3-3.8,3.8-3.8c0.6,0,1.1,0.1,1.5,0.2h3.1
		v1.7l-1.1,0.3c0.1,0.4,0.2,1,0.2,1.5V29.5z M88.7,28.8c0-0.9-0.3-1.2-1-1.2c-0.6,0-1,0.3-1,1.2V30c0,0.7,0.3,1,1,1c0.7,0,1-0.4,1-1
		V28.8z"/>
	<path d="M97.9,36.2v-7.5c0-0.5-0.3-0.7-0.7-0.7c-0.4,0-0.8,0.1-1,0.2v7.9h-2.9V21.1l2.9-0.4v5.5c0.6-0.5,1.6-0.9,2.4-0.9
		c1.5,0,2.3,0.7,2.3,2.3v8.6H97.9z"/>
	<path d="M107.7,36.1c-0.6,0.2-1.3,0.4-2.2,0.4c-2,0-2.6-1.1-2.6-2.7v-5.6h-1.1v-2.6h1.1v-2.8l2.9-0.3v3.1h2l-0.1,2.6h-1.9v5.1
		c0,0.4,0.2,0.6,0.7,0.6c0.4,0,0.7,0,0.9-0.1L107.7,36.1z"/>
	<path d="M116.9,31.4l0.7-5.9h2.7l-1.7,10.7h-2.9l-1.5-6.7l-1.5,6.7h-2.9l-1.7-10.7h2.7l0.7,5.9l1.2-5.9h2.9L116.9,31.4z"/>
	<path d="M123.9,32v0.5c0,1.1,0.4,1.5,1.7,1.5c0.9,0,1.8-0.2,2.3-0.5l0.4,2.2c-0.8,0.4-2.1,0.7-3.3,0.7c-2.8,0-4.1-1.4-4.1-3.9v-3.4
		c0-2.6,1.4-3.9,3.9-3.9c2.7,0,3.7,1.5,3.7,3.9V32H123.9z M125.8,28.6c0-0.7-0.3-1-0.9-1c-0.6,0-0.9,0.3-0.9,1.1v1.1h1.8V28.6z"/>
	<path d="M129.9,24.4v-3.2h2.9v3.2H129.9z M129.9,36.2V25.5h2.9v10.7H129.9z"/>
	<path d="M141.6,29.5c0,2.6-1.3,3.8-3.7,3.8c-0.1,0.2-0.2,0.4-0.2,0.6c0,0.3,0.1,0.4,0.4,0.5l1.3,0.2c1.8,0.2,2.5,0.9,2.5,2.9
		c0,2.3-1.4,3.3-4.1,3.3c-1.1,0-2.4-0.2-3.4-0.5l0.4-2.3c1,0.3,2,0.5,3,0.5c1.1,0,1.4-0.2,1.4-0.7c0-0.4-0.2-0.6-0.7-0.6l-1.8-0.2
		c-1.3-0.2-1.9-0.8-1.9-1.9c0-0.8,0.4-1.4,1-1.9c-1.2-0.5-1.8-1.7-1.8-3.4v-0.5c0-2.4,1.3-3.8,3.8-3.8c0.6,0,1.1,0.1,1.5,0.2h3.1
		v1.7l-1.1,0.3c0.1,0.4,0.2,1,0.2,1.5V29.5z M138.7,28.8c0-0.9-0.3-1.2-1-1.2c-0.6,0-1,0.3-1,1.2V30c0,0.7,0.3,1,1,1
		c0.7,0,1-0.4,1-1V28.8z"/>
	<path d="M147.8,36.2v-7.5c0-0.5-0.3-0.7-0.7-0.7c-0.4,0-0.8,0.1-1,0.2v7.9h-2.9V21.1l2.9-0.4v5.5c0.6-0.5,1.6-0.9,2.4-0.9
		c1.5,0,2.3,0.7,2.3,2.3v8.6H147.8z"/>
	<path d="M157.6,36.1c-0.6,0.2-1.3,0.4-2.2,0.4c-2,0-2.6-1.1-2.6-2.7v-5.6h-1.1v-2.6h1.1v-2.8l2.9-0.3v3.1h2l-0.1,2.6h-1.9v5.1
		c0,0.4,0.2,0.6,0.7,0.6c0.4,0,0.7,0,0.9-0.1L157.6,36.1z"/>
</g>
<g class="st0">
	<path d="M54.6,55.1c0-2.5,1.3-3.4,3.3-3.4c0.6,0,1.3,0.1,1.7,0.3v-4.4l2.9-0.4v15.5h-2.3l-0.3-0.8c-0.6,0.5-1.5,1-2.6,1
		c-2,0-2.8-1.1-2.8-3.1V55.1z M59.5,54.4c-0.2-0.1-0.6-0.1-0.9-0.1c-0.7,0-1.1,0.3-1.1,1.1v4.2c0,0.5,0.2,0.8,0.9,0.8
		c0.5,0,0.9-0.1,1.2-0.3V54.4z"/>
	<path d="M66.9,58.4v0.5c0,1.1,0.4,1.5,1.7,1.5c0.9,0,1.8-0.2,2.3-0.5l0.4,2.2c-0.8,0.4-2.1,0.7-3.3,0.7c-2.8,0-4.1-1.4-4.1-3.9
		v-3.4c0-2.6,1.4-3.9,3.9-3.9c2.7,0,3.7,1.5,3.7,3.9v2.8H66.9z M68.7,55c0-0.7-0.3-1-0.9-1c-0.6,0-0.9,0.3-0.9,1.1v1.1h1.8V55z"/>
	<path d="M75.7,62.8c-1,0-2.2-0.2-3.1-0.5l0.4-2.4c0.7,0.3,1.6,0.4,2.5,0.4c0.7,0,1.1-0.2,1.1-0.8c0-0.6-0.2-0.6-1.2-0.9
		c-2.4-0.8-2.8-1.4-2.8-3.7c0-2.5,1.3-3.3,3.7-3.3c1.1,0,2.1,0.2,2.9,0.5l-0.4,2.4c-0.6-0.2-1.5-0.5-2.3-0.5c-0.8,0-1.1,0.2-1.1,0.8
		c0,0.5,0.2,0.7,1.1,0.9c2.2,0.7,2.9,1.1,2.9,3.5C79.4,61.4,78.3,62.8,75.7,62.8z"/>
	<path d="M80.6,50.8v-3.2h2.9v3.2H80.6z M80.6,62.6V51.9h2.9v10.7H80.6z"/>
	<path d="M92.4,55.9c0,2.6-1.3,3.8-3.7,3.8c-0.1,0.2-0.2,0.4-0.2,0.6c0,0.3,0.1,0.4,0.4,0.5l1.3,0.2c1.8,0.2,2.5,0.9,2.5,2.9
		c0,2.3-1.4,3.3-4.1,3.3c-1.1,0-2.4-0.2-3.4-0.5l0.4-2.3c1,0.3,2,0.5,3,0.5c1.1,0,1.4-0.2,1.4-0.7c0-0.4-0.2-0.6-0.7-0.6l-1.8-0.2
		c-1.3-0.2-1.9-0.8-1.9-1.9c0-0.8,0.4-1.4,1-1.9c-1.2-0.5-1.8-1.7-1.8-3.4v-0.5c0-2.4,1.3-3.8,3.8-3.8c0.6,0,1.1,0.1,1.5,0.2h3.1
		v1.7l-1.1,0.3c0.1,0.4,0.2,1,0.2,1.5V55.9z M89.5,55.2c0-0.9-0.3-1.2-1-1.2c-0.6,0-1,0.3-1,1.2v1.2c0,0.7,0.3,1,1,1
		c0.7,0,1-0.4,1-1V55.2z"/>
	<path d="M98.6,62.6v-7.5c0-0.5-0.3-0.7-0.7-0.7c-0.4,0-0.8,0.1-1,0.2v7.9h-2.9V51.9h2.4l0.3,0.8c0.7-0.6,1.7-1,2.6-1
		c1.5,0,2.3,0.7,2.3,2.3v8.6H98.6z"/>
	<path d="M106.1,62.8c-1,0-2.2-0.2-3.1-0.5l0.4-2.4c0.7,0.3,1.6,0.4,2.5,0.4c0.7,0,1.1-0.2,1.1-0.8c0-0.6-0.2-0.6-1.2-0.9
		c-2.4-0.8-2.8-1.4-2.8-3.7c0-2.5,1.3-3.3,3.7-3.3c1.1,0,2.1,0.2,2.9,0.5l-0.4,2.4c-0.6-0.2-1.5-0.5-2.3-0.5c-0.8,0-1.1,0.2-1.1,0.8
		c0,0.5,0.2,0.7,1.1,0.9c2.2,0.7,2.9,1.1,2.9,3.5C109.8,61.4,108.7,62.8,106.1,62.8z"/>
</g>
<rect x="165" y="11.2" class="st1" width="2" height="60.8"/>
<g class="st0">
	<path d="M184.8,21.6h4.9c2.2,0,3.3,1,3.3,3.1V26c0,1.3-0.6,2.1-1.8,2.6c1.5,0.3,2.2,1.2,2.2,2.7v1.5c0,2.1-1.2,3.5-3.9,3.5h-4.7
		V21.6z M189,27.5c0.7,0,0.9-0.4,0.9-0.9v-1.6c0-0.6-0.2-0.8-0.8-0.8h-1.3v3.4H189z M189.3,33.7c0.7,0,1-0.4,1-1V31
		c0-0.7-0.4-0.9-1-0.9h-1.5v3.6H189.3z"/>
	<path d="M197.4,32v0.5c0,1.1,0.4,1.5,1.7,1.5c0.9,0,1.8-0.2,2.3-0.5l0.4,2.2c-0.8,0.4-2.1,0.7-3.3,0.7c-2.8,0-4.1-1.4-4.1-3.9v-3.4
		c0-2.6,1.4-3.9,3.9-3.9c2.7,0,3.7,1.5,3.7,3.9V32H197.4z M199.3,28.6c0-0.7-0.3-1-0.9-1c-0.6,0-0.9,0.3-0.9,1.1v1.1h1.8V28.6z"/>
	<path d="M206.2,36.4c-1,0-2.2-0.2-3.1-0.5l0.4-2.4c0.7,0.3,1.6,0.4,2.5,0.4c0.7,0,1.1-0.2,1.1-0.8c0-0.6-0.2-0.6-1.2-0.9
		c-2.4-0.8-2.8-1.4-2.8-3.7c0-2.5,1.3-3.3,3.7-3.3c1.1,0,2.1,0.2,2.9,0.5l-0.4,2.4c-0.6-0.2-1.5-0.5-2.3-0.5c-0.8,0-1.1,0.2-1.1,0.8
		c0,0.5,0.2,0.7,1.1,0.9c2.2,0.7,2.9,1.1,2.9,3.5C209.9,35,208.8,36.4,206.2,36.4z"/>
	<path d="M216.4,36.1c-0.6,0.2-1.3,0.4-2.2,0.4c-2,0-2.6-1.1-2.6-2.7v-5.6h-1.1v-2.6h1.1v-2.8l2.9-0.3v3.1h2l-0.1,2.6h-1.9v5.1
		c0,0.4,0.2,0.6,0.7,0.6c0.4,0,0.7,0,0.9-0.1L216.4,36.1z"/>
	<path d="M217.8,28.7h4.8v2.6h-4.8V28.7z"/>
	<path d="M224.3,24.4v-3.2h2.9v3.2H224.3z M224.3,36.2V25.5h2.9v10.7H224.3z"/>
	<path d="M233.8,36.2v-7.5c0-0.5-0.3-0.7-0.7-0.7c-0.4,0-0.8,0.1-1,0.2v7.9H229V25.5h2.4l0.3,0.8c0.7-0.6,1.7-1,2.6-1
		c1.5,0,2.3,0.7,2.3,2.3v8.6H233.8z"/>
	<path d="M238.3,28.7h4.8v2.6h-4.8V28.7z"/>
	<path d="M244.7,29.3c0-2.4,1-4,3.7-4c1.1,0,2.1,0.2,2.5,0.5l-0.4,2.4c-0.4-0.2-1-0.3-1.5-0.3c-1.1,0-1.4,0.5-1.4,1.4v3.2
		c0,0.9,0.3,1.4,1.4,1.4c0.6,0,1.1-0.1,1.5-0.3l0.4,2.4c-0.4,0.2-1.5,0.5-2.5,0.5c-2.7,0-3.7-1.6-3.7-4V29.3z"/>
	<path d="M252,36.2V21.1l2.9-0.4v15.5H252z"/>
	<path d="M264.2,36.2h-2.4l-0.3-0.8c-0.5,0.5-1.4,1-2.5,1c-2,0-2.7-1.3-2.7-3.4c0-2.3,0.9-3.2,3.2-3.2h1.7v-0.9c0-0.8-0.4-1-1.4-1
		s-1.8,0.2-2.6,0.5l-0.5-2.4c0.9-0.4,2.3-0.7,3.7-0.7c2.4,0,3.6,0.7,3.6,3V36.2z M261.2,32.1h-1.1c-0.6,0-0.8,0.3-0.8,0.9
		c0,0.7,0.2,1,0.9,1c0.4,0,0.8-0.1,1.1-0.2V32.1z"/>
	<path d="M268.6,36.4c-1,0-2.2-0.2-3.1-0.5l0.4-2.4c0.7,0.3,1.6,0.4,2.5,0.4c0.7,0,1.1-0.2,1.1-0.8c0-0.6-0.2-0.6-1.2-0.9
		c-2.4-0.8-2.8-1.4-2.8-3.7c0-2.5,1.3-3.3,3.7-3.3c1.1,0,2.1,0.2,2.9,0.5l-0.4,2.4c-0.6-0.2-1.5-0.5-2.3-0.5c-0.8,0-1.1,0.2-1.1,0.8
		c0,0.5,0.2,0.7,1.1,0.9c2.2,0.7,2.9,1.1,2.9,3.5C272.3,35,271.2,36.4,268.6,36.4z"/>
	<path d="M276.3,36.4c-1,0-2.2-0.2-3.1-0.5l0.4-2.4c0.7,0.3,1.6,0.4,2.5,0.4c0.7,0,1.1-0.2,1.1-0.8c0-0.6-0.2-0.6-1.2-0.9
		c-2.4-0.8-2.8-1.4-2.8-3.7c0-2.5,1.3-3.3,3.7-3.3c1.1,0,2.1,0.2,2.9,0.5l-0.4,2.4c-0.6-0.2-1.5-0.5-2.3-0.5c-0.8,0-1.1,0.2-1.1,0.8
		c0,0.5,0.2,0.7,1.1,0.9c2.2,0.7,2.9,1.1,2.9,3.5C280,35,278.9,36.4,276.3,36.4z"/>
</g>
<g class="st0">
	<path d="M194.3,59.4c0,2.5-1.3,3.4-3.3,3.4c-0.6,0-1.3-0.1-1.7-0.3v4.4l-2.9,0.4V51.9h2.3l0.3,0.8c0.6-0.5,1.5-1,2.5-1
		c1.9,0,2.8,1,2.8,3.1V59.4z M190.5,54.2c-0.5,0-0.9,0.1-1.2,0.3v5.7c0.2,0.1,0.5,0.1,0.9,0.1c0.7,0,1.1-0.2,1.1-1.1v-4.2
		C191.4,54.5,191.1,54.2,190.5,54.2z"/>
	<path d="M198.4,58.4v0.5c0,1.1,0.4,1.5,1.7,1.5c0.9,0,1.8-0.2,2.3-0.5l0.4,2.2c-0.8,0.4-2.1,0.7-3.3,0.7c-2.8,0-4.1-1.4-4.1-3.9
		v-3.4c0-2.6,1.4-3.9,3.9-3.9c2.7,0,3.7,1.5,3.7,3.9v2.8H198.4z M200.3,55c0-0.7-0.3-1-0.9-1c-0.6,0-0.9,0.3-0.9,1.1v1.1h1.8V55z"/>
	<path d="M209.7,54.8c-0.9,0.1-1.6,0.3-2.4,0.6v7.3h-2.9V51.9h2.4l0.3,1.1c0.7-0.7,1.5-1.1,2.4-1.2L209.7,54.8z"/>
	<path d="M215.8,49.8c-0.4-0.1-0.8-0.2-1.1-0.2c-0.5,0-0.7,0.2-0.7,0.7v1.5h1.7l-0.1,2.6H214v8.2H211v-8.2h-1v-2.6h1v-1.7
		c0-2.1,0.9-3.1,3-3.1c0.9,0,1.6,0.2,2.1,0.4L215.8,49.8z"/>
	<path d="M220.1,62.8c-2.7,0-4-1.5-4-3.7v-3.7c0-2.3,1.3-3.7,4-3.7s4,1.5,4,3.7v3.7C224.2,61.4,222.9,62.8,220.1,62.8z M221.2,55
		c0-0.6-0.4-0.9-1.1-0.9S219,54.4,219,55v4.4c0,0.6,0.4,0.9,1.1,0.9s1.1-0.3,1.1-0.9V55z"/>
	<path d="M230.9,54.8c-0.9,0.1-1.6,0.3-2.4,0.6v7.3h-2.9V51.9h2.4l0.3,1.1c0.7-0.7,1.5-1.1,2.4-1.2L230.9,54.8z"/>
	<path d="M240.9,62.6v-7.5c0-0.5-0.3-0.7-0.7-0.7c-0.3,0-0.6,0.1-0.9,0.2v8h-2.9v-7.5c0-0.5-0.3-0.7-0.7-0.7c-0.3,0-0.6,0.1-0.9,0.2
		v8h-2.9V51.9h2.4l0.3,0.8c0.6-0.6,1.5-1,2.5-1c1,0,1.7,0.3,2,1c0.6-0.5,1.5-1,2.6-1c1.5,0,2.3,0.7,2.3,2.3v8.6H240.9z"/>
	<path d="M252.9,62.6h-2.4l-0.3-0.8c-0.5,0.5-1.4,1-2.5,1c-2,0-2.7-1.3-2.7-3.4c0-2.3,0.9-3.2,3.2-3.2h1.7v-0.9c0-0.8-0.4-1-1.4-1
		s-1.8,0.2-2.6,0.5l-0.5-2.4c0.9-0.4,2.3-0.7,3.7-0.7c2.4,0,3.6,0.7,3.6,3V62.6z M249.9,58.5h-1.1c-0.6,0-0.8,0.3-0.8,0.9
		c0,0.7,0.2,1,0.9,1c0.4,0,0.8-0.1,1.1-0.2V58.5z"/>
	<path d="M259.1,62.6v-7.5c0-0.5-0.3-0.7-0.7-0.7c-0.4,0-0.8,0.1-1,0.2v7.9h-2.9V51.9h2.4l0.3,0.8c0.7-0.6,1.7-1,2.6-1
		c1.5,0,2.3,0.7,2.3,2.3v8.6H259.1z"/>
	<path d="M263.4,55.7c0-2.4,1-4,3.7-4c1.1,0,2.1,0.2,2.5,0.5l-0.4,2.4c-0.4-0.2-1-0.3-1.5-0.3c-1.1,0-1.4,0.5-1.4,1.4v3.2
		c0,0.9,0.3,1.4,1.4,1.4c0.6,0,1.1-0.1,1.5-0.3l0.4,2.4c-0.4,0.2-1.5,0.5-2.5,0.5c-2.7,0-3.7-1.6-3.7-4V55.7z"/>
	<path d="M273.3,58.4v0.5c0,1.1,0.4,1.5,1.7,1.5c0.9,0,1.8-0.2,2.3-0.5l0.4,2.2c-0.8,0.4-2.1,0.7-3.3,0.7c-2.8,0-4.1-1.4-4.1-3.9
		v-3.4c0-2.6,1.4-3.9,3.9-3.9c2.7,0,3.7,1.5,3.7,3.9v2.8H273.3z M275.1,55c0-0.7-0.3-1-0.9-1c-0.6,0-0.9,0.3-0.9,1.1v1.1h1.8V55z"/>
</g>
<g class="st0">
	<path d="M280.7,52.6l1.4-1.9c0.4-0.5,0.5-0.7,0.5-1.2V49c0-0.3-0.2-0.5-0.6-0.5c-0.4,0-0.7,0.1-1,0.2l-0.2-1
		c0.4-0.2,0.9-0.3,1.5-0.3c1,0,1.5,0.4,1.5,1.4v0.4c0,0.9-0.2,1.3-0.7,1.9l-1,1.2h1.7v1h-3.1V52.6z"/>
</g>
<g class="st0">
	<path d="M326,16.5l-1.7,1.4l-1.5-2.1l3.8-3.3h2.5v14.7h-3V16.5z"/>
	<path d="M331.2,24.5c0.7,0.2,1.6,0.4,2.4,0.4c1.4,0,1.9-0.6,1.9-1.7v-0.7c0-1.1-0.5-1.5-1.6-1.5h-2.7v-8.5h6.8v2.6h-3.8v3.3h0.5
		c2.4,0,3.7,1.1,3.7,3.8v1c0,2.7-1.5,4.2-4.5,4.2c-1.1,0-2.3-0.2-3.1-0.5L331.2,24.5z"/>
	<path d="M349.8,21.7l1.3-9.1h3.1l-2.6,14.7h-2.9l-2-8.8l-2,8.8h-2.9l-2.6-14.7h3.1l1.3,9.1l1.7-9.1h2.9L349.8,21.7z"/>
	<path d="M367.2,24c0,2.5-1.3,3.4-3.3,3.4c-0.6,0-1.3-0.1-1.7-0.3v4.4l-2.9,0.4V16.5h2.3l0.3,0.8c0.6-0.5,1.5-1,2.5-1
		c1.9,0,2.8,1,2.8,3.1V24z M363.4,18.8c-0.5,0-0.9,0.1-1.2,0.3v5.7c0.2,0.1,0.5,0.1,0.9,0.1c0.7,0,1.1-0.2,1.1-1.1v-4.2
		C364.3,19.1,364,18.8,363.4,18.8z"/>
	<path d="M374,19.4c-0.9,0.1-1.6,0.3-2.4,0.6v7.3h-2.9V16.5h2.4l0.3,1.1c0.7-0.7,1.5-1.1,2.4-1.2L374,19.4z"/>
	<path d="M378.6,27.4c-2.7,0-4-1.5-4-3.7V20c0-2.3,1.3-3.7,4-3.7s4,1.5,4,3.7v3.7C382.6,26,381.3,27.4,378.6,27.4z M379.7,19.6
		c0-0.6-0.4-0.9-1.1-0.9c-0.7,0-1.1,0.3-1.1,0.9v4.4c0,0.6,0.4,0.9,1.1,0.9c0.7,0,1.1-0.3,1.1-0.9V19.6z"/>
	<path d="M383.8,20.3c0-2.4,1-4,3.7-4c1.1,0,2.1,0.2,2.5,0.5l-0.4,2.4c-0.4-0.2-1-0.3-1.5-0.3c-1.1,0-1.4,0.5-1.4,1.4v3.2
		c0,0.9,0.3,1.4,1.4,1.4c0.6,0,1.1-0.1,1.5-0.3L390,27c-0.4,0.2-1.5,0.5-2.5,0.5c-2.7,0-3.7-1.6-3.7-4V20.3z"/>
	<path d="M393.7,23v0.5c0,1.1,0.4,1.5,1.7,1.5c0.9,0,1.8-0.2,2.3-0.5l0.4,2.2c-0.8,0.4-2.1,0.7-3.3,0.7c-2.8,0-4.1-1.4-4.1-3.9v-3.4
		c0-2.6,1.4-3.9,3.9-3.9c2.7,0,3.7,1.5,3.7,3.9V23H393.7z M395.5,19.6c0-0.7-0.3-1-0.9-1c-0.6,0-0.9,0.3-0.9,1.1v1.1h1.8V19.6z"/>
	<path d="M402.5,27.4c-1,0-2.2-0.2-3.1-0.5l0.4-2.4c0.7,0.3,1.6,0.4,2.5,0.4c0.7,0,1.1-0.2,1.1-0.8c0-0.6-0.2-0.6-1.2-0.9
		c-2.4-0.8-2.8-1.4-2.8-3.7c0-2.5,1.3-3.3,3.7-3.3c1.1,0,2.1,0.2,2.9,0.5l-0.4,2.4c-0.6-0.2-1.5-0.5-2.3-0.5c-0.8,0-1.1,0.2-1.1,0.8
		c0,0.5,0.2,0.7,1.1,0.9c2.2,0.7,2.9,1.1,2.9,3.5C406.1,26,405,27.4,402.5,27.4z"/>
	<path d="M410.2,27.4c-1,0-2.2-0.2-3.1-0.5l0.4-2.4c0.7,0.3,1.6,0.4,2.5,0.4c0.7,0,1.1-0.2,1.1-0.8c0-0.6-0.2-0.6-1.2-0.9
		c-2.4-0.8-2.8-1.4-2.8-3.7c0-2.5,1.3-3.3,3.7-3.3c1.1,0,2.1,0.2,2.9,0.5l-0.4,2.4c-0.6-0.2-1.5-0.5-2.3-0.5c-0.8,0-1.1,0.2-1.1,0.8
		c0,0.5,0.2,0.7,1.1,0.9c2.2,0.7,2.9,1.1,2.9,3.5C413.9,26,412.8,27.4,410.2,27.4z"/>
	<path d="M418.9,27.4c-2.7,0-4-1.5-4-3.7V20c0-2.3,1.3-3.7,4-3.7s4,1.5,4,3.7v3.7C422.9,26,421.6,27.4,418.9,27.4z M420,19.6
		c0-0.6-0.4-0.9-1.1-0.9c-0.7,0-1.1,0.3-1.1,0.9v4.4c0,0.6,0.4,0.9,1.1,0.9c0.7,0,1.1-0.3,1.1-0.9V19.6z"/>
	<path d="M429.7,19.4c-0.9,0.1-1.6,0.3-2.4,0.6v7.3h-2.9V16.5h2.4l0.3,1.1c0.7-0.7,1.5-1.1,2.4-1.2L429.7,19.4z"/>
	<path d="M433.4,27.4c-1,0-2.2-0.2-3.1-0.5l0.4-2.4c0.7,0.3,1.6,0.4,2.5,0.4c0.7,0,1.1-0.2,1.1-0.8c0-0.6-0.2-0.6-1.2-0.9
		c-2.4-0.8-2.8-1.4-2.8-3.7c0-2.5,1.3-3.3,3.7-3.3c1.1,0,2.1,0.2,2.9,0.5l-0.4,2.4c-0.6-0.2-1.5-0.5-2.3-0.5c-0.8,0-1.1,0.2-1.1,0.8
		c0,0.5,0.2,0.7,1.1,0.9c2.2,0.7,2.9,1.1,2.9,3.5C437.1,26,436,27.4,433.4,27.4z"/>
</g>
<g class="st0">
	<path d="M324.8,53.5c-0.6,0.2-1.3,0.4-2.2,0.4c-2,0-2.6-1.1-2.6-2.7v-5.6h-1.1v-2.6h1.1v-2.8l2.9-0.3v3.1h2l-0.1,2.6h-1.9v5.1
		c0,0.4,0.2,0.6,0.7,0.6c0.4,0,0.7,0,0.9-0.1L324.8,53.5z"/>
	<path d="M330.6,53.6v-7.5c0-0.5-0.3-0.7-0.7-0.7c-0.4,0-0.8,0.1-1,0.2v7.9h-2.9V38.5l2.9-0.4v5.5c0.6-0.5,1.6-0.9,2.4-0.9
		c1.5,0,2.3,0.7,2.3,2.3v8.6H330.6z"/>
	<path d="M342.6,53.6h-2.4l-0.3-0.8c-0.5,0.5-1.4,1-2.5,1c-2,0-2.7-1.3-2.7-3.4c0-2.3,0.9-3.2,3.2-3.2h1.7v-0.9c0-0.8-0.4-1-1.4-1
		c-1,0-1.8,0.2-2.6,0.5l-0.5-2.4c0.9-0.4,2.3-0.7,3.7-0.7c2.4,0,3.6,0.7,3.6,3V53.6z M339.7,49.5h-1.1c-0.6,0-0.8,0.3-0.8,0.9
		c0,0.7,0.2,1,0.9,1c0.4,0,0.8-0.1,1.1-0.2V49.5z"/>
	<path d="M349.4,53.5c-0.6,0.2-1.3,0.4-2.2,0.4c-2,0-2.6-1.1-2.6-2.7v-5.6h-1.1v-2.6h1.1v-2.8l2.9-0.3v3.1h2l-0.1,2.6h-1.9v5.1
		c0,0.4,0.2,0.6,0.7,0.6c0.4,0,0.7,0,0.9-0.1L349.4,53.5z"/>
	<path d="M357.3,49.4v0.5c0,1.1,0.4,1.5,1.7,1.5c0.9,0,1.8-0.2,2.3-0.5l0.4,2.2c-0.8,0.4-2.1,0.7-3.3,0.7c-2.8,0-4.1-1.4-4.1-3.9
		v-3.4c0-2.6,1.4-3.9,3.9-3.9c2.7,0,3.7,1.5,3.7,3.9v2.8H357.3z M359.1,46c0-0.7-0.3-1-0.9-1c-0.6,0-0.9,0.3-0.9,1.1v1.1h1.8V46z"/>
	<path d="M367.9,53.6v-7.5c0-0.5-0.3-0.7-0.7-0.7c-0.4,0-0.8,0.1-1,0.2v7.9h-2.9V42.9h2.4l0.3,0.8c0.7-0.6,1.7-1,2.6-1
		c1.5,0,2.3,0.7,2.3,2.3v8.6H367.9z"/>
	<path d="M379.9,53.6h-2.4l-0.3-0.8c-0.5,0.5-1.4,1-2.5,1c-2,0-2.7-1.3-2.7-3.4c0-2.3,0.9-3.2,3.2-3.2h1.7v-0.9c0-0.8-0.4-1-1.4-1
		c-1,0-1.8,0.2-2.6,0.5l-0.5-2.4c0.9-0.4,2.3-0.7,3.7-0.7c2.4,0,3.6,0.7,3.6,3V53.6z M377,49.5h-1.1c-0.6,0-0.8,0.3-0.8,0.9
		c0,0.7,0.2,1,0.9,1c0.4,0,0.8-0.1,1.1-0.2V49.5z"/>
	<path d="M389.4,50.1c0,2.6-1.6,3.7-4.3,3.7c-1.2,0-2.7-0.2-3.6-0.5V38.5l2.9-0.4v5.3c0.5-0.4,1.5-0.7,2.3-0.7
		c1.8,0,2.7,0.9,2.7,2.9V50.1z M386.4,46c0-0.5-0.2-0.8-0.9-0.8c-0.4,0-0.8,0.1-1.1,0.2v5.8c0.2,0.1,0.5,0.1,0.8,0.1
		c0.7,0,1.2-0.3,1.2-1.1V46z"/>
	<path d="M390.9,53.6V38.5l2.9-0.4v15.5H390.9z"/>
	<path d="M398.2,49.4v0.5c0,1.1,0.4,1.5,1.7,1.5c0.9,0,1.8-0.2,2.3-0.5l0.4,2.2c-0.8,0.4-2.1,0.7-3.3,0.7c-2.8,0-4.1-1.4-4.1-3.9
		v-3.4c0-2.6,1.4-3.9,3.9-3.9c2.7,0,3.7,1.5,3.7,3.9v2.8H398.2z M400.1,46c0-0.7-0.3-1-0.9-1c-0.6,0-0.9,0.3-0.9,1.1v1.1h1.8V46z"/>
	<path d="M408.3,53.6V38.5l2.9-0.4v15.5H408.3z"/>
	<path d="M416.8,53.8c-2.7,0-4-1.5-4-3.7v-3.7c0-2.3,1.3-3.7,4-3.7s4,1.5,4,3.7v3.7C420.8,52.4,419.5,53.8,416.8,53.8z M417.9,46
		c0-0.6-0.4-0.9-1.1-0.9c-0.7,0-1.1,0.3-1.1,0.9v4.4c0,0.6,0.4,0.9,1.1,0.9c0.7,0,1.1-0.3,1.1-0.9V46z"/>
	<path d="M427,53.6v-7.5c0-0.5-0.3-0.7-0.7-0.7c-0.4,0-0.8,0.1-1,0.2v7.9h-2.9V42.9h2.4l0.3,0.8c0.7-0.6,1.7-1,2.6-1
		c1.5,0,2.3,0.7,2.3,2.3v8.6H427z"/>
	<path d="M438.6,46.9c0,2.6-1.3,3.8-3.7,3.8c-0.1,0.2-0.2,0.4-0.2,0.6c0,0.3,0.1,0.4,0.4,0.5l1.3,0.2c1.8,0.2,2.5,0.9,2.5,2.9
		c0,2.3-1.4,3.3-4.1,3.3c-1.1,0-2.4-0.2-3.4-0.5l0.4-2.3c1,0.3,2,0.5,3,0.5c1.1,0,1.4-0.2,1.4-0.7c0-0.4-0.2-0.6-0.7-0.6l-1.8-0.2
		c-1.3-0.2-1.9-0.8-1.9-1.9c0-0.8,0.4-1.4,1-1.9c-1.2-0.5-1.8-1.7-1.8-3.4v-0.5c0-2.4,1.3-3.8,3.8-3.8c0.6,0,1.1,0.1,1.5,0.2h3.1
		v1.7l-1.1,0.3c0.1,0.4,0.2,1,0.2,1.5V46.9z M435.8,46.2c0-0.9-0.3-1.2-1-1.2s-1,0.3-1,1.2v1.2c0,0.7,0.3,1,1,1s1-0.4,1-1V46.2z"/>
	<path d="M346.7,76.5c0,2.6-1.6,3.7-4.3,3.7c-1.2,0-2.7-0.2-3.6-0.5V64.9l2.9-0.4v5.3c0.5-0.4,1.5-0.7,2.3-0.7
		c1.8,0,2.7,0.9,2.7,2.9V76.5z M343.7,72.4c0-0.5-0.2-0.8-0.9-0.8c-0.4,0-0.8,0.1-1.1,0.2v5.8c0.2,0.1,0.5,0.1,0.8,0.1
		c0.7,0,1.2-0.3,1.2-1.1V72.4z"/>
	<path d="M355.5,80h-2.4l-0.3-0.8c-0.5,0.5-1.4,1-2.5,1c-2,0-2.7-1.3-2.7-3.4c0-2.3,0.9-3.2,3.2-3.2h1.7v-0.9c0-0.8-0.4-1-1.4-1
		c-1,0-1.8,0.2-2.6,0.5l-0.5-2.4c0.9-0.4,2.3-0.7,3.7-0.7c2.4,0,3.6,0.7,3.6,3V80z M352.5,75.9h-1.1c-0.6,0-0.8,0.3-0.8,0.9
		c0,0.7,0.2,1,0.9,1c0.4,0,0.8-0.1,1.1-0.2V75.9z"/>
	<path d="M362.3,79.9c-0.6,0.2-1.3,0.4-2.2,0.4c-2,0-2.6-1.1-2.6-2.7v-5.6h-1.1v-2.6h1.1v-2.8l2.9-0.3v3.1h2l-0.1,2.6h-1.9V77
		c0,0.4,0.2,0.6,0.7,0.6c0.4,0,0.7,0,0.9-0.1L362.3,79.9z"/>
	<path d="M368.6,79.9c-0.6,0.2-1.3,0.4-2.2,0.4c-2,0-2.6-1.1-2.6-2.7v-5.6h-1.1v-2.6h1.1v-2.8l2.9-0.3v3.1h2l-0.1,2.6h-1.9V77
		c0,0.4,0.2,0.6,0.7,0.6c0.4,0,0.7,0,0.9-0.1L368.6,79.9z"/>
	<path d="M372.3,75.8v0.5c0,1.1,0.4,1.5,1.7,1.5c0.9,0,1.8-0.2,2.3-0.5l0.4,2.2c-0.8,0.4-2.1,0.7-3.3,0.7c-2.8,0-4.1-1.4-4.1-3.9V73
		c0-2.6,1.4-3.9,3.9-3.9c2.7,0,3.7,1.5,3.7,3.9v2.8H372.3z M374.2,72.4c0-0.7-0.3-1-0.9-1c-0.6,0-0.9,0.3-0.9,1.1v1.1h1.8V72.4z"/>
	<path d="M383.5,72.2c-0.9,0.1-1.6,0.3-2.4,0.6V80h-2.9V69.3h2.4l0.3,1.1c0.7-0.7,1.5-1.1,2.4-1.2L383.5,72.2z"/>
	<path d="M389.4,69.3h3l-3.4,15.1h-2.8l1-4.3h-0.9L384,69.3h3l1.1,7.6L389.4,69.3z"/>
	<path d="M397.3,80V64.9l2.9-0.4V80H397.3z"/>
	<path d="M402,68.2v-3.2h2.9v3.2H402z M402,80V69.3h2.9V80H402z"/>
	<path d="M411.9,67.2c-0.4-0.1-0.8-0.2-1.1-0.2c-0.5,0-0.7,0.2-0.7,0.7v1.5h1.7l-0.1,2.6H410V80h-2.9v-8.2h-1v-2.6h1v-1.7
		c0-2.1,0.9-3.1,3-3.1c0.9,0,1.6,0.2,2.1,0.4L411.9,67.2z"/>
	<path d="M415.1,75.8v0.5c0,1.1,0.4,1.5,1.7,1.5c0.9,0,1.8-0.2,2.3-0.5l0.4,2.2c-0.8,0.4-2.1,0.7-3.3,0.7c-2.8,0-4.1-1.4-4.1-3.9V73
		c0-2.6,1.4-3.9,3.9-3.9c2.7,0,3.7,1.5,3.7,3.9v2.8H415.1z M416.9,72.4c0-0.7-0.3-1-0.9-1c-0.6,0-0.9,0.3-0.9,1.1v1.1h1.8V72.4z"/>
</g>
<rect x="298" y="11.2" class="st1" width="2" height="60.8"/>
</svg>
