<?xml version="1.0" encoding="utf-8"?>
<!-- Generator: Adobe Illustrator 23.0.2, SVG Export Plug-In . SVG Version: 6.00 Build 0)  -->
<svg version="1.1" id="Layer_1" xmlns="http://www.w3.org/2000/svg" xmlns:xlink="http://www.w3.org/1999/xlink" x="0px" y="0px"
	 viewBox="0 0 460 70" style="enable-background:new 0 0 460 70;" xml:space="preserve">
<style type="text/css">
	.st0{enable-background:new    ;}
	.st1{fill:#EF6620;}
</style>
<path d="M28.9,11.9h3.9l3.7,16.8H33l-0.6-3.4h-3.1l-0.6,3.4h-3.5L28.9,11.9z M31.9,22.2l-1.1-6.7l-1.1,6.7H31.9z"/>
<path d="M38,11.9h3.6l3.1,9.4l3.1-9.4h3.6l0.4,16.8h-3.4l-0.1-9.4l-2,5.9H43l-2-5.9l-0.1,9.4h-3.4L38,11.9z"/>
<path d="M54,11.9h5.3c3.3,0,4.8,1.5,4.8,5.1v6.6c0,3.6-1.5,5.1-4.8,5.1H54V11.9z M59,25.6c1.3,0,1.6-0.5,1.6-1.9v-6.9
	c0-1.3-0.4-1.9-1.6-1.9h-1.5v10.6L59,25.6L59,25.6z"/>
<path d="M81,18.3c0,1.6-0.7,3-2.1,3.7l2.8,6.6h-3.9l-2.3-6.1h-1.1v6.1h-3.5V11.9h5.6c3.2,0,4.5,1.3,4.5,4.3V18.3z M76.2,14.9h-1.8
	v4.6h1.8c0.9,0,1.3-0.4,1.3-1.3v-2C77.5,15.3,77.1,14.9,76.2,14.9z"/>
<path d="M88.2,16.4h3.4l-3.9,17.2h-3.2l1.2-5h-1l-2.6-12.3h3.4l1.3,8.7L88.2,16.4z"/>
<path d="M92.2,16.4h7.7v2.4l-4,7.1h4.1v2.7h-7.9v-2.4l4-7.1h-3.9C92.2,19.1,92.2,16.4,92.2,16.4z"/>
<path d="M104.4,23.8v0.6c0,1.2,0.5,1.8,1.9,1.8c1,0,2-0.3,2.7-0.6l0.5,2.5c-0.9,0.5-2.4,0.8-3.7,0.8c-3.2,0-4.7-1.6-4.7-4.4v-3.9
	c0-3,1.6-4.5,4.4-4.5c3.1,0,4.2,1.7,4.2,4.5v3.2H104.4z M106.5,20c0-0.8-0.3-1.2-1-1.2s-1.1,0.4-1.1,1.2v1.2h2.1V20z"/>
<path d="M116.6,28.7v-8.5c0-0.5-0.3-0.8-0.9-0.8c-0.5,0-0.9,0.1-1.2,0.3v9.1h-3.4V16.4h2.8l0.3,0.9c0.8-0.7,1.9-1.1,3-1.1
	c1.7,0,2.6,0.8,2.6,2.7v9.8H116.6z"/>
<path d="M122.7,13.3h-1.3V12h4.1v1.3h-1.3v3.6h-1.5V13.3z M126.2,11.9h1.4l1.2,2.7l1.2-2.7h1.4l0.2,5h-1.4l-0.1-2.2l-0.6,1.6h-1.3
	l-0.6-1.6l-0.1,2.2h-1.4L126.2,11.9z"/>
<path d="M138,25.6c1,0.3,1.9,0.5,2.9,0.5c1.3,0,1.9-0.4,1.9-1.6v-1.2c0-1.1-0.5-1.6-1.7-1.6h-2.5v-3h2.5c1.1,0,1.6-0.5,1.6-1.5V16
	c0-1.2-0.6-1.5-1.8-1.5c-0.9,0-1.7,0.2-2.5,0.5l-0.5-2.6c1.1-0.5,2.4-0.7,3.7-0.7c3.3,0,4.5,1.3,4.5,4V17c0,1.6-0.6,2.5-1.9,3.1
	c1.5,0.4,2.1,1.4,2.1,3.1v1.5c0,2.9-1.8,4.2-4.9,4.2c-1.1,0-2.6-0.2-3.8-0.7L138,25.6z"/>
<path d="M153.1,25.6c1,0.3,1.9,0.5,2.9,0.5c1.3,0,1.9-0.4,1.9-1.6v-1.2c0-1.1-0.5-1.6-1.7-1.6h-2.5v-3h2.5c1.1,0,1.6-0.5,1.6-1.5V16
	c0-1.2-0.6-1.5-1.8-1.5c-0.9,0-1.7,0.2-2.5,0.5l-0.5-2.6c1.1-0.5,2.4-0.7,3.7-0.7c3.3,0,4.5,1.3,4.5,4V17c0,1.6-0.6,2.5-1.9,3.1
	c1.5,0.4,2.1,1.4,2.1,3.1v1.5c0,2.9-1.8,4.2-4.9,4.2c-1.1,0-2.6-0.2-3.8-0.7L153.1,25.6z"/>
<path d="M163,26l4-5.5c1-1.4,1.5-2.1,1.5-3.3v-1.3c0-0.9-0.5-1.3-1.6-1.3c-1.2,0-2,0.3-2.9,0.7l-0.6-2.7c1.2-0.6,2.6-0.9,4.1-0.9
	c2.8,0,4.4,1.2,4.4,3.9v1.2c0,2.4-0.5,3.6-2.1,5.5l-2.9,3.5h4.9v3H163V26z"/>
<path d="M173.6,16.2c0-2.6,1.6-4.6,4.9-4.6s4.9,2,4.9,4.6v8.2c0,2.6-1.6,4.6-4.9,4.6s-4.9-2-4.9-4.6V16.2z M178.4,26
	c1,0,1.5-0.5,1.5-1.4v-8.7c0-0.9-0.5-1.4-1.5-1.4s-1.5,0.5-1.5,1.4v8.7C177,25.5,177.5,26,178.4,26z"/>
<path d="M185.3,16.2c0-2.6,1.6-4.6,4.9-4.6s4.9,2,4.9,4.6v8.2c0,2.6-1.6,4.6-4.9,4.6s-4.9-2-4.9-4.6V16.2z M190.2,26
	c1,0,1.5-0.5,1.5-1.4v-8.7c0-0.9-0.5-1.4-1.5-1.4s-1.5,0.5-1.5,1.4v8.7C188.8,25.5,189.3,26,190.2,26z"/>
<path d="M207.4,11.9v12.4c0,2.9-1.6,4.7-5.1,4.7s-5.1-1.8-5.1-4.7V11.9h3.5v12.6c0,1,0.4,1.4,1.6,1.4c1.2,0,1.6-0.5,1.6-1.4V11.9
	H207.4z"/>
<g class="st0">
	<path d="M80.8,54.3h-2.2l-0.1-8.5l-1.9,5.7h-2.2l-1.9-5.7l-0.2,8.5h-2.2l0.3-13.2h2.3l2.7,7.9l2.7-7.9h2.3L80.8,54.3z"/>
	<path d="M89.2,51.3c0,2-1.2,3.2-3.5,3.2c-2.2,0-3.5-1.2-3.5-3.2v-3.6c0-2,1.2-3.2,3.5-3.2c2.3,0,3.5,1.2,3.5,3.2V51.3z M87,47.5
		c0-0.8-0.5-1.2-1.2-1.2c-0.7,0-1.2,0.3-1.2,1.2v4c0,0.8,0.5,1.2,1.2,1.2c0.7,0,1.2-0.3,1.2-1.2V47.5z"/>
	<path d="M97.6,51.3c0,2.2-1.2,3.2-3.7,3.2c-1.1,0-2.2-0.2-3.1-0.4V40.7l2.2-0.3v4.8c0.5-0.4,1.4-0.7,2.2-0.7c1.6,0,2.3,0.8,2.3,2.6
		V51.3z M95.3,47.4c0-0.7-0.2-0.9-1-0.9c-0.5,0-1,0.2-1.3,0.3v5.7c0.2,0.1,0.6,0.1,0.9,0.1c0.9,0,1.4-0.4,1.4-1.2V47.4z"/>
	<path d="M99.1,43.5v-2.7h2.2v2.7H99.1z M99.1,54.3v-9.6h2.2v9.6H99.1z"/>
	<path d="M103.1,54.3V40.7l2.2-0.3v14H103.1z"/>
	<path d="M109.1,50.4v0.7c0,1.1,0.5,1.6,1.7,1.6c0.7,0,1.6-0.2,2.2-0.4l0.3,1.7c-0.8,0.3-1.9,0.5-2.9,0.5c-2.3,0-3.6-1.2-3.6-3.4
		v-3.2c0-2.2,1.2-3.4,3.3-3.4c2.3,0,3.2,1.2,3.2,3.3v2.5L109.1,50.4L109.1,50.4z M111.3,47.6c0-0.8-0.2-1.2-1.1-1.2
		s-1.1,0.4-1.1,1.2v1.1h2.2C111.3,48.6,111.3,47.6,111.3,47.6z"/>
	<path d="M122.7,41.1c2.4,0,3.4,1.1,3.4,3.3v1.7c0,2.1-1.2,3.3-3.5,3.3H121v5h-2.2V41.1H122.7z M123.8,44.4c0-0.9-0.4-1.3-1.2-1.3
		H121v4.3h1.6c0.8,0,1.2-0.4,1.2-1.3V44.4z"/>
	<path d="M131.7,46.8c-0.7,0.2-1.5,0.3-2.2,0.7v6.8h-2.2v-9.6h1.8l0.2,1c0.6-0.6,1.4-1,2.2-1.2L131.7,46.8z"/>
	<path d="M139.4,51.3c0,2-1.2,3.2-3.5,3.2c-2.2,0-3.5-1.2-3.5-3.2v-3.6c0-2,1.2-3.2,3.5-3.2c2.3,0,3.5,1.2,3.5,3.2V51.3z
		 M137.1,47.5c0-0.8-0.5-1.2-1.2-1.2s-1.2,0.3-1.2,1.2v4c0,0.8,0.5,1.2,1.2,1.2c0.7,0,1.2-0.3,1.2-1.2V47.5z"/>
	<path d="M140.6,51.2v-3.4c0-2,0.9-3.3,3.2-3.3c0.9,0,1.6,0.2,2.2,0.4l-0.2,1.8c-0.3-0.2-0.9-0.2-1.4-0.2c-1.1,0-1.4,0.6-1.4,1.5
		v3.2c0,0.9,0.3,1.5,1.4,1.5c0.5,0,1.1-0.1,1.4-0.2l0.2,1.8c-0.6,0.2-1.3,0.4-2.2,0.4C141.5,54.6,140.6,53.2,140.6,51.2z"/>
	<path d="M149.2,50.4v0.7c0,1.1,0.5,1.6,1.7,1.6c0.7,0,1.6-0.2,2.2-0.4l0.3,1.7c-0.8,0.3-1.9,0.5-2.9,0.5c-2.3,0-3.6-1.2-3.6-3.4
		v-3.2c0-2.2,1.2-3.4,3.3-3.4c2.3,0,3.2,1.2,3.2,3.3v2.5L149.2,50.4L149.2,50.4z M151.3,47.6c0-0.8-0.2-1.2-1.1-1.2
		s-1.1,0.4-1.1,1.2v1.1h2.2V47.6z"/>
	<path d="M157.2,54.6c-0.7,0-1.8-0.2-2.7-0.4l0.3-1.8c0.7,0.2,1.3,0.4,2.2,0.4c0.9,0,1.2-0.2,1.2-1c0-0.7-0.2-0.8-1.2-1.2
		c-2.1-0.7-2.5-1.2-2.5-3.2c0-2.1,1.2-2.8,3.2-2.8c0.9,0,1.7,0.2,2.5,0.4l-0.2,1.8c-0.6-0.2-1.3-0.4-2.1-0.4c-0.8,0-1.2,0.2-1.2,0.9
		c0,0.7,0.2,0.7,1.2,1.1c1.9,0.7,2.6,1,2.6,3.1C160.3,53.4,159.3,54.6,157.2,54.6z"/>
	<path d="M163.8,54.6c-0.7,0-1.8-0.2-2.7-0.4l0.3-1.8c0.7,0.2,1.3,0.4,2.2,0.4c0.9,0,1.2-0.2,1.2-1c0-0.7-0.2-0.8-1.2-1.2
		c-2.1-0.7-2.5-1.2-2.5-3.2c0-2.1,1.2-2.8,3.2-2.8c0.9,0,1.7,0.2,2.5,0.4l-0.2,1.8c-0.6-0.2-1.3-0.4-2.1-0.4c-0.8,0-1.2,0.2-1.2,0.9
		c0,0.7,0.2,0.7,1.2,1.1c1.9,0.7,2.6,1,2.6,3.1C167,53.4,166,54.6,163.8,54.6z"/>
	<path d="M175,51.3c0,2-1.2,3.2-3.5,3.2s-3.5-1.2-3.5-3.2v-3.6c0-2,1.2-3.2,3.5-3.2s3.5,1.2,3.5,3.2V51.3z M172.7,47.5
		c0-0.8-0.5-1.2-1.2-1.2s-1.2,0.3-1.2,1.2v4c0,0.8,0.5,1.2,1.2,1.2s1.2-0.3,1.2-1.2V47.5z"/>
	<path d="M180.9,46.8c-0.7,0.2-1.5,0.3-2.2,0.7v6.8h-2.2v-9.6h1.8l0.2,1c0.6-0.6,1.4-1,2.2-1.2L180.9,46.8z"/>
</g>
<path d="M258.4,11.9h3.9l3.7,16.8h-3.5l-0.6-3.4h-3.1l-0.6,3.4h-3.5L258.4,11.9z M261.4,22.2l-1.1-6.7l-1.1,6.7H261.4z"/>
<path d="M267.5,11.9h3.6l3.1,9.4l3.1-9.4h3.6l0.4,16.8H278l-0.1-9.4l-2,5.9h-3.3l-2.1-5.9l-0.1,9.4H267L267.5,11.9z"/>
<path d="M283.5,11.9h5.3c3.3,0,4.8,1.5,4.8,5.1v6.6c0,3.6-1.5,5.1-4.8,5.1h-5.3V11.9z M288.5,25.6c1.3,0,1.6-0.5,1.6-1.9v-6.9
	c0-1.3-0.4-1.9-1.6-1.9H287v10.6L288.5,25.6L288.5,25.6z"/>
<path d="M310.5,18.3c0,1.6-0.7,3-2.1,3.7l2.8,6.6h-3.9l-2.3-6.1h-1.1v6.1h-3.5V11.9h5.6c3.2,0,4.5,1.3,4.5,4.3V18.3z M305.7,14.9
	h-1.8v4.6h1.8c0.9,0,1.3-0.4,1.3-1.3v-2C307,15.3,306.6,14.9,305.7,14.9z"/>
<path d="M317.7,16.4h3.4l-3.9,17.2H314l1.2-5h-1l-2.6-12.3h3.4l1.3,8.7L317.7,16.4z"/>
<path d="M321.7,16.4h7.7v2.4l-4,7.1h4.1v2.7h-7.9v-2.4l4-7.1h-3.9L321.7,16.4L321.7,16.4z"/>
<path d="M333.9,23.8v0.6c0,1.2,0.5,1.8,1.9,1.8c1,0,2-0.3,2.7-0.6l0.5,2.5c-0.9,0.5-2.4,0.8-3.7,0.8c-3.2,0-4.7-1.6-4.7-4.4v-3.9
	c0-3,1.6-4.5,4.4-4.5c3.1,0,4.2,1.7,4.2,4.5v3.2H333.9z M336.1,20c0-0.8-0.3-1.2-1-1.2S334,19.2,334,20v1.2h2.1V20z"/>
<path d="M346.1,28.7v-8.5c0-0.5-0.3-0.8-0.9-0.8c-0.5,0-0.9,0.1-1.2,0.3v9.1h-3.4V16.4h2.8l0.3,0.9c0.8-0.7,1.9-1.1,3-1.1
	c1.7,0,2.6,0.8,2.6,2.7v9.8H346.1z"/>
<path d="M352.3,13.3H351V12h4.1v1.3h-1.3v3.6h-1.5L352.3,13.3L352.3,13.3z M355.8,11.9h1.4l1.2,2.7l1.2-2.7h1.4l0.2,5h-1.4l-0.1-2.2
	l-0.6,1.6h-1.3l-0.6-1.6l-0.1,2.2h-1.4L355.8,11.9z"/>
<path d="M367.5,25.6c1,0.3,1.9,0.5,2.9,0.5c1.3,0,1.9-0.4,1.9-1.6v-1.2c0-1.1-0.5-1.6-1.7-1.6h-2.5v-3h2.5c1.1,0,1.6-0.5,1.6-1.5V16
	c0-1.2-0.6-1.5-1.8-1.5c-0.9,0-1.7,0.2-2.5,0.5l-0.5-2.6c1.1-0.5,2.4-0.7,3.7-0.7c3.3,0,4.5,1.3,4.5,4V17c0,1.6-0.6,2.5-1.9,3.1
	c1.5,0.4,2.1,1.4,2.1,3.1v1.5c0,2.9-1.8,4.2-4.9,4.2c-1.1,0-2.6-0.2-3.8-0.7L367.5,25.6z"/>
<path d="M382.6,25.6c1,0.3,1.9,0.5,2.9,0.5c1.3,0,1.9-0.4,1.9-1.6v-1.2c0-1.1-0.5-1.6-1.7-1.6h-2.5v-3h2.5c1.1,0,1.6-0.5,1.6-1.5V16
	c0-1.2-0.6-1.5-1.8-1.5c-0.9,0-1.7,0.2-2.5,0.5l-0.5-2.6c1.1-0.5,2.4-0.7,3.7-0.7c3.3,0,4.5,1.3,4.5,4V17c0,1.6-0.6,2.5-1.9,3.1
	c1.5,0.4,2.1,1.4,2.1,3.1v1.5c0,2.9-1.8,4.2-4.9,4.2c-1.1,0-2.6-0.2-3.8-0.7L382.6,25.6z"/>
<path d="M392.9,25.6c1,0.3,1.9,0.5,2.9,0.5c1.3,0,1.9-0.4,1.9-1.6v-1.2c0-1.1-0.5-1.6-1.7-1.6h-2.5v-3h2.5c1.1,0,1.6-0.5,1.6-1.5V16
	c0-1.2-0.6-1.5-1.8-1.5c-0.9,0-1.7,0.2-2.5,0.5l-0.5-2.6c1.1-0.5,2.4-0.7,3.7-0.7c3.3,0,4.5,1.3,4.5,4V17c0,1.6-0.6,2.5-1.9,3.1
	c1.5,0.4,2.1,1.4,2.1,3.1v1.5c0,2.9-1.8,4.2-4.9,4.2c-1.1,0-2.6-0.2-3.8-0.7L392.9,25.6z"/>
<path d="M403.1,16.2c0-2.6,1.6-4.6,4.9-4.6s4.9,2,4.9,4.6v8.2c0,2.6-1.6,4.6-4.9,4.6s-4.9-2-4.9-4.6V16.2z M408,26
	c1,0,1.5-0.5,1.5-1.4v-8.7c0-0.9-0.5-1.4-1.5-1.4s-1.5,0.5-1.5,1.4v8.7C406.5,25.5,407,26,408,26z"/>
<path d="M414.9,16.2c0-2.6,1.6-4.6,4.9-4.6s4.9,2,4.9,4.6v8.2c0,2.6-1.6,4.6-4.9,4.6s-4.9-2-4.9-4.6V16.2z M419.7,26
	c1,0,1.5-0.5,1.5-1.4v-8.7c0-0.9-0.5-1.4-1.5-1.4s-1.5,0.5-1.5,1.4v8.7C418.3,25.5,418.8,26,419.7,26z"/>
<path d="M436.9,11.9v12.4c0,2.9-1.6,4.7-5.1,4.7s-5.1-1.8-5.1-4.7V11.9h3.5v12.6c0,1,0.4,1.4,1.6,1.4s1.6-0.5,1.6-1.4V11.9H436.9z"
	/>
<g class="st0">
	<path d="M310.6,55.4h-2.2l-0.1-8.5l-1.9,5.7h-2.2l-1.9-5.7l-0.2,8.5h-2.2l0.3-13.2h2.3l2.7,7.9l2.7-7.9h2.3L310.6,55.4z"/>
	<path d="M319,52.4c0,2-1.2,3.2-3.5,3.2c-2.3,0-3.5-1.2-3.5-3.2v-3.6c0-2,1.2-3.2,3.5-3.2c2.3,0,3.5,1.2,3.5,3.2V52.4z M316.8,48.6
		c0-0.8-0.5-1.2-1.2-1.2c-0.7,0-1.2,0.3-1.2,1.2v4.1c0,0.8,0.5,1.2,1.2,1.2c0.7,0,1.2-0.3,1.2-1.2V48.6z"/>
	<path d="M327.3,52.4c0,2.2-1.2,3.2-3.7,3.2c-1.1,0-2.2-0.2-3.1-0.4V41.7l2.2-0.3v4.8c0.5-0.4,1.4-0.7,2.2-0.7
		c1.6,0,2.3,0.8,2.3,2.6V52.4z M325.1,48.5c0-0.7-0.2-0.9-1-0.9c-0.5,0-1,0.2-1.3,0.3v5.7c0.2,0.1,0.6,0.1,0.9,0.1
		c0.9,0,1.4-0.4,1.4-1.2V48.5z"/>
	<path d="M328.9,44.6v-2.7h2.2v2.7H328.9z M328.9,55.4v-9.7h2.2v9.7C331.2,55.4,328.9,55.4,328.9,55.4z"/>
	<path d="M332.9,55.4V41.7l2.2-0.3v14H332.9z"/>
	<path d="M338.9,51.4v0.7c0,1.1,0.5,1.6,1.7,1.6c0.7,0,1.6-0.2,2.2-0.4l0.3,1.7c-0.8,0.3-1.9,0.5-2.9,0.5c-2.3,0-3.6-1.2-3.6-3.4
		v-3.2c0-2.2,1.2-3.4,3.3-3.4c2.3,0,3.2,1.2,3.2,3.3v2.5L338.9,51.4L338.9,51.4z M341.1,48.6c0-0.8-0.2-1.2-1.1-1.2
		s-1.1,0.4-1.1,1.2v1.1h2.2L341.1,48.6L341.1,48.6z"/>
	<path d="M352.5,42.1c2.4,0,3.4,1.1,3.4,3.3v1.7c0,2.1-1.2,3.3-3.5,3.3h-1.7v5h-2.2V42.1H352.5z M353.6,45.5c0-0.9-0.4-1.3-1.2-1.3
		h-1.6v4.3h1.6c0.8,0,1.2-0.4,1.2-1.3V45.5z"/>
	<path d="M361.5,47.9c-0.7,0.2-1.5,0.3-2.2,0.7v6.8H357v-9.7h1.8l0.2,1c0.6-0.6,1.4-1,2.2-1.2L361.5,47.9z"/>
	<path d="M369.1,52.4c0,2-1.2,3.2-3.5,3.2c-2.3,0-3.5-1.2-3.5-3.2v-3.6c0-2,1.2-3.2,3.5-3.2c2.3,0,3.5,1.2,3.5,3.2V52.4z
		 M366.9,48.6c0-0.8-0.5-1.2-1.2-1.2c-0.7,0-1.2,0.3-1.2,1.2v4.1c0,0.8,0.5,1.2,1.2,1.2c0.7,0,1.2-0.3,1.2-1.2V48.6z"/>
	<path d="M370.4,52.3v-3.4c0-2,0.9-3.3,3.2-3.3c0.9,0,1.6,0.2,2.2,0.4l-0.2,1.8c-0.3-0.2-0.9-0.2-1.4-0.2c-1.1,0-1.4,0.6-1.4,1.5
		v3.2c0,0.9,0.3,1.5,1.4,1.5c0.5,0,1.1-0.1,1.4-0.2l0.2,1.8c-0.6,0.2-1.3,0.4-2.2,0.4C371.3,55.6,370.4,54.3,370.4,52.3z"/>
	<path d="M378.9,51.4v0.7c0,1.1,0.5,1.6,1.7,1.6c0.7,0,1.6-0.2,2.2-0.4l0.3,1.7c-0.8,0.3-1.9,0.5-2.9,0.5c-2.3,0-3.6-1.2-3.6-3.4
		v-3.2c0-2.2,1.2-3.4,3.3-3.4c2.3,0,3.2,1.2,3.2,3.3v2.5L378.9,51.4L378.9,51.4z M381.1,48.6c0-0.8-0.2-1.2-1.1-1.2
		s-1.1,0.4-1.1,1.2v1.1h2.2L381.1,48.6L381.1,48.6z"/>
	<path d="M386.9,55.6c-0.7,0-1.8-0.2-2.7-0.4l0.3-1.8c0.7,0.2,1.3,0.4,2.2,0.4c0.9,0,1.2-0.2,1.2-1c0-0.7-0.2-0.8-1.2-1.2
		c-2.1-0.7-2.5-1.2-2.5-3.2c0-2.1,1.2-2.8,3.2-2.8c0.9,0,1.7,0.2,2.5,0.4l-0.2,1.8c-0.6-0.2-1.3-0.4-2.1-0.4c-0.8,0-1.2,0.2-1.2,0.9
		s0.2,0.7,1.2,1.1c1.9,0.7,2.6,1,2.6,3.1C390.1,54.5,389.1,55.6,386.9,55.6z"/>
	<path d="M393.6,55.6c-0.7,0-1.8-0.2-2.7-0.4l0.3-1.8c0.7,0.2,1.3,0.4,2.2,0.4c0.9,0,1.2-0.2,1.2-1c0-0.7-0.2-0.8-1.2-1.2
		c-2.1-0.7-2.5-1.2-2.5-3.2c0-2.1,1.2-2.8,3.2-2.8c0.9,0,1.7,0.2,2.5,0.4l-0.2,1.8c-0.6-0.2-1.3-0.4-2.1-0.4c-0.8,0-1.2,0.2-1.2,0.9
		s0.2,0.7,1.2,1.1c1.9,0.7,2.6,1,2.6,3.1C396.7,54.5,395.8,55.6,393.6,55.6z"/>
	<path d="M404.7,52.4c0,2-1.2,3.2-3.5,3.2c-2.3,0-3.5-1.2-3.5-3.2v-3.6c0-2,1.2-3.2,3.5-3.2s3.5,1.2,3.5,3.2V52.4z M402.5,48.6
		c0-0.8-0.5-1.2-1.2-1.2c-0.7,0-1.2,0.3-1.2,1.2v4.1c0,0.8,0.5,1.2,1.2,1.2c0.7,0,1.2-0.3,1.2-1.2V48.6z"/>
	<path d="M410.6,47.9c-0.7,0.2-1.5,0.3-2.2,0.7v6.8h-2.2v-9.7h1.8l0.2,1c0.6-0.6,1.4-1,2.2-1.2L410.6,47.9z"/>
</g>
<rect x="229" y="4.7" class="st1" width="2" height="60.8"/>
</svg>
