<?xml version="1.0" encoding="utf-8"?>
<!-- Generator: Adobe Illustrator 23.0.3, SVG Export Plug-In . SVG Version: 6.00 Build 0)  -->
<svg version="1.1" id="Layer_1" xmlns="http://www.w3.org/2000/svg" xmlns:xlink="http://www.w3.org/1999/xlink" x="0px" y="0px"
	 viewBox="0 0 460 90" style="enable-background:new 0 0 460 90;" xml:space="preserve">
<style type="text/css">
	.st0{enable-background:new    ;}
	.st1{fill:#EF6620;}
</style>
<g class="st0">
	<path d="M16.5,24.1h3.4l3.3,14.7H20l-0.5-3h-2.8l-0.5,3h-3.1L16.5,24.1z M19.1,33.1l-0.9-5.9l-0.9,5.9H19.1z"/>
	<path d="M26.8,24.1h3.4l3.3,14.7h-3.1l-0.5-3h-2.8l-0.5,3h-3.1L26.8,24.1z M29.4,33.1l-0.9-5.9l-0.9,5.9H29.4z"/>
	<path d="M37.1,24.1h3.4l3.3,14.7h-3.1l-0.5-3h-2.8l-0.5,3h-3.1L37.1,24.1z M39.7,33.1l-0.9-5.9l-0.9,5.9H39.7z"/>
	<path d="M56.3,38.7h-2.4l-0.3-0.8c-0.5,0.5-1.4,1-2.5,1c-2,0-2.7-1.3-2.7-3.4c0-2.3,0.9-3.2,3.2-3.2h1.7v-0.9c0-0.8-0.4-1-1.4-1
		c-1,0-1.8,0.2-2.6,0.5L49,28.5c0.9-0.4,2.3-0.7,3.7-0.7c2.4,0,3.6,0.7,3.6,3V38.7z M53.3,34.6h-1.1c-0.6,0-0.8,0.3-0.8,0.9
		c0,0.7,0.2,1,0.9,1c0.4,0,0.8-0.1,1.1-0.2V34.6z"/>
	<path d="M62.5,38.7v-7.5c0-0.5-0.3-0.7-0.7-0.7c-0.4,0-0.8,0.1-1,0.2v7.9h-2.9V28h2.4l0.3,0.8c0.7-0.6,1.7-1,2.6-1
		c1.5,0,2.3,0.7,2.3,2.3v8.6H62.5z"/>
	<path d="M66.9,31.2c0-2.5,1.3-3.4,3.3-3.4c0.6,0,1.3,0.1,1.7,0.3v-4.4l2.9-0.4v15.5h-2.3l-0.3-0.8c-0.6,0.5-1.5,1-2.6,1
		c-2,0-2.8-1.1-2.8-3.1V31.2z M71.8,30.5c-0.2-0.1-0.6-0.1-0.9-0.1c-0.7,0-1.1,0.3-1.1,1.1v4.2c0,0.5,0.2,0.8,0.9,0.8
		c0.5,0,0.9-0.1,1.2-0.3V30.5z"/>
	<path d="M83.4,34.5V35c0,1.1,0.4,1.5,1.7,1.5c0.9,0,1.8-0.2,2.3-0.5l0.4,2.2c-0.8,0.4-2.1,0.7-3.3,0.7c-2.8,0-4.1-1.4-4.1-3.9v-3.4
		c0-2.6,1.4-3.9,3.9-3.9c2.7,0,3.7,1.5,3.7,3.9v2.8H83.4z M85.2,31.1c0-0.7-0.3-1-0.9-1c-0.6,0-0.9,0.3-0.9,1.1v1.1h1.8V31.1z"/>
	<path d="M92.2,38.9c-1,0-2.2-0.2-3.1-0.5l0.4-2.4c0.7,0.3,1.6,0.4,2.5,0.4c0.7,0,1.1-0.2,1.1-0.8c0-0.6-0.2-0.6-1.2-0.9
		C89.4,34,89,33.4,89,31.1c0-2.5,1.3-3.3,3.7-3.3c1.1,0,2.1,0.2,2.9,0.5l-0.4,2.4c-0.6-0.2-1.5-0.5-2.3-0.5c-0.8,0-1.1,0.2-1.1,0.8
		c0,0.5,0.2,0.7,1.1,0.9c2.2,0.7,2.9,1.1,2.9,3.5C95.9,37.5,94.8,38.9,92.2,38.9z"/>
	<path d="M105,35.5c0,2.5-1.3,3.4-3.3,3.4c-0.6,0-1.3-0.1-1.7-0.3V43l-2.9,0.4V28h2.3l0.3,0.8c0.6-0.5,1.5-1,2.5-1
		c1.9,0,2.8,1,2.8,3.1V35.5z M101.2,30.3c-0.5,0-0.9,0.1-1.2,0.3v5.7c0.2,0.1,0.5,0.1,0.9,0.1c0.7,0,1.1-0.2,1.1-1.1v-4.2
		C102.1,30.6,101.8,30.3,101.2,30.3z"/>
	<path d="M110.3,38.9c-2.7,0-4-1.5-4-3.7v-3.7c0-2.3,1.3-3.7,4-3.7s4,1.5,4,3.7v3.7C114.3,37.5,113,38.9,110.3,38.9z M111.4,31.1
		c0-0.6-0.4-0.9-1.1-0.9s-1.1,0.3-1.1,0.9v4.4c0,0.6,0.4,0.9,1.1,0.9s1.1-0.3,1.1-0.9V31.1z"/>
	<path d="M121.1,30.9c-0.9,0.1-1.6,0.3-2.4,0.6v7.3h-2.9V28h2.4l0.3,1.1c0.7-0.7,1.5-1.1,2.4-1.2L121.1,30.9z"/>
	<path d="M127.5,38.6c-0.6,0.2-1.3,0.4-2.2,0.4c-2,0-2.6-1.1-2.6-2.7v-5.6h-1.1V28h1.1v-2.8l2.9-0.3V28h2l-0.1,2.6h-1.9v5.1
		c0,0.4,0.2,0.6,0.7,0.6c0.4,0,0.7,0,0.9-0.1L127.5,38.6z"/>
	<path d="M131.4,38.9c-1,0-2.2-0.2-3.1-0.5l0.4-2.4c0.7,0.3,1.6,0.4,2.5,0.4c0.7,0,1.1-0.2,1.1-0.8c0-0.6-0.2-0.6-1.2-0.9
		c-2.4-0.8-2.8-1.4-2.8-3.7c0-2.5,1.3-3.3,3.7-3.3c1.1,0,2.1,0.2,2.9,0.5l-0.4,2.4c-0.6-0.2-1.5-0.5-2.3-0.5c-0.8,0-1.1,0.2-1.1,0.8
		c0,0.5,0.2,0.7,1.1,0.9c2.2,0.7,2.9,1.1,2.9,3.5C135.1,37.5,134,38.9,131.4,38.9z"/>
</g>
<g class="st0">
	<path d="M19.4,58.4c0,2.6-1.3,3.8-3.7,3.8c-0.1,0.2-0.2,0.4-0.2,0.6c0,0.3,0.1,0.4,0.4,0.5l1.3,0.2c1.8,0.2,2.5,0.9,2.5,2.9
		c0,2.3-1.4,3.3-4.1,3.3c-1.1,0-2.4-0.2-3.4-0.5l0.4-2.3c1,0.3,2,0.5,3,0.5c1.1,0,1.4-0.2,1.4-0.7c0-0.4-0.2-0.6-0.7-0.6l-1.8-0.2
		c-1.3-0.2-1.9-0.8-1.9-1.9c0-0.8,0.4-1.4,1-1.9c-1.2-0.5-1.8-1.7-1.8-3.4V58c0-2.4,1.3-3.8,3.8-3.8c0.6,0,1.1,0.1,1.5,0.2h3.1v1.7
		l-1.1,0.3c0.1,0.4,0.2,1,0.2,1.5V58.4z M16.6,57.7c0-0.9-0.3-1.2-1-1.2c-0.6,0-1,0.3-1,1.2v1.2c0,0.7,0.3,1,1,1c0.7,0,1-0.4,1-1
		V57.7z"/>
	<path d="M28.3,65.1H26l-0.3-0.8c-0.5,0.5-1.4,1-2.5,1c-2,0-2.7-1.3-2.7-3.4c0-2.3,0.9-3.2,3.2-3.2h1.7v-0.9c0-0.8-0.4-1-1.4-1
		c-1,0-1.8,0.2-2.6,0.5L21,54.9c0.9-0.4,2.3-0.7,3.7-0.7c2.4,0,3.6,0.7,3.6,3V65.1z M25.4,61h-1.1c-0.6,0-0.8,0.3-0.8,0.9
		c0,0.7,0.2,1,0.9,1c0.4,0,0.8-0.1,1.1-0.2V61z"/>
	<path d="M39,65.1v-7.5c0-0.5-0.3-0.7-0.7-0.7c-0.3,0-0.6,0.1-0.9,0.2v8h-2.9v-7.5c0-0.5-0.3-0.7-0.7-0.7c-0.3,0-0.6,0.1-0.9,0.2v8
		h-2.9V54.4h2.4l0.3,0.8c0.6-0.6,1.5-1,2.5-1c1,0,1.7,0.3,2,1c0.6-0.5,1.5-1,2.6-1c1.5,0,2.3,0.7,2.3,2.3v8.6H39z"/>
	<path d="M43.6,53.3V50h2.9v3.2H43.6z M43.6,65.1V54.4h2.9v10.7H43.6z"/>
	<path d="M53,65.1v-7.5c0-0.5-0.3-0.7-0.7-0.7c-0.4,0-0.8,0.1-1,0.2v7.9h-2.9V54.4h2.4l0.3,0.8c0.7-0.6,1.7-1,2.6-1
		c1.5,0,2.3,0.7,2.3,2.3v8.6H53z"/>
	<path d="M64.6,58.4c0,2.6-1.3,3.8-3.7,3.8c-0.1,0.2-0.2,0.4-0.2,0.6c0,0.3,0.1,0.4,0.4,0.5l1.3,0.2c1.8,0.2,2.5,0.9,2.5,2.9
		c0,2.3-1.4,3.3-4.1,3.3c-1.1,0-2.4-0.2-3.4-0.5l0.4-2.3c1,0.3,2,0.5,3,0.5c1.1,0,1.4-0.2,1.4-0.7c0-0.4-0.2-0.6-0.7-0.6l-1.8-0.2
		c-1.3-0.2-1.9-0.8-1.9-1.9c0-0.8,0.4-1.4,1-1.9c-1.2-0.5-1.8-1.7-1.8-3.4V58c0-2.4,1.3-3.8,3.8-3.8c0.6,0,1.1,0.1,1.5,0.2h3.1v1.7
		l-1.1,0.3c0.1,0.4,0.2,1,0.2,1.5V58.4z M61.7,57.7c0-0.9-0.3-1.2-1-1.2c-0.6,0-1,0.3-1,1.2v1.2c0,0.7,0.3,1,1,1c0.7,0,1-0.4,1-1
		V57.7z"/>
	<path d="M77.7,65.1h-2.4l-0.3-0.8c-0.5,0.5-1.4,1-2.5,1c-2,0-2.7-1.3-2.7-3.4c0-2.3,0.9-3.2,3.2-3.2h1.7v-0.9c0-0.8-0.4-1-1.4-1
		c-1,0-1.8,0.2-2.6,0.5l-0.5-2.4c0.9-0.4,2.3-0.7,3.7-0.7c2.4,0,3.6,0.7,3.6,3V65.1z M74.8,61h-1.1c-0.6,0-0.8,0.3-0.8,0.9
		c0,0.7,0.2,1,0.9,1c0.4,0,0.8-0.1,1.1-0.2V61z"/>
	<path d="M84.5,65c-0.6,0.2-1.3,0.4-2.2,0.4c-2,0-2.6-1.1-2.6-2.7V57h-1.1v-2.6h1.1v-2.8l2.9-0.3v3.1h2L84.5,57h-1.9v5.1
		c0,0.4,0.2,0.6,0.7,0.6c0.4,0,0.7,0,0.9-0.1L84.5,65z"/>
	<path d="M92.2,54.4l-1.7,1.4L89,53.7l3.8-3.3h2.5v14.7h-3V54.4z"/>
	<path d="M97.2,54.2c0-2.3,1.4-4,4.3-4s4.3,1.7,4.3,4v7.1c0,2.3-1.4,4-4.3,4s-4.3-1.7-4.3-4V54.2z M101.5,62.8
		c0.8,0,1.3-0.5,1.3-1.2V54c0-0.7-0.4-1.2-1.3-1.2c-0.8,0-1.3,0.5-1.3,1.2v7.6C100.2,62.3,100.6,62.8,101.5,62.8z"/>
	<path d="M107.4,60.7c0-1.6,0.9-2.5,1.8-3c-1.1-0.8-1.5-1.5-1.5-2.8v-1.2c0-2.2,1.2-3.5,3.9-3.5c2.7,0,3.9,1.3,3.9,3.5v1.2
		c0,1.3-0.5,2-1.5,2.8c0.9,0.6,1.8,1.5,1.8,3v1.3c0,2.4-1.6,3.4-4.1,3.4s-4.1-1.1-4.1-3.4V60.7z M111.6,63c0.9,0,1.2-0.4,1.2-1.2v-1
		c0-0.9-0.2-1.2-1.2-1.9c-1.1,0.7-1.2,1-1.2,1.9v1C110.3,62.7,110.7,63,111.6,63z M112.5,54.9v-1.3c0-0.7-0.2-1.1-0.9-1.1
		s-0.9,0.3-0.9,1.1v1.3c0,0.8,0.3,1.1,0.9,1.6C112.2,56,112.5,55.7,112.5,54.9z"/>
	<path d="M117.4,54.2c0-2.3,1.4-4,4.3-4c2.9,0,4.3,1.7,4.3,4v7.1c0,2.3-1.4,4-4.3,4c-2.9,0-4.3-1.7-4.3-4V54.2z M121.7,62.8
		c0.8,0,1.3-0.5,1.3-1.2V54c0-0.7-0.4-1.2-1.3-1.2c-0.8,0-1.3,0.5-1.3,1.2v7.6C120.4,62.3,120.9,62.8,121.7,62.8z"/>
	<path d="M135.6,61.9c0,2.5-1.3,3.4-3.3,3.4c-0.6,0-1.3-0.1-1.7-0.3v4.4l-2.9,0.4V54.4h2.3l0.3,0.8c0.6-0.5,1.5-1,2.5-1
		c1.9,0,2.8,1,2.8,3.1V61.9z M131.8,56.7c-0.5,0-0.9,0.1-1.2,0.3v5.7c0.2,0.1,0.5,0.1,0.9,0.1c0.7,0,1.1-0.2,1.1-1.1v-4.2
		C132.7,57,132.4,56.7,131.8,56.7z"/>
</g>
<rect x="158" y="13.7" class="st1" width="2" height="60.8"/>
<g class="st0">
	<path d="M199.5,27c-1.1,0-2.5-0.2-3.3-0.5l0.4-2.6c0.7,0.3,1.7,0.4,2.5,0.4c1.3,0,1.8-0.5,1.8-1.6c0-1.4-0.3-1.5-1.7-1.9
		c-2.8-0.9-3.2-2.1-3.2-4.8c0-3,1.6-4.1,4.3-4.1c1.3,0,2.3,0.2,3.2,0.5l-0.4,2.6c-0.8-0.3-1.6-0.4-2.5-0.4c-1.1,0-1.6,0.4-1.6,1.4
		c0,1.2,0.1,1.3,1.8,2c2.5,1,3,1.5,3,4.7C203.9,25.4,202.3,27,199.5,27z"/>
	<path d="M214.2,26.7v-7.5c0-0.5-0.3-0.7-0.7-0.7c-0.3,0-0.6,0.1-0.9,0.2v8h-2.9v-7.5c0-0.5-0.3-0.7-0.7-0.7c-0.3,0-0.6,0.1-0.9,0.2
		v8h-2.9V16h2.4l0.3,0.8c0.6-0.6,1.5-1,2.5-1c1,0,1.7,0.3,2,1c0.6-0.5,1.5-1,2.6-1c1.5,0,2.3,0.7,2.3,2.3v8.6H214.2z"/>
	<path d="M222.6,26.9c-2.7,0-4-1.5-4-3.7v-3.7c0-2.3,1.3-3.7,4-3.7s4,1.5,4,3.7v3.7C226.6,25.5,225.3,26.9,222.6,26.9z M223.7,19.1
		c0-0.6-0.4-0.9-1.1-0.9s-1.1,0.3-1.1,0.9v4.4c0,0.6,0.4,0.9,1.1,0.9s1.1-0.3,1.1-0.9V19.1z"/>
	<path d="M231.8,26.9c-2.7,0-4-1.5-4-3.7v-3.7c0-2.3,1.3-3.7,4-3.7c2.7,0,4,1.5,4,3.7v3.7C235.9,25.5,234.5,26.9,231.8,26.9z
		 M232.9,19.1c0-0.6-0.4-0.9-1.1-0.9c-0.7,0-1.1,0.3-1.1,0.9v4.4c0,0.6,0.4,0.9,1.1,0.9c0.7,0,1.1-0.3,1.1-0.9V19.1z"/>
	<path d="M242.5,26.6c-0.6,0.2-1.3,0.4-2.2,0.4c-2,0-2.6-1.1-2.6-2.7v-5.6h-1.1V16h1.1v-2.8l2.9-0.3V16h2l-0.1,2.6h-1.9v5.1
		c0,0.4,0.2,0.6,0.7,0.6c0.4,0,0.7,0,0.9-0.1L242.5,26.6z"/>
	<path d="M248.3,26.7v-7.5c0-0.5-0.3-0.7-0.7-0.7c-0.4,0-0.8,0.1-1,0.2v7.9h-2.9V11.6l2.9-0.4v5.5c0.6-0.5,1.6-0.9,2.4-0.9
		c1.5,0,2.3,0.7,2.3,2.3v8.6H248.3z"/>
</g>
<g class="st0">
	<path d="M191.5,66.3c-0.4-0.1-0.8-0.2-1.1-0.2c-0.5,0-0.7,0.2-0.7,0.7v1.5h1.7l-0.1,2.6h-1.6v8.2h-2.9v-8.2h-1v-2.6h1v-1.7
		c0-2.1,0.9-3.1,3-3.1c0.9,0,1.6,0.2,2.1,0.4L191.5,66.3z"/>
	<path d="M195.8,79.3c-2.7,0-4-1.5-4-3.7v-3.7c0-2.3,1.3-3.7,4-3.7s4,1.5,4,3.7v3.7C199.8,77.9,198.5,79.3,195.8,79.3z M196.9,71.5
		c0-0.6-0.4-0.9-1.1-0.9s-1.1,0.3-1.1,0.9V76c0,0.6,0.4,0.9,1.1,0.9s1.1-0.3,1.1-0.9V71.5z"/>
	<path d="M206.6,71.3c-0.9,0.1-1.6,0.3-2.4,0.6v7.3h-2.9V68.4h2.4l0.3,1.1c0.7-0.7,1.5-1.1,2.4-1.2L206.6,71.3z"/>
	<path d="M218.6,72.4c0,2.6-1.3,3.8-3.7,3.8c-0.1,0.2-0.2,0.4-0.2,0.6c0,0.3,0.1,0.4,0.4,0.5l1.3,0.2c1.8,0.2,2.5,0.9,2.5,2.9
		c0,2.3-1.4,3.3-4.1,3.3c-1.1,0-2.4-0.2-3.4-0.5l0.4-2.3c1,0.3,2,0.5,3,0.5c1.1,0,1.4-0.2,1.4-0.7c0-0.4-0.2-0.6-0.7-0.6l-1.8-0.2
		c-1.3-0.2-1.9-0.8-1.9-1.9c0-0.8,0.4-1.4,1-1.9c-1.2-0.5-1.8-1.7-1.8-3.4V72c0-2.4,1.3-3.8,3.8-3.8c0.6,0,1.1,0.1,1.5,0.2h3.1v1.7
		l-1.1,0.3c0.1,0.4,0.2,1,0.2,1.5V72.4z M215.7,71.7c0-0.9-0.3-1.2-1-1.2c-0.6,0-1,0.3-1,1.2v1.2c0,0.7,0.3,1,1,1c0.7,0,1-0.4,1-1
		V71.7z"/>
	<path d="M227.5,79.1h-2.4l-0.3-0.8c-0.5,0.5-1.4,1-2.5,1c-2,0-2.7-1.3-2.7-3.4c0-2.3,0.9-3.2,3.2-3.2h1.7v-0.9c0-0.8-0.4-1-1.4-1
		c-1,0-1.8,0.2-2.6,0.5l-0.5-2.4c0.9-0.4,2.3-0.7,3.7-0.7c2.4,0,3.6,0.7,3.6,3V79.1z M224.5,75h-1.1c-0.6,0-0.8,0.3-0.8,0.9
		c0,0.7,0.2,1,0.9,1c0.4,0,0.8-0.1,1.1-0.2V75z"/>
	<path d="M238.1,79.1v-7.5c0-0.5-0.3-0.7-0.7-0.7c-0.3,0-0.6,0.1-0.9,0.2v8h-2.9v-7.5c0-0.5-0.3-0.7-0.7-0.7c-0.3,0-0.6,0.1-0.9,0.2
		v8H229V68.4h2.4l0.3,0.8c0.6-0.6,1.5-1,2.5-1c1,0,1.7,0.3,2,1c0.6-0.5,1.5-1,2.6-1c1.5,0,2.3,0.7,2.3,2.3v8.6H238.1z"/>
	<path d="M242.7,67.3V64h2.9v3.2H242.7z M242.7,79.1V68.4h2.9v10.7H242.7z"/>
	<path d="M252.1,79.1v-7.5c0-0.5-0.3-0.7-0.7-0.7c-0.4,0-0.8,0.1-1,0.2v7.9h-2.9V68.4h2.4l0.3,0.8c0.7-0.6,1.7-1,2.6-1
		c1.5,0,2.3,0.7,2.3,2.3v8.6H252.1z"/>
	<path d="M263.7,72.4c0,2.6-1.3,3.8-3.7,3.8c-0.1,0.2-0.2,0.4-0.2,0.6c0,0.3,0.1,0.4,0.4,0.5l1.3,0.2c1.8,0.2,2.5,0.9,2.5,2.9
		c0,2.3-1.4,3.3-4.1,3.3c-1.1,0-2.4-0.2-3.4-0.5l0.4-2.3c1,0.3,2,0.5,3,0.5c1.1,0,1.4-0.2,1.4-0.7c0-0.4-0.2-0.6-0.7-0.6l-1.8-0.2
		c-1.3-0.2-1.9-0.8-1.9-1.9c0-0.8,0.4-1.4,1-1.9c-1.2-0.5-1.8-1.7-1.8-3.4V72c0-2.4,1.3-3.8,3.8-3.8c0.6,0,1.1,0.1,1.5,0.2h3.1v1.7
		l-1.1,0.3c0.1,0.4,0.2,1,0.2,1.5V72.4z M260.9,71.7c0-0.9-0.3-1.2-1-1.2s-1,0.3-1,1.2v1.2c0,0.7,0.3,1,1,1s1-0.4,1-1V71.7z"/>
</g>
<g class="st0">
	<path d="M325.6,24c0.9,0.3,1.7,0.4,2.5,0.4c1.1,0,1.7-0.4,1.7-1.4v-1c0-1-0.4-1.4-1.5-1.4h-2.2v-2.6h2.2c1,0,1.4-0.5,1.4-1.3v-1.1
		c0-1-0.5-1.3-1.6-1.3c-0.8,0-1.5,0.1-2.2,0.4l-0.4-2.3c0.9-0.4,2.1-0.6,3.3-0.6c2.9,0,3.9,1.1,3.9,3.5v1.2c0,1.4-0.5,2.2-1.6,2.7
		c1.3,0.3,1.8,1.3,1.8,2.7v1.3c0,2.5-1.6,3.7-4.3,3.7c-1,0-2.3-0.2-3.3-0.6L325.6,24z"/>
	<path d="M334.6,24c0.7,0.2,1.6,0.4,2.4,0.4c1.4,0,1.9-0.6,1.9-1.7V22c0-1.1-0.5-1.5-1.6-1.5h-2.7v-8.5h6.8v2.6h-3.8V18h0.5
		c2.4,0,3.7,1.1,3.7,3.8v1c0,2.7-1.5,4.2-4.5,4.2c-1.1,0-2.3-0.2-3.1-0.5L334.6,24z"/>
	<path d="M353.3,21.2l1.3-9.1h3.1l-2.6,14.7h-2.9l-2-8.8l-2,8.8h-2.9l-2.6-14.7h3.1l1.3,9.1l1.7-9.1h2.9L353.3,21.2z"/>
	<path d="M370.7,23.5c0,2.5-1.3,3.4-3.3,3.4c-0.6,0-1.3-0.1-1.7-0.3V31l-2.9,0.4V16h2.3l0.3,0.8c0.6-0.5,1.5-1,2.5-1
		c1.9,0,2.8,1,2.8,3.1V23.5z M366.9,18.3c-0.5,0-0.9,0.1-1.2,0.3v5.7c0.2,0.1,0.5,0.1,0.9,0.1c0.7,0,1.1-0.2,1.1-1.1v-4.2
		C367.7,18.6,367.5,18.3,366.9,18.3z"/>
	<path d="M377.5,18.9c-0.9,0.1-1.6,0.3-2.4,0.6v7.3h-2.9V16h2.4l0.3,1.1c0.7-0.7,1.5-1.1,2.4-1.2L377.5,18.9z"/>
	<path d="M382,26.9c-2.7,0-4-1.5-4-3.7v-3.7c0-2.3,1.3-3.7,4-3.7s4,1.5,4,3.7v3.7C386.1,25.5,384.8,26.9,382,26.9z M383.1,19.1
		c0-0.6-0.4-0.9-1.1-0.9c-0.7,0-1.1,0.3-1.1,0.9v4.4c0,0.6,0.4,0.9,1.1,0.9c0.7,0,1.1-0.3,1.1-0.9V19.1z"/>
	<path d="M387.2,19.8c0-2.4,1-4,3.7-4c1.1,0,2.1,0.2,2.5,0.5l-0.4,2.4c-0.4-0.2-1-0.3-1.5-0.3c-1.1,0-1.4,0.5-1.4,1.4v3.2
		c0,0.9,0.3,1.4,1.4,1.4c0.6,0,1.1-0.1,1.5-0.3l0.4,2.4c-0.4,0.2-1.5,0.5-2.5,0.5c-2.7,0-3.7-1.6-3.7-4V19.8z"/>
	<path d="M397.1,22.5V23c0,1.1,0.4,1.5,1.7,1.5c0.9,0,1.8-0.2,2.3-0.5l0.4,2.2c-0.8,0.4-2.1,0.7-3.3,0.7c-2.8,0-4.1-1.4-4.1-3.9
		v-3.4c0-2.6,1.4-3.9,3.9-3.9c2.7,0,3.7,1.5,3.7,3.9v2.8H397.1z M399,19.1c0-0.7-0.3-1-0.9-1c-0.6,0-0.9,0.3-0.9,1.1v1.1h1.8V19.1z"
		/>
	<path d="M405.9,26.9c-1,0-2.2-0.2-3.1-0.5l0.4-2.4c0.7,0.3,1.6,0.4,2.5,0.4c0.7,0,1.1-0.2,1.1-0.8c0-0.6-0.2-0.6-1.2-0.9
		c-2.4-0.8-2.8-1.4-2.8-3.7c0-2.5,1.3-3.3,3.7-3.3c1.1,0,2.1,0.2,2.9,0.5l-0.4,2.4c-0.6-0.2-1.5-0.5-2.3-0.5c-0.8,0-1.1,0.2-1.1,0.8
		c0,0.5,0.2,0.7,1.1,0.9c2.2,0.7,2.9,1.1,2.9,3.5C409.6,25.5,408.5,26.9,405.9,26.9z"/>
	<path d="M413.7,26.9c-1,0-2.2-0.2-3.1-0.5L411,24c0.7,0.3,1.6,0.4,2.5,0.4c0.7,0,1.1-0.2,1.1-0.8c0-0.6-0.2-0.6-1.2-0.9
		c-2.4-0.8-2.8-1.4-2.8-3.7c0-2.5,1.3-3.3,3.7-3.3c1.1,0,2.1,0.2,2.9,0.5l-0.4,2.4c-0.6-0.2-1.5-0.5-2.3-0.5c-0.8,0-1.1,0.2-1.1,0.8
		c0,0.5,0.2,0.7,1.1,0.9c2.2,0.7,2.9,1.1,2.9,3.5C417.4,25.5,416.3,26.9,413.7,26.9z"/>
	<path d="M422.3,26.9c-2.7,0-4-1.5-4-3.7v-3.7c0-2.3,1.3-3.7,4-3.7s4,1.5,4,3.7v3.7C426.4,25.5,425.1,26.9,422.3,26.9z M423.4,19.1
		c0-0.6-0.4-0.9-1.1-0.9c-0.7,0-1.1,0.3-1.1,0.9v4.4c0,0.6,0.4,0.9,1.1,0.9c0.7,0,1.1-0.3,1.1-0.9V19.1z"/>
	<path d="M433.2,18.9c-0.9,0.1-1.6,0.3-2.4,0.6v7.3h-2.9V16h2.4l0.3,1.1c0.7-0.7,1.5-1.1,2.4-1.2L433.2,18.9z"/>
	<path d="M436.9,26.9c-1,0-2.2-0.2-3.1-0.5l0.4-2.4c0.7,0.3,1.6,0.4,2.5,0.4c0.7,0,1.1-0.2,1.1-0.8c0-0.6-0.2-0.6-1.2-0.9
		c-2.4-0.8-2.8-1.4-2.8-3.7c0-2.5,1.3-3.3,3.7-3.3c1.1,0,2.1,0.2,2.9,0.5l-0.4,2.4c-0.6-0.2-1.5-0.5-2.3-0.5c-0.8,0-1.1,0.2-1.1,0.8
		c0,0.5,0.2,0.7,1.1,0.9c2.2,0.7,2.9,1.1,2.9,3.5C440.6,25.5,439.5,26.9,436.9,26.9z"/>
</g>
<g class="st0">
	<path d="M304.5,45.6c0-2.5,1.3-3.4,3.3-3.4c0.6,0,1.3,0.1,1.7,0.3V38l2.9-0.4v15.5h-2.3l-0.3-0.8c-0.6,0.5-1.5,1-2.6,1
		c-2,0-2.8-1.1-2.8-3.1V45.6z M309.4,44.9c-0.2-0.1-0.5-0.1-0.9-0.1c-0.7,0-1.1,0.3-1.1,1.1V50c0,0.5,0.2,0.8,0.9,0.8
		c0.5,0,0.9-0.1,1.2-0.3V44.9z"/>
	<path d="M316.8,48.9v0.5c0,1.1,0.4,1.5,1.7,1.5c0.9,0,1.8-0.2,2.3-0.5l0.4,2.2c-0.8,0.4-2.1,0.7-3.3,0.7c-2.8,0-4.1-1.4-4.1-3.9
		v-3.4c0-2.6,1.4-3.9,3.9-3.9c2.7,0,3.7,1.5,3.7,3.9v2.8H316.8z M318.6,45.5c0-0.7-0.3-1-0.9-1c-0.6,0-0.9,0.3-0.9,1.1v1.1h1.8V45.5
		z"/>
	<path d="M325.6,53.3c-1,0-2.2-0.2-3.1-0.5l0.4-2.4c0.7,0.3,1.6,0.4,2.5,0.4c0.7,0,1.1-0.2,1.1-0.8c0-0.6-0.2-0.6-1.2-0.9
		c-2.4-0.8-2.8-1.4-2.8-3.7c0-2.5,1.3-3.3,3.7-3.3c1.1,0,2.1,0.2,2.9,0.5l-0.4,2.4c-0.6-0.2-1.5-0.5-2.3-0.5c-0.8,0-1.1,0.2-1.1,0.8
		c0,0.5,0.2,0.7,1.1,0.9c2.2,0.7,2.9,1.1,2.9,3.5C329.3,51.9,328.2,53.3,325.6,53.3z"/>
	<path d="M330.5,41.3V38h2.9v3.2H330.5z M330.5,53.1V42.4h2.9v10.7H330.5z"/>
	<path d="M342.3,46.4c0,2.6-1.3,3.8-3.7,3.8c-0.1,0.2-0.2,0.4-0.2,0.6c0,0.3,0.1,0.4,0.4,0.5l1.3,0.2c1.8,0.2,2.5,0.9,2.5,2.9
		c0,2.3-1.4,3.3-4.1,3.3c-1.1,0-2.4-0.2-3.4-0.5l0.4-2.3c1,0.3,2,0.5,3,0.5c1.1,0,1.4-0.2,1.4-0.7c0-0.4-0.2-0.6-0.7-0.6l-1.8-0.2
		c-1.3-0.2-1.9-0.8-1.9-1.9c0-0.8,0.4-1.4,1-1.9c-1.2-0.5-1.8-1.7-1.8-3.4V46c0-2.4,1.3-3.8,3.8-3.8c0.6,0,1.1,0.1,1.5,0.2h3.1v1.7
		l-1.1,0.3c0.1,0.4,0.2,1,0.2,1.5V46.4z M339.4,45.7c0-0.9-0.3-1.2-1-1.2c-0.6,0-1,0.3-1,1.2v1.2c0,0.7,0.3,1,1,1c0.7,0,1-0.4,1-1
		V45.7z"/>
	<path d="M348.5,53.1v-7.5c0-0.5-0.3-0.7-0.7-0.7c-0.4,0-0.8,0.1-1,0.2v7.9h-2.9V42.4h2.4l0.3,0.8c0.7-0.6,1.7-1,2.6-1
		c1.5,0,2.3,0.7,2.3,2.3v8.6H348.5z"/>
	<path d="M355.8,48.9v0.5c0,1.1,0.4,1.5,1.7,1.5c0.9,0,1.8-0.2,2.3-0.5l0.4,2.2c-0.8,0.4-2.1,0.7-3.3,0.7c-2.8,0-4.1-1.4-4.1-3.9
		v-3.4c0-2.6,1.4-3.9,3.9-3.9c2.7,0,3.7,1.5,3.7,3.9v2.8H355.8z M357.6,45.5c0-0.7-0.3-1-0.9-1c-0.6,0-0.9,0.3-0.9,1.1v1.1h1.8V45.5
		z"/>
	<path d="M361.4,45.6c0-2.5,1.3-3.4,3.3-3.4c0.6,0,1.3,0.1,1.7,0.3V38l2.9-0.4v15.5H367l-0.3-0.8c-0.6,0.5-1.5,1-2.6,1
		c-2,0-2.8-1.1-2.8-3.1V45.6z M366.4,44.9c-0.2-0.1-0.5-0.1-0.9-0.1c-0.7,0-1.1,0.3-1.1,1.1V50c0,0.5,0.2,0.8,0.9,0.8
		c0.5,0,0.9-0.1,1.2-0.3V44.9z"/>
	<path d="M380.4,40.3c-0.4-0.1-0.8-0.2-1.1-0.2c-0.5,0-0.7,0.2-0.7,0.7v1.5h1.7l-0.1,2.6h-1.6v8.2h-2.9v-8.2h-1v-2.6h1v-1.7
		c0-2.1,0.9-3.1,3-3.1c0.9,0,1.6,0.2,2.1,0.4L380.4,40.3z"/>
	<path d="M384.7,53.3c-2.7,0-4-1.5-4-3.7v-3.7c0-2.3,1.3-3.7,4-3.7s4,1.5,4,3.7v3.7C388.8,51.9,387.4,53.3,384.7,53.3z M385.8,45.5
		c0-0.6-0.4-0.9-1.1-0.9c-0.7,0-1.1,0.3-1.1,0.9V50c0,0.6,0.4,0.9,1.1,0.9c0.7,0,1.1-0.3,1.1-0.9V45.5z"/>
	<path d="M395.5,45.3c-0.9,0.1-1.6,0.3-2.4,0.6v7.3h-2.9V42.4h2.4l0.3,1.1c0.7-0.7,1.5-1.1,2.4-1.2L395.5,45.3z"/>
	<path d="M400.2,45.6c0-2.5,1.3-3.4,3.3-3.4c0.6,0,1.3,0.1,1.7,0.3V38l2.9-0.4v15.5h-2.3l-0.3-0.8c-0.6,0.5-1.5,1-2.6,1
		c-2,0-2.8-1.1-2.8-3.1V45.6z M405.2,44.9c-0.2-0.1-0.6-0.1-0.9-0.1c-0.7,0-1.1,0.3-1.1,1.1V50c0,0.5,0.2,0.8,0.9,0.8
		c0.5,0,0.9-0.1,1.2-0.3V44.9z"/>
	<path d="M409.9,41.3V38h2.9v3.2H409.9z M409.9,53.1V42.4h2.9v10.7H409.9z"/>
	<path d="M417.5,53.3c-1,0-2.2-0.2-3.1-0.5l0.4-2.4c0.7,0.3,1.6,0.4,2.5,0.4c0.7,0,1.1-0.2,1.1-0.8c0-0.6-0.2-0.6-1.2-0.9
		c-2.4-0.8-2.8-1.4-2.8-3.7c0-2.5,1.3-3.3,3.7-3.3c1.1,0,2.1,0.2,2.9,0.5l-0.4,2.4c-0.6-0.2-1.5-0.5-2.3-0.5c-0.8,0-1.1,0.2-1.1,0.8
		c0,0.5,0.2,0.7,1.1,0.9c2.2,0.7,2.9,1.1,2.9,3.5C421.2,51.9,420.1,53.3,417.5,53.3z"/>
	<path d="M422.1,46.2c0-2.4,1-4,3.7-4c1.1,0,2.1,0.2,2.5,0.5L428,45c-0.4-0.2-1-0.3-1.5-0.3c-1.1,0-1.4,0.5-1.4,1.4v3.2
		c0,0.9,0.3,1.4,1.4,1.4c0.6,0,1.1-0.1,1.5-0.3l0.4,2.4c-0.4,0.2-1.5,0.5-2.5,0.5c-2.7,0-3.7-1.6-3.7-4V46.2z"/>
	<path d="M434.8,45.3c-0.9,0.1-1.6,0.3-2.4,0.6v7.3h-2.9V42.4h2.4l0.3,1.1c0.7-0.7,1.5-1.1,2.4-1.2L434.8,45.3z"/>
	<path d="M438.2,48.9v0.5c0,1.1,0.4,1.5,1.7,1.5c0.9,0,1.8-0.2,2.3-0.5l0.4,2.2c-0.8,0.4-2.1,0.7-3.3,0.7c-2.8,0-4.1-1.4-4.1-3.9
		v-3.4c0-2.6,1.4-3.9,3.9-3.9c2.7,0,3.7,1.5,3.7,3.9v2.8H438.2z M440.1,45.5c0-0.7-0.3-1-0.9-1c-0.6,0-0.9,0.3-0.9,1.1v1.1h1.8V45.5
		z"/>
	<path d="M449.4,53c-0.6,0.2-1.3,0.4-2.2,0.4c-2,0-2.6-1.1-2.6-2.7V45h-1.1v-2.6h1.1v-2.8l2.9-0.3v3.1h2l-0.1,2.6h-1.9v5.1
		c0,0.4,0.2,0.6,0.7,0.6c0.4,0,0.7,0,0.9-0.1L449.4,53z"/>
	<path d="M453.1,48.9v0.5c0,1.1,0.4,1.5,1.7,1.5c0.9,0,1.8-0.2,2.3-0.5l0.4,2.2c-0.8,0.4-2.1,0.7-3.3,0.7c-2.8,0-4.1-1.4-4.1-3.9
		v-3.4c0-2.6,1.4-3.9,3.9-3.9c2.7,0,3.7,1.5,3.7,3.9v2.8H453.1z M455,45.5c0-0.7-0.3-1-0.9-1c-0.6,0-0.9,0.3-0.9,1.1v1.1h1.8V45.5z"
		/>
</g>
<g class="st0">
	<path d="M327.8,72.8c0,2.6-1.3,3.8-3.7,3.8c-0.1,0.2-0.2,0.4-0.2,0.6c0,0.3,0.1,0.4,0.4,0.5l1.3,0.2c1.8,0.2,2.5,0.9,2.5,2.9
		c0,2.3-1.4,3.3-4.1,3.3c-1.1,0-2.4-0.2-3.4-0.5l0.4-2.3c1,0.3,2,0.5,3,0.5c1.1,0,1.4-0.2,1.4-0.7c0-0.4-0.2-0.6-0.7-0.6l-1.8-0.2
		c-1.3-0.2-1.9-0.8-1.9-1.9c0-0.8,0.4-1.4,1-1.9c-1.2-0.5-1.8-1.7-1.8-3.4v-0.5c0-2.4,1.3-3.8,3.8-3.8c0.6,0,1.1,0.1,1.5,0.2h3.1
		v1.7l-1.1,0.3c0.1,0.4,0.2,1,0.2,1.5V72.8z M325,72.1c0-0.9-0.3-1.2-1-1.2s-1,0.3-1,1.2v1.2c0,0.7,0.3,1,1,1s1-0.4,1-1V72.1z"/>
	<path d="M334.7,71.7c-0.9,0.1-1.6,0.3-2.4,0.6v7.3h-2.9V68.8h2.4l0.3,1.1c0.7-0.7,1.5-1.1,2.4-1.2L334.7,71.7z"/>
	<path d="M342.8,79.5h-2.4l-0.3-0.8c-0.5,0.5-1.4,1-2.5,1c-2,0-2.7-1.3-2.7-3.4c0-2.3,0.9-3.2,3.2-3.2h1.7v-0.9c0-0.8-0.4-1-1.4-1
		s-1.8,0.2-2.6,0.5l-0.5-2.4c0.9-0.4,2.3-0.7,3.7-0.7c2.4,0,3.6,0.7,3.6,3V79.5z M339.8,75.4h-1.1c-0.6,0-0.8,0.3-0.8,0.9
		c0,0.7,0.2,1,0.9,1c0.4,0,0.8-0.1,1.1-0.2V75.4z"/>
	<path d="M352.2,76.3c0,2.5-1.3,3.4-3.3,3.4c-0.6,0-1.3-0.1-1.7-0.3v4.4l-2.9,0.4V68.8h2.3l0.3,0.8c0.6-0.5,1.5-1,2.5-1
		c1.9,0,2.8,1,2.8,3.1V76.3z M348.4,71.1c-0.5,0-0.9,0.1-1.2,0.3v5.7c0.2,0.1,0.5,0.1,0.9,0.1c0.7,0,1.1-0.2,1.1-1.1V72
		C349.3,71.4,349,71.1,348.4,71.1z"/>
	<path d="M358.4,79.5V72c0-0.5-0.3-0.7-0.7-0.7c-0.4,0-0.8,0.1-1,0.2v7.9h-2.9V64.4l2.9-0.4v5.5c0.6-0.5,1.6-0.9,2.4-0.9
		c1.5,0,2.3,0.7,2.3,2.3v8.6H358.4z"/>
	<path d="M363,67.7v-3.2h2.9v3.2H363z M363,79.5V68.8h2.9v10.7H363z"/>
	<path d="M367.4,72.6c0-2.4,1-4,3.7-4c1.1,0,2.1,0.2,2.5,0.5l-0.4,2.4c-0.4-0.2-1-0.3-1.5-0.3c-1.1,0-1.4,0.5-1.4,1.4v3.2
		c0,0.9,0.3,1.4,1.4,1.4c0.6,0,1.1-0.1,1.5-0.3l0.4,2.4c-0.4,0.2-1.5,0.5-2.5,0.5c-2.7,0-3.7-1.6-3.7-4V72.6z"/>
	<path d="M377.6,79.7c-1,0-2.2-0.2-3.1-0.5l0.4-2.4c0.7,0.3,1.6,0.4,2.5,0.4c0.7,0,1.1-0.2,1.1-0.8c0-0.6-0.2-0.6-1.2-0.9
		c-2.4-0.8-2.8-1.4-2.8-3.7c0-2.5,1.3-3.3,3.7-3.3c1.1,0,2.1,0.2,2.9,0.5l-0.4,2.4c-0.6-0.2-1.5-0.5-2.3-0.5c-0.8,0-1.1,0.2-1.1,0.8
		c0,0.5,0.2,0.7,1.1,0.9c2.2,0.7,2.9,1.1,2.9,3.5C381.3,78.3,380.2,79.7,377.6,79.7z"/>
	<path d="M394.7,76.3c0,2.5-1.3,3.4-3.3,3.4c-0.6,0-1.3-0.1-1.7-0.3v4.4l-2.9,0.4V68.8h2.3l0.3,0.8c0.6-0.5,1.5-1,2.5-1
		c1.9,0,2.8,1,2.8,3.1V76.3z M390.9,71.1c-0.5,0-0.9,0.1-1.2,0.3v5.7c0.2,0.1,0.5,0.1,0.9,0.1c0.7,0,1.1-0.2,1.1-1.1V72
		C391.7,71.4,391.5,71.1,390.9,71.1z"/>
	<path d="M403.5,79.5h-2.4l-0.3-0.8c-0.5,0.5-1.4,1-2.5,1c-2,0-2.7-1.3-2.7-3.4c0-2.3,0.9-3.2,3.2-3.2h1.7v-0.9c0-0.8-0.4-1-1.4-1
		s-1.8,0.2-2.6,0.5l-0.5-2.4c0.9-0.4,2.3-0.7,3.7-0.7c2.4,0,3.6,0.7,3.6,3V79.5z M400.6,75.4h-1.1c-0.6,0-0.8,0.3-0.8,0.9
		c0,0.7,0.2,1,0.9,1c0.4,0,0.8-0.1,1.1-0.2V75.4z"/>
	<path d="M405.1,67.7v-3.2h2.9v3.2H405.1z M405.1,79.5V68.8h2.9v10.7H405.1z"/>
	<path d="M415.1,71.7c-0.9,0.1-1.6,0.3-2.4,0.6v7.3h-2.9V68.8h2.4l0.3,1.1c0.7-0.7,1.5-1.1,2.4-1.2L415.1,71.7z"/>
	<path d="M415.9,67.7v-3.2h2.9v3.2H415.9z M415.9,79.5V68.8h2.9v10.7H415.9z"/>
	<path d="M425.3,79.5V72c0-0.5-0.3-0.7-0.7-0.7c-0.4,0-0.8,0.1-1,0.2v7.9h-2.9V68.8h2.4l0.3,0.8c0.7-0.6,1.7-1,2.6-1
		c1.5,0,2.3,0.7,2.3,2.3v8.6H425.3z"/>
	<path d="M436.9,72.8c0,2.6-1.3,3.8-3.7,3.8c-0.1,0.2-0.2,0.4-0.2,0.6c0,0.3,0.1,0.4,0.4,0.5l1.3,0.2c1.8,0.2,2.5,0.9,2.5,2.9
		c0,2.3-1.4,3.3-4.1,3.3c-1.1,0-2.4-0.2-3.4-0.5l0.4-2.3c1,0.3,2,0.5,3,0.5c1.1,0,1.4-0.2,1.4-0.7c0-0.4-0.2-0.6-0.7-0.6l-1.8-0.2
		c-1.3-0.2-1.9-0.8-1.9-1.9c0-0.8,0.4-1.4,1-1.9c-1.2-0.5-1.8-1.7-1.8-3.4v-0.5c0-2.4,1.3-3.8,3.8-3.8c0.6,0,1.1,0.1,1.5,0.2h3.1
		v1.7l-1.1,0.3c0.1,0.4,0.2,1,0.2,1.5V72.8z M434,72.1c0-0.9-0.3-1.2-1-1.2s-1,0.3-1,1.2v1.2c0,0.7,0.3,1,1,1s1-0.4,1-1V72.1z"/>
</g>
<rect x="291" y="13.7" class="st1" width="2" height="60.8"/>
<g>
	<path d="M187.5,50.2c0,2.5-1.3,3.4-3.3,3.4c-0.6,0-1.3-0.1-1.7-0.3v4.4l-2.9,0.4V42.7h2.3l0.3,0.8c0.6-0.5,1.5-1,2.5-1
		c1.9,0,2.8,1,2.8,3.1V50.2z M183.7,45c-0.5,0-0.9,0.1-1.2,0.3V51c0.2,0.1,0.5,0.1,0.9,0.1c0.7,0,1.1-0.2,1.1-1.1v-4.2
		C184.5,45.3,184.3,45,183.7,45z"/>
	<path d="M191.6,49.2v0.5c0,1.1,0.4,1.5,1.7,1.5c0.9,0,1.8-0.2,2.3-0.5l0.4,2.2c-0.8,0.4-2.1,0.7-3.3,0.7c-2.8,0-4.1-1.4-4.1-3.9
		v-3.4c0-2.6,1.4-3.9,3.9-3.9c2.7,0,3.7,1.5,3.7,3.9v2.8H191.6z M193.5,45.8c0-0.7-0.3-1-0.9-1c-0.6,0-0.9,0.3-0.9,1.1v1.1h1.8V45.8
		z"/>
	<path d="M202.8,45.5c-0.9,0.1-1.6,0.3-2.4,0.5v7.3h-2.9V42.7h2.4l0.3,1.1c0.7-0.7,1.5-1.1,2.4-1.2L202.8,45.5z"/>
	<path d="M209,40.6c-0.4-0.1-0.8-0.2-1.1-0.2c-0.5,0-0.7,0.2-0.7,0.7v1.5h1.7l-0.1,2.6h-1.6v8.2h-2.9v-8.2h-1v-2.6h1V41
		c0-2.1,0.9-3.1,3-3.1c0.9,0,1.6,0.2,2.1,0.4L209,40.6z"/>
	<path d="M213.3,53.6c-2.7,0-4-1.5-4-3.7v-3.7c0-2.3,1.3-3.7,4-3.7s4,1.5,4,3.7v3.7C217.3,52.1,216,53.6,213.3,53.6z M214.4,45.8
		c0-0.6-0.4-0.9-1.1-0.9s-1.1,0.3-1.1,0.9v4.4c0,0.6,0.4,0.9,1.1,0.9s1.1-0.3,1.1-0.9V45.8z"/>
	<path d="M224.1,45.5c-0.9,0.1-1.6,0.3-2.4,0.5v7.3h-2.9V42.7h2.4l0.3,1.1c0.7-0.7,1.5-1.1,2.4-1.2L224.1,45.5z"/>
	<path d="M234,53.4v-7.5c0-0.5-0.3-0.7-0.7-0.7c-0.3,0-0.6,0.1-0.9,0.2v8h-2.9v-7.5c0-0.5-0.3-0.7-0.7-0.7c-0.3,0-0.6,0.1-0.9,0.2v8
		h-2.9V42.7h2.4l0.3,0.8c0.6-0.6,1.5-1,2.5-1c1,0,1.7,0.3,2,1c0.6-0.6,1.5-1,2.6-1c1.5,0,2.3,0.7,2.3,2.3v8.6H234z"/>
	<path d="M246,53.4h-2.4l-0.3-0.8c-0.5,0.5-1.4,1-2.5,1c-2,0-2.7-1.3-2.7-3.4c0-2.3,0.9-3.2,3.2-3.2h1.7V46c0-0.8-0.4-1-1.4-1
		c-1,0-1.8,0.2-2.6,0.5l-0.5-2.4c0.9-0.4,2.3-0.7,3.7-0.7c2.4,0,3.6,0.7,3.6,3V53.4z M243.1,49.3h-1.1c-0.6,0-0.8,0.3-0.8,0.9
		c0,0.7,0.2,1,0.9,1c0.4,0,0.8-0.1,1.1-0.2V49.3z"/>
	<path d="M252.3,53.4v-7.5c0-0.5-0.3-0.7-0.7-0.7c-0.4,0-0.8,0.1-1,0.2v7.9h-2.9V42.7h2.4l0.3,0.8c0.7-0.6,1.7-1,2.6-1
		c1.5,0,2.3,0.7,2.3,2.3v8.6H252.3z"/>
	<path d="M256.6,46.5c0-2.4,1-4,3.7-4c1.1,0,2.1,0.2,2.5,0.5l-0.4,2.4c-0.4-0.2-1-0.3-1.5-0.3c-1.1,0-1.4,0.5-1.4,1.4v3.2
		c0,0.9,0.3,1.4,1.4,1.4c0.6,0,1.1-0.1,1.5-0.3l0.4,2.4c-0.4,0.2-1.5,0.5-2.5,0.5c-2.7,0-3.7-1.6-3.7-4V46.5z"/>
	<path d="M266.4,49.2v0.5c0,1.1,0.4,1.5,1.7,1.5c0.9,0,1.8-0.2,2.3-0.5l0.4,2.2c-0.8,0.4-2.1,0.7-3.3,0.7c-2.8,0-4.1-1.4-4.1-3.9
		v-3.4c0-2.6,1.4-3.9,3.9-3.9c2.7,0,3.7,1.5,3.7,3.9v2.8H266.4z M268.3,45.8c0-0.7-0.3-1-0.9-1c-0.6,0-0.9,0.3-0.9,1.1v1.1h1.8V45.8
		z"/>
</g>
</svg>
