<?xml version="1.0" encoding="utf-8"?>
<!-- Generator: Adobe Illustrator 23.0.3, SVG Export Plug-In . SVG Version: 6.00 Build 0)  -->
<svg version="1.1" id="Layer_1" xmlns="http://www.w3.org/2000/svg" xmlns:xlink="http://www.w3.org/1999/xlink" x="0px" y="0px"
	 viewBox="0 0 460 120" style="enable-background:new 0 0 460 120;" xml:space="preserve">
<style type="text/css">
	.st0{fill:#EF6620;}
	.st1{enable-background:new    ;}
</style>
<path d="M28.9,11.9h3.9l3.7,16.8H33l-0.6-3.4h-3.1l-0.6,3.4h-3.5L28.9,11.9z M31.9,22.2l-1.1-6.7l-1.1,6.7H31.9z"/>
<path d="M38,11.9h3.6l3.1,9.4l3.1-9.4h3.6l0.4,16.8h-3.4l-0.1-9.4l-2,5.9H43l-2-5.9l-0.1,9.4h-3.4L38,11.9z"/>
<path d="M54,11.9h5.3c3.3,0,4.8,1.5,4.8,5.1v6.6c0,3.6-1.5,5.1-4.8,5.1H54V11.9z M59,25.6c1.3,0,1.6-0.5,1.6-1.9v-6.9
	c0-1.3-0.4-1.9-1.6-1.9h-1.5v10.6L59,25.6L59,25.6z"/>
<path d="M81,18.3c0,1.6-0.7,3-2.1,3.7l2.8,6.6h-3.9l-2.3-6.1h-1.1v6.1h-3.5V11.9h5.6c3.2,0,4.5,1.3,4.5,4.3V18.3z M76.2,14.9h-1.8
	v4.6h1.8c0.9,0,1.3-0.4,1.3-1.3v-2C77.5,15.3,77.1,14.9,76.2,14.9z"/>
<path d="M88.2,16.4h3.4l-3.9,17.2h-3.2l1.2-5h-1l-2.6-12.3h3.4l1.3,8.7L88.2,16.4z"/>
<path d="M92.2,16.4h7.7v2.4l-4,7.1h4.1v2.7h-7.9v-2.4l4-7.1h-3.9C92.2,19.1,92.2,16.4,92.2,16.4z"/>
<path d="M104.4,23.8v0.6c0,1.2,0.5,1.8,1.9,1.8c1,0,2-0.3,2.7-0.6l0.5,2.5c-0.9,0.5-2.4,0.8-3.7,0.8c-3.2,0-4.7-1.6-4.7-4.4v-3.9
	c0-3,1.6-4.5,4.4-4.5c3.1,0,4.2,1.7,4.2,4.5v3.2H104.4z M106.5,20c0-0.8-0.3-1.2-1-1.2s-1.1,0.4-1.1,1.2v1.2h2.1V20z"/>
<path d="M116.6,28.7v-8.5c0-0.5-0.3-0.8-0.9-0.8c-0.5,0-0.9,0.1-1.2,0.3v9.1h-3.4V16.4h2.8l0.3,0.9c0.8-0.7,1.9-1.1,3-1.1
	c1.7,0,2.6,0.8,2.6,2.7v9.8H116.6z"/>
<path d="M122.7,13.3h-1.3V12h4.1v1.3h-1.3v3.6h-1.5C122.7,16.9,122.7,13.3,122.7,13.3z M126.2,11.9h1.4l1.2,2.7l1.2-2.7h1.4l0.2,5
	h-1.4l-0.1-2.2l-0.6,1.6h-1.3l-0.6-1.6l-0.1,2.2h-1.4L126.2,11.9z"/>
<path d="M142.3,14.8h-5.2v-2.9h8.7v2.4L141,28.7h-3.5L142.3,14.8z"/>
<path d="M152.3,25.6c1,0.3,1.9,0.5,2.9,0.5c1.3,0,1.9-0.4,1.9-1.6v-1.2c0-1.1-0.5-1.6-1.7-1.6h-2.5v-3h2.5c1.1,0,1.6-0.5,1.6-1.5V16
	c0-1.2-0.6-1.5-1.8-1.5c-0.9,0-1.7,0.2-2.5,0.5l-0.5-2.6c1.1-0.5,2.4-0.7,3.7-0.7c3.3,0,4.5,1.3,4.5,4V17c0,1.6-0.6,2.5-1.9,3.1
	c1.5,0.4,2.1,1.4,2.1,3.1v1.5c0,2.9-1.8,4.2-4.9,4.2c-1.1,0-2.6-0.2-3.8-0.7L152.3,25.6z"/>
<path d="M167.3,14.8h-5.2v-2.9h8.7v2.4L166,28.7h-3.5L167.3,14.8z"/>
<path d="M172,16.2c0-2.6,1.6-4.6,4.9-4.6s4.9,2,4.9,4.6v8.2c0,2.6-1.6,4.6-4.9,4.6s-4.9-2-4.9-4.6V16.2z M176.9,26
	c1,0,1.5-0.5,1.5-1.4v-8.7c0-0.9-0.5-1.4-1.5-1.4s-1.5,0.5-1.5,1.4v8.7C175.4,25.5,175.9,26,176.9,26z"/>
<path d="M183.8,16.2c0-2.6,1.6-4.6,4.9-4.6s4.9,2,4.9,4.6v8.2c0,2.6-1.6,4.6-4.9,4.6s-4.9-2-4.9-4.6V16.2z M188.7,26
	c1,0,1.5-0.5,1.5-1.4v-8.7c0-0.9-0.5-1.4-1.5-1.4s-1.5,0.5-1.5,1.4v8.7C187.2,25.5,187.7,26,188.7,26z"/>
<path d="M205.9,11.9v12.4c0,2.9-1.6,4.7-5.1,4.7s-5.1-1.8-5.1-4.7V11.9h3.5v12.6c0,1,0.4,1.4,1.6,1.4c1.2,0,1.6-0.5,1.6-1.4V11.9
	H205.9z"/>
<path d="M259.4,11.9h3.9l3.7,16.8h-3.5l-0.6-3.4h-3.1l-0.6,3.4h-3.5L259.4,11.9z M262.4,22.2l-1.1-6.7l-1.1,6.7H262.4z"/>
<path d="M268.5,11.9h3.6l3.1,9.4l3.1-9.4h3.6l0.4,16.8H279l-0.1-9.4l-2,5.9h-3.3l-2.1-5.9l-0.1,9.4H268L268.5,11.9z"/>
<path d="M284.5,11.9h5.3c3.3,0,4.8,1.5,4.8,5.1v6.6c0,3.6-1.5,5.1-4.8,5.1h-5.3V11.9z M289.5,25.6c1.3,0,1.6-0.5,1.6-1.9v-6.9
	c0-1.3-0.4-1.9-1.6-1.9H288v10.6L289.5,25.6L289.5,25.6z"/>
<path d="M311.5,18.3c0,1.6-0.7,3-2.1,3.7l2.8,6.6h-3.9l-2.3-6.1h-1.1v6.1h-3.5V11.9h5.6c3.2,0,4.5,1.3,4.5,4.3V18.3z M306.7,14.9
	h-1.8v4.6h1.8c0.9,0,1.3-0.4,1.3-1.3v-2C308,15.3,307.6,14.9,306.7,14.9z"/>
<path d="M318.7,16.4h3.4l-3.9,17.2H315l1.2-5h-1l-2.6-12.3h3.4l1.3,8.7L318.7,16.4z"/>
<path d="M322.7,16.4h7.7v2.4l-4,7.1h4.1v2.7h-7.9v-2.4l4-7.1h-3.9L322.7,16.4L322.7,16.4z"/>
<path d="M334.9,23.8v0.6c0,1.2,0.5,1.8,1.9,1.8c1,0,2-0.3,2.7-0.6l0.5,2.5c-0.9,0.5-2.4,0.8-3.7,0.8c-3.2,0-4.7-1.6-4.7-4.4v-3.9
	c0-3,1.6-4.5,4.4-4.5c3.1,0,4.2,1.7,4.2,4.5v3.2H334.9z M337.1,20c0-0.8-0.3-1.2-1-1.2S335,19.2,335,20v1.2h2.1V20z"/>
<path d="M347.1,28.7v-8.5c0-0.5-0.3-0.8-0.9-0.8c-0.5,0-0.9,0.1-1.2,0.3v9.1h-3.4V16.4h2.8l0.3,0.9c0.8-0.7,1.9-1.1,3-1.1
	c1.7,0,2.6,0.8,2.6,2.7v9.8H347.1z"/>
<path d="M353.3,13.3H352V12h4.1v1.3h-1.3v3.6h-1.5L353.3,13.3L353.3,13.3z M356.8,11.9h1.4l1.2,2.7l1.2-2.7h1.4l0.2,5h-1.4l-0.1-2.2
	l-0.6,1.6h-1.3l-0.6-1.6l-0.1,2.2h-1.4L356.8,11.9z"/>
<path d="M372.8,14.8h-5.2v-2.9h8.7v2.4l-4.8,14.3H368L372.8,14.8z"/>
<path d="M382.8,25.6c1,0.3,1.9,0.5,2.9,0.5c1.3,0,1.9-0.4,1.9-1.6v-1.2c0-1.1-0.5-1.6-1.7-1.6h-2.5v-3h2.5c1.1,0,1.6-0.5,1.6-1.5V16
	c0-1.2-0.6-1.5-1.8-1.5c-0.9,0-1.7,0.2-2.5,0.5l-0.5-2.6c1.1-0.5,2.4-0.7,3.7-0.7c3.3,0,4.5,1.3,4.5,4V17c0,1.6-0.6,2.5-1.9,3.1
	c1.5,0.4,2.1,1.4,2.1,3.1v1.5c0,2.9-1.8,4.2-4.9,4.2c-1.1,0-2.6-0.2-3.8-0.7L382.8,25.6z"/>
<path d="M397.8,14.8h-5.2v-2.9h8.7v2.4l-4.8,14.3H393L397.8,14.8z"/>
<path d="M402.9,25.6c0.8,0.3,1.8,0.5,2.7,0.5c1.6,0,2.2-0.6,2.2-1.9v-0.8c0-1.2-0.5-1.7-1.8-1.7h-3V12h7.8v3h-4.4v3.8h0.6
	c2.7,0,4.3,1.3,4.3,4.4v1.2c0,3-1.7,4.8-5.2,4.8c-1.2,0-2.6-0.2-3.6-0.5L402.9,25.6z"/>
<path d="M413,16.2c0-2.6,1.6-4.6,4.9-4.6s4.9,2,4.9,4.6v8.2c0,2.6-1.6,4.6-4.9,4.6s-4.9-2-4.9-4.6V16.2z M417.8,26
	c1,0,1.5-0.5,1.5-1.4v-8.7c0-0.9-0.5-1.4-1.5-1.4s-1.5,0.5-1.5,1.4v8.7C416.4,25.5,416.9,26,417.8,26z"/>
<path d="M424.9,11.9h3.5v6.8h3.2v-6.8h3.5v16.8h-3.5v-6.8h-3.2v6.8h-3.5V11.9z"/>
<rect x="229" y="4.7" class="st0" width="2" height="60.8"/>
<g>
	<path d="M36.7,68.5v10.7h-1.4V68.5h-2.4v-1.3H39v1.3H36.7z"/>
	<path d="M44.4,79.2v-6.7c0-0.6-0.3-0.8-0.9-0.8c-0.6,0-1.3,0.2-1.9,0.5v7h-1.4V66.9l1.4-0.2v4.5c0.6-0.4,1.5-0.8,2.3-0.8
		c1.1,0,1.8,0.6,1.8,1.8v7.1h-1.3C44.4,79.3,44.4,79.2,44.4,79.2z"/>
	<path d="M48.9,75.4v1.1c0,1.2,0.5,1.7,1.7,1.7c0.7,0,1.4-0.1,2-0.4l0.2,1.1c-0.6,0.3-1.5,0.5-2.4,0.5c-1.9,0-3-1.1-3-2.9v-3.2
		c0-2,1.2-2.9,2.8-2.9c1.9,0,2.6,1,2.6,2.9v2.1C52.8,75.4,48.9,75.4,48.9,75.4z M51.6,73.2c0-1-0.2-1.6-1.3-1.6
		c-0.9,0-1.4,0.5-1.4,1.5v1.2h2.7V73.2z"/>
	<path d="M64,77.4l1-6.8h1.3l-1.6,8.6h-1.4L61.6,72l-1.7,7.2h-1.4L57,70.6h1.3l1,6.8l1.6-6.8h1.5L64,77.4z"/>
	<path d="M67.1,76.6v-3.5c0-1.8,1.1-2.8,2.9-2.8s2.9,1,2.9,2.8v3.5c0,1.8-1.1,2.8-2.9,2.8S67.1,78.4,67.1,76.6z M71.6,76.8V73
		c0-1.1-0.6-1.5-1.5-1.5s-1.5,0.3-1.5,1.5v3.7c0,1.1,0.6,1.5,1.5,1.5S71.6,77.9,71.6,76.8z"/>
	<path d="M78.1,71.8c-0.6,0.2-1.5,0.5-2.1,0.8v6.5h-1.4v-8.6h1.2l0.1,1c0.5-0.5,1.3-0.9,2.1-1.1L78.1,71.8z"/>
	<path d="M79.2,79.2V66.9l1.4-0.2v12.5C80.6,79.2,79.2,79.2,79.2,79.2z"/>
	<path d="M82.3,72.9c0-1.8,1-2.5,2.6-2.5c0.7,0,1.3,0.1,1.7,0.3v-3.8l1.4-0.2v12.5h-1.2l-0.1-0.6c-0.6,0.4-1.3,0.8-2.3,0.8
		c-1.4,0-2.1-0.9-2.1-2.4V72.9z M86.6,71.8c-0.4-0.1-0.9-0.2-1.4-0.2c-1,0-1.4,0.4-1.4,1.4v4c0,0.8,0.3,1.2,1,1.2s1.3-0.2,1.8-0.6
		V71.8z"/>
	<path d="M91.2,69.2l-1,2.2l-0.6-0.3l0.7-1.9h-0.5v-2h1.4V69.2z"/>
	<path d="M94.4,79.4c-0.6,0-1.4-0.1-2.1-0.4l0.2-1.1c0.5,0.2,1.2,0.3,1.8,0.3c1.1,0,1.4-0.5,1.4-1.3c0-0.9-0.2-1.2-1.4-1.5
		c-1.7-0.5-2.2-1.1-2.2-2.7c0-1.7,1-2.4,2.6-2.4c0.8,0,1.5,0.1,2.1,0.4l-0.2,1.2c-0.6-0.2-1.2-0.3-1.8-0.3c-1.1,0-1.3,0.4-1.3,1.2
		c0,0.8,0.2,1,1.4,1.4c1.6,0.5,2.2,1,2.2,2.7C97.1,78.5,96.1,79.4,94.4,79.4z"/>
	<path d="M105.6,68c-0.2-0.1-0.6-0.1-1-0.1c-0.7,0-0.9,0.3-0.9,1v1.7h1.7l-0.1,1.2h-1.6v7.4h-1.4v-7.4h-1.1v-1.2h1.1v-1.7
		c0-1.6,0.8-2.2,2.1-2.2c0.5,0,1,0.1,1.3,0.2L105.6,68z"/>
	<path d="M111.4,79.2h-1.1l-0.2-0.6c-0.4,0.4-1.2,0.8-2.1,0.8c-1.6,0-2.2-1.1-2.2-2.6c0-1.8,0.8-2.5,2.3-2.5h1.8v-1.6
		c0-0.9-0.4-1.1-1.3-1.1c-0.7,0-1.4,0.1-2.2,0.4l-0.2-1.2c0.6-0.3,1.7-0.5,2.6-0.5c1.6,0,2.5,0.5,2.5,2.1L111.4,79.2L111.4,79.2z
		 M110,75.5h-1.6c-1,0-1.2,0.5-1.2,1.4s0.2,1.4,1.2,1.4c0.6,0,1.2-0.2,1.6-0.5V75.5z"/>
	<path d="M115,79.4c-0.6,0-1.4-0.1-2.1-0.4l0.2-1.1c0.5,0.2,1.2,0.3,1.8,0.3c1.1,0,1.4-0.5,1.4-1.3c0-0.9-0.2-1.2-1.4-1.5
		c-1.7-0.5-2.2-1.1-2.2-2.7c0-1.7,1-2.4,2.6-2.4c0.8,0,1.5,0.1,2.1,0.4l-0.2,1.2c-0.6-0.2-1.2-0.3-1.8-0.3c-1.1,0-1.3,0.4-1.3,1.2
		c0,0.8,0.2,1,1.4,1.4c1.6,0.5,2.2,1,2.2,2.7C117.7,78.5,116.7,79.4,115,79.4z"/>
	<path d="M122.7,79.2c-0.3,0.1-0.8,0.2-1.4,0.2c-1.2,0-1.8-0.7-1.8-1.8v-5.8h-1.1v-1.2h1.1v-2.3l1.4-0.2v2.4h1.9l-0.1,1.2h-1.8v5.7
		c0,0.4,0.2,0.7,0.8,0.7c0.3,0,0.6-0.1,0.9-0.1L122.7,79.2z"/>
	<path d="M125.1,75.4v1.1c0,1.2,0.5,1.7,1.7,1.7c0.7,0,1.4-0.1,2-0.4l0.2,1.1c-0.6,0.3-1.5,0.5-2.4,0.5c-1.9,0-3-1.1-3-2.9v-3.2
		c0-2,1.2-2.9,2.8-2.9c1.9,0,2.6,1,2.6,2.9v2.1C129,75.4,125.1,75.4,125.1,75.4z M127.8,73.2c0-1-0.2-1.6-1.3-1.6
		c-0.9,0-1.4,0.5-1.4,1.5v1.2h2.7C127.8,74.3,127.8,73.2,127.8,73.2z"/>
	<path d="M132.4,79.4c-0.6,0-1.4-0.1-2.1-0.4l0.2-1.1c0.5,0.2,1.2,0.3,1.8,0.3c1.1,0,1.4-0.5,1.4-1.3c0-0.9-0.2-1.2-1.4-1.5
		c-1.7-0.5-2.2-1.1-2.2-2.7c0-1.7,1-2.4,2.6-2.4c0.8,0,1.5,0.1,2.1,0.4l-0.2,1.2c-0.6-0.2-1.2-0.3-1.8-0.3c-1.1,0-1.3,0.4-1.3,1.2
		c0,0.8,0.2,1,1.4,1.4c1.6,0.5,2.2,1,2.2,2.7C135.1,78.5,134.2,79.4,132.4,79.4z"/>
	<path d="M140.2,79.2c-0.3,0.1-0.8,0.2-1.4,0.2c-1.2,0-1.8-0.7-1.8-1.8v-5.8h-1.1v-1.2h1.1v-2.3l1.4-0.2v2.4h1.9l-0.1,1.2h-1.8v5.7
		c0,0.4,0.2,0.7,0.8,0.7c0.3,0,0.6-0.1,0.9-0.1L140.2,79.2z"/>
	<path d="M150.5,76.9c0,1.7-1,2.5-2.6,2.5c-0.6,0-1.3-0.1-1.7-0.3v3.6l-1.4,0.2V70.6h1.2l0.1,0.6c0.5-0.4,1.3-0.8,2.3-0.8
		c1.5,0,2.1,0.8,2.1,2.3L150.5,76.9L150.5,76.9z M149.1,72.8c0-0.8-0.3-1.2-1-1.2s-1.4,0.3-1.8,0.6V78c0.4,0.1,0.9,0.2,1.4,0.2
		c1,0,1.4-0.4,1.4-1.4L149.1,72.8L149.1,72.8z"/>
	<path d="M155.7,71.8c-0.6,0.2-1.5,0.5-2.1,0.8v6.5h-1.4v-8.6h1.2l0.1,1c0.5-0.5,1.3-0.9,2.1-1.1L155.7,71.8z"/>
	<path d="M156.4,76.6v-3.5c0-1.8,1.1-2.8,2.9-2.8c1.8,0,2.9,1,2.9,2.8v3.5c0,1.8-1.1,2.8-2.9,2.8S156.4,78.4,156.4,76.6z
		 M160.8,76.8V73c0-1.1-0.6-1.5-1.5-1.5s-1.5,0.3-1.5,1.5v3.7c0,1.1,0.6,1.5,1.5,1.5S160.8,77.9,160.8,76.8z"/>
	<path d="M163.7,76.6v-3.5c0-1.7,0.9-2.8,2.6-2.8c0.7,0,1.5,0.1,1.9,0.3l-0.2,1.1c-0.4-0.1-1-0.2-1.5-0.2c-1,0-1.4,0.6-1.4,1.5v3.5
		c0,1,0.4,1.5,1.4,1.5c0.5,0,1.1-0.1,1.5-0.2l0.2,1.1c-0.4,0.2-1.2,0.3-1.9,0.3C164.6,79.4,163.7,78.3,163.7,76.6z"/>
	<path d="M170.7,75.4v1.1c0,1.2,0.5,1.7,1.7,1.7c0.7,0,1.4-0.1,2-0.4l0.2,1.1c-0.6,0.3-1.5,0.5-2.4,0.5c-1.9,0-3-1.1-3-2.9v-3.2
		c0-2,1.2-2.9,2.8-2.9c1.9,0,2.6,1,2.6,2.9v2.1C174.6,75.4,170.7,75.4,170.7,75.4z M173.4,73.2c0-1-0.2-1.6-1.3-1.6
		c-0.9,0-1.4,0.5-1.4,1.5v1.2h2.7V73.2z"/>
	<path d="M178.1,79.4c-0.6,0-1.4-0.1-2.1-0.4l0.2-1.1c0.5,0.2,1.2,0.3,1.8,0.3c1.1,0,1.4-0.5,1.4-1.3c0-0.9-0.2-1.2-1.4-1.5
		c-1.7-0.5-2.2-1.1-2.2-2.7c0-1.7,1-2.4,2.6-2.4c0.8,0,1.5,0.1,2.1,0.4l-0.2,1.2c-0.6-0.2-1.2-0.3-1.8-0.3c-1.1,0-1.3,0.4-1.3,1.2
		c0,0.8,0.2,1,1.4,1.4c1.6,0.5,2.2,1,2.2,2.7C180.8,78.5,179.8,79.4,178.1,79.4z"/>
	<path d="M183.8,79.4c-0.6,0-1.4-0.1-2.1-0.4l0.2-1.1c0.5,0.2,1.2,0.3,1.8,0.3c1.1,0,1.4-0.5,1.4-1.3c0-0.9-0.2-1.2-1.4-1.5
		c-1.7-0.5-2.2-1.1-2.2-2.7c0-1.7,1-2.4,2.6-2.4c0.8,0,1.5,0.1,2.1,0.4l-0.2,1.2c-0.6-0.2-1.2-0.3-1.8-0.3c-1.1,0-1.3,0.4-1.3,1.2
		c0,0.8,0.2,1,1.4,1.4c1.6,0.5,2.2,1,2.2,2.7C186.5,78.5,185.5,79.4,183.8,79.4z"/>
	<path d="M187.7,76.6v-3.5c0-1.8,1.1-2.8,2.9-2.8c1.8,0,2.9,1,2.9,2.8v3.5c0,1.8-1.1,2.8-2.9,2.8S187.7,78.4,187.7,76.6z
		 M192.1,76.8V73c0-1.1-0.6-1.5-1.5-1.5s-1.5,0.3-1.5,1.5v3.7c0,1.1,0.6,1.5,1.5,1.5S192.1,77.9,192.1,76.8z"/>
	<path d="M198.7,71.8c-0.6,0.2-1.5,0.5-2.1,0.8v6.5h-1.4v-8.6h1.2l0.1,1c0.5-0.5,1.3-0.9,2.1-1.1L198.7,71.8z"/>
	<path d="M59.5,89.6c-0.2-0.1-0.6-0.1-1-0.1c-0.7,0-0.9,0.3-0.9,1v1.7h1.7l-0.1,1.2h-1.6v7.4h-1.4v-7.4h-1.1v-1.2h1.1v-1.7
		c0-1.6,0.8-2.2,2.1-2.2c0.5,0,1,0.1,1.3,0.2L59.5,89.6z"/>
	<path d="M60,98.2v-3.5c0-1.8,1.1-2.8,2.9-2.8s2.9,1,2.9,2.8v3.5c0,1.8-1.1,2.8-2.9,2.8S60,100,60,98.2z M64.4,98.4v-3.7
		c0-1.1-0.6-1.5-1.5-1.5s-1.5,0.3-1.5,1.5v3.7c0,1.1,0.6,1.5,1.5,1.5S64.4,99.5,64.4,98.4z"/>
	<path d="M71,93.4c-0.6,0.2-1.5,0.5-2.1,0.8v6.5h-1.4v-8.6h1.2l0.1,1c0.5-0.5,1.3-0.9,2.1-1.1L71,93.4z"/>
	<path d="M76.7,92.2v6.7c0,0.6,0.3,0.9,0.9,0.9s1.3-0.2,1.8-0.5v-7.1h1.4v8.6h-1.2l-0.1-0.6c-0.6,0.5-1.5,0.8-2.4,0.8
		c-1.1,0-1.8-0.6-1.8-1.8v-7.1L76.7,92.2L76.7,92.2z"/>
	<path d="M82.8,100.8V88.5l1.4-0.2v12.5H82.8z"/>
	<path d="M89.8,100.8c-0.3,0.1-0.8,0.2-1.4,0.2c-1.2,0-1.8-0.7-1.8-1.8v-5.8h-1.1v-1.2h1.1v-2.3l1.4-0.2v2.4h1.9l-0.1,1.2H88V99
		c0,0.4,0.2,0.7,0.8,0.7c0.3,0,0.6-0.1,0.9-0.1L89.8,100.8z"/>
	<path d="M94.5,93.4c-0.6,0.2-1.5,0.5-2.1,0.8v6.5H91v-8.6h1.2l0.1,1c0.5-0.5,1.3-0.9,2.1-1.1L94.5,93.4z"/>
	<path d="M100.7,100.8h-1.1l-0.2-0.6c-0.4,0.4-1.2,0.8-2.1,0.8c-1.6,0-2.2-1.1-2.2-2.6c0-1.8,0.8-2.5,2.3-2.5h1.8v-1.6
		c0-0.9-0.4-1.1-1.3-1.1c-0.7,0-1.4,0.1-2.2,0.4l-0.2-1.2c0.6-0.3,1.7-0.5,2.6-0.5c1.6,0,2.5,0.5,2.5,2.1L100.7,100.8L100.7,100.8z
		 M99.2,97.1h-1.6c-1,0-1.2,0.5-1.2,1.4s0.2,1.4,1.2,1.4c0.6,0,1.2-0.2,1.6-0.5V97.1z"/>
	<path d="M102.4,96.2V95h3.5v1.2H102.4z"/>
	<path d="M111.4,100.8c-0.3,0.1-0.8,0.2-1.4,0.2c-1.2,0-1.8-0.7-1.8-1.8v-5.8H107v-1.2h1.1v-2.3l1.4-0.2v2.4h1.9l-0.1,1.2h-1.8V99
		c0,0.4,0.2,0.7,0.8,0.7c0.3,0,0.6-0.1,0.9-0.1L111.4,100.8z"/>
	<path d="M116.8,100.8v-6.7c0-0.6-0.3-0.8-0.9-0.8s-1.3,0.2-1.9,0.5v7h-1.4V88.5l1.4-0.2v4.5c0.6-0.4,1.5-0.8,2.3-0.8
		c1.1,0,1.8,0.6,1.8,1.8v7.1L116.8,100.8L116.8,100.8z"/>
	<path d="M120.1,90.7v-2.2h1.4v2.2H120.1z M120.1,100.8v-8.6h1.4v8.6H120.1z"/>
	<path d="M127.6,100.8v-6.7c0-0.6-0.3-0.8-0.9-0.8s-1.3,0.2-1.9,0.5v7h-1.4v-8.6h1.2l0.1,0.6c0.6-0.5,1.5-0.8,2.4-0.8
		c1.1,0,1.8,0.6,1.8,1.8v7.1L127.6,100.8L127.6,100.8z"/>
	<path d="M134.3,100.8V88.5l1.4-0.2v12.5H134.3z"/>
	<path d="M142.9,100.8h-1.1l-0.2-0.6c-0.4,0.4-1.2,0.8-2.1,0.8c-1.6,0-2.2-1.1-2.2-2.6c0-1.8,0.8-2.5,2.3-2.5h1.8v-1.6
		c0-0.9-0.4-1.1-1.3-1.1c-0.7,0-1.4,0.1-2.2,0.4l-0.2-1.2c0.6-0.3,1.7-0.5,2.6-0.5c1.6,0,2.5,0.5,2.5,2.1L142.9,100.8L142.9,100.8z
		 M141.5,97.1h-1.6c-1,0-1.2,0.5-1.2,1.4s0.2,1.4,1.2,1.4c0.6,0,1.2-0.2,1.6-0.5V97.1z"/>
	<path d="M150.3,98.5c0,1.7-1,2.5-2.6,2.5c-0.6,0-1.3-0.1-1.7-0.3v3.6l-1.4,0.2V92.2h1.2l0.1,0.6c0.5-0.4,1.3-0.8,2.3-0.8
		c1.5,0,2.1,0.8,2.1,2.3L150.3,98.5L150.3,98.5z M148.9,94.4c0-0.8-0.3-1.2-1-1.2s-1.4,0.3-1.8,0.6v5.8c0.4,0.1,0.9,0.2,1.4,0.2
		c1,0,1.4-0.4,1.4-1.4L148.9,94.4L148.9,94.4z"/>
	<path d="M155.7,100.8c-0.3,0.1-0.8,0.2-1.4,0.2c-1.2,0-1.8-0.7-1.8-1.8v-5.8h-1.1v-1.2h1.1v-2.3l1.4-0.2v2.4h1.9l-0.1,1.2h-1.8V99
		c0,0.4,0.2,0.7,0.8,0.7c0.3,0,0.6-0.1,0.9-0.1L155.7,100.8z"/>
	<path d="M156.7,98.2v-3.5c0-1.8,1.1-2.8,2.9-2.8c1.8,0,2.9,1,2.9,2.8v3.5c0,1.8-1.1,2.8-2.9,2.8S156.7,100,156.7,98.2z M161.1,98.4
		v-3.7c0-1.1-0.6-1.5-1.5-1.5s-1.5,0.3-1.5,1.5v3.7c0,1.1,0.6,1.5,1.5,1.5S161.1,99.5,161.1,98.4z"/>
	<path d="M169.9,98.5c0,1.7-1,2.5-2.6,2.5c-0.6,0-1.3-0.1-1.7-0.3v3.6l-1.4,0.2V92.2h1.2l0.1,0.6c0.5-0.4,1.3-0.8,2.3-0.8
		c1.5,0,2.1,0.8,2.1,2.3L169.9,98.5L169.9,98.5z M168.5,94.4c0-0.8-0.3-1.2-1-1.2s-1.4,0.3-1.8,0.6v5.8c0.4,0.1,0.9,0.2,1.4,0.2
		c1,0,1.4-0.4,1.4-1.4L168.5,94.4L168.5,94.4z"/>
	<path d="M173.4,101c-0.6,0-1.4-0.1-2.1-0.4l0.2-1.1c0.5,0.2,1.2,0.3,1.8,0.3c1.1,0,1.4-0.5,1.4-1.3c0-0.9-0.2-1.2-1.4-1.5
		c-1.7-0.5-2.2-1.1-2.2-2.7c0-1.7,1-2.4,2.6-2.4c0.8,0,1.5,0.1,2.1,0.4l-0.2,1.2c-0.6-0.2-1.2-0.3-1.8-0.3c-1.1,0-1.3,0.4-1.3,1.2
		c0,0.8,0.2,1,1.4,1.4c1.6,0.5,2.2,1,2.2,2.7C176.1,100.1,175.1,101,173.4,101z"/>
	<path d="M177.5,100.8V99h1.4v1.8H177.5z"/>
</g>
<g>
	<path d="M267.7,68c-0.2-0.1-0.6-0.1-1-0.1c-0.7,0-0.9,0.3-0.9,1v1.7h1.7l-0.1,1.2h-1.6v7.4h-1.4v-7.4h-1.1v-1.2h1.1v-1.7
		c0-1.6,0.8-2.2,2.1-2.2c0.5,0,1,0.1,1.3,0.2L267.7,68z"/>
	<path d="M268.1,76.6v-3.5c0-1.8,1.1-2.8,2.9-2.8s2.9,1,2.9,2.8v3.5c0,1.8-1.1,2.8-2.9,2.8S268.1,78.4,268.1,76.6z M272.6,76.8V73
		c0-1.1-0.6-1.5-1.5-1.5s-1.5,0.3-1.5,1.5v3.7c0,1.1,0.6,1.5,1.5,1.5S272.6,77.9,272.6,76.8z"/>
	<path d="M279.1,71.8c-0.6,0.2-1.5,0.5-2.1,0.8v6.5h-1.4v-8.6h1.2l0.1,1c0.5-0.5,1.3-0.9,2.1-1.1L279.1,71.8z"/>
	<path d="M288.8,79.2h-1.1l-0.2-0.6c-0.4,0.4-1.2,0.8-2.1,0.8c-1.6,0-2.2-1.1-2.2-2.6c0-1.8,0.8-2.5,2.3-2.5h1.8v-1.6
		c0-0.9-0.4-1.1-1.3-1.1c-0.7,0-1.4,0.1-2.2,0.4l-0.2-1.2c0.6-0.3,1.7-0.5,2.6-0.5c1.6,0,2.5,0.5,2.5,2.1v6.8L288.8,79.2L288.8,79.2
		z M287.3,75.5h-1.6c-1,0-1.2,0.5-1.2,1.4s0.2,1.4,1.2,1.4c0.6,0,1.2-0.2,1.6-0.5V75.5z"/>
	<path d="M295.7,79.4c-0.6,0-1.4-0.1-2.1-0.4l0.2-1.1c0.5,0.2,1.2,0.3,1.8,0.3c1.1,0,1.4-0.5,1.4-1.3c0-0.9-0.2-1.2-1.4-1.5
		c-1.7-0.5-2.2-1.1-2.2-2.7c0-1.7,1-2.4,2.6-2.4c0.8,0,1.5,0.1,2.1,0.4l-0.2,1.2c-0.6-0.2-1.2-0.3-1.8-0.3c-1.1,0-1.3,0.4-1.3,1.2
		c0,0.8,0.2,1,1.4,1.4c1.6,0.5,2.2,1,2.2,2.7C298.4,78.5,297.4,79.4,295.7,79.4z"/>
	<path d="M303.9,79.2v-6.7c0-0.6-0.3-0.8-0.9-0.8s-1.3,0.2-1.8,0.5v7h-1.4v-8.6h1.2l0.1,0.6c0.5-0.4,1.5-0.8,2.3-0.8
		s1.3,0.3,1.6,0.8c0.6-0.5,1.6-0.8,2.4-0.8c1.1,0,1.8,0.6,1.8,1.8v7.1h-1.4v-6.7c0-0.6-0.3-0.8-0.9-0.8s-1.3,0.2-1.8,0.5v7
		L303.9,79.2L303.9,79.2z"/>
	<path d="M310.9,76.6v-3.5c0-1.8,1.1-2.8,2.9-2.8s2.9,1,2.9,2.8v3.5c0,1.8-1.1,2.8-2.9,2.8S310.9,78.4,310.9,76.6z M315.4,76.8V73
		c0-1.1-0.6-1.5-1.5-1.5s-1.5,0.3-1.5,1.5v3.7c0,1.1,0.6,1.5,1.5,1.5S315.4,77.9,315.4,76.8z"/>
	<path d="M318.2,76.6v-3.5c0-1.8,1.1-2.8,2.9-2.8s2.9,1,2.9,2.8v3.5c0,1.8-1.1,2.8-2.9,2.8C319.3,79.4,318.2,78.4,318.2,76.6z
		 M322.6,76.8V73c0-1.1-0.6-1.5-1.5-1.5s-1.5,0.3-1.5,1.5v3.7c0,1.1,0.6,1.5,1.5,1.5S322.6,77.9,322.6,76.8z"/>
	<path d="M329.4,79.2c-0.3,0.1-0.8,0.2-1.4,0.2c-1.2,0-1.8-0.7-1.8-1.8v-5.8H325v-1.2h1.1v-2.3l1.4-0.2v2.4h1.9l-0.1,1.2h-1.8v5.7
		c0,0.4,0.2,0.7,0.8,0.7c0.3,0,0.6-0.1,0.9-0.1L329.4,79.2z"/>
	<path d="M334.8,79.2v-6.7c0-0.6-0.3-0.8-0.9-0.8s-1.3,0.2-1.9,0.5v7h-1.4V66.9l1.4-0.2v4.5c0.6-0.4,1.5-0.8,2.3-0.8
		c1.1,0,1.8,0.6,1.8,1.8v7.1h-1.3V79.2z"/>
	<path d="M347.9,79.2h-1.4l-0.6-3h-3.3l-0.6,3h-1.4l3-12h1.5L347.9,79.2z M344.2,68.7l-1.4,6.3h2.8L344.2,68.7z"/>
	<path d="M356,79.2h-1.4l-0.6-3h-3.3l-0.6,3h-1.4l3-12h1.5L356,79.2z M352.3,68.7l-1.4,6.3h2.8L352.3,68.7z"/>
	<path d="M364.1,79.2h-1.4l-0.6-3h-3.3l-0.6,3h-1.4l3-12h1.5L364.1,79.2z M360.3,68.7l-1.4,6.3h2.8L360.3,68.7z"/>
	<path d="M373.9,79.2h-1.1l-0.2-0.6c-0.4,0.4-1.2,0.8-2.1,0.8c-1.6,0-2.2-1.1-2.2-2.6c0-1.8,0.8-2.5,2.3-2.5h1.8v-1.6
		c0-0.9-0.4-1.1-1.3-1.1c-0.7,0-1.4,0.1-2.2,0.4l-0.2-1.2c0.6-0.3,1.7-0.5,2.6-0.5c1.6,0,2.5,0.5,2.5,2.1v6.8L373.9,79.2L373.9,79.2
		z M372.5,75.5h-1.6c-1,0-1.2,0.5-1.2,1.4s0.2,1.4,1.2,1.4c0.6,0,1.2-0.2,1.6-0.5V75.5z"/>
	<path d="M379.8,79.2v-6.7c0-0.6-0.3-0.8-0.9-0.8s-1.3,0.2-1.9,0.5v7h-1.4v-8.6h1.2l0.1,0.6c0.6-0.5,1.5-0.8,2.4-0.8
		c1.1,0,1.8,0.6,1.8,1.8v7.1L379.8,79.2L379.8,79.2z"/>
	<path d="M382.9,72.9c0-1.8,1-2.5,2.6-2.5c0.7,0,1.3,0.1,1.7,0.3v-3.8l1.4-0.2v12.5h-1.2l-0.1-0.6c-0.6,0.4-1.3,0.8-2.3,0.8
		c-1.4,0-2.1-0.9-2.1-2.4V72.9z M387.2,71.8c-0.4-0.1-0.9-0.2-1.4-0.2c-1,0-1.4,0.4-1.4,1.4v4c0,0.8,0.3,1.2,1,1.2s1.3-0.2,1.8-0.6
		V71.8z"/>
	<path d="M395,75.4v1.1c0,1.2,0.5,1.7,1.7,1.7c0.7,0,1.4-0.1,2-0.4L399,79c-0.6,0.3-1.5,0.5-2.4,0.5c-1.9,0-3-1.1-3-2.9v-3.2
		c0-2,1.2-2.9,2.8-2.9c1.9,0,2.6,1,2.6,2.9v2.1L395,75.4L395,75.4z M397.7,73.2c0-1-0.2-1.6-1.3-1.6c-0.9,0-1.4,0.5-1.4,1.5v1.2h2.7
		L397.7,73.2L397.7,73.2z"/>
	<path d="M402.4,79.4c-0.6,0-1.4-0.1-2.1-0.4l0.2-1.1c0.5,0.2,1.2,0.3,1.8,0.3c1.1,0,1.4-0.5,1.4-1.3c0-0.9-0.2-1.2-1.4-1.5
		c-1.7-0.5-2.2-1.1-2.2-2.7c0-1.7,1-2.4,2.6-2.4c0.8,0,1.5,0.1,2.1,0.4l-0.2,1.2c-0.6-0.2-1.2-0.3-1.8-0.3c-1.1,0-1.3,0.4-1.3,1.2
		c0,0.8,0.2,1,1.4,1.4c1.6,0.5,2.2,1,2.2,2.7C405.1,78.5,404.1,79.4,402.4,79.4z"/>
	<path d="M412.2,76.9c0,1.7-1,2.5-2.6,2.5c-0.6,0-1.3-0.1-1.7-0.3v3.6l-1.4,0.2V70.6h1.2l0.1,0.6c0.5-0.4,1.3-0.8,2.3-0.8
		c1.5,0,2.1,0.8,2.1,2.3V76.9z M410.8,72.8c0-0.8-0.3-1.2-1-1.2s-1.4,0.3-1.8,0.6V78c0.4,0.1,0.9,0.2,1.4,0.2c1,0,1.4-0.4,1.4-1.4
		V72.8z"/>
	<path d="M413.6,76.6v-3.5c0-1.8,1.1-2.8,2.9-2.8s2.9,1,2.9,2.8v3.5c0,1.8-1.1,2.8-2.9,2.8S413.6,78.4,413.6,76.6z M418.1,76.8V73
		c0-1.1-0.6-1.5-1.5-1.5S415,71.9,415,73v3.7c0,1.1,0.6,1.5,1.5,1.5S418.1,77.9,418.1,76.8z"/>
	<path d="M424.6,71.8c-0.6,0.2-1.5,0.5-2.1,0.8v6.5h-1.4v-8.6h1.2l0.1,1c0.5-0.5,1.3-0.9,2.1-1.1L424.6,71.8z"/>
	<path d="M429.4,79.2c-0.3,0.1-0.8,0.2-1.4,0.2c-1.2,0-1.8-0.7-1.8-1.8v-5.8h-1.1v-1.2h1.1v-2.3l1.4-0.2v2.4h1.9l-0.1,1.2h-1.8v5.7
		c0,0.4,0.2,0.7,0.8,0.7c0.3,0,0.6-0.1,0.9-0.1L429.4,79.2z"/>
	<path d="M432.4,79.4c-0.6,0-1.4-0.1-2.1-0.4l0.2-1.1c0.5,0.2,1.2,0.3,1.8,0.3c1.1,0,1.4-0.5,1.4-1.3c0-0.9-0.2-1.2-1.4-1.5
		c-1.7-0.5-2.2-1.1-2.2-2.7c0-1.7,1-2.4,2.6-2.4c0.8,0,1.5,0.1,2.1,0.4l-0.2,1.2c-0.6-0.2-1.2-0.3-1.8-0.3c-1.1,0-1.3,0.4-1.3,1.2
		c0,0.8,0.2,1,1.4,1.4c1.6,0.5,2.2,1,2.2,2.7C435.1,78.5,434.1,79.4,432.4,79.4z"/>
	<path d="M301.4,95.2c0,1.9-1,3-2.9,3h-0.1c-0.2,0.3-0.3,0.6-0.3,0.9s0.2,0.5,0.6,0.6l1,0.1c1.4,0.2,2.1,0.8,2.1,2.3
		c0,1.7-1.2,2.4-3,2.4c-0.8,0-1.6-0.1-2.3-0.3l0.2-1.1c0.8,0.2,1.4,0.3,2.1,0.3c1.2,0,1.7-0.3,1.7-1.1c0-0.7-0.2-1-1.1-1.2l-1-0.2
		c-1-0.1-1.6-0.5-1.6-1.5c0-0.7,0.4-1.1,0.7-1.4c-1-0.4-1.5-1.4-1.5-2.8V95c0-1.9,0.9-3.1,2.8-3.1c0.5,0,0.9,0.1,1.2,0.2h2.2V93
		l-1,0.2c0.2,0.4,0.3,1,0.3,1.8v0.2H301.4z M300.1,95.1c0-1.5-0.4-1.9-1.4-1.9s-1.4,0.5-1.4,1.9v0.2c0,1.4,0.5,1.9,1.4,1.9
		s1.4-0.5,1.4-1.8V95.1z"/>
	<path d="M308.3,100.8h-1.1l-0.2-0.6c-0.4,0.4-1.2,0.8-2.1,0.8c-1.6,0-2.2-1.1-2.2-2.6c0-1.8,0.8-2.5,2.3-2.5h1.8v-1.6
		c0-0.9-0.4-1.1-1.3-1.1c-0.7,0-1.4,0.1-2.2,0.4l-0.2-1.2c0.6-0.3,1.7-0.5,2.6-0.5c1.6,0,2.5,0.5,2.5,2.1v6.8L308.3,100.8
		L308.3,100.8z M306.9,97.1h-1.6c-1,0-1.2,0.5-1.2,1.4s0.2,1.4,1.2,1.4c0.6,0,1.2-0.2,1.6-0.5V97.1z"/>
	<path d="M314.2,100.8v-6.7c0-0.6-0.3-0.8-0.9-0.8s-1.3,0.2-1.8,0.5v7h-1.4v-8.6h1.2l0.1,0.6c0.5-0.4,1.5-0.8,2.3-0.8
		s1.3,0.3,1.6,0.8c0.6-0.5,1.6-0.8,2.4-0.8c1.1,0,1.8,0.6,1.8,1.8v7.1h-1.4v-6.7c0-0.6-0.3-0.8-0.9-0.8s-1.3,0.2-1.8,0.5v7
		L314.2,100.8L314.2,100.8z"/>
	<path d="M321.5,90.7v-2.2h1.4v2.2H321.5z M321.5,100.8v-8.6h1.4v8.6H321.5z"/>
	<path d="M329,100.8v-6.7c0-0.6-0.3-0.8-0.9-0.8s-1.3,0.2-1.9,0.5v7h-1.4v-8.6h1.2l0.1,0.6c0.6-0.5,1.5-0.8,2.4-0.8
		c1.1,0,1.8,0.6,1.8,1.8v7.1L329,100.8L329,100.8z"/>
	<path d="M337.4,95.2c0,1.9-1,3-2.9,3h-0.1c-0.2,0.3-0.3,0.6-0.3,0.9s0.2,0.5,0.6,0.6l1,0.1c1.4,0.2,2.1,0.8,2.1,2.3
		c0,1.7-1.2,2.4-3,2.4c-0.8,0-1.6-0.1-2.3-0.3l0.2-1.1c0.8,0.2,1.4,0.3,2.1,0.3c1.2,0,1.7-0.3,1.7-1.1c0-0.7-0.2-1-1.1-1.2l-1-0.2
		c-1-0.1-1.6-0.5-1.6-1.5c0-0.7,0.4-1.1,0.7-1.4c-1-0.4-1.5-1.4-1.5-2.8V95c0-1.9,0.9-3.1,2.8-3.1c0.5,0,0.9,0.1,1.2,0.2h2.2V93
		l-1,0.2c0.2,0.4,0.3,1,0.3,1.8v0.2H337.4z M336,95.1c0-1.5-0.4-1.9-1.4-1.9s-1.4,0.5-1.4,1.9v0.2c0,1.4,0.5,1.9,1.4,1.9
		s1.4-0.5,1.4-1.8V95.1z"/>
	<path d="M343.6,97v1.1c0,1.2,0.5,1.7,1.7,1.7c0.7,0,1.4-0.1,2-0.4l0.2,1.1c-0.6,0.3-1.5,0.5-2.4,0.5c-1.9,0-3-1.1-3-2.9v-3.2
		c0-2,1.2-2.9,2.8-2.9c1.9,0,2.6,1,2.6,2.9V97H343.6z M346.3,94.8c0-1-0.2-1.6-1.3-1.6c-0.9,0-1.4,0.5-1.4,1.5v1.2h2.7L346.3,94.8
		L346.3,94.8z"/>
	<path d="M349.9,100.8h-1.4l2.3-4.3l-2.2-4.3h1.4l1.5,3.2l1.5-3.2h1.4l-2.2,4.3l2.3,4.3H353l-1.5-3.1L349.9,100.8z"/>
	<path d="M361.2,98.5c0,1.7-1,2.5-2.6,2.5c-0.6,0-1.3-0.1-1.7-0.3v3.6l-1.4,0.2V92.2h1.2l0.1,0.6c0.5-0.4,1.3-0.8,2.3-0.8
		c1.5,0,2.1,0.8,2.1,2.3V98.5z M359.8,94.4c0-0.8-0.3-1.2-1-1.2s-1.4,0.3-1.8,0.6v5.8c0.4,0.1,0.9,0.2,1.4,0.2c1,0,1.4-0.4,1.4-1.4
		V94.4z"/>
	<path d="M364.1,97v1.1c0,1.2,0.5,1.7,1.7,1.7c0.7,0,1.4-0.1,2-0.4l0.2,1.1c-0.6,0.3-1.5,0.5-2.4,0.5c-1.9,0-3-1.1-3-2.9v-3.2
		c0-2,1.2-2.9,2.8-2.9c1.9,0,2.6,1,2.6,2.9V97H364.1z M366.8,94.8c0-1-0.2-1.6-1.3-1.6c-0.9,0-1.4,0.5-1.4,1.5v1.2h2.7L366.8,94.8
		L366.8,94.8z"/>
	<path d="M373.1,93.4c-0.6,0.2-1.5,0.5-2.1,0.8v6.5h-1.4v-8.6h1.2l0.1,1c0.5-0.5,1.3-0.9,2.1-1.1L373.1,93.4z"/>
	<path d="M374.2,90.7v-2.2h1.4v2.2H374.2z M374.2,100.8v-8.6h1.4v8.6H374.2z"/>
	<path d="M378.7,97v1.1c0,1.2,0.5,1.7,1.7,1.7c0.7,0,1.4-0.1,2-0.4l0.2,1.1c-0.6,0.3-1.5,0.5-2.4,0.5c-1.9,0-3-1.1-3-2.9v-3.2
		c0-2,1.2-2.9,2.8-2.9c1.9,0,2.6,1,2.6,2.9V97H378.7z M381.4,94.8c0-1-0.2-1.6-1.3-1.6c-0.9,0-1.4,0.5-1.4,1.5v1.2h2.7L381.4,94.8
		L381.4,94.8z"/>
	<path d="M388.4,100.8v-6.7c0-0.6-0.3-0.8-0.9-0.8s-1.3,0.2-1.9,0.5v7h-1.4v-8.6h1.2l0.1,0.6c0.6-0.5,1.5-0.8,2.4-0.8
		c1.1,0,1.8,0.6,1.8,1.8v7.1L388.4,100.8L388.4,100.8z"/>
	<path d="M391.4,98.2v-3.5c0-1.7,0.9-2.8,2.6-2.8c0.7,0,1.5,0.1,1.9,0.3l-0.2,1.1c-0.4-0.1-1-0.2-1.5-0.2c-1,0-1.4,0.6-1.4,1.5v3.5
		c0,1,0.4,1.5,1.4,1.5c0.5,0,1.1-0.1,1.5-0.2l0.2,1.1c-0.4,0.2-1.2,0.3-1.9,0.3C392.3,101,391.4,99.9,391.4,98.2z"/>
	<path d="M398.4,97v1.1c0,1.2,0.5,1.7,1.7,1.7c0.7,0,1.4-0.1,2-0.4l0.2,1.1c-0.6,0.3-1.5,0.5-2.4,0.5c-1.9,0-3-1.1-3-2.9v-3.2
		c0-2,1.2-2.9,2.8-2.9c1.9,0,2.6,1,2.6,2.9V97H398.4z M401.1,94.8c0-1-0.2-1.6-1.3-1.6c-0.9,0-1.4,0.5-1.4,1.5v1.2h2.7L401.1,94.8
		L401.1,94.8z"/>
	<path d="M404.1,100.8V99h1.4v1.8H404.1z"/>
</g>
<g class="st1">
	<path d="M73.8,51.3h-2.2l-0.1-8.5l-1.9,5.7h-2.2l-1.9-5.7l-0.2,8.5h-2.2l0.3-13.2h2.3l2.7,7.9l2.7-7.9h2.3L73.8,51.3z"/>
	<path d="M82.2,48.3c0,2-1.2,3.2-3.5,3.2c-2.2,0-3.5-1.2-3.5-3.2v-3.6c0-2,1.2-3.2,3.5-3.2s3.5,1.2,3.5,3.2V48.3z M80,44.5
		c0-0.8-0.5-1.2-1.2-1.2s-1.2,0.3-1.2,1.2v4c0,0.8,0.5,1.2,1.2,1.2s1.2-0.3,1.2-1.2V44.5z"/>
	<path d="M90.6,48.3c0,2.2-1.2,3.2-3.7,3.2c-1.1,0-2.2-0.2-3.1-0.4V37.7l2.2-0.3v4.8c0.5-0.4,1.4-0.7,2.2-0.7c1.6,0,2.3,0.8,2.3,2.6
		L90.6,48.3L90.6,48.3z M88.3,44.4c0-0.7-0.2-0.9-1-0.9c-0.5,0-1,0.2-1.3,0.3v5.7c0.2,0.1,0.6,0.1,0.9,0.1c0.9,0,1.4-0.4,1.4-1.2
		V44.4z"/>
	<path d="M92.1,40.5v-2.7h2.2v2.7H92.1z M92.1,51.3v-9.6h2.2v9.6C94.3,51.3,92.1,51.3,92.1,51.3z"/>
	<path d="M96.1,51.3V37.7l2.2-0.3v14h-2.2V51.3z"/>
	<path d="M102.1,47.4v0.7c0,1.1,0.5,1.6,1.7,1.6c0.7,0,1.6-0.2,2.2-0.4l0.3,1.7c-0.8,0.3-1.9,0.5-2.9,0.5c-2.3,0-3.6-1.2-3.6-3.4
		v-3.2c0-2.2,1.2-3.4,3.3-3.4c2.3,0,3.2,1.2,3.2,3.3v2.5L102.1,47.4L102.1,47.4z M104.3,44.6c0-0.8-0.2-1.2-1.1-1.2
		s-1.1,0.4-1.1,1.2v1.1h2.2C104.3,45.6,104.3,44.6,104.3,44.6z"/>
	<path d="M115.7,38.1c2.4,0,3.4,1.1,3.4,3.3v1.7c0,2.1-1.2,3.3-3.5,3.3H114v5h-2.2V38.1H115.7z M116.8,41.4c0-0.9-0.4-1.3-1.2-1.3
		H114v4.3h1.6c0.8,0,1.2-0.4,1.2-1.3C116.8,43.1,116.8,41.4,116.8,41.4z"/>
	<path d="M124.7,43.8c-0.7,0.2-1.5,0.3-2.2,0.7v6.8h-2.2v-9.6h1.8l0.2,1c0.6-0.6,1.4-1,2.2-1.2L124.7,43.8z"/>
	<path d="M132.4,48.3c0,2-1.2,3.2-3.5,3.2c-2.2,0-3.5-1.2-3.5-3.2v-3.6c0-2,1.2-3.2,3.5-3.2s3.5,1.2,3.5,3.2V48.3z M130.1,44.5
		c0-0.8-0.5-1.2-1.2-1.2s-1.2,0.3-1.2,1.2v4c0,0.8,0.5,1.2,1.2,1.2s1.2-0.3,1.2-1.2V44.5z"/>
	<path d="M133.6,48.2v-3.4c0-2,0.9-3.3,3.2-3.3c0.9,0,1.6,0.2,2.2,0.4l-0.2,1.8c-0.3-0.2-0.9-0.2-1.4-0.2c-1.1,0-1.4,0.6-1.4,1.5
		v3.2c0,0.9,0.3,1.5,1.4,1.5c0.5,0,1.1-0.1,1.4-0.2l0.2,1.8c-0.6,0.2-1.3,0.4-2.2,0.4C134.5,51.6,133.6,50.2,133.6,48.2z"/>
	<path d="M142.2,47.4v0.7c0,1.1,0.5,1.6,1.7,1.6c0.7,0,1.6-0.2,2.2-0.4l0.3,1.7c-0.8,0.3-1.9,0.5-2.9,0.5c-2.3,0-3.6-1.2-3.6-3.4
		v-3.2c0-2.2,1.2-3.4,3.3-3.4c2.3,0,3.2,1.2,3.2,3.3v2.5L142.2,47.4L142.2,47.4z M144.3,44.6c0-0.8-0.2-1.2-1.1-1.2
		s-1.1,0.4-1.1,1.2v1.1h2.2L144.3,44.6L144.3,44.6z"/>
	<path d="M150.2,51.6c-0.7,0-1.8-0.2-2.7-0.4l0.3-1.8c0.7,0.2,1.3,0.4,2.2,0.4s1.2-0.2,1.2-1c0-0.7-0.2-0.8-1.2-1.2
		c-2.1-0.7-2.5-1.2-2.5-3.2c0-2.1,1.2-2.8,3.2-2.8c0.9,0,1.7,0.2,2.5,0.4l-0.2,1.8c-0.6-0.2-1.3-0.4-2.1-0.4s-1.2,0.2-1.2,0.9
		s0.2,0.7,1.2,1.1c1.9,0.7,2.6,1,2.6,3.1C153.3,50.4,152.3,51.6,150.2,51.6z"/>
	<path d="M156.8,51.6c-0.7,0-1.8-0.2-2.7-0.4l0.3-1.8c0.7,0.2,1.3,0.4,2.2,0.4s1.2-0.2,1.2-1c0-0.7-0.2-0.8-1.2-1.2
		c-2.1-0.7-2.5-1.2-2.5-3.2c0-2.1,1.2-2.8,3.2-2.8c0.9,0,1.7,0.2,2.5,0.4l-0.2,1.8c-0.6-0.2-1.3-0.4-2.1-0.4s-1.2,0.2-1.2,0.9
		s0.2,0.7,1.2,1.1c1.9,0.7,2.6,1,2.6,3.1C160,50.4,159,51.6,156.8,51.6z"/>
	<path d="M168,48.3c0,2-1.2,3.2-3.5,3.2s-3.5-1.2-3.5-3.2v-3.6c0-2,1.2-3.2,3.5-3.2s3.5,1.2,3.5,3.2V48.3z M165.7,44.5
		c0-0.8-0.5-1.2-1.2-1.2s-1.2,0.3-1.2,1.2v4c0,0.8,0.5,1.2,1.2,1.2s1.2-0.3,1.2-1.2V44.5z"/>
	<path d="M173.9,43.8c-0.7,0.2-1.5,0.3-2.2,0.7v6.8h-2.2v-9.6h1.8l0.2,1c0.6-0.6,1.4-1,2.2-1.2L173.9,43.8z"/>
</g>
<g class="st1">
	<path d="M302.6,52.4h-2.2l-0.1-8.5l-1.9,5.7h-2.2l-1.9-5.7l-0.2,8.5h-2.2l0.3-13.2h2.3l2.7,7.9l2.7-7.9h2.3L302.6,52.4z"/>
	<path d="M311,49.4c0,2-1.2,3.2-3.5,3.2s-3.5-1.2-3.5-3.2v-3.6c0-2,1.2-3.2,3.5-3.2s3.5,1.2,3.5,3.2V49.4z M308.8,45.6
		c0-0.8-0.5-1.2-1.2-1.2s-1.2,0.3-1.2,1.2v4.1c0,0.8,0.5,1.2,1.2,1.2s1.2-0.3,1.2-1.2V45.6z"/>
	<path d="M319.3,49.4c0,2.2-1.2,3.2-3.7,3.2c-1.1,0-2.2-0.2-3.1-0.4V38.7l2.2-0.3v4.8c0.5-0.4,1.4-0.7,2.2-0.7
		c1.6,0,2.3,0.8,2.3,2.6v4.3H319.3z M317.1,45.5c0-0.7-0.2-0.9-1-0.9c-0.5,0-1,0.2-1.3,0.3v5.7c0.2,0.1,0.6,0.1,0.9,0.1
		c0.9,0,1.4-0.4,1.4-1.2V45.5z"/>
	<path d="M320.9,41.6v-2.7h2.2v2.7H320.9z M320.9,52.4v-9.7h2.2v9.7C323.2,52.4,320.9,52.4,320.9,52.4z"/>
	<path d="M324.9,52.4V38.7l2.2-0.3v14H324.9z"/>
	<path d="M330.9,48.4v0.7c0,1.1,0.5,1.6,1.7,1.6c0.7,0,1.6-0.2,2.2-0.4l0.3,1.7c-0.8,0.3-1.9,0.5-2.9,0.5c-2.3,0-3.6-1.2-3.6-3.4
		v-3.2c0-2.2,1.2-3.4,3.3-3.4c2.3,0,3.2,1.2,3.2,3.3v2.5L330.9,48.4L330.9,48.4z M333.1,45.6c0-0.8-0.2-1.2-1.1-1.2
		s-1.1,0.4-1.1,1.2v1.1h2.2V45.6L333.1,45.6z"/>
	<path d="M344.5,39.1c2.4,0,3.4,1.1,3.4,3.3v1.7c0,2.1-1.2,3.3-3.5,3.3h-1.7v5h-2.2V39.1H344.5z M345.6,42.5c0-0.9-0.4-1.3-1.2-1.3
		h-1.6v4.3h1.6c0.8,0,1.2-0.4,1.2-1.3V42.5z"/>
	<path d="M353.5,44.9c-0.7,0.2-1.5,0.3-2.2,0.7v6.8H349v-9.7h1.8l0.2,1c0.6-0.6,1.4-1,2.2-1.2L353.5,44.9z"/>
	<path d="M361.1,49.4c0,2-1.2,3.2-3.5,3.2s-3.5-1.2-3.5-3.2v-3.6c0-2,1.2-3.2,3.5-3.2s3.5,1.2,3.5,3.2V49.4z M358.9,45.6
		c0-0.8-0.5-1.2-1.2-1.2s-1.2,0.3-1.2,1.2v4.1c0,0.8,0.5,1.2,1.2,1.2s1.2-0.3,1.2-1.2V45.6z"/>
	<path d="M362.4,49.3v-3.4c0-2,0.9-3.3,3.2-3.3c0.9,0,1.6,0.2,2.2,0.4l-0.2,1.8c-0.3-0.2-0.9-0.2-1.4-0.2c-1.1,0-1.4,0.6-1.4,1.5
		v3.2c0,0.9,0.3,1.5,1.4,1.5c0.5,0,1.1-0.1,1.4-0.2l0.2,1.8c-0.6,0.2-1.3,0.4-2.2,0.4C363.3,52.6,362.4,51.3,362.4,49.3z"/>
	<path d="M370.9,48.4v0.7c0,1.1,0.5,1.6,1.7,1.6c0.7,0,1.6-0.2,2.2-0.4l0.3,1.7c-0.8,0.3-1.9,0.5-2.9,0.5c-2.3,0-3.6-1.2-3.6-3.4
		v-3.2c0-2.2,1.2-3.4,3.3-3.4c2.3,0,3.2,1.2,3.2,3.3v2.5L370.9,48.4L370.9,48.4z M373.1,45.6c0-0.8-0.2-1.2-1.1-1.2
		s-1.1,0.4-1.1,1.2v1.1h2.2V45.6L373.1,45.6z"/>
	<path d="M378.9,52.6c-0.7,0-1.8-0.2-2.7-0.4l0.3-1.8c0.7,0.2,1.3,0.4,2.2,0.4c0.9,0,1.2-0.2,1.2-1c0-0.7-0.2-0.8-1.2-1.2
		c-2.1-0.7-2.5-1.2-2.5-3.2c0-2.1,1.2-2.8,3.2-2.8c0.9,0,1.7,0.2,2.5,0.4l-0.2,1.8c-0.6-0.2-1.3-0.4-2.1-0.4c-0.8,0-1.2,0.2-1.2,0.9
		s0.2,0.7,1.2,1.1c1.9,0.7,2.6,1,2.6,3.1C382.1,51.5,381.1,52.6,378.9,52.6z"/>
	<path d="M385.6,52.6c-0.7,0-1.8-0.2-2.7-0.4l0.3-1.8c0.7,0.2,1.3,0.4,2.2,0.4c0.9,0,1.2-0.2,1.2-1c0-0.7-0.2-0.8-1.2-1.2
		c-2.1-0.7-2.5-1.2-2.5-3.2c0-2.1,1.2-2.8,3.2-2.8c0.9,0,1.7,0.2,2.5,0.4l-0.2,1.8c-0.6-0.2-1.3-0.4-2.1-0.4c-0.8,0-1.2,0.2-1.2,0.9
		s0.2,0.7,1.2,1.1c1.9,0.7,2.6,1,2.6,3.1C388.7,51.5,387.8,52.6,385.6,52.6z"/>
	<path d="M396.7,49.4c0,2-1.2,3.2-3.5,3.2s-3.5-1.2-3.5-3.2v-3.6c0-2,1.2-3.2,3.5-3.2s3.5,1.2,3.5,3.2V49.4z M394.5,45.6
		c0-0.8-0.5-1.2-1.2-1.2s-1.2,0.3-1.2,1.2v4.1c0,0.8,0.5,1.2,1.2,1.2s1.2-0.3,1.2-1.2V45.6z"/>
	<path d="M402.6,44.9c-0.7,0.2-1.5,0.3-2.2,0.7v6.8h-2.2v-9.7h1.8l0.2,1c0.6-0.6,1.4-1,2.2-1.2L402.6,44.9z"/>
</g>
<g class="st1">
	<path d="M178.4,92.3c0.7-0.7,0.8-0.8,1.4-1.5c0.8-1,1-1.1,1-1.7v-0.1c0-0.4-0.2-0.6-0.8-0.6c-0.4,0-0.9,0.1-1.4,0.2l-0.1-0.9
		c0.4-0.1,1-0.2,1.6-0.2c1.3,0,1.8,0.5,1.8,1.4V89c0,0.8-0.1,1-0.9,2c-0.5,0.6-0.7,0.8-1,1.2h1.9v0.9h-3.4V92.3z"/>
</g>
</svg>
