<svg xmlns="http://www.w3.org/2000/svg" xmlns:xlink="http://www.w3.org/1999/xlink" viewBox="0 0 60 60">
  <defs>
    <style>
      .a {
        fill: #0c0c0c;
      }

      .b {
        fill: url(#a);
      }

      .c {
        fill: #664e27;
      }

      .d {
        fill: #4c3526;
      }

      .e {
        fill: #ff717f;
      }

      .f {
        fill: #fff;
      }

      .g {
        fill: #65b1ef;
      }
    </style>
    <linearGradient id="a" x1="30.01" y1="60.01" x2="30.01" y2="-0.01" gradientUnits="userSpaceOnUse">
      <stop offset="0" stop-color="#ffc315"/>
      <stop offset="0.17" stop-color="#ffc61a"/>
      <stop offset="0.38" stop-color="#ffce29"/>
      <stop offset="0.6" stop-color="#ffdc41"/>
      <stop offset="0.83" stop-color="#ffef62"/>
      <stop offset="1" stop-color="#ffff7f"/>
    </linearGradient>
  </defs>
  <title>img.feedback-correct-02</title>
  <rect class="a" x="-2703.66" y="-3180.99" width="7760" height="5585.9"/>
  <g>
    <circle class="b" cx="30.01" cy="30" r="30.01"/>
    <path class="c" d="M47.72,32.4c-.4-.5-1.1-.4-1.9-.4H14.2c-.8,0-1.5-.1-1.9.4C8.4,37.4,13,52,30,52S51.62,37.4,47.72,32.4"/>
    <path class="d" d="M31.81,39.7c-.6,0-1.5.5-1.1,2,.2.7,1.2,1.6,1.2,2.8,0,2.4-3.8,2.4-3.8,0,0-1.2,1-2,1.2-2.8.3-1.4-.6-2-1.1-2a4.59,4.59,0,0,0-4.1,4.6,6,6,0,0,0,12,0,5,5,0,0,0-4.3-4.6"/>
    <path class="e" d="M22.31,48.71a18.57,18.57,0,0,0,7.7,1.5,20.32,20.32,0,0,0,7.7-1.5A16.53,16.53,0,0,0,30,47a16.53,16.53,0,0,0-7.7,1.7"/>
    <path class="f" d="M45,34H15.1C13,34,13,38,15,38H45c2,0,2-4,0-4"/>
    <g>
      <path class="g" d="M57.42,34.9c7.3,7.7-2.6,18.11-9.9,10.4C42.21,39.7,41.91,29,41.91,29s10.2.3,15.51,5.9"/>
      <path class="g" d="M12.5,45.31C5.2,53-4.7,42.61,2.6,34.9,7.9,29.3,18.1,29,18.1,29s-.3,10.7-5.6,16.31"/>
    </g>
    <g>
      <path class="c" d="M26.51,26.7c-1.9-5.1-4.7-7.7-7.5-7.7s-5.6,2.6-7.5,7.7c-.2.5.8,1.4,1.3.9a8.47,8.47,0,0,1,12.41,0c.6.5,1.5-.4,1.3-.9"/>
      <path class="c" d="M48.42,26.7c-1.9-5.1-4.7-7.7-7.5-7.7s-5.6,2.6-7.5,7.7c-.2.5.8,1.4,1.3.9a8.47,8.47,0,0,1,12.41,0c.5.5,1.5-.4,1.3-.9"/>
    </g>
  </g>
</svg>
