<?xml version="1.0" encoding="utf-8"?>
<!-- Generator: Adobe Illustrator 21.0.0, SVG Export Plug-In . SVG Version: 6.00 Build 0)  -->
<svg version="1.1" id="Layer_1" xmlns="http://www.w3.org/2000/svg" xmlns:xlink="http://www.w3.org/1999/xlink" x="0px" y="0px"
	 viewBox="0 0 150 150" style="enable-background:new 0 0 150 150;" xml:space="preserve">
<style type="text/css">
	.st0{fill:#FF7600;}
</style>
<title>Icon</title>
<path d="M75,4.7c38.8,0,70.3,31.5,70.3,70.3s-31.5,70.3-70.3,70.3S4.7,113.8,4.7,75C4.7,36.2,36.2,4.7,75,4.7 M75,0
	C33.6,0,0,33.6,0,75s33.6,75,75,75s75-33.6,75-75S116.4,0,75,0"/>
<path class="st0" d="M76.7,120.2c-14.3,0-26-5.2-34.6-15.4l-1.5-1.8l16.3-15.5l1.7,1.9c5.8,6.5,11.3,9.2,18.4,9.2
	c5.7,0,9.4-3,9.4-7.7v-0.2c0-7.1-8.7-8.2-13.9-8.2h-9.6l-3.7-15l16.8-16.9H46.4V29.8h61.7v17.5L89.5,65.1
	c12.9,3.6,19.9,12.3,19.9,24.9v0.2C109.4,108.1,96.3,120.2,76.7,120.2z M47.5,103.3c7.5,7.9,17.3,11.9,29.2,11.9
	c16.6,0,27.7-10,27.7-25V90c0-11.7-6.9-18.7-20.5-21l-4.9-0.8l24-23V34.8H51.4v10.8h36.5L64.6,69.1l2.1,8.5h5.7
	c11.8,0,18.9,4.9,18.9,13.2v0.2c0,7.5-5.9,12.7-14.4,12.7c-7.8,0-14.2-2.8-20.3-9L47.5,103.3z"/>
</svg>
