<svg id="Layer_1" data-name="Layer 1" xmlns="http://www.w3.org/2000/svg" viewBox="0 0 150 150"><defs><style>.cls-1{fill:#4797e1;}</style></defs><title>Icon</title><path class="cls-1" d="M75,0a75,75,0,1,0,75,75A75,75,0,0,0,75,0m33.72,120.28H41.28V101.9l29-23.77C81.14,69.14,84,65.37,84,59.81c0-5.38-3.22-8.47-8.83-8.47-5.18,0-8.9,2.53-15.3,10.41l-1.57,1.93L41.44,50.13l1.41-1.92c8.38-11.42,16.9-18.5,33.47-18.5,18.88,0,31.56,11.46,31.56,28.53v.24c0,15.6-8.75,23.5-23.15,34.65l-8,6.13h31.94Zm-62.44-5h57.44v-11H62.12L81.67,89.17c14.74-11.41,21.21-17.77,21.21-30.69v-.24c0-14.29-10.43-23.53-26.56-23.53-13.61,0-20.85,5.3-28,14.54l9.21,7.43c5.62-6.58,10.54-10.34,17.59-10.34,8.4,0,13.83,5.29,13.83,13.47S84.38,73,73.46,82L46.28,104.27Z"/></svg>