<?xml version="1.0" encoding="utf-8"?>
<!-- Generator: Adobe Illustrator 21.0.0, SVG Export Plug-In . SVG Version: 6.00 Build 0)  -->
<svg version="1.1" id="Layer_1" xmlns="http://www.w3.org/2000/svg" xmlns:xlink="http://www.w3.org/1999/xlink" x="0px" y="0px"
	 viewBox="0 0 150 150" style="enable-background:new 0 0 150 150;" xml:space="preserve">
<style type="text/css">
	.st0{fill:#75CA4F;}
</style>
<title>Icon</title>
<path d="M75,4.7c38.8,0,70.3,31.5,70.3,70.3s-31.5,70.3-70.3,70.3S4.7,113.8,4.7,75C4.7,36.2,36.2,4.7,75,4.7 M75,0
	C33.6,0,0,33.6,0,75s33.6,75,75,75s75-33.6,75-75S116.4,0,75,0"/>
<path class="st0" d="M87.2,119.1H63.9V53.4l-14,3.5l-5.1-20l26.9-8h15.5V119.1z M68.9,114.1h13.4V33.9h-9.8l-21.6,6.4l2.7,10.5
	L68.9,47L68.9,114.1z"/>
</svg>
