<svg id="Layer_1" data-name="Layer 1" xmlns="http://www.w3.org/2000/svg" viewBox="0 0 150 150"><defs><style>.cls-1{fill:#4797e1;}</style></defs><title>Icon</title><path class="cls-1" d="M75,0a75,75,0,1,0,75,75A75,75,0,0,0,75,0m1.72,120.16c-14.35,0-26-5.18-34.63-15.39L40.57,103,56.86,87.47l1.72,1.93c5.75,6.47,11.25,9.23,18.38,9.23,5.69,0,9.37-3,9.37-7.69V90.7c0-7.11-8.72-8.17-13.92-8.17H62.78l-3.68-15L75.87,50.65H46.41V29.83h61.7V47.3L89.51,65.07C102.4,68.66,109.43,77.38,109.43,90v.24C109.43,108.14,96.29,120.17,76.72,120.17ZM47.48,103.31c7.46,7.87,17.29,11.86,29.24,11.86,16.58,0,27.71-10,27.71-25V90c0-11.66-6.88-18.74-20.45-21l-4.92-.83,24-23V34.83H51.41V45.65H87.89L64.62,69.06l2.08,8.47h5.71c11.85,0,18.92,4.93,18.92,13.17v.24c0,7.47-5.91,12.69-14.37,12.69-7.84,0-14.21-2.8-20.35-9Z"/></svg>