<?xml version="1.0" encoding="utf-8"?>
<!-- Generator: Adobe Illustrator 21.0.0, SVG Export Plug-In . SVG Version: 6.00 Build 0)  -->
<svg version="1.1" id="Layer_1" xmlns="http://www.w3.org/2000/svg" xmlns:xlink="http://www.w3.org/1999/xlink" x="0px" y="0px"
	 viewBox="0 0 150 150" style="enable-background:new 0 0 150 150;" xml:space="preserve">
<style type="text/css">
	.st0{fill:#4797E1;}
</style>
<title>Icon</title>
<path d="M75,4.7c38.8,0,70.3,31.5,70.3,70.3s-31.5,70.3-70.3,70.3S4.7,113.8,4.7,75C4.7,36.2,36.2,4.7,75,4.7 M75,0
	C33.6,0,0,33.6,0,75s33.6,75,75,75s75-33.6,75-75S116.4,0,75,0"/>
<path class="st0" d="M108.7,120.3H41.3v-18.4l29-23.8C81.1,69.1,84,65.4,84,59.8c0-5.4-3.2-8.5-8.8-8.5c-5.2,0-8.9,2.5-15.3,10.4
	l-1.6,1.9L41.4,50.1l1.4-1.9c8.4-11.4,16.9-18.5,33.5-18.5c18.9,0,31.6,11.5,31.6,28.5v0.2c0,15.6-8.8,23.5-23.2,34.7l-7.9,6.1h31.9
	L108.7,120.3z M46.3,115.3h57.4v-11H62.1l19.5-15.1c14.7-11.4,21.2-17.8,21.2-30.7v-0.2c0-14.3-10.4-23.5-26.6-23.5
	c-13.6,0-20.8,5.3-28,14.5l9.2,7.4c5.6-6.6,10.5-10.3,17.6-10.3c8.4,0,13.8,5.3,13.8,13.5S84.4,72.9,73.5,82l-27.2,22.3L46.3,115.3z
	"/>
</svg>
