<?xml version="1.0" encoding="utf-8"?>
<!-- Generator: Adobe Illustrator 23.0.3, SVG Export Plug-In . SVG Version: 6.00 Build 0)  -->
<svg version="1.1" id="Layer_1" xmlns="http://www.w3.org/2000/svg" xmlns:xlink="http://www.w3.org/1999/xlink" x="0px" y="0px"
	 viewBox="0 0 150 150" style="enable-background:new 0 0 150 150;" xml:space="preserve">
<style type="text/css">
	.st0{fill:#F26522;}
	.st1{fill:#FFFFFF;}
</style>
<title>Icon</title>
<path class="st0" d="M75,4.7c38.8,0,70.3,31.5,70.3,70.3s-31.5,70.3-70.3,70.3S4.7,113.8,4.7,75S36.2,4.7,75,4.7 M75,0
	C33.6,0,0,33.6,0,75s33.6,75,75,75s75-33.6,75-75S116.4,0,75,0"/>
<polygon class="st1" points="102.4,37.4 94.9,37.4 74.8,69.2 54.6,37.4 47.5,37.7 71.2,75 47.5,112.3 54.6,112.6 74.8,80.8 
	94.9,112.6 102.4,112.6 78.5,75 "/>
</svg>
