<?xml version="1.0" encoding="utf-8"?>
<!-- Generator: Adobe Illustrator 23.0.2, SVG Export Plug-In . SVG Version: 6.00 Build 0)  -->
<svg version="1.1" id="Layer_1" xmlns="http://www.w3.org/2000/svg" xmlns:xlink="http://www.w3.org/1999/xlink" x="0px" y="0px"
	 viewBox="0 0 207 142" style="enable-background:new 0 0 207 142;" xml:space="preserve">
<style type="text/css">
	.st0{fill:#EF6620;}
</style>
<title>img.benefits-03</title>
<g>
	<path d="M168.4,108H34.2c-5.3,0-9.7-4.3-9.7-9.7V26c0-5.3,4.3-9.7,9.7-9.7h134.1c5.3,0,9.7,4.3,9.7,9.7v72.3
		C178,103.6,173.7,107.9,168.4,108z M34.2,22c-2.2,0-4,1.8-4,4c0,0,0,0,0,0v72.3c0,2.2,1.8,4,4,4c0,0,0,0,0,0h134.1c2.2,0,4-1.8,4-4
		V26c0-2.2-1.8-4-4-4H34.2z"/>
	<g>
		<path d="M175.6,75.2V49.2H186c1.7,0,3.2,1.4,3.2,3.1c0,0,0,0,0,0V72c0,1.8-1.4,3.2-3.2,3.2l0,0L175.6,75.2z"/>
		<path d="M186,78h-13.1V46.4H186c3.3,0,6,2.7,6,6l0,0V72C192,75.3,189.3,78,186,78z M178.5,72.3h7.5c0.2,0,0.4-0.2,0.4-0.4
			c0,0,0,0,0,0V52.4c0-0.2-0.1-0.3-0.3-0.4c0,0,0,0,0,0h-7.5V72.3z"/>
	</g>
	<g>
		<polygon class="st0" points="86.3,26.9 122.6,97.5 161.3,97.5 125.1,26.9 		"/>
		<polygon class="st0" points="39.5,26.9 75.8,97.5 114.5,97.5 78.3,26.9 		"/>
		<path class="st0" d="M35.6,34.2v60c0,1.8,1.4,3.2,3.2,3.2l0,0h29L35.6,34.2z"/>
		<path class="st0" d="M165.5,90.5V30.1c0-1.8-1.5-3.2-3.2-3.2h-29.2L165.5,90.5z"/>
	</g>
</g>
</svg>
