<?xml version="1.0" encoding="utf-8"?>
<!-- Generator: Adobe Illustrator 23.0.3, SVG Export Plug-In . SVG Version: 6.00 Build 0)  -->
<svg version="1.1" id="Layer_1" xmlns="http://www.w3.org/2000/svg" xmlns:xlink="http://www.w3.org/1999/xlink" x="0px" y="0px"
	 viewBox="0 0 350 350" style="enable-background:new 0 0 350 350;" xml:space="preserve">
<style type="text/css">
	.st0{fill:#F26522;}
	.st1{fill:#FFFFFF;}
</style>
<circle class="st0" cx="240.5" cy="116.4" r="10.2"/>
<ellipse class="st0" cx="240.2" cy="163.2" rx="10.2" ry="10.2"/>
<circle class="st0" cx="263.6" cy="139.8" r="10.2"/>
<circle class="st0" cx="217.1" cy="139.8" r="10.2"/>
<path class="st1" d="M210.6,223.9c-16.9,0-31-13.9-31-30.8c0-11.3,6.3-22,16.4-27.3c-14.1-24.3-6-56,18.8-70.2s56-6,70.2,18.8
	c14.1,24.3,6,56-18.8,70.2c-7.4,4.4-15.7,6.7-24.3,6.9c0,0.7,0,1.2,0,1.6C241.6,210,227.7,223.9,210.6,223.9z M240.5,97
	c-23.8,0-42.8,19.2-42.8,42.8c0,9,2.8,17.8,8.3,25c0.9,1.2,0.9,2.5,0.7,3.7c-0.2,1.4-1.4,2.5-2.8,2.8c-11.8,3.9-18.1,16.9-14.1,28.5
	c3.9,11.8,16.9,18.1,28.5,14.1c9.3-3.2,15.3-11.8,15.3-21.5c0-1.6-0.2-3.5-0.7-5.1c-0.2-1.4,0-2.5,0.9-3.7c0.9-0.9,2.1-1.6,3.5-1.4
	c0.9,0,2.1,0.2,3.2,0.2c23.8-0.7,42.4-20.4,41.9-44C281.4,116,262.9,97.4,240.5,97L240.5,97z"/>
<circle class="st0" cx="210.6" cy="192.8" r="12.3"/>
<polygon class="st0" points="128.4,131.9 114,131.9 114,117.6 98.3,117.6 98.3,131.9 83.7,131.9 83.7,147.5 98.3,147.5 98.3,162 
	114,162 114,147.5 128.4,147.5 "/>
<path class="st1" d="M137.2,223.9c-17.1,0-30.8-13.9-31-31c0-0.5,0-1.2,0-1.6c-28.5-0.7-50.9-24.3-50.2-52.6
	c0.7-28.5,24.5-50.9,52.8-50.2c28.2,0.7,50.9,24.3,50.2,52.6c-0.2,8.6-2.5,17.1-6.9,24.5c15.1,8.1,20.6,26.9,12.5,41.9
	C159.2,217.6,148.5,223.9,137.2,223.9L137.2,223.9z M111.3,182.6c2.3,0,4.2,2.1,4.2,4.4c0,0.2,0,0.5-0.2,0.9
	c-0.2,1.6-0.7,3.5-0.7,5.1c0,12.5,10,22.7,22.7,22.7c12.7,0,22.7-10,22.7-22.7c0-9.7-6.3-18.3-15.5-21.5c-1.4-0.2-2.5-1.4-2.8-2.8
	c-0.5-1.4-0.2-2.5,0.7-3.7c5.3-7.2,8.3-16,8.3-25c0-23.8-19.2-42.8-42.8-42.8S64.9,116.4,64.9,140s18.8,42.6,42.4,42.6
	c1.2,0,2.1,0,3.2-0.2L111.3,182.6z"/>
<circle class="st0" cx="137.2" cy="192.8" r="12.3"/>
<path class="st1" d="M206.6,111.1h-65.5c-2.3,0-4.2-1.9-4.2-4.2s1.9-4.2,4.2-4.2h65.3c2.3,0,4.2,1.9,4.2,4.2
	C210.8,109,209,111.1,206.6,111.1L206.6,111.1z"/>
<path class="st1" d="M269.9,268.5c-12.3,0-23.6-6.9-29.2-17.8l-17.4-33.8c-0.9-2.1-0.2-4.6,1.9-5.6c2.1-0.9,4.6-0.2,5.6,1.9
	l17.4,33.8c6,12,21.1,16.9,32.9,10.7c9-4.6,14.4-14.6,13.2-24.5l-11.1-96.8c-0.2-2.3,1.4-4.4,3.7-4.6s4.4,1.4,4.6,3.7l0,0l11.1,96.8
	c2.1,17.8-10.7,34-28.5,36.4C272.6,268.3,271.2,268.5,269.9,268.5z"/>
<path class="st1" d="M184,197h-17.6c-2.3,0-4.2-1.9-4.2-4.2s1.9-4.2,4.2-4.2H184c2.3,0,4.2,1.9,4.2,4.2S186.3,197,184,197z"/>
<path class="st1" d="M77.9,268.5c-1.4,0-2.5-0.2-3.9-0.2C56.1,266.2,43.4,250,45.5,232l11.1-96.8c0.2-2.3,2.3-3.9,4.6-3.7
	c2.3,0.2,3.9,2.3,3.7,4.6l-11.1,97c-1.4,13.4,8.1,25.5,21.5,27.1c10,1.2,19.9-4.2,24.5-13.2l17.6-34.5c0.9-2.1,3.5-3,5.6-2.1
	s3,3.5,2.1,5.6c0,0.2-0.2,0.2-0.2,0.2l-17.6,34.5C101.5,261.6,90.4,268.5,77.9,268.5z"/>
</svg>
