<?xml version="1.0" encoding="utf-8"?>
<!-- Generator: Adobe Illustrator 23.0.3, SVG Export Plug-In . SVG Version: 6.00 Build 0)  -->
<svg version="1.1" id="Layer_1" xmlns="http://www.w3.org/2000/svg" xmlns:xlink="http://www.w3.org/1999/xlink" x="0px" y="0px"
	 viewBox="0 0 207 142" style="enable-background:new 0 0 207 142;" xml:space="preserve">
<style type="text/css">
	.st0{fill:#EF6620;}
</style>
<title>img.benefits-02</title>
<path d="M134.9,91.7c-0.7-0.5-1.7-0.4-2.2,0.3l-10.8,14c-0.5,0.7-0.4,1.7,0.3,2.2c0.3,0.2,0.6,0.3,1,0.3c0.5,0,1-0.2,1.3-0.6
	l10.8-14C135.7,93.3,135.6,92.3,134.9,91.7L134.9,91.7z"/>
<path d="M139.8,99.8c-0.7-0.5-1.7-0.4-2.2,0.3l-8.1,10.5c-0.5,0.7-0.4,1.7,0.3,2.2c0.3,0.2,0.6,0.3,1,0.3c0.5,0,1-0.2,1.3-0.6
	l8.1-10.5C140.7,101.3,140.5,100.3,139.8,99.8L139.8,99.8z"/>
<path d="M141.1,46.1h11.1c0.3,0,0.3,0.1,0.3,0.1c0,0,0.1,0.1,0.1,0.2v73.5c0,0.2-0.1,0.3-0.3,0.3H51.6c-0.2,0-0.3-0.1-0.3-0.3l0,0
	V46.4c0-0.2,0.1-0.3,0.3-0.3h76.5 M129.4,42.9H51.6c-1.9,0-3.5,1.6-3.5,3.5v73.5c0,1.9,1.6,3.5,3.5,3.5h100.6c1.9,0,3.5-1.6,3.5-3.5
	l0,0V46.4c0-0.9-0.4-1.8-1-2.5c-0.6-0.6-1.4-0.9-2.3-1c-0.1,0-0.1,0-0.2,0h-9.9"/>
<path class="st0" d="M65.3,91.1c-4.4,0-7.9-3.6-7.9-7.9c0-4.4,3.6-7.9,7.9-7.9c4.4,0,7.9,3.6,7.9,7.9C73.3,87.5,69.7,91.1,65.3,91.1
	L65.3,91.1z M65.3,72.1c-6.1,0-11.1,5-11.1,11.1c0,6.1,5,11.1,11.1,11.1s11.1-5,11.1-11.1C76.5,77,71.5,72.1,65.3,72.1L65.3,72.1z"
	/>
<path d="M74.9,51.4c-0.9,0-1.6,0.7-1.6,1.6v15.2c0,0.9,0.7,1.6,1.6,1.6c0.9,0,1.6-0.7,1.6-1.6V53C76.5,52.2,75.7,51.4,74.9,51.4
	L74.9,51.4z"/>
<path d="M74.9,98.2c-0.9,0-1.6,0.7-1.6,1.6v15.2c0,0.9,0.7,1.6,1.6,1.6c0.9,0,1.6-0.7,1.6-1.6V99.8C76.5,98.9,75.7,98.2,74.9,98.2
	L74.9,98.2z"/>
<path d="M120.5,77.7c-0.9-0.2-1.7,0.3-1.9,1.2c-0.7,3.2-2.3,5.4-4.4,6.2c-1.7,0.7-3.8,0.4-5.7-0.9c-5.5-3.6-13.8-5.1-19.1,0.2
	c-0.6,0.6-0.6,1.6,0,2.3c0.6,0.6,1.6,0.6,2.3,0c4.1-4.1,10.7-2.7,15.1,0.2c1.8,1.2,3.7,1.8,5.6,1.8c1,0,2.1-0.2,3.1-0.6
	c3.1-1.2,5.4-4.2,6.3-8.5C121.9,78.8,121.4,77.9,120.5,77.7L120.5,77.7z"/>
<g>
	<path class="st0" d="M146.6,13c-2.1-0.9-4.6,0.2-5.5,2.3l-2.5,6.1l7.8,3.1l2.5-6.1C149.8,16.3,148.8,13.9,146.6,13z"/>
	<path class="st0" d="M122.2,76.1l6.3-7.2l0,0L146,25.8l-7.8-3.1l-17.4,43.1h0l-0.4,9.6C120.3,76.4,121.5,76.9,122.2,76.1z"/>
</g>
</svg>
