<?xml version="1.0" encoding="utf-8"?>
<!-- Generator: Adobe Illustrator 23.0.3, SVG Export Plug-In . SVG Version: 6.00 Build 0)  -->
<svg version="1.1" id="Layer_1" xmlns="http://www.w3.org/2000/svg" xmlns:xlink="http://www.w3.org/1999/xlink" x="0px" y="0px"
	 viewBox="0 0 350 350" style="enable-background:new 0 0 350 350;" xml:space="preserve">
<style type="text/css">
	.st0{fill:none;stroke:#FFFFFF;stroke-width:10;stroke-linejoin:round;stroke-miterlimit:10;}
	.st1{fill:none;stroke:#F26522;stroke-width:10;stroke-linejoin:round;stroke-miterlimit:10;}
	.st2{fill:none;stroke:#F26522;stroke-width:10;stroke-linecap:round;stroke-linejoin:round;stroke-miterlimit:10;}
</style>
<path class="st0" d="M268,234.7v17.5c0,2.8-2.2,5-5,5H83.6c-2.8,0-5-2.2-5-5V116.7c0-2.8,2.2-5,5-5h20.7"/>
<path class="st0" d="M243.5,256.3v17.5c0,2.8-2.2,5-5,5H59c-2.8,0-5-2.2-5-5V138.3c0-2.8,2.2-5,5-5h20.7"/>
<path class="st1" d="M291.6,234.7H106.3c-1.1,0-2.1-0.9-2.1-2.1V91.2c0-1.1,0.9-2.1,2.1-2.1h185.3c1.1,0,2.1,0.9,2.1,2.1v141.6
	C293.8,233.8,292.8,234.7,291.6,234.7z"/>
<rect x="132.2" y="117.7" class="st1" width="64.6" height="57.4"/>
<line class="st2" x1="132.2" y1="203.9" x2="196.8" y2="203.9"/>
<line class="st2" x1="225.6" y1="117.7" x2="261.4" y2="117.7"/>
<line class="st2" x1="225.2" y1="146.1" x2="268.5" y2="146.1"/>
<line class="st2" x1="225.6" y1="175.1" x2="261.4" y2="175.1"/>
<line class="st2" x1="225.6" y1="203.9" x2="261.4" y2="203.9"/>
</svg>
