<?xml version="1.0" encoding="utf-8"?>
<!-- Generator: Adobe Illustrator 23.0.3, SVG Export Plug-In . SVG Version: 6.00 Build 0)  -->
<svg version="1.1" id="Layer_1" xmlns="http://www.w3.org/2000/svg" xmlns:xlink="http://www.w3.org/1999/xlink" x="0px" y="0px"
	 viewBox="0 0 200 130" style="enable-background:new 0 0 200 130;" xml:space="preserve">
<style type="text/css">
	.st0{enable-background:new    ;}
	.st1{fill:#EF6620;}
</style>
<g class="st0">
	<path d="M6.7,23.1c0,2,1,2.9,3,2.9c2,0,3-1,3-2.9V11.9h3.4V23c0,2.1-0.5,3.6-1.6,4.5S11.9,29,9.7,29c-2.1,0-3.7-0.5-4.8-1.4
		S3.3,25.1,3.3,23V11.9h3.4V23.1z"/>
	<path d="M25.8,23.8H23v4.9h-3.4V11.9h6.2c4,0,6,1.9,6,5.8c0,2-0.5,3.5-1.5,4.5C29.2,23.3,27.7,23.8,25.8,23.8z M23,20.9h2.7
		c1.7,0,2.5-1.1,2.5-3.2c0-1-0.2-1.8-0.6-2.2c-0.4-0.5-1.1-0.7-1.9-0.7H23V20.9z"/>
	<path d="M38.1,15v-3h12.3v3H46v13.8h-3.4V15H38.1z"/>
	<path d="M64,26.9c-1,1.4-2.8,2.1-5.4,2.1c-2.5,0-4.3-0.7-5.4-2.1c-1-1.4-1.6-3.6-1.6-6.5c0-3,0.5-5.2,1.6-6.6
		c1-1.4,2.8-2.2,5.4-2.2c2.5,0,4.3,0.7,5.4,2.2c1,1.4,1.6,3.6,1.6,6.6C65.6,23.4,65,25.5,64,26.9z M55.9,24.8
		c0.5,0.9,1.4,1.3,2.7,1.3c1.3,0,2.2-0.4,2.7-1.3s0.7-2.3,0.7-4.3s-0.2-3.5-0.7-4.4c-0.5-0.9-1.4-1.4-2.7-1.4
		c-1.3,0-2.2,0.5-2.7,1.4c-0.5,0.9-0.7,2.4-0.7,4.4S55.4,23.9,55.9,24.8z"/>
</g>
<g class="st0">
	<path class="st1" d="M2.5,118V87.4H22v5.4H8.7v9h10.9v5.4H8.7V118H2.5z"/>
	<path class="st1" d="M22.9,118l6.9-30.6h11.8l6.9,30.6h-6.2l-1.2-5.5H30.3l-1.2,5.5H22.9z M34.6,92.5l-3.1,14.5h8.4l-3.1-14.5H34.6
		z"/>
	<path class="st1" d="M61.6,92.3c-3.3,0-4.9,1.1-4.9,3.2c0,1,0.4,1.7,1.2,2.2c0.8,0.5,2.7,1.2,5.7,2.2c3,1,5.1,2,6.3,3.3
		c1.2,1.2,1.8,3.1,1.8,5.6c0,3.2-1,5.6-2.9,7.3c-2,1.6-4.5,2.5-7.6,2.5c-2.3,0-5.2-0.4-8.6-1.1l-1.6-0.3l0.6-4.8
		c4,0.5,7.1,0.8,9.2,0.8c3.2,0,4.8-1.3,4.8-4c0-1-0.4-1.7-1.1-2.2c-0.7-0.5-2.2-1.1-4.4-1.8c-3.5-1-5.9-2.2-7.4-3.5
		c-1.4-1.4-2.1-3.3-2.1-5.7c0-3.1,0.9-5.3,2.8-6.8c1.9-1.5,4.4-2.3,7.6-2.3c2.2,0,5,0.3,8.5,0.9l1.6,0.3L70.6,93
		C66.4,92.5,63.4,92.3,61.6,92.3z"/>
	<path class="st1" d="M74,92.9v-5.5h22.5v5.5h-8.1V118h-6.2V92.9H74z"/>
	<path class="st1" d="M100.4,118V87.4h19.8v5.4h-13.6v7.2h10.9v5.3h-10.9v7.3h13.6v5.4H100.4z"/>
	<path class="st1" d="M131.5,107.7V118h-6.2V87.4h11.9c7.2,0,10.8,3.4,10.8,10.1c0,4-1.5,6.9-4.5,8.8l4.4,11.7h-6.8l-3.6-10.3H131.5
		z M140.6,101.1c0.7-0.9,1.1-2.1,1.1-3.6s-0.4-2.6-1.1-3.5c-0.8-0.9-1.9-1.3-3.3-1.3h-5.7v9.7h5.8
		C138.8,102.4,139.8,102,140.6,101.1z"/>
</g>
<g class="st0">
	<path class="st1" d="M3.5,36.9c4.1-1.6,8.7-2.4,13.8-2.4c5.1,0,8.8,1,11.1,2.9c2.3,1.9,3.5,5.1,3.5,9.3c0,4.3-1.7,7.6-5.2,9.8
		c2.1,1.2,3.7,2.4,4.6,3.6c0.9,1.3,1.4,3.2,1.4,6c0,4.8-1.2,8.3-3.6,10.6c-2.4,2.3-6.2,3.5-11.5,3.5c-3.9,0-8-0.6-12.3-1.7L3.2,78
		l0.5-7c5,0.8,9.2,1.3,12.6,1.3c4.6,0,6.9-2,6.9-5.9c0-1.7-0.6-3-1.8-4c-1.2-1-2.7-1.5-4.7-1.5H7.8v-7.6h8.9c1.5,0,2.8-0.6,3.9-1.9
		c1.1-1.2,1.7-2.6,1.7-4.2c0-3.2-2.2-4.8-6.6-4.8c-3.1,0-6.4,0.3-9.8,0.9l-1.7,0.3L3.5,36.9z"/>
	<path class="st1" d="M41,36.9c4.1-1.6,8.7-2.4,13.8-2.4c5.1,0,8.8,1,11.1,2.9c2.3,1.9,3.5,5.1,3.5,9.3c0,4.3-1.7,7.6-5.2,9.8
		c2.1,1.2,3.7,2.4,4.6,3.6c0.9,1.3,1.4,3.2,1.4,6c0,4.8-1.2,8.3-3.6,10.6c-2.4,2.3-6.2,3.5-11.5,3.5c-3.9,0-8-0.6-12.3-1.7L40.7,78
		l0.5-7c5,0.8,9.2,1.3,12.6,1.3c4.6,0,6.9-2,6.9-5.9c0-1.7-0.6-3-1.8-4c-1.2-1-2.7-1.5-4.7-1.5h-8.9v-7.6h8.9c1.5,0,2.8-0.6,3.9-1.9
		c1.1-1.2,1.7-2.6,1.7-4.2c0-3.2-2.2-4.8-6.6-4.8c-3.1,0-6.4,0.3-9.8,0.9l-1.7,0.3L41,36.9z"/>
	<path class="st1" d="M75.3,44.2c0-6.5,2.7-9.7,8-9.7c5.4,0,8,3.2,8,9.7c0,6.5-2.7,9.7-8,9.7C78,54,75.3,50.7,75.3,44.2z M82.2,40.8
		c-0.2,0.6-0.3,1.8-0.3,3.4s0.1,2.7,0.3,3.4c0.2,0.7,0.6,1,1.2,1c0.6,0,1-0.3,1.2-1c0.2-0.7,0.3-1.8,0.3-3.4s-0.1-2.7-0.3-3.4
		c-0.2-0.6-0.6-1-1.2-1C82.8,39.9,82.4,40.2,82.2,40.8z M82.8,80l15.7-47.4l4.9,1.7L87.7,81.6L82.8,80z M94.9,70.6
		c0-6.5,2.7-9.7,8-9.7s8,3.2,8,9.7s-2.7,9.7-8,9.7S94.9,77.1,94.9,70.6z M101.8,67.1c-0.2,0.6-0.3,1.8-0.3,3.4s0.1,2.7,0.3,3.4
		c0.2,0.7,0.6,1,1.2,1c0.6,0,1-0.3,1.2-1c0.2-0.7,0.3-1.8,0.3-3.4s-0.1-2.7-0.3-3.4c-0.2-0.6-0.6-1-1.2-1
		C102.3,66.2,102,66.5,101.8,67.1z"/>
</g>
</svg>
