<?xml version="1.0" encoding="utf-8"?>
<!-- Generator: Adobe Illustrator 23.0.2, SVG Export Plug-In . SVG Version: 6.00 Build 0)  -->
<svg version="1.1" id="Layer_1" xmlns="http://www.w3.org/2000/svg" xmlns:xlink="http://www.w3.org/1999/xlink" x="0px" y="0px"
	 viewBox="0 0 460 130" style="enable-background:new 0 0 460 130;" xml:space="preserve">
<style type="text/css">
	.st0{enable-background:new    ;}
	.st1{fill:#EF6620;}
</style>
<g class="st0">
	<path d="M64.6,11.3c-1.4,0-2.1,0.5-2.1,1.4c0,0.4,0.2,0.7,0.5,0.9c0.3,0.2,1.1,0.5,2.4,0.9c1.3,0.4,2.1,0.9,2.7,1.4
		c0.5,0.5,0.8,1.3,0.8,2.4c0,1.4-0.4,2.4-1.2,3.1c-0.8,0.7-1.9,1-3.2,1c-1,0-2.2-0.2-3.6-0.5l-0.7-0.1l0.3-2c1.7,0.2,3,0.3,3.9,0.3
		c1.3,0,2-0.6,2-1.7c0-0.4-0.2-0.7-0.5-1c-0.3-0.2-0.9-0.5-1.9-0.7c-1.5-0.4-2.5-0.9-3.1-1.5s-0.9-1.4-0.9-2.4
		c0-1.3,0.4-2.3,1.2-2.9c0.8-0.6,1.9-1,3.2-1c0.9,0,2.1,0.1,3.6,0.4l0.7,0.1l-0.2,2.1C66.6,11.4,65.3,11.3,64.6,11.3z"/>
	<path d="M69.8,11.6V9.3h9.5v2.3h-3.4v10.6h-2.6V11.6H69.8z"/>
	<path d="M79.2,22.2l2.9-12.9h5L90,22.2h-2.6l-0.5-2.3h-4.5l-0.5,2.3H79.2z M84.1,11.5l-1.3,6.1h3.5L85,11.5H84.1z"/>
	<path d="M95.9,22.2h-2.6V17l-4-7.7h2.9l2.4,5.2l2.4-5.2h2.9l-4,7.7V22.2z"/>
	<path d="M105.5,22.2V9.3h4.5l2.3,9.4l2.3-9.4h4.5v12.9h-2.6v-10h-0.3l-2.5,9.4h-2.6l-2.5-9.4h-0.3v10H105.5z"/>
	<path d="M130.7,20.8c-0.8,1.1-2.2,1.6-4.2,1.6s-3.3-0.5-4.2-1.6c-0.8-1.1-1.2-2.7-1.2-5c0-2.3,0.4-4,1.2-5.1
		c0.8-1.1,2.2-1.7,4.2-1.7s3.3,0.6,4.2,1.7c0.8,1.1,1.2,2.8,1.2,5.1C131.9,18.1,131.5,19.8,130.7,20.8z M124.5,19.2
		c0.4,0.7,1.1,1,2.1,1s1.7-0.3,2.1-1c0.4-0.7,0.6-1.8,0.6-3.3c0-1.6-0.2-2.7-0.6-3.4c-0.4-0.7-1.1-1.1-2.1-1.1s-1.7,0.4-2.1,1.1
		s-0.6,1.8-0.6,3.4C123.9,17.4,124.1,18.5,124.5,19.2z"/>
	<path d="M141,9.3h2.8l-3,12.9h-4.8l-3-12.9h2.8l2.2,10.6h0.9L141,9.3z"/>
	<path d="M145.5,22.2V9.3h2.6v12.9H145.5z"/>
	<path d="M150.9,22.2V9.3h4.4l3.1,10.6h0.2V9.3h2.6v12.9h-4.3l-3.2-10.6h-0.2v10.6H150.9z"/>
	<path d="M169.4,17.6v-2.3h3.8V22c-1.8,0.3-3.3,0.4-4.4,0.4c-2,0-3.4-0.5-4.2-1.6c-0.8-1.1-1.1-2.8-1.1-5.1s0.4-4,1.2-5.1
		c0.8-1,2.1-1.6,4-1.6c1.2,0,2.5,0.1,3.8,0.4l0.7,0.1l-0.1,2c-1.5-0.2-2.8-0.2-3.7-0.2s-1.7,0.1-2,0.3c-0.4,0.2-0.7,0.6-0.9,1.3
		c-0.2,0.6-0.3,1.7-0.3,3.2c0,1.5,0.2,2.5,0.6,3.1c0.4,0.6,1.1,0.9,2.3,0.9l1.6-0.1v-2.5H169.4z"/>
</g>
<g class="st0">
	<path class="st1" d="M47.7,49.7v24.7h-5.2V55.6L37.1,59l-2.4-3.9l8.2-5.4H47.7z"/>
	<path class="st1" d="M71.4,74.5h-16v-4.4l5.3-5.4c1.9-1.9,3.2-3.4,3.9-4.4c0.7-1,1.1-2.1,1.1-3.3c0-1.2-0.3-2-0.9-2.5
		c-0.6-0.5-1.5-0.7-2.6-0.7c-1.7,0-3.5,0.1-5.5,0.4l-0.9,0.1l-0.3-4c2.4-0.7,5-1.1,7.6-1.1c5.2,0,7.9,2.4,7.9,7.1
		c0,1.8-0.4,3.4-1.2,4.8c-0.8,1.3-2.2,3-4.3,4.9L61.2,70h10.3V74.5z"/>
	<path class="st1" d="M99.6,74.5V63.9h-9.5v10.6h-5.2V49h5.2v10.4h9.5V49h5.2v25.5H99.6z"/>
	<path class="st1" d="M127.9,71.7c-1.6,2.1-4.3,3.2-8.2,3.2c-3.9,0-6.6-1.1-8.2-3.2c-1.6-2.1-2.4-5.4-2.4-9.9s0.8-7.8,2.4-10
		c1.6-2.2,4.3-3.3,8.2-3.3c3.9,0,6.6,1.1,8.2,3.3c1.6,2.2,2.4,5.5,2.4,10S129.5,69.6,127.9,71.7z M115.6,68.4c0.7,1.3,2.1,2,4.1,2
		s3.4-0.7,4.1-2s1.1-3.5,1.1-6.6c0-3.1-0.4-5.3-1.1-6.7c-0.7-1.4-2.1-2.1-4.1-2.1c-2,0-3.4,0.7-4.1,2.1c-0.7,1.4-1.1,3.6-1.1,6.7
		C114.5,64.9,114.9,67.1,115.6,68.4z"/>
	<path class="st1" d="M139.6,66c0,3,1.5,4.5,4.5,4.5c3,0,4.5-1.5,4.5-4.5V49h5.2v16.8c0,3.1-0.8,5.4-2.4,6.9c-1.6,1.5-4,2.2-7.3,2.2
		c-3.2,0-5.7-0.7-7.3-2.2c-1.6-1.5-2.4-3.8-2.4-6.9V49h5.2V66z"/>
	<path class="st1" d="M164.4,65.9v8.5h-5.2V49h9.9c6,0,9,2.8,9,8.4c0,3.3-1.2,5.8-3.7,7.3l3.6,9.7h-5.7l-3-8.5H164.4z M171.9,60.4
		c0.6-0.7,0.9-1.7,0.9-3c0-1.2-0.3-2.2-1-2.9c-0.6-0.7-1.6-1.1-2.8-1.1h-4.7v8.1h4.8C170.4,61.5,171.3,61.1,171.9,60.4z"/>
	<path class="st1" d="M190.2,53c-2.7,0-4.1,0.9-4.1,2.7c0,0.8,0.3,1.4,1,1.8c0.7,0.4,2.3,1,4.7,1.8c2.5,0.8,4.2,1.7,5.2,2.7
		c1,1,1.5,2.6,1.5,4.7c0,2.7-0.8,4.7-2.4,6.1c-1.6,1.4-3.7,2.1-6.4,2.1c-1.9,0-4.3-0.3-7.2-0.9l-1.3-0.3l0.5-4
		c3.3,0.4,5.9,0.7,7.7,0.7c2.6,0,4-1.1,4-3.3c0-0.8-0.3-1.4-0.9-1.9c-0.6-0.4-1.8-0.9-3.7-1.5c-2.9-0.8-4.9-1.8-6.1-2.9
		c-1.2-1.1-1.8-2.7-1.8-4.7c0-2.5,0.8-4.4,2.3-5.7c1.5-1.2,3.7-1.9,6.4-1.9c1.8,0,4.2,0.3,7,0.7l1.3,0.3l-0.4,4.1
		C194.2,53.2,191.7,53,190.2,53z"/>
</g>
<g class="st0">
	<path d="M77.1,26.7h2.3l1.3,9H81l1.9-9h2.5l1.9,9h0.2l1.3-9h2.3l-2.1,10.8H86l-1.7-8.2l-1.7,8.2h-3.3L77.1,26.7z"/>
	<path d="M92.8,37.5V26.7H95v10.8H92.8z"/>
	<path d="M96.4,28.7v-1.9h8v1.9h-2.9v8.9h-2.2v-8.9H96.4z"/>
	<path d="M112,37.5V33h-4v4.5h-2.2V26.7h2.2v4.4h4v-4.4h2.2v10.8H112z"/>
	<path d="M122.2,33.9c0,1.3,0.6,1.9,1.9,1.9s1.9-0.6,1.9-1.9v-7.2h2.2v7.2c0,1.3-0.3,2.3-1,2.9c-0.7,0.6-1.7,0.9-3.1,0.9
		s-2.4-0.3-3.1-0.9c-0.7-0.6-1-1.6-1-2.9v-7.2h2.2V33.9z"/>
	<path d="M134.5,34.4h-1.8v3.2h-2.2V26.7h4c2.6,0,3.9,1.3,3.9,3.8c0,1.3-0.3,2.2-1,2.9C136.7,34.1,135.7,34.4,134.5,34.4z
		 M132.7,32.5h1.8c1.1,0,1.6-0.7,1.6-2c0-0.7-0.1-1.1-0.4-1.4c-0.3-0.3-0.7-0.4-1.2-0.4h-1.8V32.5z"/>
	<path d="M142.4,28.7v-1.9h8v1.9h-2.9v8.9h-2.2v-8.9H142.4z"/>
	<path d="M159.2,36.4c-0.7,0.9-1.8,1.3-3.5,1.3s-2.8-0.4-3.5-1.3c-0.7-0.9-1-2.3-1-4.2s0.3-3.3,1-4.3c0.7-0.9,1.8-1.4,3.5-1.4
		s2.8,0.5,3.5,1.4c0.7,0.9,1,2.4,1,4.3S159.8,35.5,159.2,36.4z M153.9,35c0.3,0.6,0.9,0.8,1.8,0.8s1.4-0.3,1.8-0.8
		c0.3-0.6,0.5-1.5,0.5-2.8s-0.2-2.3-0.5-2.9c-0.3-0.6-0.9-0.9-1.8-0.9c-0.9,0-1.4,0.3-1.8,0.9c-0.3,0.6-0.5,1.5-0.5,2.9
		S153.6,34.4,153.9,35z"/>
</g>
<g class="st0">
	<path d="M33,114.7h2.5l1.2,7.3h0.5l1.4-7.1h2.6l1.4,7.1h0.5l1.2-7.3h2.5l-1.8,9.5h-4l-1.1-5.8l-1.1,5.8h-4L33,114.7z"/>
	<path d="M48.4,113.5v-2.6H51v2.6H48.4z M48.4,124.2v-9.5H51v9.5H48.4z"/>
	<path d="M58.6,116.9h-2.3v3.9c0,0.4,0,0.6,0,0.8c0,0.2,0.1,0.3,0.2,0.4c0.1,0.1,0.3,0.2,0.6,0.2l1.4,0l0.1,2
		c-0.8,0.2-1.5,0.3-1.9,0.3c-1.1,0-1.9-0.3-2.3-0.8s-0.6-1.5-0.6-2.8v-4h-1.1v-2.2h1.1V112h2.5v2.6h2.3V116.9z"/>
	<path d="M62.8,124.2h-2.5v-13.3h2.5v4.3c0.9-0.5,1.7-0.7,2.4-0.7c1.3,0,2.1,0.4,2.6,1.1c0.5,0.7,0.7,1.9,0.7,3.5v5.2h-2.5v-5.1
		c0-0.8-0.1-1.4-0.3-1.8s-0.6-0.6-1.1-0.6c-0.5,0-1,0.1-1.5,0.2l-0.2,0.1V124.2z"/>
	<path d="M80.2,116.9h-2.3v3.9c0,0.4,0,0.6,0,0.8c0,0.2,0.1,0.3,0.2,0.4c0.1,0.1,0.3,0.2,0.6,0.2l1.4,0l0.1,2
		c-0.8,0.2-1.5,0.3-1.9,0.3c-1.1,0-1.9-0.3-2.3-0.8s-0.6-1.5-0.6-2.8v-4h-1.1v-2.2h1.1V112h2.5v2.6h2.3V116.9z"/>
	<path d="M84.4,124.2h-2.5v-13.3h2.5v4.3c0.9-0.5,1.7-0.7,2.4-0.7c1.3,0,2.1,0.4,2.6,1.1c0.5,0.7,0.7,1.9,0.7,3.5v5.2h-2.5v-5.1
		c0-0.8-0.1-1.4-0.3-1.8s-0.6-0.6-1.1-0.6c-0.5,0-1,0.1-1.5,0.2l-0.2,0.1V124.2z"/>
	<path d="M94.9,121.8c0.3,0.3,0.7,0.4,1.3,0.4c1.2,0,2.2,0,3.2-0.1l0.5-0.1l0,1.9c-1.5,0.4-2.8,0.5-4,0.5c-1.4,0-2.5-0.4-3.1-1.1
		c-0.6-0.8-1-2-1-3.7c0-3.4,1.4-5.1,4.2-5.1c2.8,0,4.1,1.4,4.1,4.3l-0.2,1.8h-5.6C94.5,121.1,94.6,121.5,94.9,121.8z M97.7,118.6
		c0-0.8-0.1-1.3-0.4-1.6s-0.7-0.4-1.3-0.4c-0.6,0-1,0.2-1.3,0.5s-0.4,0.8-0.4,1.6H97.7z"/>
	<path d="M105.4,124.2l2.9-12.9h5l2.9,12.9h-2.6l-0.5-2.3h-4.5l-0.5,2.3H105.4z M110.3,113.4l-1.3,6.1h3.5l-1.3-6.1H110.3z"/>
	<path d="M117.9,124.2v-12.9h4.5l2.3,9.4l2.3-9.4h4.5v12.9h-2.6v-10h-0.3l-2.5,9.4h-2.6l-2.5-9.4h-0.3v10H117.9z"/>
	<path d="M138.6,124.2h-4.4v-12.9h4.4c1.1,0,2,0.1,2.8,0.4c0.7,0.2,1.3,0.6,1.7,1.2c0.4,0.5,0.7,1.2,0.8,1.9
		c0.2,0.7,0.2,1.7,0.2,2.8c0,1.2-0.1,2.1-0.2,2.9c-0.1,0.8-0.4,1.5-0.8,2.1c-0.4,0.6-0.9,1-1.7,1.3
		C140.7,124.1,139.7,124.2,138.6,124.2z M141.3,119.1c0-0.4,0-1,0-1.7c0-0.7,0-1.3-0.1-1.7c-0.1-0.4-0.2-0.8-0.4-1.2
		c-0.2-0.4-0.5-0.6-0.8-0.7c-0.4-0.1-0.9-0.2-1.5-0.2h-1.7v8.4h1.7c1,0,1.6-0.2,2.1-0.7C141,120.8,141.3,120.1,141.3,119.1z"/>
	<path d="M153.2,119.9v4.3h-2.6v-12.9h5c3,0,4.6,1.4,4.6,4.3c0,1.7-0.6,2.9-1.9,3.7l1.8,4.9h-2.9l-1.5-4.3H153.2z M157,117
		c0.3-0.4,0.5-0.9,0.5-1.5c0-0.6-0.2-1.1-0.5-1.5c-0.3-0.4-0.8-0.6-1.4-0.6h-2.4v4.1h2.4C156.2,117.6,156.7,117.4,157,117z"/>
	<path d="M161.2,114.7h2.5l1.7,7.3h0.4l1.7-7.3h2.5l-3.3,13.5h-2.5l1-4h-1.8L161.2,114.7z"/>
	<path d="M171.2,117v-2.3h7.1v2.3l-4,4.9h4v2.3h-7.1v-2.3l4-4.9H171.2z"/>
	<path d="M182.8,121.8c0.3,0.3,0.7,0.4,1.3,0.4c1.2,0,2.2,0,3.2-0.1l0.5-0.1l0,1.9c-1.5,0.4-2.8,0.5-4,0.5c-1.4,0-2.5-0.4-3.1-1.1
		c-0.6-0.8-1-2-1-3.7c0-3.4,1.4-5.1,4.2-5.1c2.8,0,4.1,1.4,4.1,4.3l-0.2,1.8h-5.6C182.4,121.1,182.5,121.5,182.8,121.8z
		 M185.6,118.6c0-0.8-0.1-1.3-0.4-1.6s-0.7-0.4-1.3-0.4c-0.6,0-1,0.2-1.3,0.5s-0.4,0.8-0.4,1.6H185.6z"/>
	<path d="M192.5,124.2h-2.5v-9.5h2.5v0.5c0.9-0.5,1.7-0.8,2.4-0.8c1.3,0,2.1,0.4,2.6,1.1c0.5,0.7,0.7,1.9,0.7,3.5v5.2h-2.5v-5.1
		c0-0.8-0.1-1.4-0.3-1.8s-0.6-0.6-1.1-0.6c-0.5,0-1,0.1-1.5,0.3l-0.2,0.1V124.2z"/>
	<path d="M200.5,113.5V112h3.8v1.5h-0.8v4.4h-1.7v-4.4H200.5z M204.8,117.9v-6h2l0.8,3l0.9-3h1.9v6h-1.6v-3.3l-0.6,2.9h-1l-0.7-2.9
		v3.3H204.8z"/>
	<path d="M217.1,114v-2.3h8v3l-4.5,9.8l-2.4-0.7l4.3-9.1V114H217.1z"/>
	<path d="M231.8,112.1c1.2-0.5,2.5-0.7,3.9-0.7s2.5,0.3,3.1,0.8c0.7,0.6,1,1.4,1,2.7s-0.5,2.1-1.5,2.8c0.6,0.3,1,0.7,1.3,1
		c0.3,0.4,0.4,0.9,0.4,1.7c0,1.4-0.3,2.4-1,3s-1.8,1-3.3,1c-1.1,0-2.3-0.2-3.5-0.5l-0.6-0.2l0.1-2c1.4,0.2,2.6,0.4,3.6,0.4
		c1.3,0,2-0.6,2-1.7c0-0.5-0.2-0.8-0.5-1.1c-0.3-0.3-0.8-0.4-1.3-0.4H233v-2.2h2.5c0.4,0,0.8-0.2,1.1-0.5c0.3-0.4,0.5-0.7,0.5-1.2
		c0-0.9-0.6-1.3-1.9-1.3c-0.9,0-1.8,0.1-2.8,0.3l-0.5,0.1L231.8,112.1z"/>
	<path d="M242.5,114v-2.3h8v3l-4.5,9.8l-2.4-0.7l4.3-9.1V114H242.5z"/>
	<path d="M253.6,113c0.8-1,2-1.6,3.6-1.6c1.6,0,2.8,0.5,3.6,1.6s1.2,2.7,1.2,5s-0.4,3.9-1.2,4.9c-0.8,1-2,1.5-3.7,1.5
		c-1.6,0-2.8-0.5-3.7-1.5c-0.8-1-1.2-2.6-1.2-4.9S252.7,114,253.6,113z M259.4,117.9c0-1.6-0.2-2.7-0.5-3.3
		c-0.3-0.6-0.9-0.9-1.7-0.9c-0.8,0-1.3,0.3-1.7,1s-0.5,1.7-0.5,3.3c0,1.6,0.2,2.6,0.5,3.3c0.3,0.6,0.9,0.9,1.7,0.9s1.3-0.3,1.7-0.9
		C259.2,120.6,259.4,119.5,259.4,117.9z"/>
	<path d="M264.2,113c0.8-1,2-1.6,3.6-1.6c1.6,0,2.8,0.5,3.6,1.6c0.8,1,1.2,2.7,1.2,5s-0.4,3.9-1.2,4.9c-0.8,1-2,1.5-3.7,1.5
		c-1.6,0-2.8-0.5-3.7-1.5c-0.8-1-1.2-2.6-1.2-4.9S263.4,114,264.2,113z M270,117.9c0-1.6-0.2-2.7-0.5-3.3c-0.3-0.6-0.9-0.9-1.7-0.9
		s-1.3,0.3-1.7,1s-0.5,1.7-0.5,3.3c0,1.6,0.2,2.6,0.5,3.3c0.3,0.6,0.9,0.9,1.7,0.9s1.3-0.3,1.7-0.9S270,119.5,270,117.9z"/>
	<path d="M277.1,119.9c0,1.5,0.8,2.3,2.3,2.3c1.5,0,2.3-0.8,2.3-2.3v-8.6h2.6v8.6c0,1.6-0.4,2.7-1.2,3.5c-0.8,0.7-2,1.1-3.7,1.1
		c-1.6,0-2.9-0.4-3.7-1.1c-0.8-0.7-1.2-1.9-1.2-3.5v-8.6h2.6V119.9z"/>
	<path d="M291.2,124.2v-12.9h4.5l2.3,9.4l2.3-9.4h4.5v12.9h-2.6v-10h-0.3l-2.5,9.4h-2.6l-2.5-9.4h-0.3v10H291.2z"/>
	<path d="M307.7,115.8c0.7-0.9,1.8-1.3,3.4-1.3c1.6,0,2.7,0.4,3.4,1.3s1,2.1,1,3.7c0,3.3-1.5,5-4.4,5c-2.9,0-4.4-1.7-4.4-5
		C306.7,117.9,307,116.6,307.7,115.8z M309.6,121.6c0.3,0.5,0.7,0.7,1.4,0.7s1.1-0.2,1.4-0.7s0.4-1.2,0.4-2.1c0-1-0.1-1.7-0.4-2.1
		c-0.3-0.4-0.7-0.7-1.4-0.7s-1.1,0.2-1.4,0.7c-0.3,0.4-0.4,1.2-0.4,2.1C309.3,120.4,309.4,121.1,309.6,121.6z"/>
	<path d="M321.9,114.5c1.3,0,2.3,0.4,2.9,1.1c0.6,0.7,0.9,2,0.9,3.9s-0.4,3.2-1.1,3.9c-0.7,0.7-1.9,1.1-3.7,1.1
		c-0.5,0-1.5-0.1-3-0.2l-0.7-0.1v-13.3h2.5v4.1C320.6,114.6,321.3,114.5,321.9,114.5z M321,122.1c0.8,0,1.4-0.2,1.7-0.6
		c0.3-0.4,0.4-1.2,0.4-2.2c0-1.7-0.5-2.6-1.6-2.6c-0.5,0-1,0.1-1.4,0.2l-0.3,0.1v5.1C320.4,122.1,320.8,122.1,321,122.1z"/>
	<path d="M327.6,113.5v-2.6h2.5v2.6H327.6z M327.6,124.2v-9.5h2.5v9.5H327.6z"/>
	<path d="M332.6,124.2v-13.3h2.5v13.3H332.6z"/>
	<path d="M340.2,121.8c0.3,0.3,0.7,0.4,1.3,0.4c1.2,0,2.2,0,3.2-0.1l0.5-0.1l0,1.9c-1.5,0.4-2.8,0.5-4,0.5c-1.4,0-2.5-0.4-3.1-1.1
		c-0.6-0.8-1-2-1-3.7c0-3.4,1.4-5.1,4.2-5.1c2.8,0,4.1,1.4,4.1,4.3l-0.2,1.8h-5.6C339.8,121.1,339.9,121.5,340.2,121.8z M343,118.6
		c0-0.8-0.1-1.3-0.4-1.6c-0.2-0.3-0.7-0.4-1.3-0.4c-0.6,0-1,0.2-1.3,0.5c-0.2,0.3-0.4,0.8-0.4,1.6H343z"/>
	<path d="M356.5,120.4h-2.1v3.8h-2.6v-12.9h4.8c3.1,0,4.6,1.5,4.6,4.5c0,1.5-0.4,2.7-1.2,3.5C359.2,120,358,120.4,356.5,120.4z
		 M354.4,118.2h2.1c1.3,0,2-0.8,2-2.4c0-0.8-0.2-1.4-0.5-1.7c-0.3-0.3-0.8-0.5-1.5-0.5h-2.1V118.2z"/>
	<path d="M362.7,124.2v-9.5h2.5v1c1.1-0.6,2.1-1,3-1.2v2.6c-1,0.2-1.9,0.4-2.6,0.7l-0.4,0.1v6.4H362.7z"/>
	<path d="M370.3,115.8c0.7-0.9,1.8-1.3,3.4-1.3c1.6,0,2.7,0.4,3.4,1.3s1,2.1,1,3.7c0,3.3-1.5,5-4.4,5c-2.9,0-4.4-1.7-4.4-5
		C369.3,117.9,369.7,116.6,370.3,115.8z M372.3,121.6c0.3,0.5,0.7,0.7,1.4,0.7s1.1-0.2,1.4-0.7s0.4-1.2,0.4-2.1c0-1-0.1-1.7-0.4-2.1
		c-0.3-0.4-0.7-0.7-1.4-0.7s-1.1,0.2-1.4,0.7c-0.3,0.4-0.4,1.2-0.4,2.1C371.9,120.4,372,121.1,372.3,121.6z"/>
	<path d="M383.5,114.5c0.7,0,1.5,0.1,2.5,0.3l0.5,0.1l-0.1,2c-1-0.1-1.7-0.2-2.2-0.2c-0.9,0-1.5,0.2-1.7,0.6
		c-0.3,0.4-0.4,1.1-0.4,2.1c0,1,0.1,1.8,0.4,2.1c0.3,0.4,0.9,0.6,1.8,0.6l2.2-0.2l0.1,2c-1.4,0.3-2.4,0.4-3.1,0.4
		c-1.4,0-2.4-0.4-3-1.2s-0.9-2.1-0.9-3.8s0.3-3,1-3.8S382.1,114.5,383.5,114.5z"/>
	<path d="M390.9,121.8c0.3,0.3,0.7,0.4,1.3,0.4c1.2,0,2.2,0,3.2-0.1l0.5-0.1l0,1.9c-1.5,0.4-2.8,0.5-4,0.5c-1.4,0-2.5-0.4-3.1-1.1
		c-0.6-0.8-1-2-1-3.7c0-3.4,1.4-5.1,4.2-5.1c2.8,0,4.1,1.4,4.1,4.3l-0.2,1.8h-5.6C390.4,121.1,390.6,121.5,390.9,121.8z
		 M393.7,118.6c0-0.8-0.1-1.3-0.4-1.6c-0.2-0.3-0.7-0.4-1.3-0.4c-0.6,0-1,0.2-1.3,0.5c-0.2,0.3-0.4,0.8-0.4,1.6H393.7z"/>
	<path d="M404.9,117.1c-1.6-0.2-2.7-0.3-3.3-0.3c-0.6,0-1,0.1-1.2,0.2c-0.2,0.1-0.3,0.3-0.3,0.5c0,0.2,0.1,0.4,0.4,0.5
		c0.2,0.1,0.9,0.2,1.9,0.4c1,0.2,1.7,0.5,2.2,0.9c0.4,0.4,0.6,1.1,0.6,2c0,2.1-1.3,3.1-3.8,3.1c-0.8,0-1.9-0.1-3-0.3l-0.6-0.1
		l0.1-2.1c1.6,0.2,2.7,0.3,3.3,0.3c0.6,0,1-0.1,1.3-0.2c0.2-0.1,0.3-0.3,0.3-0.5c0-0.2-0.1-0.4-0.4-0.5c-0.2-0.1-0.8-0.3-1.8-0.4
		s-1.7-0.4-2.2-0.8c-0.5-0.4-0.7-1.1-0.7-2.1s0.3-1.8,1-2.3c0.7-0.5,1.6-0.8,2.6-0.8c0.7,0,1.8,0.1,3.1,0.4l0.6,0.1L404.9,117.1z"/>
	<path d="M413.8,117.1c-1.6-0.2-2.7-0.3-3.3-0.3c-0.6,0-1,0.1-1.2,0.2c-0.2,0.1-0.3,0.3-0.3,0.5c0,0.2,0.1,0.4,0.4,0.5
		c0.2,0.1,0.9,0.2,1.9,0.4c1,0.2,1.7,0.5,2.2,0.9c0.4,0.4,0.6,1.1,0.6,2c0,2.1-1.3,3.1-3.8,3.1c-0.8,0-1.9-0.1-3-0.3l-0.6-0.1
		l0.1-2.1c1.6,0.2,2.7,0.3,3.3,0.3c0.6,0,1-0.1,1.3-0.2c0.2-0.1,0.3-0.3,0.3-0.5c0-0.2-0.1-0.4-0.4-0.5c-0.2-0.1-0.8-0.3-1.8-0.4
		s-1.7-0.4-2.2-0.8c-0.5-0.4-0.7-1.1-0.7-2.1s0.3-1.8,1-2.3c0.7-0.5,1.6-0.8,2.6-0.8c0.7,0,1.8,0.1,3.1,0.4l0.6,0.1L413.8,117.1z"/>
	<path d="M416.5,115.8c0.7-0.9,1.8-1.3,3.4-1.3c1.6,0,2.7,0.4,3.4,1.3s1,2.1,1,3.7c0,3.3-1.5,5-4.4,5c-2.9,0-4.4-1.7-4.4-5
		C415.5,117.9,415.8,116.6,416.5,115.8z M418.5,121.6c0.3,0.5,0.7,0.7,1.4,0.7s1.1-0.2,1.4-0.7s0.4-1.2,0.4-2.1c0-1-0.1-1.7-0.4-2.1
		c-0.3-0.4-0.7-0.7-1.4-0.7s-1.1,0.2-1.4,0.7c-0.3,0.4-0.4,1.2-0.4,2.1C418.1,120.4,418.2,121.1,418.5,121.6z"/>
	<path d="M426.1,124.2v-9.5h2.5v1c1.1-0.6,2.1-1,3-1.2v2.6c-1,0.2-1.9,0.4-2.6,0.7l-0.4,0.1v6.4H426.1z"/>
</g>
<g class="st0">
	<path d="M177.9,81.9v5h-1V83l-1.1,0.7l-0.5-0.8l1.6-1.1H177.9z"/>
</g>
<g class="st0">
	<path d="M64.1,91.4c-0.7,0.9-1.8,1.3-3.5,1.3s-2.8-0.4-3.5-1.3c-0.7-0.9-1-2.3-1-4.2c0-1.9,0.3-3.3,1-4.3c0.7-0.9,1.8-1.4,3.5-1.4
		s2.8,0.5,3.5,1.4c0.7,0.9,1,2.4,1,4.3C65.2,89.1,64.8,90.5,64.1,91.4z M58.9,90c0.3,0.6,0.9,0.8,1.8,0.8s1.4-0.3,1.8-0.8
		c0.3-0.6,0.5-1.5,0.5-2.8s-0.2-2.3-0.5-2.9c-0.3-0.6-0.9-0.9-1.8-0.9c-0.9,0-1.4,0.3-1.8,0.9c-0.3,0.6-0.5,1.5-0.5,2.9
		S58.6,89.4,58.9,90z"/>
	<path d="M67,92.5V81.7H74v1.9h-4.7v3.2h3.9v1.9h-3.9v3.8H67z"/>
	<path d="M79,81.7h4.3c1.1,0,2,0.2,2.5,0.7c0.6,0.5,0.8,1.2,0.8,2.2c0,0.6-0.1,1.1-0.3,1.4c-0.2,0.4-0.5,0.7-0.9,0.9
		c0.5,0.2,0.8,0.5,1.1,0.9c0.2,0.4,0.3,0.9,0.3,1.6c0,1.1-0.3,1.8-0.9,2.3c-0.6,0.5-1.5,0.8-2.6,0.8H79V81.7z M83.1,83.6h-1.9v2.6h2
		c0.8,0,1.2-0.4,1.2-1.3S84,83.6,83.1,83.6z M83.2,88h-2v2.6h2c0.5,0,0.8-0.1,1.1-0.3s0.3-0.5,0.3-1.1C84.6,88.4,84.1,88,83.2,88z"
		/>
	<path d="M87.7,92.5l2.4-10.8h4.2l2.4,10.8h-2.2l-0.4-2h-3.8l-0.4,2H87.7z M91.8,83.5l-1.1,5.1h3l-1.1-5.1H91.8z"/>
	<path d="M96.6,83.6v-1.9h8v1.9h-2.9v8.9h-2.2v-8.9H96.6z"/>
	<path d="M105,83.6v-1.9h8v1.9h-2.9v8.9h-2.2v-8.9H105z"/>
	<path d="M114.3,92.5V81.7h7v1.9h-4.8v2.5h3.9V88h-3.9v2.6h4.8v1.9H114.3z"/>
	<path d="M125.4,88.9v3.6h-2.2V81.7h4.2c2.5,0,3.8,1.2,3.8,3.6c0,1.4-0.5,2.5-1.6,3.1l1.5,4.1h-2.4l-1.3-3.6H125.4z M128.6,86.5
		c0.3-0.3,0.4-0.7,0.4-1.3c0-0.5-0.1-0.9-0.4-1.2c-0.3-0.3-0.7-0.5-1.2-0.5h-2V87h2C127.9,87,128.3,86.8,128.6,86.5z"/>
	<path d="M137.1,92.5h-2.2v-4.4l-3.3-6.5h2.4l2,4.3l2-4.3h2.4l-3.3,6.5V92.5z"/>
	<path d="M151.2,92.5h-6.2V81.7h2.2v8.9h4V92.5z"/>
	<path d="M152.6,92.5V81.7h2.2v10.8H152.6z"/>
	<path d="M157.2,92.5V81.7h6.9v1.9h-4.7v3.2h3.9v1.9h-3.9v3.8H157.2z"/>
	<path d="M165.6,92.5V81.7h7v1.9h-4.8v2.5h3.9V88h-3.9v2.6h4.8v1.9H165.6z"/>
</g>
<g class="st0">
	<path d="M278.2,7.4h5.1c1.3,0,2.4,0.3,3,0.8c0.7,0.5,1,1.4,1,2.6c0,0.7-0.1,1.3-0.3,1.7s-0.6,0.8-1.1,1.1c0.6,0.2,1,0.6,1.3,1
		c0.3,0.5,0.4,1.1,0.4,1.9c0,1.3-0.4,2.2-1.1,2.8c-0.7,0.6-1.8,0.9-3.1,0.9h-5.2V7.4z M283.1,9.6h-2.3v3.1h2.3c1,0,1.5-0.5,1.5-1.5
		S284.1,9.6,283.1,9.6z M283.2,14.9h-2.4v3.2h2.4c0.6,0,1-0.1,1.3-0.3c0.3-0.2,0.4-0.6,0.4-1.3C284.8,15.4,284.3,14.9,283.2,14.9z"
		/>
	<path d="M289.7,20.3V7.4h2.6v12.9H289.7z"/>
	<path d="M295.2,20.3V7.4h4.4l3.1,10.6h0.2V7.4h2.6v12.9h-4.3L298,9.7h-0.2v10.6H295.2z"/>
	<path d="M313.7,15.7v-2.3h3.8v6.7c-1.8,0.3-3.3,0.4-4.4,0.4c-2,0-3.4-0.5-4.2-1.6s-1.1-2.8-1.1-5.1s0.4-4,1.2-5.1
		c0.8-1,2.1-1.6,4-1.6c1.2,0,2.5,0.1,3.8,0.4l0.7,0.1l-0.1,2c-1.5-0.2-2.8-0.2-3.7-0.2s-1.7,0.1-2,0.3c-0.4,0.2-0.7,0.6-0.9,1.3
		c-0.2,0.6-0.3,1.7-0.3,3.2c0,1.5,0.2,2.5,0.6,3.1s1.1,0.9,2.3,0.9l1.6-0.1v-2.5H313.7z"/>
	<path d="M320,20.3V7.4h8.4v2.3h-5.7v3h4.6v2.2h-4.6V18h5.7v2.3H320z"/>
	<path d="M333.6,7.4h2.8l1.6,10.7h0.3l2.3-10.7h3l2.3,10.7h0.3l1.6-10.7h2.8l-2.5,12.9h-4l-2-9.8l-2,9.8h-4L333.6,7.4z"/>
	<path d="M350.9,20.3l2.9-12.9h5l2.9,12.9h-2.6l-0.5-2.3h-4.5l-0.5,2.3H350.9z M355.9,9.6l-1.3,6.1h3.5l-1.3-6.1H355.9z"/>
	<path d="M361.6,9.7V7.4h9.5v2.3h-3.4v10.6H365V9.7H361.6z"/>
	<path d="M380.9,20.1c-1.3,0.3-2.6,0.4-3.6,0.4c-1.1,0-1.9-0.1-2.6-0.4c-0.6-0.3-1.2-0.7-1.5-1.3c-0.4-0.6-0.6-1.3-0.8-2.1
		c-0.1-0.8-0.2-1.8-0.2-3c0-2.5,0.4-4.2,1.1-5.2s2-1.5,3.9-1.5c1.1,0,2.4,0.2,3.8,0.5l-0.1,2.1c-1.3-0.2-2.3-0.3-3.1-0.3
		s-1.4,0.1-1.8,0.3c-0.4,0.2-0.6,0.6-0.8,1.3s-0.3,1.7-0.3,3.2c0,1.5,0.2,2.5,0.5,3.1c0.3,0.6,1,0.9,2.1,0.9s2.2-0.1,3.3-0.3
		L380.9,20.1z"/>
	<path d="M390.5,20.3V15h-4.8v5.4h-2.6V7.4h2.6v5.3h4.8V7.4h2.6v12.9H390.5z"/>
</g>
<g class="st0">
	<path class="st1" d="M265.1,47.8v24.7H260V53.7l-5.4,3.4l-2.4-3.9l8.2-5.4H265.1z"/>
	<path class="st1" d="M273.8,50.5c1.6-2,4-3.1,7.2-3.1s5.6,1,7.2,3.1c1.6,2,2.4,5.3,2.4,9.9s-0.8,7.8-2.4,9.7c-1.6,2-4,2.9-7.2,2.9
		s-5.6-1-7.2-2.9c-1.6-2-2.4-5.2-2.4-9.7S272.2,52.5,273.8,50.5z M285.2,60.2c0-3.1-0.3-5.2-1-6.5s-1.7-1.9-3.3-1.9
		s-2.6,0.6-3.3,1.9s-1,3.4-1,6.5s0.3,5.2,1,6.4c0.7,1.2,1.8,1.8,3.3,1.8s2.6-0.6,3.3-1.8C284.9,65.5,285.2,63.3,285.2,60.2z"/>
	<path class="st1" d="M317.1,72.6V62h-9.5v10.6h-5.2V47.1h5.2v10.4h9.5V47.1h5.2v25.5H317.1z"/>
	<path class="st1" d="M345.4,69.8c-1.6,2.1-4.3,3.2-8.2,3.2s-6.6-1.1-8.2-3.2c-1.6-2.1-2.4-5.4-2.4-9.9s0.8-7.8,2.4-10
		c1.6-2.2,4.3-3.3,8.2-3.3s6.6,1.1,8.2,3.3c1.6,2.2,2.4,5.5,2.4,10S347,67.7,345.4,69.8z M333.1,66.5c0.7,1.3,2.1,2,4.1,2
		c2,0,3.4-0.7,4.1-2s1.1-3.5,1.1-6.6c0-3.1-0.4-5.3-1.1-6.7c-0.7-1.4-2.1-2.1-4.1-2.1s-3.4,0.7-4.1,2.1c-0.7,1.4-1.1,3.6-1.1,6.7
		C332,63,332.3,65.2,333.1,66.5z"/>
	<path class="st1" d="M357.1,64.1c0,3,1.5,4.5,4.5,4.5c3,0,4.5-1.5,4.5-4.5v-17h5.2v16.8c0,3.1-0.8,5.4-2.4,6.9s-4,2.2-7.3,2.2
		c-3.2,0-5.7-0.7-7.3-2.2c-1.6-1.5-2.4-3.8-2.4-6.9V47.1h5.2V64.1z"/>
	<path class="st1" d="M381.8,64v8.5h-5.2V47.1h9.9c6,0,9,2.8,9,8.4c0,3.3-1.2,5.8-3.7,7.3l3.6,9.7h-5.7l-3-8.5H381.8z M389.4,58.5
		c0.6-0.7,0.9-1.7,0.9-3c0-1.2-0.3-2.2-1-2.9c-0.6-0.7-1.6-1.1-2.8-1.1h-4.7v8.1h4.8C387.9,59.6,388.8,59.2,389.4,58.5z"/>
	<path class="st1" d="M407.7,51.1c-2.7,0-4.1,0.9-4.1,2.7c0,0.8,0.3,1.4,1,1.8c0.7,0.4,2.3,1,4.7,1.8s4.2,1.7,5.2,2.7
		c1,1,1.5,2.6,1.5,4.7c0,2.7-0.8,4.7-2.4,6.1c-1.6,1.4-3.7,2.1-6.4,2.1c-1.9,0-4.3-0.3-7.2-0.9l-1.3-0.3l0.5-4
		c3.3,0.4,5.9,0.7,7.7,0.7c2.6,0,4-1.1,4-3.3c0-0.8-0.3-1.4-0.9-1.9s-1.8-0.9-3.7-1.5c-2.9-0.8-4.9-1.8-6.1-2.9
		c-1.2-1.1-1.8-2.7-1.8-4.7c0-2.5,0.8-4.4,2.3-5.7c1.5-1.2,3.7-1.9,6.4-1.9c1.8,0,4.2,0.3,7,0.7l1.3,0.3l-0.4,4.1
		C411.6,51.3,409.2,51.1,407.7,51.1z"/>
</g>
<g class="st0">
	<path d="M296.7,24.5h2.3l1.3,9h0.2l1.9-9h2.5l1.9,9h0.2l1.3-9h2.3l-2.1,10.8h-3.3l-1.7-8.2l-1.7,8.2h-3.3L296.7,24.5z"/>
	<path d="M312.3,35.4V24.5h2.2v10.8H312.3z"/>
	<path d="M315.9,26.5v-1.9h8v1.9H321v8.9h-2.2v-8.9H315.9z"/>
	<path d="M331.5,35.4v-4.5h-4v4.5h-2.2V24.5h2.2V29h4v-4.4h2.2v10.8H331.5z"/>
	<path d="M341.7,31.8c0,1.3,0.6,1.9,1.9,1.9s1.9-0.6,1.9-1.9v-7.2h2.2v7.2c0,1.3-0.3,2.3-1,2.9c-0.7,0.6-1.7,0.9-3.1,0.9
		s-2.4-0.3-3.1-0.9c-0.7-0.6-1-1.6-1-2.9v-7.2h2.2V31.8z"/>
	<path d="M354,32.2h-1.8v3.2H350V24.5h4c2.6,0,3.9,1.3,3.9,3.8c0,1.3-0.3,2.2-1,2.9C356.2,31.9,355.2,32.2,354,32.2z M352.2,30.3
		h1.8c1.1,0,1.6-0.7,1.6-2c0-0.7-0.1-1.1-0.4-1.4c-0.3-0.3-0.7-0.4-1.2-0.4h-1.8V30.3z"/>
	<path d="M361.9,26.5v-1.9h8v1.9H367v8.9h-2.2v-8.9H361.9z"/>
	<path d="M378.7,34.2c-0.7,0.9-1.8,1.3-3.5,1.3s-2.8-0.4-3.5-1.3c-0.7-0.9-1-2.3-1-4.2s0.3-3.3,1-4.3c0.7-0.9,1.8-1.4,3.5-1.4
		s2.8,0.5,3.5,1.4c0.7,0.9,1,2.4,1,4.3S379.3,33.3,378.7,34.2z M373.4,32.8c0.3,0.6,0.9,0.8,1.8,0.8s1.4-0.3,1.8-0.8
		s0.5-1.5,0.5-2.8s-0.2-2.3-0.5-2.9c-0.3-0.6-0.9-0.9-1.8-0.9s-1.4,0.3-1.8,0.9c-0.3,0.6-0.5,1.5-0.5,2.9S373.1,32.3,373.4,32.8z"/>
</g>
<g class="st0">
	<path d="M416.6,82v5h-1v-3.8l-1.1,0.7l-0.5-0.8l1.6-1.1H416.6z"/>
</g>
<g class="st0">
	<path d="M271.3,91.4c-0.7,0.9-1.8,1.3-3.5,1.3s-2.8-0.4-3.5-1.3s-1-2.3-1-4.2c0-1.9,0.3-3.3,1-4.3c0.7-0.9,1.8-1.4,3.5-1.4
		s2.8,0.5,3.5,1.4c0.7,0.9,1,2.4,1,4.3C272.3,89.1,272,90.5,271.3,91.4z M266.1,90c0.3,0.6,0.9,0.8,1.8,0.8s1.4-0.3,1.8-0.8
		s0.5-1.5,0.5-2.8s-0.2-2.3-0.5-2.9c-0.3-0.6-0.9-0.9-1.8-0.9s-1.4,0.3-1.8,0.9c-0.3,0.6-0.5,1.5-0.5,2.9S265.8,89.4,266.1,90z"/>
	<path d="M274.2,92.5V81.7h3.7l2.6,8.9h0.2v-8.9h2.2v10.8h-3.6l-2.7-8.9h-0.2v8.9H274.2z"/>
	<path d="M287.8,92.5l2.4-10.8h4.2l2.4,10.8h-2.2l-0.4-2h-3.8l-0.4,2H287.8z M292,83.5l-1.1,5.1h3l-1.1-5.1H292z"/>
	<path d="M305.2,83.4c-1.2,0-1.7,0.4-1.7,1.1c0,0.3,0.1,0.6,0.4,0.8c0.3,0.2,1,0.4,2,0.8c1.1,0.3,1.8,0.7,2.2,1.2s0.6,1.1,0.6,2
		c0,1.1-0.3,2-1,2.6c-0.7,0.6-1.6,0.9-2.7,0.9c-0.8,0-1.8-0.1-3-0.4l-0.6-0.1l0.2-1.7c1.4,0.2,2.5,0.3,3.3,0.3
		c1.1,0,1.7-0.5,1.7-1.4c0-0.3-0.1-0.6-0.4-0.8c-0.3-0.2-0.8-0.4-1.6-0.6c-1.2-0.4-2.1-0.8-2.6-1.3c-0.5-0.5-0.8-1.2-0.8-2
		c0-1.1,0.3-1.9,1-2.4c0.7-0.5,1.6-0.8,2.7-0.8c0.8,0,1.8,0.1,3,0.3l0.6,0.1l-0.2,1.7C306.9,83.5,305.8,83.4,305.2,83.4z"/>
	<path d="M310.5,92.5V81.7h2.2v10.8H310.5z"/>
	<path d="M315.1,92.5V81.7h3.7l2.6,8.9h0.2v-8.9h2.2v10.8h-3.6l-2.7-8.9h-0.2v8.9H315.1z"/>
	<path d="M330.6,88.6v-1.9h3.2v5.6c-1.5,0.2-2.8,0.4-3.7,0.4c-1.7,0-2.8-0.5-3.5-1.4c-0.6-0.9-0.9-2.3-0.9-4.3s0.3-3.4,1-4.3
		c0.7-0.9,1.8-1.3,3.4-1.3c1,0,2.1,0.1,3.2,0.3l0.6,0.1l-0.1,1.7c-1.3-0.1-2.3-0.2-3.1-0.2s-1.4,0.1-1.7,0.3s-0.6,0.5-0.7,1.1
		c-0.2,0.5-0.2,1.4-0.2,2.6s0.2,2.1,0.5,2.6c0.3,0.5,0.9,0.7,1.9,0.7l1.3-0.1v-2.1H330.6z"/>
	<path d="M342,92.5h-6.2V81.7h2.2v8.9h4V92.5z"/>
	<path d="M343.4,92.5V81.7h7v1.9h-4.8v2.5h3.9V88h-3.9v2.6h4.8v1.9H343.4z"/>
	<path d="M362.6,92.3c-1.1,0.2-2.1,0.4-3,0.4s-1.6-0.1-2.2-0.3c-0.5-0.2-1-0.6-1.3-1.1c-0.3-0.5-0.5-1.1-0.6-1.7s-0.2-1.5-0.2-2.5
		c0-2.1,0.3-3.6,0.9-4.4c0.6-0.8,1.7-1.2,3.3-1.2c0.9,0,2,0.1,3.2,0.4l-0.1,1.8c-1.1-0.2-1.9-0.2-2.6-0.2c-0.7,0-1.2,0.1-1.5,0.3
		c-0.3,0.2-0.5,0.5-0.7,1.1s-0.2,1.4-0.2,2.7c0,1.3,0.1,2.1,0.4,2.6s0.9,0.7,1.8,0.7s1.8-0.1,2.8-0.2L362.6,92.3z"/>
	<path d="M370.6,92.5V88h-4v4.5h-2.2V81.7h2.2v4.4h4v-4.4h2.2v10.8H370.6z"/>
	<path d="M374.2,92.5l2.4-10.8h4.2l2.4,10.8h-2.2l-0.4-2h-3.8l-0.4,2H374.2z M378.4,83.5l-1.1,5.1h3l-1.1-5.1H378.4z"/>
	<path d="M386.9,88.9v3.6h-2.2V81.7h4.2c2.5,0,3.8,1.2,3.8,3.6c0,1.4-0.5,2.5-1.6,3.1l1.5,4.1h-2.4l-1.3-3.6H386.9z M390.1,86.5
		c0.3-0.3,0.4-0.7,0.4-1.3c0-0.5-0.1-0.9-0.4-1.2c-0.3-0.3-0.7-0.5-1.2-0.5h-2V87h2C389.5,87,389.9,86.8,390.1,86.5z"/>
	<path d="M399.1,88.6v-1.9h3.2v5.6c-1.5,0.2-2.8,0.4-3.7,0.4c-1.7,0-2.8-0.5-3.5-1.4c-0.6-0.9-0.9-2.3-0.9-4.3s0.3-3.4,1-4.3
		c0.7-0.9,1.8-1.3,3.4-1.3c1,0,2.1,0.1,3.2,0.3l0.6,0.1l-0.1,1.7c-1.3-0.1-2.3-0.2-3.1-0.2s-1.4,0.1-1.7,0.3s-0.6,0.5-0.7,1.1
		c-0.2,0.5-0.2,1.4-0.2,2.6s0.2,2.1,0.5,2.6c0.3,0.5,0.9,0.7,1.9,0.7l1.3-0.1v-2.1H399.1z"/>
	<path d="M404.3,92.5V81.7h7v1.9h-4.8v2.5h3.9V88h-3.9v2.6h4.8v1.9H404.3z"/>
</g>
</svg>
