<svg xmlns="http://www.w3.org/2000/svg" viewBox="0 0 198 198">
  <defs>
    <style>
      .a {
        fill: #ef6620;
      }
    </style>
  </defs>
  <title>img.who-amd-05</title>
  <g>
    <path d="M157.83,143.12H142.07a1,1,0,0,1,0-2h14.76V65.56a1,1,0,0,1,1-1h23.41a1,1,0,0,1,0,2H158.83v75.56A1,1,0,0,1,157.83,143.12Z"/>
    <path d="M58.61,181.87a1,1,0,0,1-1-1V157.3H46a1,1,0,0,1-1-1V70.58H27.75a1,1,0,0,1-1-1V46.05a1,1,0,0,1,2,0V68.58H46a1,1,0,0,1,1,1V155.3H58.61a1,1,0,0,1,1,1v24.57A1,1,0,0,1,58.61,181.87Z"/>
    <path d="M38.38,70.58a1,1,0,0,1-1-1V63.91a1,1,0,0,1,2,0v5.67A1,1,0,0,1,38.38,70.58Z"/>
    <path d="M174.52,66.56h-6a1,1,0,0,1-1-1V60.88a1,1,0,0,1,1-1h6a1,1,0,0,1,1,1v4.68A1,1,0,0,1,174.52,66.56Zm-5-2h4V61.88h-4Z"/>
    <path d="M68.94,181.87a1,1,0,0,1-1-1V104.7a1,1,0,1,1,2,0v76.17A1,1,0,0,1,68.94,181.87Z"/>
    <path d="M135.71,117.82a1,1,0,0,1-1-1V32.48H120.54a1,1,0,0,1,0-2h15.17a1,1,0,0,1,1,1v85.34A1,1,0,0,1,135.71,117.82Z"/>
    <path class="a" d="M65.78,71c5.25,4.55,5.56,4.82,6.66,9s1,4.5-1.35,10.94a113.23,113.23,0,0,0-3.65,11.56l-.09.36h3.09c1.09-4.28,2.41-8,3.47-10.91,2.4-6.68,2.77-7.71,1.43-12.73s-2.17-5.73-7.62-10.45c-1.23-1.07-2.62-2.28-4.07-3.61l-1.11-1-.21.22v3.64C63.55,69,64.72,70.05,65.78,71Z"/>
    <path class="a" d="M76.94,58.75c6,5.24,9.37,8.12,11.75,17s.91,13-1.77,20.48c-.65,1.81-1.38,3.86-2.06,6l-.14.45h3.14c.62-2,1.26-3.75,1.9-5.52C92.43,89.79,94.2,84.86,91.59,75S85,61.74,78.9,56.49c-4.56-4-10.24-8.88-15-16.67l-.78-1.28-.8.48v3.91C67.1,50.23,72.53,54.93,76.94,58.75Z"/>
    <path class="a" d="M88.1,46.54C94.88,52.42,101.28,58,104.94,71.7s.83,21.6-2.16,29.93l-.41,1.14h3.19l0-.12c3-8.4,6.13-17.09,2.24-31.72s-11-20.74-17.78-26.65c-4.28-3.71-8.32-7.25-11.71-12.8h-3.5l.44.75C79,38.67,83.63,42.67,88.1,46.54Z"/>
    <path class="a" d="M97.28,32.6,99,34.08l.3.26c6.5,5.64,14.6,12.66,19.87,26.79l.52,1.41.88-.33V56.64C115,44,107.12,37.18,101.23,32.07l-.29-.25-.39-.34H96.27l-.11.13Z"/>
    <path d="M120.54,103.77H62a1,1,0,0,1-1-1V31.48a1,1,0,0,1,1-1h58.53a1,1,0,0,1,1,1v71.29A1,1,0,0,1,120.54,103.77Zm-57.53-2h56.53V32.48H63Z"/>
    <g>
      <path class="a" d="M107.16,172.52c1.17,1,2.26,2,3.27,3h2.76l.76-.79-1.08-1c-1.14-1.09-2.39-2.21-3.74-3.41-7.17-6.38-17-15.12-21.93-34.18A64.61,64.61,0,0,1,85,117.75l0-.93h-1.8V132c.3,1.58.66,3.17,1.09,4.8C89.46,156.77,99.68,165.86,107.16,172.52Z"/>
      <path class="a" d="M134,174.07c-3.87-7.6-8.86-12-13.69-16.34-6.79-6-13.19-11.74-16.85-25.86a47.37,47.37,0,0,1-1.65-15v-.1h-3a50.31,50.31,0,0,0,1.74,15.8c3.89,15,10.94,21.28,17.76,27.35,4.84,4.3,9.41,8.37,13,15.46l0,.07h3.14l.18-.09Z"/>
      <path class="a" d="M131.45,145.18c-6-5.38-9.37-8.34-11.75-17.52a30,30,0,0,1-1.14-9.84l.07-1h-3l-.06.78a33.37,33.37,0,0,0,1.22,10.81c2.61,10.06,6.61,13.62,12.68,19a78.88,78.88,0,0,1,12,12.55l.18.26v-4.87A91.11,91.11,0,0,0,131.45,145.18Z"/>
      <path class="a" d="M136,123.44c-.76-2.93-.89-4-.31-6.23l.1-.39h-3.09c-.62,2.56-.44,4.17.39,7.38,1.33,5.12,2.17,5.87,7.59,10.69l1,.89v-4C137.32,127.92,137,127.4,136,123.44Z"/>
      <path d="M142.07,176.36H83.54a1,1,0,0,1-1-1V116.82a1,1,0,0,1,1-1h58.53a1,1,0,0,1,1,1v58.54A1,1,0,0,1,142.07,176.36Zm-57.53-2h56.53V117.82H84.54Z"/>
    </g>
    <g>
      <path d="M102.64,32.48a1,1,0,0,1-1-1V17.13a1,1,0,1,1,2,0V31.48A1,1,0,0,1,102.64,32.48Z"/>
      <path d="M97.8,32.48a1,1,0,0,1-1-1v-9a1,1,0,0,1,2,0v9A1,1,0,0,1,97.8,32.48Z"/>
    </g>
    <path d="M181.24,85h-3.65a1,1,0,0,1-1-1V76.47a1,1,0,0,1,1-1h3.65a1,1,0,0,1,1,1V84A1,1,0,0,1,181.24,85Zm-2.65-2h1.65V77.47h-1.65Z"/>
    <path d="M169.54,110.86h-3.65a1,1,0,0,1-1-1v-7.54a1,1,0,0,1,1-1h3.65a1,1,0,0,1,1,1v7.54A1,1,0,0,1,169.54,110.86Zm-2.65-2h1.65v-5.54h-1.65Z"/>
    <path d="M181.24,136.71h-3.65a1,1,0,0,1-1-1v-7.55a1,1,0,0,1,1-1h3.65a1,1,0,0,1,1,1v7.55A1,1,0,0,1,181.24,136.71Zm-2.65-2h1.65v-5.55h-1.65Z"/>
    <path d="M169.54,162.55h-3.65a1,1,0,0,1-1-1V154a1,1,0,0,1,1-1h3.65a1,1,0,0,1,1,1v7.54A1,1,0,0,1,169.54,162.55Zm-2.65-2h1.65V155h-1.65Z"/>
    <path d="M26.11,85H22.46a1,1,0,0,1-1-1V76.47a1,1,0,0,1,1-1h3.65a1,1,0,0,1,1,1V84A1,1,0,0,1,26.11,85Zm-2.65-2h1.65V77.47H23.46Z"/>
    <path d="M14.41,110.86H10.76a1,1,0,0,1-1-1v-7.54a1,1,0,0,1,1-1h3.65a1,1,0,0,1,1,1v7.54A1,1,0,0,1,14.41,110.86Zm-2.65-2h1.65v-5.54H11.76Z"/>
    <path d="M37.8,110.86H34.15a1,1,0,0,1-1-1v-7.54a1,1,0,0,1,1-1H37.8a1,1,0,0,1,1,1v7.54A1,1,0,0,1,37.8,110.86Zm-2.65-2H36.8v-5.54H35.15Z"/>
    <path d="M26.11,136.71H22.46a1,1,0,0,1-1-1v-7.55a1,1,0,0,1,1-1h3.65a1,1,0,0,1,1,1v7.55A1,1,0,0,1,26.11,136.71Zm-2.65-2h1.65v-5.55H23.46Z"/>
    <path d="M37.8,162.55H34.15a1,1,0,0,1-1-1V154a1,1,0,0,1,1-1H37.8a1,1,0,0,1,1,1v7.54A1,1,0,0,1,37.8,162.55Zm-2.65-2H36.8V155H35.15Z"/>
    <path d="M175.73,61.88h-8.37a1,1,0,0,1-.69-1.73l4.19-3.94a1,1,0,0,1,1.37,0l4.18,3.94a1,1,0,0,1-.68,1.73Zm-5.85-2h3.32l-1.66-1.56Z"/>
  </g>
  <g>
    <rect x="68.94" y="102.77" width="47.49" height="3.32"/>
    <path d="M116.44,107.09H68.94a1,1,0,0,1-1-1v-3.32a1,1,0,0,1,1-1h47.5a1,1,0,0,1,1,1v3.32A1,1,0,0,1,116.44,107.09Zm-46.5-2h45.5v-1.32H69.94Z"/>
  </g>
  <g>
    <rect x="83.45" y="174.75" width="47.49" height="3.32"/>
    <path d="M131,179.07H83.45a1,1,0,0,1-1-1v-3.32a1,1,0,0,1,1-1H131a1,1,0,0,1,1,1v3.32A1,1,0,0,1,131,179.07Zm-46.5-2H130v-1.32H84.45Z"/>
  </g>
  <g>
    <rect x="52.52" y="147.14" width="58.54" height="3.32" transform="translate(230.59 67) rotate(90)"/>
    <path d="M83.45,179.07H80.14a1,1,0,0,1-1-1V119.53a1,1,0,0,1,1-1h3.31a1,1,0,0,1,1,1v58.54A1,1,0,0,1,83.45,179.07Zm-2.31-2h1.31V120.53H81.14Z"/>
  </g>
</svg>
