<svg xmlns="http://www.w3.org/2000/svg" viewBox="0 0 198 198">
  <defs>
    <style>
      .a {
        fill: #ef6620;
      }
    </style>
  </defs>
  <title>img.who-amd-04</title>
  <g>
    <g>
      <g>
        <path class="a" d="M43,97.27a1,1,0,0,1-.87-.49l-2-3.5-6.11,3a1,1,0,0,1-.89-1.79l7-3.47a1,1,0,0,1,1.31.39l1.18,2,2.67-13.32a1,1,0,0,1,1-.81,1.05,1.05,0,0,1,1,.75l1.74,6.54,3.62-1.81a1,1,0,0,1,.89,1.79L48.66,89a1,1,0,0,1-.86,0,1,1,0,0,1-.55-.65l-1-3.58L44,96.47a1,1,0,0,1-.82.79Z"/>
        <path class="a" d="M62.38,87.58a1,1,0,0,1-.86-.5l-2-3.5-6.11,3A1,1,0,0,1,52,86.19a1,1,0,0,1,.44-1.35l7-3.47a1,1,0,0,1,1.31.4l1.18,2L64.6,70.47a1,1,0,0,1,1-.8,1,1,0,0,1,1,.74L68.28,77l3.62-1.8a1,1,0,1,1,.89,1.79l-4.72,2.35a1,1,0,0,1-.85,0,1,1,0,0,1-.56-.66l-1-3.58-2.35,11.7a1,1,0,0,1-.82.79Z"/>
        <path class="a" d="M81.79,77.88a1,1,0,0,1-.86-.5l-2-3.5-6.11,3.06a1,1,0,0,1-1.34-.45,1,1,0,0,1,.45-1.34l6.94-3.47a1,1,0,0,1,1.32.39l1.17,2L84,60.77A1,1,0,0,1,86,60.71l1.73,6.55,5.82-2.91a1,1,0,0,1,.89,1.79l-6.91,3.45a1,1,0,0,1-.86,0,1,1,0,0,1-.56-.65l-.95-3.58-2.35,11.7a1,1,0,0,1-.81.79Z"/>
      </g>
      <g>
        <path class="a" d="M43.32,118.14a1,1,0,0,1-.87-.5l-2-3.5-6.11,3a1,1,0,0,1-1.34-.44,1,1,0,0,1,.44-1.35l6.95-3.47a1,1,0,0,1,1.31.4l1.18,2L45.54,101a1,1,0,0,1,1.94-.06l1.74,6.55,3.62-1.81a1,1,0,0,1,.89,1.79L49,109.85a.94.94,0,0,1-.85,0,1,1,0,0,1-.56-.65l-1-3.58L44.3,117.33a1,1,0,0,1-.82.79Z"/>
        <path class="a" d="M62.73,108.44a1,1,0,0,1-.86-.5l-2-3.49-6.11,3a1,1,0,0,1-1.34-.45,1,1,0,0,1,.45-1.34l6.94-3.47a1,1,0,0,1,1.32.39l1.17,2L65,91.33a1,1,0,0,1,1-.8,1,1,0,0,1,1,.75l1.73,6.54L72.25,96a1,1,0,0,1,.89,1.79l-4.71,2.36a1,1,0,0,1-.86,0,1,1,0,0,1-.56-.65l-1-3.58-2.35,11.7a1,1,0,0,1-.81.79Z"/>
        <path class="a" d="M82.15,98.74a1,1,0,0,1-.87-.49l-2-3.5-6.11,3a1,1,0,0,1-1.34-.45A1,1,0,0,1,72.25,96l7-3.47a1,1,0,0,1,1.31.39l1.18,2,2.67-13.32a1,1,0,0,1,1-.81,1,1,0,0,1,1,.75L88,88.12l4.78-2.39a1,1,0,0,1,1.34.45,1,1,0,0,1-.44,1.34l-5.88,2.94a1,1,0,0,1-.86,0,1,1,0,0,1-.55-.66l-1-3.58-2.35,11.7a1,1,0,0,1-.82.79Z"/>
      </g>
      <path d="M23.43,144.16a1,1,0,0,1-1-1V80.69a8.79,8.79,0,0,1,4.88-7.9L98.52,37.22a4.5,4.5,0,0,1,6.52,4v54.2a13,13,0,0,1-7.21,11.66L23.88,144.05A1.06,1.06,0,0,1,23.43,144.16ZM100.54,38.74a2.46,2.46,0,0,0-1.12.27L28.21,74.58a6.81,6.81,0,0,0-3.78,6.11v60.85l72.51-36.22a11,11,0,0,0,6.1-9.87V41.25a2.49,2.49,0,0,0-1.18-2.13A2.52,2.52,0,0,0,100.54,38.74Z"/>
      <path d="M33.52,129a1,1,0,0,1-.53-.15,1,1,0,0,1-.47-.85V80.9a1,1,0,0,1,.55-.89L93.51,49.82a1,1,0,0,1,1.44.89V97.84a1,1,0,0,1-.55.89L34,128.92A1.06,1.06,0,0,1,33.52,129Zm1-47.51v44.89L93,97.22V52.33Z"/>
      <path d="M23.43,144.16A.91.91,0,0,1,23,144l-5.36-2.95a10.83,10.83,0,0,1-5.26-9.24V74.9A8.77,8.77,0,0,1,17.22,67l67.7-33.82a10.93,10.93,0,0,1,10.41.32l7.59,4.08a1,1,0,0,1-1,1.77l-7.61-4.1A9,9,0,0,0,85.81,35L18.11,68.79a6.78,6.78,0,0,0-3.78,6.11v56.94a8.8,8.8,0,0,0,4.26,7.51l5.32,2.93a1,1,0,0,1-.48,1.88Z"/>
      <path d="M104.05,166a1,1,0,0,1-.53-.15,1,1,0,0,1-.47-.85v-40a8.77,8.77,0,0,1,4.88-7.89l71.22-35.58a4.51,4.51,0,0,1,6.52,4v31.76a13,13,0,0,1-7.22,11.67L104.5,165.87A1,1,0,0,1,104.05,166Zm77.11-83a2.48,2.48,0,0,0-1.12.26l-71.21,35.57a6.81,6.81,0,0,0-3.78,6.11v38.43l72.51-36.22a11,11,0,0,0,6.11-9.88V85.5A2.5,2.5,0,0,0,181.16,83Z"/>
      <path d="M114.14,150.85a1,1,0,0,1-.53-.15,1,1,0,0,1-.47-.85V125.14a1,1,0,0,1,.55-.89l60.44-30.19a1,1,0,0,1,1,0,1,1,0,0,1,.48.85v24.71a1,1,0,0,1-.56.89l-60.43,30.19A1,1,0,0,1,114.14,150.85Zm1-25.09v22.47L173.58,119V96.57Z"/>
      <path d="M104.05,166a.94.94,0,0,1-.48-.13l-5.36-2.95A10.83,10.83,0,0,1,93,153.66V119.14a8.78,8.78,0,0,1,4.89-7.9l67.7-33.82a11,11,0,0,1,10.41.32l7.59,4.09a1,1,0,0,1,.41,1.35,1,1,0,0,1-1.36.41L175,79.49a9,9,0,0,0-8.55-.28L98.73,113A6.78,6.78,0,0,0,95,119.14v34.52a8.8,8.8,0,0,0,4.26,7.51l5.32,2.93a1,1,0,0,1,.4,1.36A1,1,0,0,1,104.05,166Z"/>
      <path d="M48.6,155.25a1,1,0,0,1-1-1V130.79a1,1,0,0,1,2,0v23.46A1,1,0,0,1,48.6,155.25Z"/>
      <path d="M63.18,164.13a1,1,0,0,1-1-1V123.51a1,1,0,0,1,2,0v39.62A1,1,0,0,1,63.18,164.13Z"/>
      <path d="M64.18,145.88a1,1,0,0,1-.83-.44,1,1,0,0,1,.27-1.39,18.29,18.29,0,0,0,8.08-15.19v-9.08a1,1,0,0,1,2,0v9.08a20.32,20.32,0,0,1-9,16.85A1,1,0,0,1,64.18,145.88Z"/>
      <polygon class="a" points="160.88 120.52 160.88 105.86 159.19 106.69 159.19 108.64 159.19 113.06 158.02 113.64 158.02 118.73 157.23 119.12 157.23 122.31 154.89 123.46 153.42 124.18 151.08 125.33 151.08 110.67 149.39 111.5 149.39 113.46 149.39 117.88 148.23 118.45 148.23 123.54 147.44 123.93 147.44 127.12 145.1 128.27 143.62 129 141.28 130.15 141.28 115.48 139.6 116.31 139.6 118.27 139.6 122.69 138.43 123.26 138.43 128.36 137.64 128.74 137.64 131.93 135.3 133.08 133.82 133.81 131.49 134.96 131.49 120.3 129.8 121.12 129.8 123.08 129.8 127.5 128.63 128.08 128.63 133.17 127.84 133.56 127.84 136.75 114.55 143.16 114.55 145.11 133.82 135.77 135.3 135.04 143.62 130.96 145.1 130.23 153.42 126.14 154.89 125.42 174.22 115.86 174.22 113.9 160.88 120.52"/>
    </g>
    <path d="M166.3,150.41a1,1,0,0,1-1-1V134.59a1,1,0,1,1,2,0v14.82A1,1,0,0,1,166.3,150.41Z"/>
    <path d="M158.78,157.72a1,1,0,0,1-1-1v-18.4a1,1,0,0,1,2,0v18.4A1,1,0,0,1,158.78,157.72Z"/>
  </g>
</svg>
