<?xml version="1.0" encoding="utf-8"?>
<!-- Generator: Adobe Illustrator 21.0.0, SVG Export Plug-In . SVG Version: 6.00 Build 0)  -->
<svg version="1.1" id="Layer_1" xmlns="http://www.w3.org/2000/svg" xmlns:xlink="http://www.w3.org/1999/xlink" x="0px" y="0px"
	 viewBox="0 0 150 150" style="enable-background:new 0 0 150 150;" xml:space="preserve">
<style type="text/css">
	.st0{fill:#FF0000;}
</style>
<path class="st0" d="M20.3,84.6l18-61.6c1.8-6.6,9-12,16.2-12h53.9c1.2,0,1.2,1.2,0.6,1.8C80.8,32,47.2,60.7,22.1,85.8
	C20.9,86.4,19.7,85.8,20.3,84.6z"/>
<path d="M62.8,122.3l17.4-61.6c0-1.2-0.6-1.8-1.2-1.2c-25.7,22.1-56.9,54.5-76,79c-0.6,0.6,0,1.8,0.6,1.8H79
	c31.7,0,49.1-10.2,55.7-33.5c5.4-19.2-4.8-32.3-20.9-35.9c0,0-0.6-0.6,0-0.6c13.8-2.4,27.5-7.8,32.3-27.5
	c5.4-21.5-11.4-33.5-29.9-32.3L87.3,111.6c-1.8,5.4-7.2,10.2-13.2,10.2H62.8V122.3z"/>
</svg>
