<?xml version="1.0" encoding="utf-8"?>
<!-- Generator: Adobe Illustrator 21.0.0, SVG Export Plug-In . SVG Version: 6.00 Build 0)  -->
<svg version="1.1" id="Layer_1" xmlns="http://www.w3.org/2000/svg" xmlns:xlink="http://www.w3.org/1999/xlink" x="0px" y="0px"
	 viewBox="0 0 1600 260" style="enable-background:new 0 0 1600 260;" xml:space="preserve">
<style type="text/css">
	.st0{fill:#FFFFFF;}
	.st1{fill:#E41505;}
</style>
<circle class="st0" cx="140.5" cy="133.5" r="111.2"/>
<path class="st0" d="M789.4,173.5c-20.8,0-37.6-16.9-37.6-37.6s16.9-37.6,37.6-37.6s37.6,16.9,37.6,37.6l0,0
	C827.2,156.7,810.3,173.5,789.4,173.5L789.4,173.5 M789.4,75.1c-33.6,0-60.8,27.2-60.8,60.8s27.2,60.8,60.8,60.8
	c33.6,0,60.8-27.2,60.8-60.8l0,0C850.1,102.3,823,75.1,789.4,75.1"/>
<path class="st0" d="M712.7,176.2h5v22.5h-5c-26.2,0-47.4-21.3-47.4-47.4V47.7h22.5v30.2h29.2v22.5h-29.2v51.1
	c-0.1,13.6,10.8,24.7,24.5,24.8l0,0l0,0"/>
<path class="st0" d="M1000.7,173.5c-20.8,0-37.6-16.9-37.6-37.6s16.9-37.6,37.6-37.6s37.6,16.9,37.6,37.6l0,0
	C1038.5,156.7,1021.5,173.5,1000.7,173.5L1000.7,173.5 M1000.7,75.1c-33.6,0-60.8,27.2-60.8,60.8s27.2,60.8,60.8,60.8
	c33.6,0,60.8-27.2,60.8-60.8l0,0l0,0C1061.4,102.3,1034.3,75.1,1000.7,75.1"/>
<path class="st0" d="M1181.7,173.5c-20.8,0-37.6-16.9-37.6-37.6s16.9-37.6,37.6-37.6c20.8,0,37.6,16.9,37.6,37.6
	S1202.4,173.5,1181.7,173.5L1181.7,173.5L1181.7,173.5 M1181.7,75.1c-33.6,0-60.8,27.2-60.8,60.8s27.2,60.8,60.8,60.8
	c14.2,0.1,27.9-4.9,38.8-14.1v11.8h22.1V136c-0.3-33.5-27.3-60.4-60.8-60.8"/>
<path class="st0" d="M916.8,75.1h10.7v22.4h-10.7c-13.6,0.1-24.7,11.1-24.7,24.7v72h-22.5v-72c0-26.2,21.3-47.4,47.4-47.4l0,0"/>
<rect x="1079.4" y="53.9" class="st0" width="22.5" height="149.6"/>
<path class="st0" d="M502.8,125.1v72h-22.5v-72c0.3-13.6-10.6-24.9-24.3-25.2c-13.7-0.3-24.9,10.6-25.2,24.3v72.9h-22.5v-72
	c1-13.7-9.3-25.5-23-26.6c-13.7-1-25.5,9.3-26.6,23c-0.1,0.9-0.1,1.8,0,2.6v72.9h-22.4v-72c0-26.2,21.3-47.4,47.4-47.4
	c14-0.1,27.2,6.3,35.7,17.2c17.1-19.8,47.1-22,66.8-4.9c10.3,8.8,16.2,21.8,16.4,35.2"/>
<path class="st0" d="M585.3,176.3c-20.8,0-37.6-16.9-37.6-37.6s16.9-37.6,37.6-37.6s37.6,16.9,37.6,37.6l0,0l0,0
	C622.9,159.5,606.1,176.3,585.3,176.3 M585.3,77.9C552,78,524.9,105.2,525,138.7c0.1,33.3,27.3,60.4,60.8,60.3
	c33.5-0.1,60.4-27.3,60.3-60.8C646,105,619,78,585.8,77.9H585.3"/>
<path class="st1" d="M141.1,8.2C73.4,8.1,18.4,62.8,18.3,130.4s54.6,122.7,122.2,122.8c67.6,0.1,122.7-54.6,122.8-122.2
	c0-0.1,0-0.3,0-0.4l0,0C263.2,63.3,208.6,8.6,141.1,8.2z M216,193.2c-3.4-14.8-8.7-29.3-15.9-42.8c-4.5-9.3-13.8-15.4-24.2-15.9
	c-7.9,0-14.1,4.5-22.5,15.9c-4.8,7.9-8.9,16.2-12.5,24.8c0,0-2.8-6.8-6.2-13.5c-2.3-3.9-4.5-8.4-6.2-10.7
	c-8.4-11.8-14.6-15.9-22.5-15.9c-10.3,0.4-19.6,6.5-24.2,15.9c-6.9,13.6-12.3,27.9-15.9,42.8h-9.1L104.8,39l36.6,120.8l0,0L178,39
	l47.4,154.5h-9.2v-0.4H216z"/>
</svg>
