<?xml version="1.0" encoding="utf-8"?>
<!-- Generator: Adobe Illustrator 23.0.3, SVG Export Plug-In . SVG Version: 6.00 Build 0)  -->
<svg version="1.1" id="Layer_1" xmlns="http://www.w3.org/2000/svg" xmlns:xlink="http://www.w3.org/1999/xlink" x="0px" y="0px"
	 viewBox="0 0 350 350" style="enable-background:new 0 0 350 350;" xml:space="preserve">
<style type="text/css">
	.st0{fill:none;stroke:#000000;stroke-width:10;stroke-linecap:round;stroke-linejoin:round;stroke-miterlimit:10;}
	.st1{fill:none;stroke:#EF6620;stroke-width:10;stroke-linecap:round;stroke-linejoin:round;stroke-miterlimit:10;}
	.st2{fill:#EF6620;}
</style>
<path class="st0" d="M194.1,97.8h49c6.3,0,11.4,5,11.4,11.3v19.7"/>
<path class="st0" d="M254.5,225.1V245H28.3v-87.6V109c0-6.2,5.1-11.3,11.4-11.3h27.5"/>
<polygon class="st0" points="333,291 106.8,291 28.3,245 254.5,245 "/>
<g>
	<path class="st1" d="M304.8,139.6l-46,33.4c-2.6,1.9-6.1,1.9-8.7,0l-45.9-33.4"/>
	<path class="st0" d="M303.5,128.7h-98c-0.7,0-1.3,0.6-1.3,1.3v68c0,0.7,0.6,1.2,1.2,1.2h98.1c0.7,0,1.2-0.6,1.2-1.2v-68
		C304.8,129.3,304.2,128.7,303.5,128.7z"/>
</g>
<path class="st0" d="M88.1,41.2h81.2c11.5,0,20.9,9.3,20.9,20.7v36.4c0,11.4-9.3,20.7-20.9,20.7h-60.5l-41.6,24.4V119V61.9
	C67.2,50.4,76.6,41.2,88.1,41.2z"/>
<g>
	<ellipse class="st2" cx="156.6" cy="81" rx="9.3" ry="9.3"/>
	<ellipse class="st2" cx="128.4" cy="81" rx="9.3" ry="9.3"/>
	<ellipse class="st2" cx="100.7" cy="81" rx="9.3" ry="9.3"/>
</g>
<line class="st1" x1="56.9" y1="182.1" x2="131.7" y2="182.1"/>
<line class="st1" x1="56.9" y1="210.8" x2="103.5" y2="210.8"/>
</svg>
