<?xml version="1.0" encoding="utf-8"?>
<!-- Generator: Adobe Illustrator 23.0.2, SVG Export Plug-In . SVG Version: 6.00 Build 0)  -->
<svg version="1.1" id="Layer_1" xmlns="http://www.w3.org/2000/svg" xmlns:xlink="http://www.w3.org/1999/xlink" x="0px" y="0px"
	 viewBox="0 0 50 50" style="enable-background:new 0 0 50 50;" xml:space="preserve">
<style type="text/css">
	.st0{fill:#EF6620;}
</style>
<title>img.help-customers-02</title>
<g>
	<path d="M41.6,45H8.3c-1.8,0-3.2-1.4-3.2-3.2l0,0V8.5c0-1.8,1.4-3.2,3.2-3.2l0,0h33.3c1.8,0,3.2,1.4,3.2,3.2v33.3
		C44.8,43.6,43.4,45,41.6,45z M8.3,7C7.4,7,6.8,7.7,6.8,8.5l0,0v33.3c0,0.8,0.6,1.5,1.5,1.5l0,0h33.3c0.8,0,1.5-0.6,1.5-1.5V8.5
		c0-0.8-0.6-1.5-1.5-1.5H8.3z"/>
	<path d="M47.2,9.7h-3.3c-0.5,0-0.9-0.4-0.9-0.9c0-0.5,0.4-0.9,0.9-0.9h3.3c0.5,0,0.9,0.4,0.9,0.9C48.1,9.3,47.7,9.7,47.2,9.7z"/>
	<path d="M47.2,16.2h-3.3c-0.5,0-0.9-0.4-0.9-0.9c0-0.5,0.4-0.9,0.9-0.9h3.3c0.5,0,0.9,0.4,0.9,0.9C48.1,15.8,47.7,16.2,47.2,16.2z"
		/>
	<path d="M47.2,22.8h-3.3c-0.5,0-0.9-0.4-0.9-0.9s0.4-0.9,0.9-0.9h3.3c0.5,0,0.9,0.4,0.9,0.9S47.7,22.8,47.2,22.8z"/>
	<path d="M47.2,29.3h-3.3c-0.5,0-0.9-0.4-0.9-0.9c0-0.5,0.4-0.9,0.9-0.9h3.3c0.5,0,0.9,0.4,0.9,0.9C48.1,28.9,47.7,29.3,47.2,29.3z"
		/>
	<path d="M47.2,35.8h-3.3c-0.5,0-0.9-0.4-0.9-0.9s0.4-0.9,0.9-0.9h3.3c0.5,0,0.9,0.4,0.9,0.9S47.7,35.8,47.2,35.8z"/>
	<path d="M47.2,42.3h-3.3c-0.5,0-0.9-0.4-0.9-0.9c0-0.5,0.4-0.9,0.9-0.9h3.3c0.5,0,0.9,0.4,0.9,0.9S47.7,42.3,47.2,42.3z"/>
	<path d="M5.9,9.7H2.6c-0.5,0-0.9-0.4-0.9-0.9C1.8,8.4,2.2,8,2.6,8h3.3c0.5,0,0.9,0.4,0.9,0.9C6.8,9.3,6.4,9.7,5.9,9.7z"/>
	<path d="M5.9,16.2H2.6c-0.5,0-0.9-0.4-0.9-0.9c0-0.5,0.4-0.9,0.9-0.9h3.3c0.5,0,0.9,0.4,0.9,0.9C6.8,15.8,6.4,16.2,5.9,16.2z"/>
	<path d="M5.9,22.8H2.6c-0.5,0-0.9-0.4-0.9-0.9S2.2,21,2.6,21h3.3c0.5,0,0.9,0.4,0.9,0.9S6.4,22.8,5.9,22.8z"/>
	<path d="M5.9,29.3H2.6c-0.5,0-0.9-0.4-0.9-0.9c0-0.5,0.4-0.9,0.9-0.9h3.3c0.5,0,0.9,0.4,0.9,0.9C6.8,28.9,6.4,29.3,5.9,29.3z"/>
	<path d="M5.9,35.8H2.6c-0.5,0-0.9-0.4-0.9-0.9s0.4-0.9,0.9-0.9h3.3c0.5,0,0.9,0.4,0.9,0.9S6.4,35.8,5.9,35.8z"/>
	<path d="M5.9,42.3H2.6c-0.5,0-0.9-0.4-0.9-0.9c0-0.5,0.4-0.9,0.9-0.9h3.3c0.5,0,0.9,0.4,0.9,0.9S6.4,42.3,5.9,42.3z"/>
	<path d="M8.6,7C8.1,7,7.7,6.6,7.7,6.2V2.9C7.7,2.4,8.1,2,8.6,2c0.5,0,0.9,0.4,0.9,0.9v3.3C9.5,6.6,9.1,7,8.6,7z"/>
	<path d="M15.2,7c-0.5,0-0.9-0.4-0.9-0.9V2.9c0-0.5,0.4-0.9,0.9-0.9C15.6,2,16,2.4,16,2.9v3.3C16,6.6,15.6,7,15.2,7z"/>
	<path d="M21.7,7c-0.5,0-0.9-0.4-0.9-0.9V2.9c0-0.5,0.4-0.9,0.9-0.9c0.5,0,0.9,0.4,0.9,0.9v3.3C22.6,6.6,22.2,7,21.7,7z"/>
	<path d="M28.2,7c-0.5,0-0.9-0.4-0.9-0.9V2.9c0-0.5,0.4-0.9,0.9-0.9C28.7,2,29,2.4,29,2.9v3.3C29,6.6,28.7,7,28.2,7z"/>
	<path d="M34.7,7c-0.5,0-0.9-0.4-0.9-0.9V2.9c0-0.5,0.4-0.9,0.9-0.9s0.9,0.4,0.9,0.9v3.3C35.6,6.6,35.2,7,34.7,7z"/>
	<path d="M41.2,7c-0.5,0-0.9-0.4-0.9-0.9V2.9c0-0.5,0.4-0.9,0.9-0.9s0.9,0.4,0.9,0.9v3.3C42.1,6.6,41.7,7,41.2,7z"/>
	<path d="M8.6,48.3c-0.5,0-0.9-0.4-0.9-0.9l0,0v-3.3c0-0.5,0.4-0.9,0.9-0.9c0.5,0,0.9,0.4,0.9,0.9v3.3C9.5,47.9,9.1,48.3,8.6,48.3
		L8.6,48.3z"/>
	<path d="M15.2,48.3c-0.5,0-0.9-0.4-0.9-0.9l0,0v-3.3c0-0.5,0.4-0.9,0.9-0.9c0.5,0,0.9,0.4,0.9,0.9v3.3C16,47.9,15.6,48.3,15.2,48.3
		L15.2,48.3z"/>
	<path d="M21.7,48.3c-0.5,0-0.9-0.4-0.9-0.9l0,0v-3.3c0-0.5,0.4-0.9,0.9-0.9c0.5,0,0.9,0.4,0.9,0.9v3.3
		C22.6,47.9,22.2,48.3,21.7,48.3L21.7,48.3z"/>
	<path d="M28.2,48.3c-0.5,0-0.9-0.4-0.9-0.9l0,0v-3.3c0-0.5,0.4-0.9,0.9-0.9c0.5,0,0.9,0.4,0.9,0.9v3.3C29,47.9,28.7,48.3,28.2,48.3
		L28.2,48.3z"/>
	<path d="M34.7,48.3c-0.5,0-0.9-0.4-0.9-0.9l0,0v-3.3c0-0.5,0.4-0.9,0.9-0.9s0.9,0.4,0.9,0.9v3.3C35.6,47.9,35.2,48.3,34.7,48.3
		L34.7,48.3z"/>
	<path d="M41.2,48.3c-0.5,0-0.9-0.4-0.9-0.9l0,0v-3.3c0-0.5,0.4-0.9,0.9-0.9s0.9,0.4,0.9,0.9v3.3C42.1,47.9,41.7,48.3,41.2,48.3
		L41.2,48.3z"/>
	<circle class="st0" cx="24.9" cy="27" r="3.4"/>
	<path class="st0" d="M23.4,25.5l12.9-10.1c0.1,0,0.2,0,0.2,0c0,0,0,0.1,0,0.2L26.4,28.5L23.4,25.5z"/>
	<path d="M14.1,35.4c-0.3,0-0.6-0.1-0.7-0.4c-4.4-6.4-2.8-15.1,3.6-19.5c4.3-3,10-3.3,14.6-0.8c0.4,0.2,0.6,0.7,0.3,1.2
		c-0.2,0.4-0.7,0.6-1.2,0.3l0,0c-6-3.2-13.5-1-16.7,5c-2.2,4.1-1.9,9,0.7,12.8c0.3,0.4,0.2,1-0.2,1.2C14.4,35.3,14.2,35.4,14.1,35.4
		z"/>
	<path d="M35.8,35.4c-0.5,0-0.9-0.4-0.9-0.9c0-0.2,0-0.3,0.2-0.5c1.4-2.1,2.2-4.5,2.2-7c0-2-0.5-4-1.4-5.8c-0.2-0.4,0-1,0.3-1.2
		c0.4-0.2,1,0,1.2,0.3c2.5,4.6,2.2,10.3-0.9,14.6C36.3,35.3,36,35.4,35.8,35.4z"/>
</g>
</svg>
