<?xml version="1.0" encoding="utf-8"?>
<!-- Generator: Adobe Illustrator 23.0.2, SVG Export Plug-In . SVG Version: 6.00 Build 0)  -->
<svg version="1.1" id="Layer_1" xmlns="http://www.w3.org/2000/svg" xmlns:xlink="http://www.w3.org/1999/xlink" x="0px" y="0px"
	 viewBox="0 0 198 198" style="enable-background:new 0 0 198 198;" xml:space="preserve">
<style type="text/css">
	.st0{fill:#EF6620;}
</style>
<title>img.who-amd-03</title>
<path d="M164.4,108.9H31c-0.6,0-1-0.4-1-1s0.4-1,1-1h133.4c0.6,0,1,0.4,1,1S164.9,108.9,164.4,108.9z"/>
<path d="M113.7,129.8H36.8c-6.2,0-11.3-5.1-11.3-11.3V43.7c0-6.2,5.1-11.3,11.3-11.3h117.3c6.2,0,11.3,5.1,11.3,11.3v74.8
	c0,6.2-5,11.3-11.3,11.3H114C113.9,129.7,113.8,129.7,113.7,129.8z M36.8,34.4c-5.1,0-9.3,4.2-9.3,9.3v74.8c0,5.1,4.2,9.3,9.3,9.3
	H76c0.1,0,0.2,0,0.3,0h77.8c5.1,0,9.3-4.2,9.3-9.3V43.7c0-5.1-4.1-9.3-9.3-9.3H36.8z"/>
<path d="M105,142.1H85.9c-0.6,0-1-0.4-1-1v-12.4c0-0.6,0.4-1,1-1H105c0.6,0,1,0.4,1,1v12.4C106,141.7,105.6,142.1,105,142.1z
	 M86.9,140.1H104v-10.4H86.9L86.9,140.1z"/>
<path d="M110,142.1H80.9c-0.6,0-1-0.4-1-1s0.4-1,1-1H110c0.6,0,1,0.4,1,1S110.6,142.1,110,142.1z"/>
<path d="M118.8,162.9H41.9c-0.6,0-1-0.4-1-1c0-0.1,0-0.2,0-0.3l3.1-11.9c0.5-2,2.3-3.3,4.3-3.3h66.5c2,0,3.8,1.4,4.3,3.3l2.5,9.5
	c0.4,1.6-0.5,3.2-2.1,3.6C119.3,162.9,119,162.9,118.8,162.9z M43.2,160.9h75.7c0.3,0,0.6-0.1,0.7-0.4c0.2-0.2,0.2-0.5,0.2-0.8
	l-2.5-9.5c-0.3-1.1-1.3-1.8-2.4-1.8H48.3c-1.1,0-2.1,0.8-2.4,1.8L43.2,160.9z"/>
<path d="M146.3,166.8H144c-4.7,0-8.8-3.2-10-7.7l-1.2-4.7c-1-3.7,1.2-7.6,5-8.6c0.6-0.2,1.2-0.2,1.8-0.2h1.9c4.4,0,8.4,2.8,9.8,7
	l1.6,4.9c1.2,3.7-0.7,7.6-4.4,8.9C147.8,166.7,147,166.8,146.3,166.8L146.3,166.8z M139.6,147.7c-2.8,0-5,2.2-5,5
	c0,0.4,0.1,0.9,0.2,1.3l1.3,4.7c1,3.7,4.3,6.2,8.1,6.2h2.2c2.8,0,5-2.2,5-5c0-0.6-0.1-1.1-0.3-1.6l-1.6-4.9
	c-1.1-3.4-4.3-5.7-7.9-5.7H139.6z"/>
<path d="M117,166.9H45.8c-2.7,0-4.9-2.2-4.9-4.9c0-0.6,0.4-1,1-1s1,0.4,1,1c0,1.6,1.3,2.9,2.9,2.9H117c0.6,0,1,0.4,1,1
	S117.6,166.9,117,166.9z"/>
<path class="st0" d="M32.9,65c-0.3,0-0.5-0.1-0.7-0.3c-0.4-0.4-0.4-1,0-1.4l23.7-23.7c0.4-0.4,1-0.4,1.4,0c0.4,0.4,0.4,1,0,1.4
	L33.6,64.7C33.4,64.9,33.2,65,32.9,65z"/>
<path class="st0" d="M43.7,66.9c-0.3,0-0.5-0.1-0.7-0.3c-0.4-0.4-0.4-1,0-1.4l14.8-14.8c0.4-0.4,1-0.4,1.4,0c0.4,0.4,0.4,1,0,1.4
	c0,0,0,0,0,0L44.5,66.6C44.3,66.8,44,66.9,43.7,66.9z"/>
<path class="st0" d="M37.6,85.8c-0.3,0-0.5-0.1-0.7-0.3c-0.4-0.4-0.4-1,0-1.4l39.9-39.9c0.4-0.4,1.1-0.3,1.4,0.1
	c0.3,0.4,0.3,0.9,0,1.3L38.3,85.5C38.1,85.7,37.8,85.8,37.6,85.8z"/>
</svg>
