<?xml version="1.0" encoding="utf-8"?>
<!-- Generator: Adobe Illustrator 23.0.3, SVG Export Plug-In . SVG Version: 6.00 Build 0)  -->
<svg version="1.1" id="Layer_1" xmlns="http://www.w3.org/2000/svg" xmlns:xlink="http://www.w3.org/1999/xlink" x="0px" y="0px"
	 viewBox="0 0 350 350" style="enable-background:new 0 0 350 350;" xml:space="preserve">
<style type="text/css">
	.st0{fill:#F26522;}
	.st1{fill:none;stroke:#FFFFFF;stroke-width:8;stroke-miterlimit:10;}
	.st2{fill:none;stroke:#F26522;stroke-width:6;stroke-miterlimit:10;}
</style>
<path class="st0" d="M231.5,123.1H180c-2.8,0-5-2.2-5-4.9l0,0v-51c0-2.8,2.2-4.9,5-4.9l0,0h51.4c2.8,0,5,2.2,5,4.9v51
	C236.4,121,234.2,123.1,231.5,123.1z M180,64.9c-1.2,0-2.3,0.9-2.3,2.3l0,0v51c0,1.2,0.9,2.3,2.3,2.3l0,0h51.4
	c1.2,0,2.3-0.9,2.3-2.3v-51c0-1.2-0.9-2.3-2.3-2.3H180z"/>
<path class="st0" d="M224.6,69.4h-37.8c-2.6,0-4.6,2.2-4.6,4.6v37.5c0,2.6,2.2,4.6,4.6,4.6h37.8c2.6,0,4.6-2.2,4.6-4.6V74
	C229.3,71.3,227.3,69.4,224.6,69.4z M224.8,109.9c0,0.9-0.6,1.7-1.7,1.7h-34.7c-0.9,0-1.7-0.6-1.7-1.7V75.5c0-0.9,0.6-1.7,1.7-1.7
	h34.6c0.9,0,1.7,0.6,1.7,1.7v34.4H224.8z"/>
<path class="st0" d="M189.9,108.4h31.3V77h-31.3V108.4z M196.3,81.6c1.7,0,2.9,1.4,2.9,2.9c0,1.7-1.4,2.9-2.9,2.9
	c-1.5,0-2.9-1.2-2.9-2.8C193.3,83,194.6,81.6,196.3,81.6z"/>
<path class="st1" d="M279.1,305.3H66.4c-6.4,0-11.5-5.1-11.5-11.5V38.2c0-6.4,5.1-11.5,11.5-11.5h212.8c6.4,0,11.5,5.1,11.5,11.5
	v255.5C290.6,300.1,285.5,305.3,279.1,305.3z"/>
<path class="st1" d="M262.8,288.4h-38.3c-6.4,0-11.5-5.1-11.5-11.5V168.7c0-6.4,5.1-11.5,11.5-11.5h38.3c6.4,0,11.5,5.1,11.5,11.5
	v108.2C274.3,283.2,269.2,288.4,262.8,288.4z"/>
<path class="st1" d="M101.8,48.7v18.7c0,3.2-2.6,5.9-5.9,5.9H77c-3.2,0-5.9-2.6-5.9-5.9V48.7c0-3.2,2.6-5.9,5.9-5.9H96
	C99.2,42.9,101.8,45.5,101.8,48.7z"/>
<line class="st1" x1="71.2" y1="92.6" x2="71.2" y2="174.5"/>
<line class="st1" x1="88.6" y1="92.6" x2="88.6" y2="174.5"/>
<line class="st1" x1="107.1" y1="92.6" x2="107.1" y2="174.5"/>
<path class="st1" d="M121.5,202.2v38.2c0,3.2-2.6,5.9-5.9,5.9H77c-3.2,0-5.9-2.6-5.9-5.9v-38.2c0-3.2,2.6-5.9,5.9-5.9h38.6
	C118.8,196.3,121.5,198.9,121.5,202.2z"/>
<line class="st2" x1="71.2" y1="288.4" x2="193.3" y2="288.4"/>
<line class="st2" x1="71.2" y1="280" x2="193.3" y2="280"/>
<line class="st2" x1="71.2" y1="271.1" x2="193.3" y2="271.1"/>
<path class="st1" d="M245.3,59.2v67.1c0,3.2-2.6,5.9-5.9,5.9h-67.8c-3.2,0-5.9-2.6-5.9-5.9V59.2c0-3.2,2.6-5.9,5.9-5.9h67.8
	C242.7,53.3,245.3,55.9,245.3,59.2z"/>
</svg>
