<?xml version="1.0" encoding="utf-8"?>
<!-- Generator: Adobe Illustrator 23.0.3, SVG Export Plug-In . SVG Version: 6.00 Build 0)  -->
<svg version="1.1" id="Layer_1" xmlns="http://www.w3.org/2000/svg" xmlns:xlink="http://www.w3.org/1999/xlink" x="0px" y="0px"
	 viewBox="0 0 198 198" style="enable-background:new 0 0 198 198;" xml:space="preserve">
<style type="text/css">
	.st0{fill:none;stroke:#000000;stroke-width:3;stroke-linecap:round;stroke-linejoin:round;stroke-miterlimit:10;}
	.st1{fill:none;stroke:#EF6620;stroke-width:3;stroke-linecap:round;stroke-linejoin:round;stroke-miterlimit:10;}
	.st2{fill:#EF6620;}
</style>
<title>img.who-amd-01</title>
<path class="st0" d="M108.8,54.5h25.6c3.3,0,5.9,2.7,5.9,5.9v10.4"/>
<path class="st0" d="M140.4,121.6v10.5H22.2V85.9V60.4c0-3.3,2.7-5.9,5.9-5.9h14.4"/>
<polygon class="st0" points="181.4,156.3 63.2,156.3 22.2,132.1 140.4,132.1 "/>
<g>
	<path class="st1" d="M166.6,76.5l-24,17.6c-1.4,1-3.2,1-4.6,0l-24-17.6"/>
	<path class="st0" d="M165.4,70.8h-50c-0.7,0-1.3,0.6-1.3,1.3v34.7c0,0.7,0.6,1.2,1.2,1.2h50.1c0.7,0,1.2-0.6,1.2-1.2V72.1
		C166.6,71.4,166.1,70.8,165.4,70.8z"/>
</g>
<path class="st0" d="M53.4,24.6h42.4c6,0,10.9,4.9,10.9,10.9v19.2c0,6-4.9,10.9-10.9,10.9H64.3L42.5,78.5V65.6V35.5
	C42.5,29.5,47.4,24.6,53.4,24.6z"/>
<g>
	<circle class="st2" cx="89.2" cy="45.6" r="4.9"/>
	<circle class="st2" cx="74.5" cy="45.6" r="4.9"/>
	<circle class="st2" cx="60" cy="45.6" r="4.9"/>
</g>
<line class="st1" x1="37.1" y1="98.9" x2="76.2" y2="98.9"/>
<line class="st1" x1="37.1" y1="114" x2="61.5" y2="114"/>
</svg>
