<svg xmlns="http://www.w3.org/2000/svg" viewBox="0 0 50 50">
  <defs>
    <style>
      .a {
        fill: #ef6620;
      }
    </style>
  </defs>
  <title>img.help-customers-03</title>
  <g>
    <g>
      <path d="M42.23,45H17.14a4.24,4.24,0,0,1-4.24-4.24V18.64a4.24,4.24,0,0,1,4.24-4.24H42.23a4.24,4.24,0,0,1,4.24,4.24V40.73A4.24,4.24,0,0,1,42.23,45ZM17.14,16.4a2.24,2.24,0,0,0-2.24,2.24V40.73A2.24,2.24,0,0,0,17.14,43H42.23a2.24,2.24,0,0,0,2.24-2.24V18.64a2.24,2.24,0,0,0-2.24-2.24Z"/>
      <path d="M9.21,37.05a1,1,0,0,1-1-1V14a4.26,4.26,0,0,1,4.24-4.24h25.1A4.26,4.26,0,0,1,41.79,14v1a1,1,0,1,1-2,0V14a2.25,2.25,0,0,0-2.24-2.24H12.45A2.25,2.25,0,0,0,10.21,14v22.1A1,1,0,0,1,9.21,37.05Z"/>
      <path d="M9.21,35.6H7.77a4.24,4.24,0,0,1-4.24-4.24V9.27A4.24,4.24,0,0,1,7.77,5H31.56a1,1,0,1,1,0,2H7.77A2.24,2.24,0,0,0,5.53,9.27V31.36A2.24,2.24,0,0,0,7.77,33.6H9.21a1,1,0,0,1,0,2Z"/>
    </g>
    <path d="M45.47,22.25H13.9a1,1,0,1,1,0-2H45.47a1,1,0,0,1,0,2Z"/>
    <g>
      <path class="a" d="M36.1,18.41a1.08,1.08,0,0,1,1.08-1.08h0a1.07,1.07,0,0,1,1.07,1.08h0a1.07,1.07,0,0,1-1.07,1.07h0A1.08,1.08,0,0,1,36.1,18.41Z"/>
      <path class="a" d="M41.15,19.48a1.11,1.11,0,0,1-.77-.31,1.07,1.07,0,0,1-.31-.76,1,1,0,0,1,.08-.41,1.11,1.11,0,0,1,.23-.36l.17-.13a.56.56,0,0,1,.19-.09.49.49,0,0,1,.19-.07,1.08,1.08,0,0,1,1.29,1.06,1,1,0,0,1-.32.76,1.13,1.13,0,0,1-.34.23A1.15,1.15,0,0,1,41.15,19.48Z"/>
    </g>
  </g>
  <path d="M35.68,28.32h-16a1,1,0,0,1,0-2h16a1,1,0,0,1,0,2Z"/>
  <path class="a" d="M39.68,33.32h-20a1,1,0,0,1,0-2h20a1,1,0,0,1,0,2Z"/>
  <path class="a" d="M32.25,38.32H19.69a1,1,0,0,1,0-2H32.25a1,1,0,0,1,0,2Z"/>
</svg>
