<?xml version="1.0" encoding="utf-8"?>
<!-- Generator: Adobe Illustrator 23.0.3, SVG Export Plug-In . SVG Version: 6.00 Build 0)  -->
<svg version="1.1" id="Layer_1" xmlns="http://www.w3.org/2000/svg" xmlns:xlink="http://www.w3.org/1999/xlink" x="0px" y="0px"
	 viewBox="0 0 207 142" style="enable-background:new 0 0 207 142;" xml:space="preserve">
<style type="text/css">
	.st0{fill:none;stroke:#000000;stroke-width:3;stroke-linecap:round;stroke-linejoin:round;stroke-miterlimit:10;}
	.st1{fill:none;stroke:#EF6620;stroke-width:3;stroke-linecap:round;stroke-linejoin:round;stroke-miterlimit:10;}
	.st2{fill:#EF6620;}
</style>
<title>img.benefits-02</title>
<path class="st0" d="M117.7,35.3h21.7c2.8,0,5,2.3,5,5v8.8"/>
<path class="st0" d="M144.5,92.3v8.9H44.1V62V40.3c0-2.8,2.3-5,5-5h12.2"/>
<polygon class="st0" points="179.3,121.8 78.9,121.8 44.1,101.2 144.5,101.2 "/>
<g>
	<path class="st1" d="M166.8,54l-20.4,15c-1.2,0.8-2.7,0.8-3.9,0l-20.4-15"/>
	<path class="st0" d="M165.5,49.1h-42.1c-0.7,0-1.3,0.6-1.3,1.3v29.1c0,0.7,0.6,1.2,1.2,1.2h42.1c0.7,0,1.2-0.6,1.2-1.2V50.4
		C166.8,49.7,166.2,49.1,165.5,49.1z"/>
</g>
<path class="st0" d="M70.6,9.9h36.1c5.1,0,9.3,4.1,9.3,9.3v16.3c0,5.1-4.1,9.3-9.3,9.3H79.8L61.4,55.7V44.8V19.2
	C61.4,14.1,65.5,9.9,70.6,9.9z"/>
<g>
	<circle class="st2" cx="101" cy="27.8" r="4.1"/>
	<circle class="st2" cx="88.5" cy="27.8" r="4.1"/>
	<circle class="st2" cx="76.2" cy="27.8" r="4.1"/>
</g>
<line class="st1" x1="56.8" y1="73" x2="90" y2="73"/>
<line class="st1" x1="56.8" y1="85.9" x2="77.5" y2="85.9"/>
</svg>
