<svg xmlns="http://www.w3.org/2000/svg" viewBox="0 0 50 50">
  <defs>
    <style>
      .a {
        fill: #ef6620;
      }
    </style>
  </defs>
  <title>img.summary-01</title>
  <g>
    <g>
      <path d="M46.86,44H18.05a5.49,5.49,0,0,1-4-1.71L2,29.5a1,1,0,0,1,.73-1.69H37.27a1,1,0,0,1,.72.31L48.77,39.5A2.63,2.63,0,0,1,46.86,44ZM5.05,29.81,15.52,40.86A3.5,3.5,0,0,0,18.05,42H46.86a.63.63,0,0,0,.46-1.07L36.84,29.81Z"/>
      <path class="a" d="M40.68,39.6h-5.3a5.68,5.68,0,0,1-3.58-1.53L28.89,34.8c-.81-.85-.51-1.54.66-1.54h5.31a5.66,5.66,0,0,1,3.58,1.54l2.91,3.27C42.15,38.91,41.86,39.6,40.68,39.6Z"/>
    </g>
    <path d="M37.27,29.81a1,1,0,0,1-1-1V7.75a1.69,1.69,0,0,0-1.69-1.68H5.41A1.69,1.69,0,0,0,3.72,7.75V28.81a1,1,0,1,1-2,0V7.75A3.69,3.69,0,0,1,5.41,4.07H34.58a3.69,3.69,0,0,1,3.69,3.68V28.81A1,1,0,0,1,37.27,29.81Z"/>
  </g>
</svg>
