<?xml version="1.0" encoding="utf-8"?>
<!-- Generator: Adobe Illustrator 21.0.0, SVG Export Plug-In . SVG Version: 6.00 Build 0)  -->
<svg version="1.1" id="Layer_1" xmlns="http://www.w3.org/2000/svg" xmlns:xlink="http://www.w3.org/1999/xlink" x="0px" y="0px"
	 viewBox="0 0 319 319" style="enable-background:new 0 0 319 319;" xml:space="preserve">
<style type="text/css">
	.st0{fill:#969595;}
	.st1{fill:#F0161F;}
	.st2{fill:none;stroke:#000000;stroke-width:4;stroke-linecap:round;stroke-linejoin:round;}
</style>
<title>img.group_introductions.01</title>
<g>
	<g>
		<circle class="st0" cx="90.8" cy="235.9" r="18"/>
		<path class="st0" d="M113.2,285.4c2.8,0,5-2.3,4.9-5.1c0-0.6-0.1-1.2-0.4-1.8c-6.3-14.9-23.5-21.8-38.4-15.5
			c-7,3-12.6,8.5-15.5,15.5c-1,2.6,0.2,5.5,2.7,6.5c0.6,0.2,1.2,0.4,1.8,0.4H113.2z"/>
	</g>
	<g>
		<circle class="st0" cx="159.1" cy="235.9" r="18"/>
		<path class="st0" d="M181.4,285.4c2.8,0,5-2.3,4.9-5.1c0-0.6-0.1-1.2-0.4-1.8c-6.3-14.9-23.5-21.8-38.4-15.5
			c-7,3-12.6,8.5-15.5,15.5c-1,2.6,0.2,5.5,2.7,6.5c0.6,0.2,1.2,0.4,1.8,0.4H181.4z"/>
	</g>
	<g>
		<circle class="st1" cx="159.1" cy="68" r="28.2"/>
		<path class="st1" d="M194.1,145.5c4.3,0,7.8-3.5,7.8-7.8c0-1-0.2-2.1-0.6-3c-9.9-23.3-36.8-34.2-60.1-24.3
			c-11,4.6-19.7,13.4-24.3,24.3c-1.7,4,0.2,8.5,4.1,10.2c1,0.4,2,0.6,3,0.6H194.1z"/>
	</g>
	<g>
		<circle class="st0" cx="227.3" cy="235.9" r="18"/>
		<path class="st0" d="M249.7,285.4c2.8,0,5-2.3,4.9-5.1c0-0.6-0.1-1.2-0.4-1.8c-6.3-14.9-23.5-21.8-38.4-15.5
			c-7,3-12.6,8.5-15.5,15.5c-1,2.6,0.2,5.5,2.7,6.5c0.6,0.2,1.2,0.4,1.8,0.4H249.7z"/>
	</g>
	<polyline class="st2" points="283.1,212.9 159.5,164.4 35.9,212.9 	"/>
</g>
</svg>
