<?xml version="1.0" encoding="utf-8"?>
<!-- Generator: Adobe Illustrator 23.0.2, SVG Export Plug-In . SVG Version: 6.00 Build 0)  -->
<svg version="1.1" id="Layer_1" xmlns="http://www.w3.org/2000/svg" xmlns:xlink="http://www.w3.org/1999/xlink" x="0px" y="0px"
	 viewBox="0 0 207 142" style="enable-background:new 0 0 207 142;" xml:space="preserve">
<style type="text/css">
	.st0{fill:#EF6620;}
</style>
<title>img.benefits-01</title>
<g>
	<path d="M140.5,108.4h-77c-4.1,0-7.4-3.3-7.4-7.4l0,0V24c0-4.1,3.3-7.4,7.4-7.4l0,0h77c4.1,0,7.4,3.3,7.4,7.4v77
		C147.9,105.1,144.6,108.4,140.5,108.4z M63.5,20.6c-1.9,0-3.4,1.5-3.4,3.4c0,0,0,0,0,0v77c0,1.9,1.5,3.4,3.4,3.4l0,0h77
		c1.9,0,3.4-1.5,3.4-3.4V24c0-1.9-1.5-3.4-3.4-3.4H63.5z"/>
	<path d="M153.5,26.8h-7.6c-1.1,0-2-0.9-2-2c0-1.1,0.9-2,2-2h7.6c1.1,0,2,0.9,2,2C155.5,25.9,154.6,26.8,153.5,26.8z"/>
	<path d="M153.5,41.9h-7.6c-1.1,0-2-0.9-2-2c0-1.1,0.9-2,2-2h7.6c1.1,0,2,0.9,2,2C155.5,41,154.6,41.9,153.5,41.9z"/>
	<path d="M153.5,57h-7.6c-1.1,0-2-0.9-2-2s0.9-2,2-2h7.6c1.1,0,2,0.9,2,2S154.6,57,153.5,57z"/>
	<path d="M153.5,72h-7.6c-1.1,0-2-0.9-2-2c0-1.1,0.9-2,2-2h7.6c1.1,0,2,0.9,2,2C155.5,71.1,154.6,72,153.5,72z"/>
	<path d="M153.5,87.1h-7.6c-1.1,0-2-0.9-2-2c0-1.1,0.9-2,2-2h7.6c1.1,0,2,0.9,2,2C155.5,86.2,154.6,87.1,153.5,87.1z"/>
	<path d="M153.5,102.2h-7.6c-1.1,0-2-0.9-2-2c0-1.1,0.9-2,2-2h7.6c1.1,0,2,0.9,2,2C155.5,101.3,154.6,102.2,153.5,102.2z"/>
	<path d="M58.1,26.8h-7.6c-1.1,0-2-0.9-2-2c0-1.1,0.9-2,2-2h7.6c1.1,0,2,0.9,2,2C60.1,25.9,59.2,26.8,58.1,26.8z"/>
	<path d="M58.1,41.9h-7.6c-1.1,0-2-0.9-2-2c0-1.1,0.9-2,2-2h7.6c1.1,0,2,0.9,2,2C60.1,41,59.2,41.9,58.1,41.9z"/>
	<path d="M58.1,57h-7.6c-1.1,0-2-0.9-2-2s0.9-2,2-2h7.6c1.1,0,2,0.9,2,2S59.2,57,58.1,57z"/>
	<path d="M58.1,72h-7.6c-1.1,0-2-0.9-2-2c0-1.1,0.9-2,2-2h7.6c1.1,0,2,0.9,2,2C60.1,71.1,59.2,72,58.1,72z"/>
	<path d="M58.1,87.1h-7.6c-1.1,0-2-0.9-2-2c0-1.1,0.9-2,2-2h7.6c1.1,0,2,0.9,2,2C60.1,86.2,59.2,87.1,58.1,87.1z"/>
	<path d="M58.1,102.2h-7.6c-1.1,0-2-0.9-2-2c0-1.1,0.9-2,2-2h7.6c1.1,0,2,0.9,2,2C60.1,101.3,59.2,102.2,58.1,102.2z"/>
	<path d="M64.3,20.6c-1.1,0-2-0.9-2-2V11c0-1.1,0.9-2,2-2c1.1,0,2,0.9,2,2v7.6C66.3,19.7,65.4,20.6,64.3,20.6z"/>
	<path d="M79.4,20.6c-1.1,0-2-0.9-2-2V11c0-1.1,0.9-2,2-2c1.1,0,2,0.9,2,2v7.6C81.4,19.7,80.5,20.6,79.4,20.6z"/>
	<path d="M94.5,20.6c-1.1,0-2-0.9-2-2V11c0-1.1,0.9-2,2-2c1.1,0,2,0.9,2,2v7.6C96.5,19.7,95.6,20.6,94.5,20.6z"/>
	<path d="M109.5,20.6c-1.1,0-2-0.9-2-2V11c0-1.1,0.9-2,2-2c1.1,0,2,0.9,2,2v7.6C111.5,19.7,110.6,20.6,109.5,20.6z"/>
	<path d="M124.6,20.6c-1.1,0-2-0.9-2-2V11c0-1.1,0.9-2,2-2c1.1,0,2,0.9,2,2v7.6C126.6,19.7,125.7,20.6,124.6,20.6z"/>
	<path d="M139.7,20.6c-1.1,0-2-0.9-2-2V11c0-1.1,0.9-2,2-2s2,0.9,2,2v7.6C141.7,19.7,140.8,20.6,139.7,20.6z"/>
	<path d="M64.3,116c-1.1,0-2-0.9-2-2l0,0v-7.6c0-1.1,0.9-2,2-2c1.1,0,2,0.9,2,2v7.6C66.3,115.1,65.4,116,64.3,116L64.3,116z"/>
	<path d="M79.4,116c-1.1,0-2-0.9-2-2l0,0v-7.6c0-1.1,0.9-2,2-2c1.1,0,2,0.9,2,2v7.6C81.4,115.1,80.5,116,79.4,116L79.4,116z"/>
	<path d="M94.5,116c-1.1,0-2-0.9-2-2l0,0v-7.6c0-1.1,0.9-2,2-2c1.1,0,2,0.9,2,2v7.6C96.5,115.1,95.6,116,94.5,116L94.5,116z"/>
	<path d="M109.5,116c-1.1,0-2-0.9-2-2l0,0v-7.6c0-1.1,0.9-2,2-2c1.1,0,2,0.9,2,2v7.6C111.5,115.1,110.6,116,109.5,116L109.5,116z"/>
	<path d="M124.6,116c-1.1,0-2-0.9-2-2l0,0v-7.6c0-1.1,0.9-2,2-2c1.1,0,2,0.9,2,2v7.6C126.6,115.1,125.7,116,124.6,116L124.6,116z"/>
	<path d="M139.7,116c-1.1,0-2-0.9-2-2l0,0v-7.6c0-1.1,0.9-2,2-2s2,0.9,2,2v7.6C141.7,115.1,140.8,116,139.7,116L139.7,116z"/>
	<circle class="st0" cx="102" cy="66.8" r="7.9"/>
	<path class="st0" d="M98.5,63.4L128.3,40c0.2-0.1,0.4-0.1,0.5,0c0.1,0.1,0.1,0.3,0,0.5l-23.3,29.8L98.5,63.4z"/>
	<path d="M76.9,86.1c-0.7,0-1.3-0.3-1.7-0.9c-10.2-14.7-6.5-34.9,8.3-45.1c10-6.9,23-7.6,33.8-1.9c1,0.5,1.3,1.7,0.8,2.7
		c-0.5,1-1.7,1.3-2.7,0.8l0,0c-13.8-7.4-31.1-2.3-38.5,11.6c-5.1,9.4-4.4,20.8,1.7,29.6c0.6,0.9,0.4,2.2-0.5,2.8
		C77.7,86,77.3,86.1,76.9,86.1z"/>
	<path d="M127,86.2c-1.1,0-2-0.9-2-2c0-0.4,0.1-0.8,0.4-1.2c3.3-4.8,5.1-10.4,5.1-16.2c0-4.7-1.1-9.3-3.3-13.4
		c-0.5-1-0.1-2.2,0.8-2.7c1-0.5,2.2-0.1,2.7,0.8c5.7,10.7,5,23.8-2,33.8C128.3,85.9,127.6,86.2,127,86.2z"/>
</g>
</svg>
