<?xml version="1.0" encoding="utf-8"?>
<!-- Generator: Adobe Illustrator 23.0.2, SVG Export Plug-In . SVG Version: 6.00 Build 0)  -->
<svg version="1.1" id="Layer_1" xmlns="http://www.w3.org/2000/svg" xmlns:xlink="http://www.w3.org/1999/xlink" x="0px" y="0px"
	 viewBox="0 0 207 142" style="enable-background:new 0 0 207 142;" xml:space="preserve">
<style type="text/css">
	.st0{fill:#EF6620;}
</style>
<title>img.benefits-04</title>
<g>
	<circle class="st0" cx="144.1" cy="25.8" r="6.2"/>
	<ellipse transform="matrix(0.1891 -0.982 0.982 0.1891 63.5824 185.4079)" class="st0" cx="144.1" cy="54.2" rx="6.2" ry="6.2"/>
	<circle class="st0" cx="158.2" cy="40" r="6.2"/>
	<circle class="st0" cx="129.9" cy="40" r="6.2"/>
	<path d="M126.1,90.9c-10.3,0-18.8-8.4-18.8-18.7c0-6.9,3.8-13.3,9.9-16.5c-8.6-14.8-3.6-33.9,11.3-42.5s33.9-3.6,42.5,11.3
		c8.6,14.8,3.6,33.9-11.3,42.5c-4.5,2.6-9.6,4.1-14.8,4.2c0,0.4,0,0.7,0,1C144.8,82.5,136.4,90.9,126.1,90.9z M144.1,14
		c-14.4,0-26,11.7-26,26c0,5.5,1.7,10.8,5,15.2c0.5,0.7,0.6,1.5,0.4,2.3c-0.2,0.8-0.9,1.5-1.7,1.7c-7.2,2.4-11,10.2-8.6,17.3
		c2.4,7.2,10.2,11,17.3,8.6c5.6-1.9,9.3-7.1,9.3-13c0-1-0.1-2.1-0.4-3.1c-0.2-0.8,0-1.6,0.5-2.2c0.5-0.6,1.3-1,2.1-0.9
		c0.6,0,1.3,0.1,2,0.1c14.4-0.4,25.7-12.3,25.4-26.7C169,25.5,157.8,14.4,144.1,14L144.1,14z"/>
	<circle class="st0" cx="126.1" cy="72.1" r="7.5"/>
	<polygon class="st0" points="76.2,35.3 67.5,35.3 67.5,26.5 58,26.5 58,35.3 49.2,35.3 49.2,44.7 58,44.7 58,53.5 67.5,53.5 
		67.5,44.7 76.2,44.7 	"/>
	<path d="M81.6,90.9c-10.4,0-18.7-8.4-18.8-18.8c0-0.3,0-0.7,0-1c-17.2-0.4-30.8-14.7-30.4-31.9S47.2,8.5,64.3,8.9
		s30.8,14.7,30.4,31.9c-0.1,5.2-1.6,10.4-4.2,14.9c9.1,4.9,12.5,16.3,7.6,25.4C94.9,87.1,88.5,90.9,81.6,90.9L81.6,90.9z M65.8,65.9
		c1.4,0,2.5,1.2,2.5,2.6c0,0.2,0,0.3-0.1,0.5c-0.2,1-0.4,2.1-0.4,3.1c0,7.6,6.1,13.7,13.7,13.7c7.6,0,13.7-6.1,13.7-13.7
		c0-5.9-3.8-11.1-9.4-13c-0.8-0.2-1.5-0.9-1.7-1.7c-0.3-0.8-0.1-1.6,0.4-2.3c3.2-4.4,5-9.7,5-15.2c0-14.4-11.6-26-26-26
		s-26,11.6-26,26c0,14.4,11.6,26,26,26c0.7,0,1.3,0,2-0.1L65.8,65.9z"/>
	<circle class="st0" cx="81.6" cy="72.1" r="7.5"/>
	<path d="M123.7,22.6H84c-1.4,0-2.5-1.1-2.5-2.5c0-1.4,1.1-2.5,2.5-2.5h39.6c1.4,0,2.5,1.1,2.5,2.5
		C126.2,21.4,125.1,22.6,123.7,22.6C123.7,22.6,123.7,22.6,123.7,22.6z"/>
	<path d="M162,118c-7.5,0-14.3-4.2-17.7-10.8l-10.5-20.5c-0.6-1.3-0.1-2.8,1.1-3.4c1.3-0.6,2.8-0.1,3.4,1.1l10.5,20.5
		c3.7,7.3,12.7,10.2,19.9,6.4c5.5-2.8,8.7-8.8,8-14.9L170,37.7c-0.2-1.4,0.8-2.7,2.2-2.8c1.4-0.2,2.7,0.8,2.8,2.2l0,0l6.8,58.7
		c1.2,10.8-6.5,20.6-17.3,22C163.6,117.9,162.8,118,162,118z"/>
	<path d="M109.9,74.7H99.2c-1.4,0-2.5-1.1-2.5-2.5c0-1.4,1.1-2.5,2.5-2.5h10.7c1.4,0,2.5,1.1,2.5,2.5
		C112.4,73.5,111.3,74.7,109.9,74.7z"/>
	<path d="M45.7,118c-0.8,0-1.6-0.1-2.4-0.2c-10.8-1.3-18.5-11.1-17.3-22l6.8-58.7c0.2-1.4,1.4-2.4,2.8-2.2c1.4,0.2,2.4,1.4,2.2,2.8
		L31,96.5c-0.9,8.1,4.9,15.5,13,16.4c6.1,0.7,12.1-2.5,14.9-8L69.6,84c0.6-1.3,2.1-1.8,3.4-1.3c1.3,0.6,1.8,2.1,1.3,3.4
		c0,0.1-0.1,0.1-0.1,0.2l-10.7,20.9C60,113.8,53.2,118,45.7,118z"/>
</g>
</svg>
