<svg xmlns="http://www.w3.org/2000/svg" viewBox="0 0 50 50">
  <defs>
    <style>
      .a {
        fill: #ef6620;
      }
    </style>
  </defs>
  <title>img.help-customers-01</title>
  <path d="M36.68,20.5a1,1,0,0,1-1-1V16.42a.76.76,0,0,0-.76-.76H27.33a1,1,0,0,1,0-2h7.59a2.77,2.77,0,0,1,2.76,2.76V19.5A1,1,0,0,1,36.68,20.5Z"/>
  <path d="M36.68,38.65h-35a1,1,0,0,1-1-1V16.42a2.76,2.76,0,0,1,2.76-2.76H7.69a1,1,0,0,1,0,2H3.43a.76.76,0,0,0-.76.76V36.65h33v-2.1a1,1,0,0,1,2,0v3.1A1,1,0,0,1,36.68,38.65Z"/>
  <path d="M48.83,45.83h-35a.94.94,0,0,1-.51-.14L1.16,38.51A1,1,0,0,1,.7,37.39a1,1,0,0,1,1-.74h35a1,1,0,0,1,.51.14L49.34,44a1,1,0,0,1-.51,1.86Zm-34.73-2H45.17L36.4,38.65H5.33Z"/>
  <g>
    <path class="a" d="M36.68,27.63a2.18,2.18,0,0,1-1.27-.41L28.3,22a1,1,0,1,1,1.19-1.61l7.1,5.22a.15.15,0,0,0,.17,0l7.11-5.21A1,1,0,1,1,45.05,22L38,27.22A2.21,2.21,0,0,1,36.68,27.63Z"/>
    <path d="M43.22,31.5H30.14a2.24,2.24,0,0,1-2.25-2.24v-8.5a2.27,2.27,0,0,1,2.27-2.26h13a2.26,2.26,0,0,1,2.26,2.26v8.5A2.24,2.24,0,0,1,43.22,31.5Zm-13.06-11a.26.26,0,0,0-.27.26v8.5a.24.24,0,0,0,.25.24H43.22a.24.24,0,0,0,.24-.24v-8.5a.26.26,0,0,0-.26-.26Z"/>
  </g>
  <g>
    <path d="M7.69,22.78a1.13,1.13,0,0,1-.5-.13,1,1,0,0,1-.5-.87V9.05a4.24,4.24,0,0,1,4.23-4.23H23.5a4.24,4.24,0,0,1,4.23,4.23v5.68A4.23,4.23,0,0,1,23.5,19H14.4L8.2,22.64A1,1,0,0,1,7.69,22.78Zm3.23-16A2.23,2.23,0,0,0,8.69,9.05V20l4.93-2.92a1,1,0,0,1,.51-.14H23.5a2.23,2.23,0,0,0,2.23-2.23V9.05A2.23,2.23,0,0,0,23.5,6.82Z"/>
    <g>
      <circle class="a" cx="21.52" cy="12.05" r="1.45"/>
      <circle class="a" cx="17.16" cy="12.05" r="1.45"/>
      <circle class="a" cx="12.87" cy="12.05" r="1.45"/>
    </g>
  </g>
  <path class="a" d="M17.67,28.83H6.09a1,1,0,0,1,0-2H17.67a1,1,0,0,1,0,2Z"/>
  <path class="a" d="M13.31,33.31H6.09a1,1,0,0,1,0-2h7.22a1,1,0,1,1,0,2Z"/>
</svg>
