<svg xmlns="http://www.w3.org/2000/svg" viewBox="0 0 50 50">
  <defs>
    <style>
      .a {
        fill: #ef6620;
      }
    </style>
  </defs>
  <title>img.summary-02</title>
  <g>
    <path d="M21.22,41.39H17.94A7.44,7.44,0,0,1,10.51,34V24.45a4.79,4.79,0,0,1,4.78-4.78h3.28A7.43,7.43,0,0,1,26,27.1v9.51A4.78,4.78,0,0,1,21.22,41.39ZM15.29,21.67a2.79,2.79,0,0,0-2.78,2.78V34a5.43,5.43,0,0,0,5.43,5.42h3.28A2.79,2.79,0,0,0,24,36.61V27.1a5.44,5.44,0,0,0-5.43-5.43Z"/>
    <path d="M34.48,39.39a1,1,0,0,1,0-2,3,3,0,0,0,3-3V27.49a5.83,5.83,0,0,0-5.82-5.82H29a1,1,0,0,1-1-1V8.86a4.3,4.3,0,0,0-.36-1.74,1,1,0,0,1,1.83-.8A6.32,6.32,0,0,1,30,8.86V19.67h1.66a7.83,7.83,0,0,1,7.82,7.82v6.89A5,5,0,0,1,34.48,39.39Z"/>
    <path class="a" d="M14.3,27.27h9.25a1.08,1.08,0,0,1,1.08,1.08v3a2.43,2.43,0,0,1-2.43,2.43H13a1.08,1.08,0,0,1-1.08-1.08v-3A2.43,2.43,0,0,1,14.3,27.27Z" transform="translate(48.79 12.27) rotate(90)"/>
    <path d="M34.27,46.68H29a14,14,0,0,1-10-4.14L17.55,41.1a1,1,0,0,1,0-1.42,1,1,0,0,1,1.41,0l1.45,1.45A12,12,0,0,0,29,44.68h5.3a1,1,0,0,1,0,2Z"/>
    <path d="M36.44,48.18H34.09a2.5,2.5,0,0,1,0-5h2.35a2.5,2.5,0,0,1,0,5Z"/>
    <path d="M34.32,21.64a1,1,0,0,1-1-1V9.82a5.4,5.4,0,1,0-10.8,0V20.54a1,1,0,0,1-2,0V9.82a7.4,7.4,0,1,1,14.8,0V20.64A1,1,0,0,1,34.32,21.64Z"/>
    <path d="M15.36,18.3a1,1,0,0,1-1-1V9.82a7.41,7.41,0,0,1,7.4-7.4h6.16a1,1,0,0,1,0,2H21.76a5.41,5.41,0,0,0-5.4,5.4V17.3A1,1,0,0,1,15.36,18.3Z"/>
  </g>
  <path class="a" d="M47.49,41l-.59-.59a.65.65,0,0,1,0-.93l.59-.6a1,1,0,0,0-1.41-1.41l-.6.59a.65.65,0,0,1-.93,0l-.6-.59a1,1,0,0,0-1.41,1.41l.6.6a.67.67,0,0,1,0,.93l-.6.59a1,1,0,0,0,0,1.42,1,1,0,0,0,1.41,0l.6-.6a.67.67,0,0,1,.93,0l.6.6a1,1,0,0,0,1.41,0A1,1,0,0,0,47.49,41Z"/>
  <g>
    <polygon class="a" points="5.7 9.47 4.23 14.21 9.36 12.82 5.7 9.47"/>
    <path class="a" d="M4.23,15.21a1,1,0,0,1-.72-.3,1,1,0,0,1-.23-1L4.74,9.18a1,1,0,0,1,.7-.67,1,1,0,0,1,.93.23L10,12.09a1,1,0,0,1,.3,1,1,1,0,0,1-.71.73L4.49,15.18A1.09,1.09,0,0,1,4.23,15.21Zm2-3.93-.47,1.49,1.62-.44Z"/>
  </g>
</svg>
