<?xml version="1.0" encoding="utf-8"?>
<!-- Generator: Adobe Illustrator 23.0.3, SVG Export Plug-In . SVG Version: 6.00 Build 0)  -->
<svg version="1.1" id="Layer_1" xmlns="http://www.w3.org/2000/svg" xmlns:xlink="http://www.w3.org/1999/xlink" x="0px" y="0px"
	 viewBox="0 0 350 350" style="enable-background:new 0 0 350 350;" xml:space="preserve">
<style type="text/css">
	.st0{fill:none;stroke:#EF6620;stroke-width:10;stroke-linejoin:round;stroke-miterlimit:10;}
	.st1{fill:none;stroke:#EF6620;stroke-width:10;stroke-linecap:round;stroke-linejoin:round;stroke-miterlimit:10;}
	.st2{fill:none;stroke:#FFFFFF;stroke-width:10;stroke-linecap:round;stroke-linejoin:round;stroke-miterlimit:10;}
</style>
<path class="st0" d="M258.5,172.6H137.2c-0.7,0-1.4-0.6-1.4-1.4V78.6c0-0.7,0.6-1.4,1.4-1.4h121.3c0.7,0,1.4,0.6,1.4,1.4v92.7
	C259.9,172,259.2,172.6,258.5,172.6z"/>
<rect x="154.1" y="96" class="st0" width="42.3" height="37.6"/>
<line class="st1" x1="154.1" y1="152.4" x2="196.4" y2="152.4"/>
<line class="st1" x1="215.2" y1="96" x2="238.7" y2="96"/>
<line class="st1" x1="215" y1="114.6" x2="243.4" y2="114.6"/>
<line class="st1" x1="215.2" y1="133.6" x2="238.7" y2="133.6"/>
<line class="st1" x1="215.2" y1="152.4" x2="238.7" y2="152.4"/>
<line class="st2" x1="296" y1="223.1" x2="54.9" y2="223.1"/>
<path class="st2" d="M111.5,92h-40c-10,0-18,8.1-18,18.1v131.7c0,10,8.1,18,18,18h135.4"/>
<path class="st2" d="M140.9,259.7h137c10,0,18.1-8.1,18.1-18.1V210v-99.9c0-10-8.1-18.1-18.1-18.1h-11.6"/>
<rect x="157.9" y="259.8" class="st2" width="33.7" height="21.8"/>
<line class="st2" x1="149.2" y1="281.6" x2="200.3" y2="281.6"/>
<path class="st0" d="M243,172.6v11.5c0,1.8-1.5,3.3-3.3,3.3H122.3c-1.8,0-3.3-1.5-3.3-3.3V95.4c0-1.8,1.5-3.3,3.3-3.3h13.5"/>
<path class="st0" d="M226.9,186.7v11.5c0,1.8-1.5,3.3-3.3,3.3H106.2c-1.8,0-3.3-1.5-3.3-3.3v-88.7c0-1.8,1.5-3.3,3.3-3.3h13.5"/>
</svg>
