<?xml version="1.0" encoding="utf-8"?>
<!-- Generator: Adobe Illustrator 23.0.3, SVG Export Plug-In . SVG Version: 6.00 Build 0)  -->
<svg version="1.1" id="Layer_1" xmlns="http://www.w3.org/2000/svg" xmlns:xlink="http://www.w3.org/1999/xlink" x="0px" y="0px"
	 viewBox="0 0 207 142" style="enable-background:new 0 0 207 142;" xml:space="preserve">
<style type="text/css">
	.st0{fill:#FFFFFF;stroke:#000000;stroke-width:3;stroke-linecap:round;stroke-miterlimit:10;}
	.st1{stroke:#000000;stroke-width:3;stroke-linecap:round;stroke-miterlimit:10;}
	.st2{fill:#EF6620;}
</style>
<title>img.benefits-02</title>
<g>
	<path class="st0" d="M42.9,96.6V45.4c0-3,2.4-5.4,5.4-5.4h109.2c3,0,5.4,2.4,5.4,5.4v51.2c0,3-2.4,5.4-5.4,5.4H48.3
		C45.3,102,42.9,99.6,42.9,96.6z"/>
	<path class="st1" d="M163.2,80.3V61.7h7.5c1.3,0,2.3,1,2.3,2.3v14.1c0,1.3-1,2.3-2.3,2.3H163.2z"/>
	<g>
		<polygon class="st2" points="118.7,94.6 152.4,94.6 122.3,47.4 88.6,47.4 		"/>
		<path class="st2" d="M155.5,92.6c0-0.2,0.1-0.4,0.1-0.6V49.9c0-1.4-1.2-2.6-2.6-2.6h-26.3L155.5,92.6z"/>
		<path class="st2" d="M50.2,51.8v40.3c0,1.4,1.2,2.6,2.6,2.6h24.7L50.2,51.8z"/>
		<path class="st2" d="M81.9,94.6h32.5L84.2,47.4H52.8c-0.3,0-0.6,0.1-0.9,0.2L81.9,94.6z"/>
	</g>
</g>
</svg>
