<?xml version="1.0" encoding="utf-8"?>
<!-- Generator: Adobe Illustrator 23.0.3, SVG Export Plug-In . SVG Version: 6.00 Build 0)  -->
<svg version="1.1" id="Layer_1" xmlns="http://www.w3.org/2000/svg" xmlns:xlink="http://www.w3.org/1999/xlink" x="0px" y="0px"
	 viewBox="0 0 207 142" style="enable-background:new 0 0 207 142;" xml:space="preserve">
<style type="text/css">
	.st0{fill:#EF6620;}
	.st1{fill:none;stroke:#000000;stroke-width:3;stroke-linecap:round;stroke-linejoin:round;stroke-miterlimit:10;}
</style>
<title>img.benefits-02</title>
<g>
	<circle class="st0" cx="137" cy="34.1" r="5.3"/>
	<circle class="st0" cx="137" cy="58.4" r="5.3"/>
	<circle class="st0" cx="149.1" cy="46.2" r="5.3"/>
	<circle class="st0" cx="124.8" cy="46.2" r="5.3"/>
	<path class="st1" d="M134.2,21.9c-11,1.2-20,10-21.5,21c-0.8,5.7,0.4,11,3,15.4c0.7,1.2,0.3,2.6-0.9,3.3c-4.4,2.4-7.3,7.1-7.2,12.5
		c0.2,7.3,6.2,13.3,13.5,13.5c7.9,0.2,14.3-6.1,14.3-13.9c0-1.1-0.1-2.1-0.4-3.1c0.6,0,1.2,0.1,1.8,0.1c13.5,0,24.5-11,24.5-24.5
		C161.4,31.8,149,20.3,134.2,21.9z"/>
	<circle class="st0" cx="121.6" cy="73.7" r="6.4"/>
	<path class="st0" d="M76.2,42.2h-3.6c-0.7,0-1.3-0.6-1.3-1.3v-3.6c0-1.4-1.2-2.6-2.6-2.6h-2.9c-1.4,0-2.6,1.2-2.6,2.6v3.6
		c0,0.7-0.6,1.3-1.3,1.3h-3.6c-1.4,0-2.6,1.2-2.6,2.6v2.9c0,1.4,1.2,2.6,2.6,2.6h3.6c0.7,0,1.3,0.6,1.3,1.3v3.6
		c0,1.4,1.2,2.6,2.6,2.6h2.9c1.4,0,2.6-1.2,2.6-2.6v-3.6c0-0.7,0.6-1.3,1.3-1.3h3.6c1.4,0,2.6-1.2,2.6-2.6v-2.9
		C78.9,43.3,77.7,42.2,76.2,42.2z"/>
	<path class="st1" d="M89.3,58.3c2.6-4.5,3.8-9.8,3-15.4c-1.5-11-10.5-19.8-21.5-21c-14.7-1.6-27.2,9.9-27.2,24.3
		c0,13.5,11,24.5,24.5,24.5c0.6,0,1.2,0,1.8-0.1c-0.6,2.5-0.6,5.2,0.6,8.1c2.1,5.1,7.1,8.8,12.6,8.9c7.8,0.1,14.2-6.1,14.2-13.9
		c0-5.2-2.9-9.8-7.2-12.1C89,60.9,88.7,59.5,89.3,58.3z"/>
	<circle class="st0" cx="83.5" cy="73.7" r="6.4"/>
	<polyline class="st1" points="109.9,29.1 102.5,29.1 85.5,29.1 	"/>
	<path class="st1" d="M130.1,85.2l9,17.6c2.8,5.6,8.8,8.7,15,8l0,0c8.1-1,13.9-8.3,13-16.5L161.3,44"/>
	<polyline class="st1" points="98.5,73.7 102.5,73.7 107.7,73.7 	"/>
	<path class="st1" d="M43.7,44L38,94.3c-0.9,8.1,4.9,15.5,13,16.5c6.2,0.8,12.2-2.4,15-8l5.9-11.5"/>
</g>
</svg>
