<?xml version="1.0" encoding="utf-8"?>
<!-- Generator: Adobe Illustrator 23.0.2, SVG Export Plug-In . SVG Version: 6.00 Build 0)  -->
<svg version="1.1" id="Layer_1" xmlns="http://www.w3.org/2000/svg" xmlns:xlink="http://www.w3.org/1999/xlink" x="0px" y="0px"
	 viewBox="0 0 207 142" style="enable-background:new 0 0 207 142;" xml:space="preserve">
<style type="text/css">
	.st0{fill:#EF6620;}
</style>
<title>img.benefits-02</title>
<g>
	<path d="M168.3,108.2h-127c-5.9,0-10.7-4.8-10.7-10.7V25c0-5.9,4.8-10.7,10.7-10.7h127c5.9,0,10.7,4.8,10.7,10.7v72.5
		C179,103.4,174.2,108.2,168.3,108.2z M41.3,18.2c-3.8,0-6.8,3.1-6.8,6.8v72.5c0,3.8,3.1,6.8,6.8,6.8h127c3.8,0,6.8-3.1,6.8-6.8V25
		c0-3.8-3.1-6.8-6.8-6.8H41.3z"/>
	<path class="st0" d="M139.4,34.6h-11.1l-25.5,27.7V34.6h-9.3L70.2,67.2v9.4h23.3v13.9h9.4V62.9l25.3,27.4h11.2l-25.6-27.8
		l25.6-27.7V34.6z M93.5,67.2H82.5l10.9-15.1V67.2z"/>
</g>
</svg>
