<svg xmlns="http://www.w3.org/2000/svg" viewBox="0 0 198 198">
  <defs>
    <style>
      .a {
        fill: #ef6620;
      }

      .b {
        fill: #fff;
      }
    </style>
  </defs>
  <title>img.who-amd-01</title>
  <g>
    <path d="M123.5,91.28H24.67a1,1,0,0,1-1-1V40.45a1,1,0,0,1,1-1H123.5a1,1,0,0,1,1,1V90.28A1,1,0,0,1,123.5,91.28Zm-97.83-2H122.5V41.45H25.67Z"/>
    <path d="M117.66,109.86a1,1,0,0,1-1-1V90.28a1,1,0,0,1,2,0v18.58A1,1,0,0,1,117.66,109.86Z"/>
    <path d="M123.5,109.86a1,1,0,0,1-1-1v-15a1,1,0,0,1,2,0v15A1,1,0,0,1,123.5,109.86Z"/>
    <path d="M117.66,41.45a1,1,0,0,1-1-1v-8.2a3.92,3.92,0,1,1,7.84,0v8.12a1,1,0,1,1-2,0V32.25a1.92,1.92,0,1,0-3.84,0v8.2A1,1,0,0,1,117.66,41.45Z"/>
    <path d="M30.51,41.45a1,1,0,0,1-1-1v-8.2a1.92,1.92,0,0,0-3.84,0v8.2a1,1,0,0,1-2,0v-8.2a3.92,3.92,0,0,1,7.84,0v8.2A1,1,0,0,1,30.51,41.45Z"/>
    <path d="M24.67,108.19a1,1,0,0,1-1-1V90.28a1,1,0,0,1,2,0v16.91A1,1,0,0,1,24.67,108.19Z"/>
    <path d="M30.51,108.19a1,1,0,0,1-1-1V90.28a1,1,0,0,1,2,0v16.91A1,1,0,0,1,30.51,108.19Z"/>
    <path d="M74.09,118.74a483.07,483.07,0,0,1-60.53-3.81,3.93,3.93,0,0,1-3.4-4.38,4,4,0,0,1,4.38-3.4,474.66,474.66,0,0,0,59.55,3.75,474.62,474.62,0,0,0,59.54-3.75,3.92,3.92,0,1,1,1,7.78A483,483,0,0,1,74.09,118.74Zm-60-9.62a1.94,1.94,0,0,0-1.91,1.68,1.86,1.86,0,0,0,.39,1.42,1.89,1.89,0,0,0,1.27.73,482.88,482.88,0,0,0,60.28,3.79A482.72,482.72,0,0,0,134.36,113a1.93,1.93,0,0,0,1.28-.73,1.9,1.9,0,0,0,.38-1.42,1.92,1.92,0,0,0-2.14-1.66,478.61,478.61,0,0,1-59.79,3.76,478.65,478.65,0,0,1-59.8-3.76Z"/>
    <path d="M27.6,170.24a3.92,3.92,0,0,1-2-7.3l80.7-47.18a1,1,0,0,1,1.37.36,1,1,0,0,1-.36,1.37l-80.7,47.18a1.91,1.91,0,0,0-.68,2.62,2,2,0,0,0,2.62.69l85.25-49.84a1,1,0,0,1,1.37.36,1,1,0,0,1-.36,1.37L29.57,169.71A3.91,3.91,0,0,1,27.6,170.24Z"/>
    <path d="M120.58,170.24a3.94,3.94,0,0,1-2-.53l-41.06-24a1,1,0,0,1-.35-1.37,1,1,0,0,1,1.36-.35l41.06,24a2,2,0,0,0,2.63-.69,1.92,1.92,0,0,0-.69-2.62L79.37,140a1,1,0,1,1,1-1.72l42.18,24.66a3.92,3.92,0,0,1-2,7.3Z"/>
    <path d="M74.09,136.76a1.06,1.06,0,0,1-.51-.14L46.45,120.76a1,1,0,1,1,1-1.73l27.13,15.86a1,1,0,0,1,.36,1.37A1,1,0,0,1,74.09,136.76Z"/>
    <path d="M68.3,140.14a.93.93,0,0,1-.5-.14L27.4,116.38A1,1,0,0,1,27,115a1,1,0,0,1,1.37-.36l40.4,23.62a1,1,0,0,1-.51,1.86Z"/>
    <g>
      <polygon class="a" points="175.19 153.59 141.38 153.59 142.28 147.26 174.29 147.26 175.19 153.59"/>
      <path d="M139.77,164.4l-.18,0a1,1,0,0,1-.8-1.16l9.6-54.19a1,1,0,0,1,1-.83h0l18.06.13a1,1,0,0,1,1,.83l9,51a1,1,0,0,1-2,.35l-8.89-50.18-16.38-.12-9.46,53.36A1,1,0,0,1,139.77,164.4Z"/>
      <path d="M174.59,138.79h-2a1,1,0,0,1,0-2h2a2.8,2.8,0,0,0,2.74-3.37l-1.26-6.08a4.39,4.39,0,0,0-4.27-3.48h-1.74a1,1,0,0,1,0-2h1.74a6.4,6.4,0,0,1,6.23,5.07l1.26,6.09a4.76,4.76,0,0,1-1,4A4.82,4.82,0,0,1,174.59,138.79Z"/>
      <path d="M178.52,170.73H138.26a4.17,4.17,0,1,1,0-8.33h40.26a4.17,4.17,0,0,1,0,8.33Zm-40.26-6.33a2.17,2.17,0,1,0,0,4.33h40.26a2.17,2.17,0,0,0,0-4.33Z"/>
    </g>
    <circle class="a" cx="74.09" cy="65.36" r="18.42"/>
    <polygon class="b" points="74.09 51.72 70.01 59.98 60.9 61.31 67.49 67.73 65.93 76.81 74.09 72.53 82.24 76.81 80.68 67.73 87.28 61.31 78.16 59.98 74.09 51.72"/>
  </g>
</svg>
