<?xml version="1.0" encoding="utf-8"?>
<!-- Generator: Adobe Illustrator 23.0.3, SVG Export Plug-In . SVG Version: 6.00 Build 0)  -->
<svg version="1.1" id="Layer_1" xmlns="http://www.w3.org/2000/svg" xmlns:xlink="http://www.w3.org/1999/xlink" x="0px" y="0px"
	 viewBox="0 0 207 142" style="enable-background:new 0 0 207 142;" xml:space="preserve">
<style type="text/css">
	.st0{fill:#EF6620;}
	.st1{fill:none;stroke:#000000;stroke-width:9;stroke-miterlimit:10;}
	.st2{fill:none;stroke:#EF6620;stroke-width:9;stroke-miterlimit:10;}
	.st3{fill:none;stroke:#EF6620;stroke-width:4;stroke-miterlimit:10;}
	.st4{fill:none;stroke:#000000;stroke-width:5;stroke-linecap:round;stroke-miterlimit:10;}
</style>
<title>img.benefits-02</title>
<path d="M57.9,49.7c-0.4-0.3-1-0.2-1.3,0.2l-6.4,8.3c-0.3,0.4-0.2,1,0.2,1.3c0.2,0.1,0.4,0.2,0.6,0.2c0.3,0,0.6-0.1,0.8-0.4L58,51
	C58.4,50.6,58.3,50,57.9,49.7L57.9,49.7z"/>
<path d="M60.8,54.5c-0.4-0.3-1-0.2-1.3,0.2l-4.8,6.3c-0.3,0.4-0.2,1,0.2,1.3c0.2,0.1,0.4,0.2,0.6,0.2c0.3,0,0.6-0.1,0.8-0.4l4.8-6.3
	C61.3,55.4,61.2,54.8,60.8,54.5L60.8,54.5z"/>
<path d="M61.5,22.6h6.6c0.2,0,0.2,0.1,0.2,0.1c0,0,0.1,0.1,0.1,0.1v43.6c0,0.1-0.1,0.2-0.2,0.2H8.5c-0.1,0-0.2-0.1-0.2-0.2l0,0V22.8
	c0-0.1,0.1-0.2,0.2-0.2h45.4 M54.6,20.7H8.5c-1.2,0-2.1,0.9-2.1,2.1v43.6c0,1.2,0.9,2.1,2.1,2.1h59.7c1.2,0,2.1-0.9,2.1-2.1l0,0
	V22.8c0-0.6-0.2-1.1-0.6-1.5c-0.3-0.3-0.8-0.5-1.4-0.6c0,0-0.1,0-0.1,0h-5.9"/>
<path class="st0" d="M16.6,49.3c-2.6,0-4.7-2.1-4.7-4.7c0-2.6,2.1-4.7,4.7-4.7c2.6,0,4.7,2.1,4.7,4.7C21.3,47.2,19.2,49.3,16.6,49.3
	L16.6,49.3z M16.6,38C13,38,10,41,10,44.6c0,3.6,3,6.6,6.6,6.6s6.6-3,6.6-6.6C23.2,41,20.3,38,16.6,38L16.6,38z"/>
<path d="M22.3,25.8c-0.5,0-0.9,0.4-0.9,0.9v9c0,0.5,0.4,0.9,0.9,0.9c0.5,0,0.9-0.4,0.9-0.9v-9C23.2,26.2,22.8,25.8,22.3,25.8
	L22.3,25.8z"/>
<path d="M22.3,53.6c-0.5,0-0.9,0.4-0.9,0.9v9c0,0.5,0.4,0.9,0.9,0.9c0.5,0,0.9-0.4,0.9-0.9v-9C23.2,54,22.8,53.6,22.3,53.6
	L22.3,53.6z"/>
<path d="M49.3,41.4c-0.5-0.1-1,0.2-1.1,0.7c-0.4,1.9-1.4,3.2-2.6,3.7c-1,0.4-2.2,0.2-3.4-0.6c-3.2-2.2-8.2-3.1-11.4,0.1
	c-0.4,0.4-0.4,1,0,1.3c0.4,0.4,1,0.4,1.3,0c2.4-2.4,6.3-1.6,9,0.1c1.1,0.7,2.2,1.1,3.3,1.1c0.6,0,1.2-0.1,1.8-0.3
	c1.8-0.7,3.2-2.5,3.8-5C50.2,42,49.8,41.5,49.3,41.4L49.3,41.4z"/>
<g>
	<path class="st0" d="M64.8,3c-1.3-0.5-2.7,0.1-3.2,1.4L60.1,8l4.6,1.9l1.5-3.6C66.7,5,66.1,3.5,64.8,3z"/>
	<path class="st0" d="M50.4,40.4l3.8-4.3l0,0l10.3-25.6l-4.6-1.9L49.5,34.3h0L49.3,40C49.2,40.6,50,40.9,50.4,40.4z"/>
</g>
<circle class="st1" cx="107.1" cy="99.1" r="28"/>
<circle class="st2" cx="107" cy="99.1" r="34.1"/>
<circle class="st3" cx="168.5" cy="38.7" r="27.4"/>
<circle cx="157.9" cy="29.8" r="4.8"/>
<circle cx="179.4" cy="29.8" r="4.8"/>
<path class="st4" d="M151.3,44.7c3.7,5.8,10.1,9.6,17.5,9.6s13.8-3.9,17.5-9.6"/>
</svg>
