<?xml version="1.0" encoding="utf-8"?>
<!-- Generator: Adobe Illustrator 23.0.3, SVG Export Plug-In . SVG Version: 6.00 Build 0)  -->
<svg version="1.1" id="Layer_1" xmlns="http://www.w3.org/2000/svg" xmlns:xlink="http://www.w3.org/1999/xlink" x="0px" y="0px"
	 viewBox="0 0 350 350" style="enable-background:new 0 0 350 350;" xml:space="preserve">
<style type="text/css">
	.st0{fill:#FFFFFF;}
	.st1{fill:#F26522;}
</style>
<path class="st0" d="M255.4,270H92.1c-8.9,0-15.7-6.9-15.7-15.7l0,0V91c0-8.9,6.9-15.7,15.7-15.7l0,0h163.3
	c8.9,0,15.7,6.9,15.7,15.7v163.3C271.1,263.1,264.3,270,255.4,270z M92.1,83.6c-3.9,0-7.4,3-7.4,7.4l0,0v163.3c0,3.9,3,7.4,7.4,7.4
	l0,0h163.3c3.9,0,7.4-3,7.4-7.4V91c0-3.9-3-7.4-7.4-7.4H92.1z"/>
<path class="st0" d="M282.9,96.9h-15.7c-2.5,0-4.4-2-4.4-4.4c0-2.5,2-4.4,4.4-4.4h16.2c2.5,0,4.4,2,4.4,4.4
	C287.9,94.9,285.4,96.9,282.9,96.9z"/>
<path class="st0" d="M282.9,128.8h-15.7c-2.5,0-4.4-2-4.4-4.4c0-2.5,2-4.4,4.4-4.4h16.2c2.5,0,4.4,2,4.4,4.4
	C287.9,126.9,285.4,128.8,282.9,128.8z"/>
<path class="st0" d="M282.9,160.8h-15.7c-2.5,0-4.4-2-4.4-4.4c0-2.5,2-4.4,4.4-4.4h16.2c2.5,0,4.4,2,4.4,4.4
	C287.9,158.8,285.4,160.8,282.9,160.8z"/>
<path class="st0" d="M282.9,192.8h-15.7c-2.5,0-4.4-2-4.4-4.4s2-4.4,4.4-4.4h16.2c2.5,0,4.4,2,4.4,4.4S285.4,192.8,282.9,192.8z"/>
<path class="st0" d="M282.9,224.7h-15.7c-2.5,0-4.4-2-4.4-4.4c0-2.5,2-4.4,4.4-4.4h16.2c2.5,0,4.4,2,4.4,4.4
	C287.9,222.8,285.4,224.7,282.9,224.7z"/>
<path class="st0" d="M282.9,256.7h-15.7c-2.5,0-4.4-2-4.4-4.4c0-2.5,2-4.4,4.4-4.4h16.2c2.5,0,4.4,2,4.4,4.4
	C287.4,255.2,285.4,256.7,282.9,256.7z"/>
<path class="st0" d="M80.3,96.9H64.6c-2.5,0-4.4-2-4.4-4.4c0-2.5,2-4.4,4.4-4.4h15.7c2.5,0,4.4,2,4.4,4.4
	C84.7,94.9,82.8,96.9,80.3,96.9z"/>
<path class="st0" d="M80.3,128.8H64.6c-2.5,0-4.4-2-4.4-4.4c0-2.5,2-4.4,4.4-4.4h15.7c2.5,0,4.4,2,4.4,4.4
	C84.7,126.9,82.8,128.8,80.3,128.8z"/>
<path class="st0" d="M80.3,160.8H64.6c-2.5,0-4.4-2-4.4-4.4c0-2.5,2-4.4,4.4-4.4h15.7c2.5,0,4.4,2,4.4,4.4
	C84.7,158.8,82.8,160.8,80.3,160.8z"/>
<path class="st0" d="M80.3,192.8H64.6c-2.5,0-4.4-2-4.4-4.4s2-4.4,4.4-4.4h15.7c2.5,0,4.4,2,4.4,4.4S82.8,192.8,80.3,192.8z"/>
<path class="st0" d="M80.3,224.7H64.6c-2.5,0-4.4-2-4.4-4.4c0-2.5,2-4.4,4.4-4.4h15.7c2.5,0,4.4,2,4.4,4.4
	C84.7,222.8,82.8,224.7,80.3,224.7z"/>
<path class="st0" d="M80.3,256.7H64.6c-2.5,0-4.4-2-4.4-4.4c0-2.5,2-4.4,4.4-4.4h15.7c2.5,0,4.4,2,4.4,4.4
	C84.7,255.2,82.8,256.7,80.3,256.7z"/>
<path class="st0" d="M93.6,83.6c-2.5,0-3.9-2-3.9-4.4V63.4c0-2.5,2-4.4,4.4-4.4c2.5,0,4.4,2,4.4,4.4v15.7C98,81.6,96,83.6,93.6,83.6
	z"/>
<path class="st0" d="M125.6,83.6c-2.5,0-4.4-2-4.4-4.4V63.4c0-2.5,2-4.4,4.4-4.4c2.5,0,4.4,2,4.4,4.4v15.7
	C130,81.6,128,83.6,125.6,83.6z"/>
<path class="st0" d="M158,83.6c-2.5,0-4.4-2-4.4-4.4V63.4c0-2.5,2-4.4,4.4-4.4s4.4,2,4.4,4.4v15.7C161.9,81.6,160,83.6,158,83.6z"/>
<path class="st0" d="M189.5,83.6c-2.5,0-4.4-2-4.4-4.4V63.4c0-2.5,2-4.4,4.4-4.4s4.4,2,4.4,4.4v15.7C193.9,81.6,192,83.6,189.5,83.6
	z"/>
<path class="st0" d="M222,83.6c-2.5,0-4.4-2-4.4-4.4V63.4c0-2.5,2-4.4,4.4-4.4s4.4,2,4.4,4.4v15.7C225.9,81.6,223.9,83.6,222,83.6z"
	/>
<path class="st0" d="M253.9,83.6c-2.5,0-4.4-2-4.4-4.4V63.4c0-2.5,2-4.4,4.4-4.4s4.4,2,4.4,4.4v15.7
	C257.9,81.6,256.4,83.6,253.9,83.6z"/>
<path class="st0" d="M93.6,286.2c-2.5,0-4.4-2-4.4-4.4l0,0v-15.7c0-2.5,2-4.4,4.4-4.4c2.5,0,4.4,2,4.4,4.4v16.2
	C98,284.3,96,286.2,93.6,286.2L93.6,286.2z"/>
<path class="st0" d="M125.6,286.2c-2.5,0-4.4-2-4.4-4.4l0,0v-15.7c0-2.5,2-4.4,4.4-4.4c2.5,0,4.4,2,4.4,4.4v16.2
	C130,284.3,128,286.2,125.6,286.2L125.6,286.2z"/>
<path class="st0" d="M158,286.2c-2.5,0-4.4-2-4.4-4.4l0,0v-15.7c0-2.5,2-4.4,4.4-4.4s4.4,2,4.4,4.4v16.2
	C161.9,284.3,160,286.2,158,286.2L158,286.2z"/>
<path class="st0" d="M189.5,286.2c-2.5,0-4.4-2-4.4-4.4l0,0v-15.7c0-2.5,2-4.4,4.4-4.4s4.4,2,4.4,4.4v16.2
	C193.9,284.3,192,286.2,189.5,286.2L189.5,286.2z"/>
<path class="st0" d="M222,286.2c-2.5,0-4.4-2-4.4-4.4l0,0v-15.7c0-2.5,2-4.4,4.4-4.4s4.4,2,4.4,4.4v16.2
	C225.9,284.3,223.9,286.2,222,286.2L222,286.2z"/>
<path class="st0" d="M253.9,286.2c-2.5,0-4.4-2-4.4-4.4l0,0v-15.7c0-2.5,2-4.4,4.4-4.4s4.4,2,4.4,4.4v16.2
	C257.9,284.3,256.4,286.2,253.9,286.2L253.9,286.2z"/>
<path class="st0" d="M233.8,97.8h-120c-8.4,0-14.8,6.9-14.8,14.8v120c0,8.4,6.9,14.8,14.8,14.8h120c8.4,0,14.8-6.9,14.8-14.8v-120
	C248.5,104.2,242.1,97.8,233.8,97.8z M234.3,227.7c0,3-2,5.4-5.4,5.4H118.7c-3,0-5.4-2-5.4-5.4V117.5c0-3,2-5.4,5.4-5.4h109.7
	c3,0,5.4,2,5.4,5.4v110.2H234.3z"/>
<path class="st1" d="M123.6,222.8h99.4V122.4h-99.4V222.8z M143.8,137.2c5.4,0,9.3,4.4,9.3,9.3c0,5.4-4.4,9.3-9.3,9.3
	c-4.9,0-9.3-3.9-9.3-8.9C134.4,141.6,138.3,137.2,143.8,137.2z"/>
</svg>
