<?xml version="1.0" encoding="utf-8"?>
<!-- Generator: Adobe Illustrator 23.0.2, SVG Export Plug-In . SVG Version: 6.00 Build 0)  -->
<svg version="1.1" id="Layer_1" xmlns="http://www.w3.org/2000/svg" xmlns:xlink="http://www.w3.org/1999/xlink" x="0px" y="0px"
	 viewBox="0 0 460 130" style="enable-background:new 0 0 460 130;" xml:space="preserve">
<style type="text/css">
	.st0{enable-background:new    ;}
	.st1{fill:#EF6620;}
</style>
<g class="st0">
	<path d="M26,14.6c0,1.5,0.8,2.3,2.3,2.3c1.5,0,2.3-0.8,2.3-2.3V6h2.6v8.6c0,1.6-0.4,2.7-1.2,3.5c-0.8,0.7-2.1,1.1-3.7,1.1
		c-1.6,0-2.9-0.4-3.7-1.1c-0.8-0.7-1.2-1.9-1.2-3.5V6H26V14.6z"/>
	<path d="M40.7,15.1h-2.1v3.8h-2.6V6h4.8c3.1,0,4.6,1.5,4.6,4.5c0,1.5-0.4,2.7-1.2,3.5C43.3,14.7,42.2,15.1,40.7,15.1z M38.6,12.9
		h2.1c1.3,0,2-0.8,2-2.4c0-0.8-0.2-1.4-0.5-1.7c-0.3-0.3-0.8-0.5-1.5-0.5h-2.1V12.9z"/>
	<path d="M50.2,8.3V6h9.5v2.3h-3.4v10.6h-2.6V8.3H50.2z"/>
	<path d="M70.2,17.5c-0.8,1.1-2.2,1.6-4.2,1.6s-3.3-0.5-4.2-1.6c-0.8-1.1-1.2-2.7-1.2-5c0-2.3,0.4-4,1.2-5.1C62.6,6.3,64,5.7,66,5.7
		s3.3,0.6,4.2,1.7s1.2,2.8,1.2,5.1C71.4,14.8,71,16.4,70.2,17.5z M63.9,15.8c0.4,0.7,1.1,1,2.1,1c1,0,1.7-0.3,2.1-1
		c0.4-0.7,0.6-1.8,0.6-3.3c0-1.6-0.2-2.7-0.6-3.4C67.7,8.4,67,8,66,8c-1,0-1.7,0.4-2.1,1.1c-0.4,0.7-0.6,1.8-0.6,3.4
		C63.3,14.1,63.5,15.2,63.9,15.8z"/>
</g>
<g class="st0">
	<path class="st1" d="M22.8,87.7V64.1h15.1v4.2H27.5v6.9h8.4v4.2h-8.4v8.3H22.8z"/>
	<path class="st1" d="M38.5,87.7l5.3-23.6h9.1l5.3,23.6h-4.8l-0.9-4.3h-8.3l-0.9,4.3H38.5z M47.5,68.1l-2.4,11.2h6.5l-2.4-11.2H47.5
		z"/>
	<path class="st1" d="M68.3,67.9c-2.5,0-3.8,0.8-3.8,2.5c0,0.7,0.3,1.3,0.9,1.7c0.6,0.4,2.1,1,4.4,1.7c2.3,0.7,3.9,1.6,4.8,2.5
		c0.9,0.9,1.4,2.4,1.4,4.3c0,2.5-0.8,4.3-2.3,5.6c-1.5,1.3-3.5,1.9-5.9,1.9c-1.8,0-4-0.3-6.6-0.8l-1.2-0.2l0.5-3.7
		c3.1,0.4,5.5,0.6,7.1,0.6c2.5,0,3.7-1,3.7-3.1c0-0.7-0.3-1.3-0.9-1.7c-0.6-0.4-1.7-0.9-3.4-1.4c-2.7-0.8-4.6-1.7-5.7-2.7
		c-1.1-1.1-1.6-2.5-1.6-4.4c0-2.4,0.7-4.1,2.2-5.3s3.4-1.7,5.9-1.7c1.7,0,3.9,0.2,6.5,0.7l1.2,0.2l-0.4,3.8
		C72,68.1,69.7,67.9,68.3,67.9z"/>
	<path class="st1" d="M77.8,68.4v-4.2h17.3v4.2h-6.2v19.4h-4.8V68.4H77.8z"/>
	<path class="st1" d="M98.2,87.7V64.1h15.3v4.2H103v5.5h8.4v4.1H103v5.7h10.5v4.2H98.2z"/>
	<path class="st1" d="M122.2,79.8v7.9h-4.8V64.1h9.2c5.6,0,8.3,2.6,8.3,7.8c0,3.1-1.2,5.3-3.5,6.8l3.4,9h-5.2l-2.7-7.9H122.2z
		 M129.2,74.7c0.6-0.7,0.8-1.6,0.8-2.7c0-1.1-0.3-2-0.9-2.7s-1.4-1-2.5-1h-4.4v7.5h4.4C127.8,75.7,128.6,75.4,129.2,74.7z"/>
</g>
<g class="st0">
	<path class="st1" d="M45.9,30.3c-3.5-0.5-6.6-0.8-9.1-0.8c-4.9,0-7.3,2.7-7.3,8l1.1-0.3c2.3-0.7,4.1-1,5.4-1c3.9,0,6.8,0.9,8.8,2.7
		c2,1.8,2.9,4.6,2.9,8.3c0,3.8-1.1,6.6-3.3,8.5c-2.2,1.9-5.4,2.9-9.6,2.9s-7.3-1.5-9.5-4.6c-2.1-3-3.2-7.5-3.2-13.5
		c0-5.9,1.2-10.3,3.7-13.1c2.4-2.8,6-4.2,10.5-4.2c2.7,0,5.6,0.4,8.6,1.1l1.6,0.4L45.9,30.3z M35.4,42.4c-1.6,0-3.3,0.3-5.1,0.9
		l-0.9,0.3c0,6,1.9,8.9,5.8,8.9c1.7,0,2.9-0.5,3.8-1.4c0.9-0.9,1.3-2.2,1.3-3.8C40.4,44,38.7,42.4,35.4,42.4z"/>
	<path class="st1" d="M65.8,58v-5.6H51.3V47l8.4-23h7.8l-9.1,22.3h7.3v-9.6h7.1v9.6h3.3v6.2h-3.3V58H65.8z"/>
	<path class="st1" d="M78.9,30.9c0-5,2.1-7.5,6.2-7.5c4.1,0,6.2,2.5,6.2,7.5c0,5-2.1,7.5-6.2,7.5C81,38.4,78.9,35.9,78.9,30.9z
		 M84.2,28.2c-0.2,0.5-0.2,1.4-0.2,2.6s0.1,2.1,0.2,2.6s0.5,0.8,0.9,0.8c0.4,0,0.7-0.3,0.9-0.8s0.2-1.4,0.2-2.6s-0.1-2.1-0.2-2.6
		s-0.5-0.7-0.9-0.7C84.6,27.5,84.3,27.7,84.2,28.2z M84.6,58.5l12.1-36.5l3.8,1.3L88.4,59.7L84.6,58.5z M94,51.1
		c0-5,2.1-7.5,6.2-7.5c4.1,0,6.2,2.5,6.2,7.5c0,5-2.1,7.5-6.2,7.5C96,58.7,94,56.2,94,51.1z M99.3,48.5C99.1,49,99,49.9,99,51.1
		s0.1,2.1,0.2,2.6c0.2,0.5,0.5,0.8,0.9,0.8s0.7-0.3,0.9-0.8c0.2-0.5,0.2-1.4,0.2-2.6s-0.1-2.1-0.2-2.6c-0.2-0.5-0.5-0.7-0.9-0.7
		S99.4,48,99.3,48.5z"/>
</g>
<g class="st0">
	<path d="M29.8,106.1c-0.8,1.1-2.2,1.6-4.2,1.6s-3.3-0.5-4.2-1.6c-0.8-1.1-1.2-2.7-1.2-5c0-2.3,0.4-4,1.2-5.1
		c0.8-1.1,2.2-1.7,4.2-1.7s3.3,0.6,4.2,1.7c0.8,1.1,1.2,2.8,1.2,5.1C31,103.3,30.6,105,29.8,106.1z M23.5,104.4c0.4,0.7,1.1,1,2.1,1
		s1.7-0.3,2.1-1c0.4-0.7,0.6-1.8,0.6-3.3c0-1.6-0.2-2.7-0.6-3.4c-0.4-0.7-1.1-1.1-2.1-1.1s-1.7,0.4-2.1,1.1s-0.6,1.8-0.6,3.4
		C22.9,102.6,23.1,103.7,23.5,104.4z"/>
	<path d="M40,94.5h2.8l-3,12.9h-4.8l-3-12.9h2.8l2.2,10.6h0.9L40,94.5z"/>
	<path d="M44.5,107.5V94.5h8.4v2.3h-5.7v3h4.6v2.2h-4.6v3.1h5.7v2.3H44.5z"/>
	<path d="M57.6,103.1v4.3H55V94.5h5c3,0,4.6,1.4,4.6,4.3c0,1.7-0.6,2.9-1.9,3.7l1.8,4.9h-2.9l-1.5-4.3H57.6z M61.5,100.3
		c0.3-0.4,0.5-0.9,0.5-1.5c0-0.6-0.2-1.1-0.5-1.5c-0.3-0.4-0.8-0.6-1.4-0.6h-2.4v4.1h2.4C60.7,100.9,61.2,100.7,61.5,100.3z"/>
	<path d="M65.6,107.5l2.9-12.9h5l2.9,12.9h-2.6l-0.5-2.3h-4.5l-0.5,2.3H65.6z M70.5,96.7l-1.3,6.1h3.5l-1.3-6.1H70.5z"/>
	<path d="M85.5,107.5h-7.4V94.5h2.6v10.6h4.7V107.5z"/>
	<path d="M94.4,107.5h-7.4V94.5h2.6v10.6h4.7V107.5z"/>
</g>
<g class="st0">
	<path d="M25.7,119.4h-2.1v3.8H21v-12.9h4.8c3.1,0,4.6,1.5,4.6,4.5c0,1.5-0.4,2.7-1.2,3.5C28.4,119,27.2,119.4,25.7,119.4z
		 M23.6,117.2h2.1c1.3,0,2-0.8,2-2.4c0-0.8-0.2-1.4-0.5-1.7c-0.3-0.3-0.8-0.5-1.5-0.5h-2.1V117.2z"/>
	<path d="M32.2,123.2v-12.9h8.4v2.3h-5.7v3h4.6v2.2h-4.6v3.1h5.7v2.3H32.2z"/>
	<path d="M45.3,118.9v4.3h-2.6v-12.9h5c3,0,4.6,1.4,4.6,4.3c0,1.7-0.6,2.9-1.9,3.7l1.8,4.9h-2.9l-1.5-4.3H45.3z M49.1,116
		c0.3-0.4,0.5-0.9,0.5-1.5c0-0.6-0.2-1.1-0.5-1.5c-0.3-0.4-0.8-0.6-1.4-0.6h-2.4v4.1h2.4C48.4,116.6,48.8,116.4,49.1,116z"/>
	<path d="M54.5,123.2v-12.9h8.3v2.3h-5.6v3.8h4.6v2.3h-4.6v4.6H54.5z"/>
	<path d="M73.5,121.8c-0.8,1.1-2.2,1.6-4.2,1.6s-3.3-0.5-4.2-1.6c-0.8-1.1-1.2-2.7-1.2-5c0-2.3,0.4-4,1.2-5.1
		c0.8-1.1,2.2-1.7,4.2-1.7s3.3,0.6,4.2,1.7c0.8,1.1,1.2,2.8,1.2,5.1C74.7,119.1,74.3,120.7,73.5,121.8z M67.3,120.1
		c0.4,0.7,1.1,1,2.1,1s1.7-0.3,2.1-1c0.4-0.7,0.6-1.8,0.6-3.3c0-1.6-0.2-2.7-0.6-3.4c-0.4-0.7-1.1-1.1-2.1-1.1s-1.7,0.4-2.1,1.1
		s-0.6,1.8-0.6,3.4C66.7,118.4,66.9,119.5,67.3,120.1z"/>
	<path d="M79.6,118.9v4.3H77v-12.9h5c3,0,4.6,1.4,4.6,4.3c0,1.7-0.6,2.9-1.9,3.7l1.8,4.9h-2.9l-1.5-4.3H79.6z M83.4,116
		c0.3-0.4,0.5-0.9,0.5-1.5c0-0.6-0.2-1.1-0.5-1.5c-0.3-0.4-0.8-0.6-1.4-0.6h-2.4v4.1H82C82.6,116.6,83.1,116.4,83.4,116z"/>
	<path d="M88.8,123.2v-12.9h4.5l2.3,9.4l2.3-9.4h4.5v12.9h-2.6v-10h-0.3l-2.5,9.4h-2.6l-2.5-9.4h-0.3v10H88.8z"/>
	<path d="M104,123.2l2.9-12.9h5l2.9,12.9h-2.6l-0.5-2.3h-4.5l-0.5,2.3H104z M108.9,112.4l-1.3,6.1h3.5l-1.3-6.1H108.9z"/>
	<path d="M116.5,123.2v-12.9h4.4l3.1,10.6h0.2v-10.6h2.6v12.9h-4.3l-3.2-10.6h-0.2v10.6H116.5z"/>
	<path d="M137.9,123c-1.3,0.3-2.6,0.4-3.6,0.4c-1.1,0-1.9-0.1-2.6-0.4c-0.6-0.3-1.2-0.7-1.5-1.3s-0.6-1.3-0.8-2.1
		c-0.1-0.8-0.2-1.8-0.2-3c0-2.5,0.4-4.2,1.1-5.2c0.7-1,2-1.5,3.9-1.5c1.1,0,2.4,0.2,3.8,0.5l-0.1,2.1c-1.3-0.2-2.3-0.3-3.1-0.3
		c-0.8,0-1.4,0.1-1.8,0.3s-0.6,0.6-0.8,1.3c-0.2,0.6-0.3,1.7-0.3,3.2c0,1.5,0.2,2.5,0.5,3.1c0.3,0.6,1,0.9,2.1,0.9
		c1,0,2.2-0.1,3.3-0.3L137.9,123z"/>
	<path d="M140,123.2v-12.9h8.4v2.3h-5.7v3h4.6v2.2h-4.6v3.1h5.7v2.3H140z"/>
</g>
<g class="st0">
	<path d="M150.4,110.3c0.4-0.2,0.9-0.2,1.4-0.2s0.9,0.1,1.1,0.3c0.2,0.2,0.3,0.5,0.3,0.9c0,0.4-0.2,0.8-0.5,1
		c0.2,0.1,0.4,0.2,0.5,0.4s0.1,0.3,0.1,0.6c0,0.5-0.1,0.8-0.4,1.1c-0.2,0.2-0.6,0.3-1.1,0.3c-0.4,0-0.8-0.1-1.2-0.2l-0.2-0.1l0-0.7
		c0.5,0.1,0.9,0.1,1.3,0.1c0.5,0,0.7-0.2,0.7-0.6c0-0.2-0.1-0.3-0.2-0.4c-0.1-0.1-0.3-0.1-0.5-0.1h-0.9v-0.8h0.9
		c0.1,0,0.3-0.1,0.4-0.2c0.1-0.1,0.2-0.3,0.2-0.4c0-0.3-0.2-0.5-0.7-0.5c-0.3,0-0.6,0-1,0.1l-0.2,0L150.4,110.3z"/>
</g>
<g class="st0">
	<path d="M185.4,14.6c0,1.5,0.8,2.3,2.3,2.3s2.3-0.8,2.3-2.3V6h2.6v8.6c0,1.6-0.4,2.7-1.2,3.5c-0.8,0.7-2.1,1.1-3.7,1.1
		c-1.6,0-2.9-0.4-3.7-1.1c-0.8-0.7-1.2-1.9-1.2-3.5V6h2.6V14.6z"/>
	<path d="M200.1,15.1H198v3.8h-2.6V6h4.8c3.1,0,4.6,1.5,4.6,4.5c0,1.5-0.4,2.7-1.2,3.5C202.8,14.7,201.6,15.1,200.1,15.1z M198,12.9
		h2.1c1.3,0,2-0.8,2-2.4c0-0.8-0.2-1.4-0.5-1.7c-0.3-0.3-0.8-0.5-1.5-0.5H198V12.9z"/>
	<path d="M209.6,8.3V6h9.5v2.3h-3.4v10.6H213V8.3H209.6z"/>
	<path d="M229.6,17.5c-0.8,1.1-2.2,1.6-4.2,1.6s-3.3-0.5-4.2-1.6c-0.8-1.1-1.2-2.7-1.2-5c0-2.3,0.4-4,1.2-5.1
		c0.8-1.1,2.2-1.7,4.2-1.7s3.3,0.6,4.2,1.7c0.8,1.1,1.2,2.8,1.2,5.1C230.8,14.8,230.4,16.4,229.6,17.5z M223.3,15.8
		c0.4,0.7,1.1,1,2.1,1s1.7-0.3,2.1-1c0.4-0.7,0.6-1.8,0.6-3.3c0-1.6-0.2-2.7-0.6-3.4c-0.4-0.7-1.1-1.1-2.1-1.1s-1.7,0.4-2.1,1.1
		s-0.6,1.8-0.6,3.4C222.7,14.1,222.9,15.2,223.3,15.8z"/>
</g>
<g class="st0">
	<path class="st1" d="M182.2,87.7V64.1h15.1v4.2h-10.3v6.9h8.4v4.2h-8.4v8.3H182.2z"/>
	<path class="st1" d="M197.9,87.7l5.3-23.6h9.1l5.3,23.6h-4.8l-0.9-4.3h-8.3l-0.9,4.3H197.9z M206.9,68.1l-2.4,11.2h6.5l-2.4-11.2
		H206.9z"/>
	<path class="st1" d="M227.7,67.9c-2.5,0-3.8,0.8-3.8,2.5c0,0.7,0.3,1.3,0.9,1.7c0.6,0.4,2.1,1,4.4,1.7c2.3,0.7,3.9,1.6,4.8,2.5
		c0.9,0.9,1.4,2.4,1.4,4.3c0,2.5-0.8,4.3-2.3,5.6c-1.5,1.3-3.5,1.9-5.9,1.9c-1.8,0-4-0.3-6.6-0.8l-1.2-0.2l0.5-3.7
		c3.1,0.4,5.5,0.6,7.1,0.6c2.5,0,3.7-1,3.7-3.1c0-0.7-0.3-1.3-0.9-1.7c-0.6-0.4-1.7-0.9-3.4-1.4c-2.7-0.8-4.6-1.7-5.7-2.7
		c-1.1-1.1-1.6-2.5-1.6-4.4c0-2.4,0.7-4.1,2.2-5.3c1.4-1.2,3.4-1.7,5.9-1.7c1.7,0,3.9,0.2,6.5,0.7l1.2,0.2l-0.4,3.8
		C231.4,68.1,229.1,67.9,227.7,67.9z"/>
	<path class="st1" d="M237.2,68.4v-4.2h17.3v4.2h-6.2v19.4h-4.8V68.4H237.2z"/>
	<path class="st1" d="M257.6,87.7V64.1h15.3v4.2h-10.5v5.5h8.4v4.1h-8.4v5.7h10.5v4.2H257.6z"/>
	<path class="st1" d="M281.6,79.8v7.9h-4.8V64.1h9.2c5.6,0,8.3,2.6,8.3,7.8c0,3.1-1.2,5.3-3.5,6.8l3.4,9H289l-2.7-7.9H281.6z
		 M288.6,74.7c0.6-0.7,0.8-1.6,0.8-2.7c0-1.1-0.3-2-0.9-2.7s-1.4-1-2.5-1h-4.4v7.5h4.4C287.2,75.7,288,75.4,288.6,74.7z"/>
</g>
<g class="st0">
	<path class="st1" d="M185.1,25.8c2.2-1.6,5.2-2.5,9-2.5c3.8,0,6.8,0.8,9.1,2.5c2.3,1.7,3.5,3.9,3.5,6.9c0,2-0.2,3.5-0.7,4.5
		c-0.5,1-1.5,2.1-3,3.3c1.5,1.3,2.6,2.5,3.3,3.6c0.7,1.1,1,2.7,1,4.7c0,3.4-1.2,5.9-3.6,7.5c-2.4,1.6-5.6,2.4-9.4,2.4
		c-8.6,0-12.9-3.1-12.9-9.3c0-2.2,0.3-3.9,1-5.1c0.7-1.2,1.8-2.5,3.3-3.7c-1.4-1.2-2.4-2.3-2.9-3.4c-0.5-1.1-0.8-2.6-0.8-4.4
		C181.8,29.7,182.9,27.4,185.1,25.8z M188.8,47.7c0,3,1.8,4.5,5.3,4.5s5.3-1.5,5.3-4.5c0-1.8-1-3.1-3-3.9h-4.5
		C189.9,44.6,188.8,45.9,188.8,47.7z M194.2,29.7c-1.5,0-2.7,0.3-3.6,1s-1.2,1.7-1.2,3.1c0,1.4,0.8,2.7,2.5,3.9h4.5
		c1.7-1.2,2.5-2.5,2.5-4C199,31.1,197.4,29.7,194.2,29.7z"/>
	<path class="st1" d="M214,25.8c2.2-1.6,5.2-2.5,9-2.5c3.8,0,6.8,0.8,9.1,2.5c2.3,1.7,3.5,3.9,3.5,6.9c0,2-0.2,3.5-0.7,4.5
		c-0.5,1-1.5,2.1-3,3.3c1.5,1.3,2.6,2.5,3.3,3.6c0.7,1.1,1,2.7,1,4.7c0,3.4-1.2,5.9-3.6,7.5c-2.4,1.6-5.6,2.4-9.4,2.4
		c-8.6,0-12.9-3.1-12.9-9.3c0-2.2,0.3-3.9,1-5.1c0.7-1.2,1.8-2.5,3.3-3.7c-1.4-1.2-2.4-2.3-2.9-3.4c-0.5-1.1-0.8-2.6-0.8-4.4
		C210.7,29.7,211.8,27.4,214,25.8z M217.8,47.7c0,3,1.8,4.5,5.3,4.5s5.3-1.5,5.3-4.5c0-1.8-1-3.1-3-3.9h-4.5
		C218.8,44.6,217.8,45.9,217.8,47.7z M223.1,29.7c-1.5,0-2.7,0.3-3.6,1s-1.2,1.7-1.2,3.1c0,1.4,0.8,2.7,2.5,3.9h4.5
		c1.7-1.2,2.5-2.5,2.5-4C227.9,31.1,226.3,29.7,223.1,29.7z"/>
	<path class="st1" d="M238.3,30.9c0-5,2.1-7.5,6.2-7.5c4.1,0,6.2,2.5,6.2,7.5c0,5-2.1,7.5-6.2,7.5C240.4,38.4,238.3,35.9,238.3,30.9
		z M243.6,28.2c-0.2,0.5-0.2,1.4-0.2,2.6s0.1,2.1,0.2,2.6c0.2,0.5,0.5,0.8,0.9,0.8c0.4,0,0.7-0.3,0.9-0.8c0.2-0.5,0.2-1.4,0.2-2.6
		s-0.1-2.1-0.2-2.6c-0.2-0.5-0.5-0.7-0.9-0.7C244,27.5,243.7,27.7,243.6,28.2z M244,58.5l12.1-36.5l3.8,1.3l-12.1,36.4L244,58.5z
		 M253.4,51.1c0-5,2.1-7.5,6.2-7.5s6.2,2.5,6.2,7.5c0,5-2.1,7.5-6.2,7.5S253.4,56.2,253.4,51.1z M258.7,48.5
		c-0.2,0.5-0.2,1.4-0.2,2.6s0.1,2.1,0.2,2.6c0.2,0.5,0.5,0.8,0.9,0.8s0.7-0.3,0.9-0.8c0.2-0.5,0.2-1.4,0.2-2.6s-0.1-2.1-0.2-2.6
		c-0.2-0.5-0.5-0.7-0.9-0.7S258.8,48,258.7,48.5z"/>
</g>
<g class="st0">
	<path d="M181.1,107.5V94.5h4.5l2.3,9.4l2.3-9.4h4.5v12.9H192v-10h-0.3l-2.5,9.4h-2.6l-2.5-9.4h-0.3v10H181.1z"/>
	<path d="M197.4,107.5V94.5h8.4v2.3H200v3h4.6v2.2H200v3.1h5.7v2.3H197.4z"/>
	<path d="M212.3,107.5h-4.4V94.5h4.4c1.1,0,2,0.1,2.8,0.4c0.7,0.2,1.3,0.6,1.7,1.2c0.4,0.5,0.7,1.2,0.8,1.9c0.2,0.7,0.2,1.7,0.2,2.8
		c0,1.2-0.1,2.1-0.2,2.9c-0.1,0.8-0.4,1.5-0.8,2.1c-0.4,0.6-0.9,1-1.7,1.3C214.4,107.3,213.4,107.5,212.3,107.5z M215,102.3
		c0-0.4,0-1,0-1.7c0-0.7,0-1.3-0.1-1.7c-0.1-0.4-0.2-0.8-0.4-1.2c-0.2-0.4-0.5-0.6-0.8-0.7c-0.4-0.1-0.9-0.2-1.5-0.2h-1.7v8.4h1.7
		c1,0,1.6-0.2,2.1-0.7C214.7,104.1,214.9,103.3,215,102.3z"/>
	<path d="M220.1,107.5V94.5h2.6v12.9H220.1z"/>
	<path d="M224.4,107.5l2.9-12.9h5l2.9,12.9h-2.6l-0.5-2.3h-4.5l-0.5,2.3H224.4z M229.4,96.7l-1.3,6.1h3.5l-1.3-6.1H229.4z"/>
</g>
<g class="st0">
	<path d="M181,123.2v-12.9h8.4v2.3h-5.7v3h4.6v2.2h-4.6v3.1h5.7v2.3H181z"/>
	<path d="M195.9,123.2h-4.4v-12.9h4.4c1.1,0,2,0.1,2.8,0.4c0.7,0.2,1.3,0.6,1.7,1.2c0.4,0.5,0.7,1.2,0.8,1.9
		c0.2,0.7,0.2,1.7,0.2,2.8c0,1.2-0.1,2.1-0.2,2.9c-0.1,0.8-0.4,1.5-0.8,2.1c-0.4,0.6-0.9,1-1.7,1.3C198,123.1,197,123.2,195.9,123.2
		z M198.6,118.1c0-0.4,0-1,0-1.7c0-0.7,0-1.3-0.1-1.7c-0.1-0.4-0.2-0.8-0.4-1.2c-0.2-0.4-0.5-0.6-0.8-0.7c-0.4-0.1-0.9-0.2-1.5-0.2
		h-1.7v8.4h1.7c1,0,1.6-0.2,2.1-0.7C198.3,119.8,198.5,119.1,198.6,118.1z"/>
	<path d="M203.7,123.2v-12.9h2.6v12.9H203.7z"/>
	<path d="M207.9,112.6v-2.3h9.5v2.3H214v10.6h-2.6v-10.6H207.9z"/>
	<path d="M219.1,123.2v-12.9h2.6v12.9H219.1z"/>
	<path d="M224.5,123.2v-12.9h4.4l3.1,10.6h0.2v-10.6h2.6v12.9h-4.3l-3.2-10.6h-0.2v10.6H224.5z"/>
	<path d="M243.1,118.6v-2.3h3.8v6.7c-1.8,0.3-3.3,0.4-4.4,0.4c-2,0-3.4-0.5-4.2-1.6c-0.8-1.1-1.1-2.8-1.1-5.1s0.4-4,1.2-5.1
		c0.8-1,2.1-1.6,4-1.6c1.2,0,2.5,0.1,3.8,0.4l0.7,0.1l-0.1,2c-1.5-0.2-2.8-0.2-3.7-0.2s-1.7,0.1-2,0.3c-0.4,0.2-0.7,0.6-0.9,1.3
		c-0.2,0.6-0.3,1.7-0.3,3.2c0,1.5,0.2,2.5,0.6,3.1c0.4,0.6,1.1,0.9,2.3,0.9l1.6-0.1v-2.5H243.1z"/>
</g>
<g class="st0">
	<path d="M251.5,114.5v-0.7h-1.9v-0.7l1.1-3h1l-1.2,2.9h0.9v-1.2h0.9v1.2h0.4v0.8h-0.4v0.7H251.5z"/>
</g>
<g class="st0">
	<path d="M331,14.6c0,1.5,0.8,2.3,2.3,2.3c1.5,0,2.3-0.8,2.3-2.3V6h2.6v8.6c0,1.6-0.4,2.7-1.2,3.5c-0.8,0.7-2.1,1.1-3.7,1.1
		c-1.6,0-2.9-0.4-3.7-1.1c-0.8-0.7-1.2-1.9-1.2-3.5V6h2.6V14.6z"/>
	<path d="M345.7,15.1h-2.1v3.8H341V6h4.8c3.1,0,4.6,1.5,4.6,4.5c0,1.5-0.4,2.7-1.2,3.5C348.4,14.7,347.2,15.1,345.7,15.1z
		 M343.6,12.9h2.1c1.3,0,2-0.8,2-2.4c0-0.8-0.2-1.4-0.5-1.7c-0.3-0.3-0.8-0.5-1.5-0.5h-2.1V12.9z"/>
	<path d="M355.2,8.3V6h9.5v2.3h-3.4v10.6h-2.6V8.3H355.2z"/>
	<path d="M375.2,17.5c-0.8,1.1-2.2,1.6-4.2,1.6s-3.3-0.5-4.2-1.6c-0.8-1.1-1.2-2.7-1.2-5c0-2.3,0.4-4,1.2-5.1
		c0.8-1.1,2.2-1.7,4.2-1.7s3.3,0.6,4.2,1.7s1.2,2.8,1.2,5.1C376.4,14.8,376,16.4,375.2,17.5z M368.9,15.8c0.4,0.7,1.1,1,2.1,1
		c1,0,1.7-0.3,2.1-1c0.4-0.7,0.6-1.8,0.6-3.3c0-1.6-0.2-2.7-0.6-3.4C372.7,8.4,372,8,371,8c-1,0-1.7,0.4-2.1,1.1
		c-0.4,0.7-0.6,1.8-0.6,3.4C368.3,14.1,368.5,15.2,368.9,15.8z"/>
</g>
<g class="st0">
	<path class="st1" d="M327.8,87.7V64.1h15.1v4.2h-10.3v6.9h8.4v4.2h-8.4v8.3H327.8z"/>
	<path class="st1" d="M343.5,87.7l5.3-23.6h9.1l5.3,23.6h-4.8l-0.9-4.3h-8.3l-0.9,4.3H343.5z M352.5,68.1l-2.4,11.2h6.5l-2.4-11.2
		H352.5z"/>
	<path class="st1" d="M373.3,67.9c-2.5,0-3.8,0.8-3.8,2.5c0,0.7,0.3,1.3,0.9,1.7c0.6,0.4,2.1,1,4.4,1.7s3.9,1.6,4.8,2.5
		c0.9,0.9,1.4,2.4,1.4,4.3c0,2.5-0.8,4.3-2.3,5.6c-1.5,1.3-3.5,1.9-5.9,1.9c-1.8,0-4-0.3-6.6-0.8l-1.2-0.2l0.5-3.7
		c3.1,0.4,5.5,0.6,7.1,0.6c2.5,0,3.7-1,3.7-3.1c0-0.7-0.3-1.3-0.8-1.7c-0.6-0.4-1.7-0.9-3.4-1.4c-2.7-0.8-4.6-1.7-5.7-2.7
		c-1.1-1.1-1.6-2.5-1.6-4.4c0-2.4,0.7-4.1,2.2-5.3s3.4-1.7,5.9-1.7c1.7,0,3.9,0.2,6.5,0.7l1.2,0.2l-0.4,3.8
		C377,68.1,374.7,67.9,373.3,67.9z"/>
	<path class="st1" d="M382.8,68.4v-4.2h17.3v4.2H394v19.4h-4.8V68.4H382.8z"/>
	<path class="st1" d="M403.2,87.7V64.1h15.3v4.2H408v5.5h8.4v4.1H408v5.7h10.5v4.2H403.2z"/>
	<path class="st1" d="M427.2,79.8v7.9h-4.8V64.1h9.2c5.6,0,8.3,2.6,8.3,7.8c0,3.1-1.2,5.3-3.5,6.8l3.4,9h-5.2l-2.7-7.9H427.2z
		 M434.2,74.7c0.6-0.7,0.8-1.6,0.8-2.7c0-1.1-0.3-2-0.9-2.7s-1.4-1-2.5-1h-4.4v7.5h4.4C432.8,75.7,433.6,75.4,434.2,74.7z"/>
</g>
<g class="st0">
	<path class="st1" d="M350.7,24v6.2h-15.2l-0.9,7.4c2.1-0.8,4.2-1.2,6.1-1.2c7.4,0,11,3.4,11,10.3c0,3.9-1,6.8-3,8.9
		c-2,2.1-4.9,3.1-8.6,3.1c-1.6,0-3.4-0.2-5.4-0.5c-2-0.3-3.6-0.6-4.8-1l-1.9-0.5l0.8-5.3c4.2,0.7,7.6,1,10.4,1c1.7,0,3-0.4,3.9-1.3
		c0.9-0.9,1.3-2.2,1.3-3.8c0-1.7-0.4-2.9-1.1-3.6c-0.8-0.8-1.8-1.1-3.2-1.1c-2.3,0-4.3,0.2-6.1,0.7l-0.8,0.2l-4.2-1l0.9-18.4H350.7z
		"/>
	<path class="st1" d="M357.5,25.2c3.2-1.2,6.7-1.9,10.6-1.9c3.9,0,6.8,0.7,8.5,2.2c1.8,1.5,2.7,3.9,2.7,7.2s-1.3,5.8-4,7.6
		c1.7,0.9,2.8,1.8,3.5,2.8c0.7,1,1.1,2.5,1.1,4.6c0,3.7-0.9,6.4-2.8,8.2c-1.8,1.8-4.8,2.7-8.9,2.7c-3,0-6.1-0.4-9.4-1.3l-1.7-0.4
		l0.4-5.4c3.9,0.7,7.1,1,9.7,1c3.5,0,5.3-1.5,5.3-4.5c0-1.3-0.5-2.3-1.4-3c-0.9-0.8-2.1-1.1-3.6-1.1h-6.9v-5.9h6.9
		c1.1,0,2.1-0.5,3-1.4s1.3-2,1.3-3.2c0-2.4-1.7-3.7-5.1-3.7c-2.4,0-4.9,0.2-7.6,0.7l-1.3,0.2L357.5,25.2z"/>
	<path class="st1" d="M383.9,30.9c0-5,2.1-7.5,6.2-7.5c4.1,0,6.2,2.5,6.2,7.5c0,5-2.1,7.5-6.2,7.5C386,38.4,383.9,35.9,383.9,30.9z
		 M389.2,28.2c-0.2,0.5-0.2,1.4-0.2,2.6s0.1,2.1,0.2,2.6s0.5,0.8,0.9,0.8c0.4,0,0.7-0.3,0.9-0.8c0.2-0.5,0.2-1.4,0.2-2.6
		s-0.1-2.1-0.2-2.6c-0.2-0.5-0.5-0.7-0.9-0.7C389.6,27.5,389.3,27.7,389.2,28.2z M389.6,58.5l12.1-36.5l3.8,1.3l-12.1,36.4
		L389.6,58.5z M399,51.1c0-5,2.1-7.5,6.2-7.5s6.2,2.5,6.2,7.5c0,5-2.1,7.5-6.2,7.5S399,56.2,399,51.1z M404.3,48.5
		c-0.2,0.5-0.2,1.4-0.2,2.6s0.1,2.1,0.2,2.6c0.2,0.5,0.5,0.8,0.9,0.8s0.7-0.3,0.9-0.8c0.2-0.5,0.2-1.4,0.2-2.6s-0.1-2.1-0.2-2.6
		c-0.2-0.5-0.5-0.7-0.9-0.7S404.4,48,404.3,48.5z"/>
</g>
<g class="st0">
	<path d="M326.7,94.5h2.8l1.6,10.7h0.3l2.3-10.7h3l2.3,10.7h0.3l1.6-10.7h2.8l-2.5,12.9h-4l-2-9.8l-2,9.8h-4L326.7,94.5z"/>
	<path d="M345.4,107.5V94.5h8.4v2.3H348v3h4.6v2.2H348v3.1h5.7v2.3H345.4z"/>
	<path d="M355.9,94.5h5.1c1.3,0,2.4,0.3,3,0.8c0.7,0.5,1,1.4,1,2.6c0,0.7-0.1,1.3-0.3,1.7s-0.6,0.8-1.1,1.1c0.6,0.2,1,0.6,1.3,1
		c0.3,0.5,0.4,1.1,0.4,1.9c0,1.3-0.4,2.2-1.1,2.8c-0.7,0.6-1.8,0.9-3.1,0.9h-5.2V94.5z M360.9,96.8h-2.3v3.1h2.3
		c1,0,1.5-0.5,1.5-1.5S361.9,96.8,360.9,96.8z M361,102.1h-2.4v3.2h2.4c0.6,0,1-0.1,1.3-0.3c0.3-0.2,0.4-0.6,0.4-1.3
		C362.6,102.6,362.1,102.1,361,102.1z"/>
</g>
<g class="st0">
	<path d="M327.8,110.3h5.1c1.3,0,2.4,0.3,3,0.8c0.7,0.5,1,1.4,1,2.6c0,0.7-0.1,1.3-0.3,1.7s-0.6,0.8-1.1,1.1c0.6,0.2,1,0.6,1.3,1
		c0.3,0.5,0.4,1.1,0.4,1.9c0,1.3-0.4,2.2-1.1,2.8c-0.7,0.6-1.8,0.9-3.1,0.9h-5.2V110.3z M332.7,112.5h-2.3v3.1h2.3
		c1,0,1.5-0.5,1.5-1.5S333.7,112.5,332.7,112.5z M332.8,117.8h-2.4v3.2h2.4c0.6,0,1-0.1,1.3-0.3c0.3-0.2,0.4-0.6,0.4-1.3
		C334.4,118.3,333.9,117.8,332.8,117.8z"/>
	<path d="M342,118.9v4.3h-2.6v-12.9h5c3,0,4.6,1.4,4.6,4.3c0,1.7-0.6,2.9-1.9,3.7l1.8,4.9H346l-1.5-4.3H342z M345.8,116
		c0.3-0.4,0.5-0.9,0.5-1.5c0-0.6-0.2-1.1-0.5-1.5c-0.3-0.4-0.8-0.6-1.4-0.6H342v4.1h2.4C345,116.6,345.5,116.4,345.8,116z"/>
	<path d="M360.1,121.8c-0.8,1.1-2.2,1.6-4.2,1.6s-3.3-0.5-4.2-1.6c-0.8-1.1-1.2-2.7-1.2-5c0-2.3,0.4-4,1.2-5.1s2.2-1.7,4.2-1.7
		s3.3,0.6,4.2,1.7c0.8,1.1,1.2,2.8,1.2,5.1C361.3,119.1,360.9,120.7,360.1,121.8z M353.8,120.1c0.4,0.7,1.1,1,2.1,1
		c1,0,1.7-0.3,2.1-1c0.4-0.7,0.6-1.8,0.6-3.3c0-1.6-0.2-2.7-0.6-3.4s-1.1-1.1-2.1-1.1c-1,0-1.7,0.4-2.1,1.1
		c-0.4,0.7-0.6,1.8-0.6,3.4C353.2,118.4,353.4,119.5,353.8,120.1z"/>
	<path d="M362.5,110.3h2.8l1.6,10.7h0.3l2.3-10.7h3l2.3,10.7h0.3l1.6-10.7h2.8l-2.5,12.9h-4l-2-9.8l-2,9.8h-4L362.5,110.3z"/>
	<path d="M385.2,112.3c-1.4,0-2.1,0.5-2.1,1.4c0,0.4,0.2,0.7,0.5,0.9c0.3,0.2,1.1,0.5,2.4,0.9c1.3,0.4,2.1,0.9,2.7,1.4
		c0.5,0.5,0.8,1.3,0.8,2.4c0,1.4-0.4,2.4-1.2,3.1s-1.9,1-3.2,1c-1,0-2.2-0.2-3.6-0.5l-0.7-0.1l0.3-2c1.7,0.2,3,0.3,3.9,0.3
		c1.3,0,2-0.6,2-1.7c0-0.4-0.2-0.7-0.5-1c-0.3-0.2-0.9-0.5-1.9-0.7c-1.5-0.4-2.5-0.9-3.1-1.5c-0.6-0.6-0.9-1.4-0.9-2.4
		c0-1.3,0.4-2.3,1.2-2.9s1.9-1,3.2-1c0.9,0,2.1,0.1,3.6,0.4l0.7,0.1l-0.2,2.1C387.2,112.4,385.9,112.3,385.2,112.3z"/>
	<path d="M391.5,123.2v-12.9h2.6v12.9H391.5z"/>
	<path d="M397,123.2v-12.9h4.4l3.1,10.6h0.2v-10.6h2.6v12.9H403l-3.2-10.6h-0.2v10.6H397z"/>
	<path d="M415.5,118.6v-2.3h3.8v6.7c-1.8,0.3-3.3,0.4-4.4,0.4c-2,0-3.4-0.5-4.2-1.6s-1.1-2.8-1.1-5.1s0.4-4,1.2-5.1
		c0.8-1,2.1-1.6,4-1.6c1.2,0,2.5,0.1,3.8,0.4l0.7,0.1l-0.1,2c-1.5-0.2-2.8-0.2-3.7-0.2s-1.7,0.1-2,0.3c-0.4,0.2-0.7,0.6-0.9,1.3
		c-0.2,0.6-0.3,1.7-0.3,3.2c0,1.5,0.2,2.5,0.6,3.1s1.1,0.9,2.3,0.9l1.6-0.1v-2.5H415.5z"/>
</g>
<g class="st0">
	<path d="M425.3,110.1v0.8h-2l-0.1,1c0.3-0.1,0.5-0.2,0.8-0.2c0.9,0,1.4,0.4,1.4,1.3c0,0.5-0.1,0.9-0.4,1.1
		c-0.3,0.3-0.6,0.4-1.1,0.4c-0.2,0-0.4,0-0.7-0.1c-0.3,0-0.5-0.1-0.6-0.1l-0.2-0.1l0.1-0.7c0.5,0.1,1,0.1,1.3,0.1
		c0.2,0,0.4-0.1,0.5-0.2s0.2-0.3,0.2-0.5s0-0.4-0.1-0.5c-0.1-0.1-0.2-0.1-0.4-0.1c-0.3,0-0.6,0-0.8,0.1l-0.1,0l-0.5-0.1l0.1-2.4
		H425.3z"/>
</g>
</svg>
