<?xml version="1.0" encoding="utf-8"?>
<!-- Generator: Adobe Illustrator 21.0.0, SVG Export Plug-In . SVG Version: 6.00 Build 0)  -->
<svg version="1.1" id="Layer_1" xmlns="http://www.w3.org/2000/svg" xmlns:xlink="http://www.w3.org/1999/xlink" x="0px" y="0px"
	 viewBox="0 0 319 319" style="enable-background:new 0 0 319 319;" xml:space="preserve">
<style type="text/css">
	.st0{fill:#FFFFFF;}
	.st1{fill:none;stroke:#969696;stroke-width:4;stroke-linejoin:round;}
	.st2{fill:none;stroke:#969696;stroke-width:4;stroke-linecap:round;stroke-linejoin:round;}
	.st3{fill:none;stroke:#000000;stroke-width:4;stroke-linecap:round;stroke-linejoin:round;}
	.st4{opacity:0.21;enable-background:new    ;}
	.st5{fill:#F0161F;}
</style>
<path class="st0" d="M150.4,218.6c0,0-55.7-1.6-60.2,1.1C85.7,222.4,19,280,19,280h281l-72.2-61.9L150.4,218.6z"/>
<title>img.group_introductions.02</title>
<g>
	<line class="st1" x1="273" y1="256.7" x2="172.9" y2="218.8"/>
	<line class="st1" x1="202.6" y1="280" x2="72.8" y2="231.5"/>
	<line class="st2" x1="96" y1="249.3" x2="24.1" y2="280.2"/>
	<line class="st1" x1="168.1" y1="266.9" x2="227.8" y2="239.6"/>
	<path class="st3" d="M128.1,218.6h-32c-3.8,0-7.5,1.4-10.4,3.9L19,280h281l-66.7-57.6c-2.9-2.5-6.6-3.9-10.4-3.9h-72.5"/>
</g>
<path class="st4" d="M152.6,280.2l8.6-34.8c0.5-2.2-0.8-4.4-3-4.9c-0.6-0.2-1.3-0.2-2,0L45,267.9c-9.4,2.3-18.2,6.5-25.9,12.2H152.6
	z"/>
<path class="st5" d="M155.7,244.7l-58.7-97.2c-20.8-34.5-10.7-79.7,23.5-101c34.4-21.4,79.5-10.8,100.9,23.6
	c14.5,23.4,14.7,52.9,0.5,76.5l-59.2,98.1c-1.2,1.9-3.7,2.6-5.6,1.4C156.6,245.7,156.1,245.2,155.7,244.7z"/>
<circle class="st0" cx="159" cy="108.2" r="44"/>
<g>
	<circle class="st5" cx="158.7" cy="94.3" r="14.4"/>
	<path class="st5" d="M176.6,134c2.2,0,4-1.8,4-4c0-0.5-0.1-1-0.3-1.5c-5.1-11.9-18.8-17.5-30.8-12.5c-5.6,2.4-10.1,6.9-12.5,12.5
		c-0.8,2,0.1,4.4,2.2,5.2c0.5,0.2,1,0.3,1.5,0.3H176.6z"/>
</g>
</svg>
