<?xml version="1.0" encoding="utf-8"?>
<!-- Generator: Adobe Illustrator 23.0.3, SVG Export Plug-In . SVG Version: 6.00 Build 0)  -->
<svg version="1.1" id="Layer_1" xmlns="http://www.w3.org/2000/svg" xmlns:xlink="http://www.w3.org/1999/xlink" x="0px" y="0px"
	 viewBox="0 0 198 198" style="enable-background:new 0 0 198 198;" xml:space="preserve">
<style type="text/css">
	.st0{fill:none;stroke:#000000;stroke-width:3;stroke-linecap:round;stroke-miterlimit:10;}
	.st1{fill:none;stroke:#000000;stroke-width:3;stroke-miterlimit:10;}
	.st2{fill:#EF6620;}
</style>
<title>img.who-amd-01</title>
<path class="st0" d="M164.2,142.9H32.5c-3.7,0-6.8-3.1-6.8-7V56.6c0-3.8,3-7,6.8-7h131.7c3.7,0,6.8,3.1,6.8,7v79.3
	C171,139.8,167.9,142.9,164.2,142.9z"/>
<path class="st1" d="M167.5,161H30.7c-5.5,0-10-3.1-10-6.9v-4.2c0-3.8,4.6-6.9,10-6.9h136.6c5.5,0,10,3.1,10,6.9v4.2
	C177.6,157.9,173,161,167.5,161z"/>
<rect x="34.9" y="56.5" class="st2" width="127.3" height="78.3"/>
<line class="st1" x1="20.7" y1="149.8" x2="177.3" y2="149.8"/>
</svg>
