<svg xmlns="http://www.w3.org/2000/svg" viewBox="0 0 50 50">
  <defs>
    <style>
      .a {
        fill: #ef6620;
      }

      .b {
        fill: #fff;
      }
    </style>
  </defs>
  <title>img.summary-04</title>
  <path d="M46.26,40.57H3.74a3,3,0,0,1-3-3V9.67a3,3,0,0,1,3-3H46.26a3,3,0,0,1,3,3V37.58A3,3,0,0,1,46.26,40.57ZM3.74,8.68a1,1,0,0,0-1,1V37.58a1,1,0,0,0,1,1H46.26a1,1,0,0,0,1-1V9.67a1,1,0,0,0-1-1Z"/>
  <path d="M28.31,47.18H21.69a1,1,0,0,1-1-1V39.57a1,1,0,0,1,1-1h6.62a1,1,0,0,1,1,1v6.61A1,1,0,0,1,28.31,47.18Zm-5.62-2h4.62V40.57H22.69Z"/>
  <circle class="a" cx="25" cy="23.62" r="9.1"/>
  <path class="b" d="M29.18,23.07l-5.93-3.52a.64.64,0,0,0-1,.55v7a.64.64,0,0,0,1,.55l5.93-3.52A.65.65,0,0,0,29.18,23.07Z"/>
</svg>
