<svg xmlns="http://www.w3.org/2000/svg" viewBox="0 0 198 198">
  <defs>
    <style>
      .a {
        fill: #ef6620;
      }
    </style>
  </defs>
  <title>img.who-amd-02</title>
  <g>
    <g>
      <path d="M171.87,164.82H26.13a1,1,0,0,1-1-1V132a1,1,0,0,1,1-1H46.28a1,1,0,0,1,0,2H27.13v29.86H170.87V133H70.31a1,1,0,0,1,0-2H171.87a1,1,0,0,1,1,1v31.86A1,1,0,0,1,171.87,164.82Z"/>
      <path d="M87.81,152h-47a3.25,3.25,0,0,1,0-6.49h47a3.25,3.25,0,1,1,0,6.49Zm-47-4.49a1.25,1.25,0,0,0,0,2.49h47a1.25,1.25,0,1,0,0-2.49Z"/>
      <path d="M151.51,157.1a8.32,8.32,0,1,1,8.31-8.31A8.32,8.32,0,0,1,151.51,157.1Zm0-14.63a6.32,6.32,0,1,0,6.31,6.32A6.33,6.33,0,0,0,151.51,142.47Z"/>
      <circle class="a" cx="151.51" cy="148.79" r="4.19"/>
      <path d="M165.6,168H32.39a1,1,0,0,1-1-1v-3.19a1,1,0,0,1,2,0V166H164.6v-2.18a1,1,0,0,1,2,0V167A1,1,0,0,1,165.6,168Z"/>
    </g>
    <g>
      <path d="M59,123.34a5.05,5.05,0,0,1-2.93-.94,19.14,19.14,0,0,1-7.87-18l3-24.1a4.86,4.86,0,0,1,2.87-3.85l-.52-2.56a1,1,0,0,1,.11-.69c1.34-2.34,4.18-4.48,8.44-6.38a10.3,10.3,0,0,1,9.15.39l20.44-4.19A10.26,10.26,0,0,1,100,59.13c4.65.07,8.11.93,10.26,2.55a1,1,0,0,1,.38.6l.52,2.56a4.82,4.82,0,0,1,4.15,2.4l12.23,21h0a19.12,19.12,0,0,1-.19,19.59,5.09,5.09,0,0,1-6.87,1.77l-13-7.26a7.22,7.22,0,0,0-5-.77l-25.92,5.3a7.26,7.26,0,0,0-4.27,2.66l-9.14,11.8A5.16,5.16,0,0,1,59,123.34ZM55.59,73.93l.62,3a1,1,0,0,1-.14.75,1,1,0,0,1-.64.43,2.86,2.86,0,0,0-2.25,2.43l-3,24.11a17.14,17.14,0,0,0,7,16.07,3.15,3.15,0,0,0,4.27-.67l9.13-11.8a9.27,9.27,0,0,1,5.46-3.4L102,99.6a9.2,9.2,0,0,1,6.36,1l13,7.26a3.15,3.15,0,0,0,4.19-1.06,17.11,17.11,0,0,0,.17-17.54l-12.22-21a2.86,2.86,0,0,0-3-1.36,1,1,0,0,1-1.18-.78l-.62-3c-1.82-1.2-4.85-1.87-8.79-1.93a8.25,8.25,0,0,0-6.85,3.43,1,1,0,0,1-.61.4L71.27,69.29a1,1,0,0,1-.71-.12,8.28,8.28,0,0,0-7.65-.47C59.31,70.3,56.79,72.1,55.59,73.93Z"/>
      <path d="M64.62,90.63a6,6,0,1,1,1.21-.12A6.21,6.21,0,0,1,64.62,90.63Zm0-9.95a4.43,4.43,0,0,0-.8.08,4,4,0,1,0,.8-.08Z"/>
      <path d="M94.59,96.67a6,6,0,1,1,1.21-.12A6.21,6.21,0,0,1,94.59,96.67Zm0-10a4.43,4.43,0,0,0-.8.08,4,4,0,1,0,.8-.08Z"/>
      <g>
        <circle cx="104.79" cy="81.56" r="2.33"/>
        <circle cx="102.64" cy="71.05" r="2.33"/>
        <circle cx="98.46" cy="77.38" r="2.33"/>
        <circle cx="108.96" cy="75.23" r="2.33"/>
      </g>
      <circle class="a" cx="83.86" cy="76.86" r="4.25"/>
      <path d="M81.35,90.34l-2.09.43-.43-2.09a1.89,1.89,0,1,0-3.71.76l.43,2.09L73.46,92a1.89,1.89,0,1,0,.76,3.71l2.09-.42.42,2.08a1.9,1.9,0,0,0,3.72-.76L80,94.49l2.09-.43a1.9,1.9,0,1,0-.76-3.72Z"/>
    </g>
    <g>
      <path d="M150.48,93a5.14,5.14,0,0,1-4-1.9L137,79.54A7.21,7.21,0,0,0,132.65,77l-10.42-1.62a1,1,0,0,1,.3-2L133,75a9.2,9.2,0,0,1,5.58,3.23L148,89.78a3.13,3.13,0,0,0,4.28.54A17.11,17.11,0,0,0,158.88,74l-3.74-24a2.83,2.83,0,0,0-2.32-2.36,1,1,0,0,1-.82-1.16l.54-3.06c-1.26-1.79-3.83-3.52-7.48-5a8.32,8.32,0,0,0-7.63.7,1,1,0,0,1-.71.15l-21.31-3.69a1,1,0,0,1-.62-.38,8.3,8.3,0,0,0-7-3.22c-3.94.18-7,.94-8.73,2.2l-.53,3.07a1,1,0,0,1-1.15.82,2.84,2.84,0,0,0-3,1.44L82.86,60.9A17.13,17.13,0,0,0,81,66.63a1,1,0,1,1-2-.28,19.22,19.22,0,0,1,2.12-6.41L92.68,38.59a4.84,4.84,0,0,1,4.08-2.53l.45-2.58a1,1,0,0,1,.36-.6c2.1-1.69,5.52-2.65,10.18-2.86a10.29,10.29,0,0,1,8.37,3.69l20.56,3.55a10.3,10.3,0,0,1,9.13-.66c4.32,1.76,7.22,3.82,8.63,6.11a1,1,0,0,1,.13.7L154.13,46a4.85,4.85,0,0,1,3,3.76l3.73,24a19.13,19.13,0,0,1-7.31,18.17A5,5,0,0,1,150.48,93Z"/>
      <path d="M103.63,53.47a6,6,0,1,1,5.88-5h0A6,6,0,0,1,103.63,53.47Zm0-9.95a4,4,0,1,0,3.92,4.65h0a4,4,0,0,0-3.24-4.59A3.91,3.91,0,0,0,103.62,43.52Z"/>
      <path d="M129.33,70a5.86,5.86,0,0,1-1-.09,6,6,0,1,1,1,.09Zm0-9.95a4,4,0,1,0,.68.06A4,4,0,0,0,129.33,60.07Z"/>
      <g>
        <circle cx="142.14" cy="59.25" r="2.33"/>
        <circle cx="143.97" cy="48.68" r="2.33"/>
        <circle cx="137.77" cy="53.05" r="2.33"/>
        <circle cx="148.34" cy="54.88" r="2.33"/>
      </g>
      <circle class="a" cx="124.37" cy="47.24" r="4.25"/>
    </g>
    <path d="M171.87,133H26.26a1,1,0,0,1-.8-1.59L37.63,115a1,1,0,0,1,.8-.4H51.28a1,1,0,0,1,0,2H38.93L28.25,131H169.89L159.2,116.57H74.09a1,1,0,0,1,0-2h85.62a1,1,0,0,1,.8.4l12.17,16.4a1,1,0,0,1-.81,1.59Z"/>
  </g>
</svg>
