<?xml version="1.0" encoding="utf-8"?>
<!-- Generator: Adobe Illustrator 23.0.3, SVG Export Plug-In . SVG Version: 6.00 Build 0)  -->
<svg version="1.1" id="Layer_1" xmlns="http://www.w3.org/2000/svg" xmlns:xlink="http://www.w3.org/1999/xlink" x="0px" y="0px"
	 viewBox="0 0 350 350" style="enable-background:new 0 0 350 350;" xml:space="preserve">
<style type="text/css">
	.st0{fill:none;stroke:#000000;stroke-width:10;stroke-linecap:round;stroke-linejoin:round;stroke-miterlimit:10;}
	.st1{fill:#EF6620;}
</style>
<g>
	<path class="st0" d="M290.8,304H112.2c-1.8,0-3.2-1.4-3.2-3.2V112.9c0-1.8,1.4-3.2,3.2-3.2h178.6c1.8,0,3.2,1.4,3.2,3.2v187.8
		C294,302.6,292.6,304,290.8,304z"/>
	<path class="st0" d="M81.5,250.1V99.9c0-12.2,8.5-22,19-22h147.1c10.5,0,19,9.9,19,22v7.1"/>
	<path class="st0" d="M81.5,240.3H73c-10.5,0-19-9.9-19-22V68c0-12.2,8.5-22,19-22h139.5"/>
</g>
<rect x="133.2" y="132.3" class="st1" width="140" height="146.3"/>
</svg>
