<?xml version="1.0" encoding="utf-8"?>
<!-- Generator: Adobe Illustrator 23.0.2, SVG Export Plug-In . SVG Version: 6.00 Build 0)  -->
<svg version="1.1" id="Layer_1" xmlns="http://www.w3.org/2000/svg" xmlns:xlink="http://www.w3.org/1999/xlink" x="0px" y="0px"
	 viewBox="0 0 50 50" style="enable-background:new 0 0 50 50;" xml:space="preserve">
<style type="text/css">
	.st0{fill:#EF6620;}
</style>
<title>img.course-objs-01</title>
<path d="M41.6,46.8H8.4c-1.8,0-3.2-1.4-3.2-3.2l0,0V10.4c0-1.8,1.4-3.2,3.2-3.2l0,0h33.2c1.8,0,3.2,1.4,3.2,3.2v33.2
	C44.8,45.4,43.4,46.8,41.6,46.8z M8.4,8.9c-0.8,0-1.5,0.6-1.5,1.5l0,0v33.2c0,0.8,0.6,1.5,1.5,1.5l0,0h33.2c0.8,0,1.5-0.6,1.5-1.5
	V10.4c0-0.8-0.6-1.5-1.5-1.5H8.4z"/>
<path d="M47.2,11.6H44c-0.5,0-0.9-0.4-0.9-0.9s0.4-0.9,0.9-0.9h3.3c0.5,0,0.9,0.4,0.9,0.9S47.7,11.6,47.2,11.6z"/>
<path d="M47.2,18.1H44c-0.5,0-0.9-0.4-0.9-0.9s0.4-0.9,0.9-0.9h3.3c0.5,0,0.9,0.4,0.9,0.9S47.7,18.1,47.2,18.1z"/>
<path d="M47.2,24.6H44c-0.5,0-0.9-0.4-0.9-0.9s0.4-0.9,0.9-0.9h3.3c0.5,0,0.9,0.4,0.9,0.9S47.7,24.6,47.2,24.6z"/>
<path d="M47.2,31.1H44c-0.5,0-0.9-0.4-0.9-0.9s0.4-0.9,0.9-0.9h3.3c0.5,0,0.9,0.4,0.9,0.9S47.7,31.1,47.2,31.1z"/>
<path d="M47.2,37.6H44c-0.5,0-0.9-0.4-0.9-0.9s0.4-0.9,0.9-0.9h3.3c0.5,0,0.9,0.4,0.9,0.9S47.7,37.6,47.2,37.6z"/>
<path d="M47.2,44.1H44c-0.5,0-0.9-0.4-0.9-0.9s0.4-0.9,0.9-0.9h3.3c0.5,0,0.9,0.4,0.9,0.9C48.1,43.8,47.7,44.1,47.2,44.1z"/>
<path d="M6,11.6H2.8c-0.5,0-0.9-0.4-0.9-0.9s0.4-0.9,0.9-0.9H6c0.5,0,0.9,0.4,0.9,0.9S6.5,11.6,6,11.6z"/>
<path d="M6,18.1H2.8c-0.5,0-0.9-0.4-0.9-0.9s0.4-0.9,0.9-0.9H6c0.5,0,0.9,0.4,0.9,0.9S6.5,18.1,6,18.1z"/>
<path d="M6,24.6H2.8c-0.5,0-0.9-0.4-0.9-0.9s0.4-0.9,0.9-0.9H6c0.5,0,0.9,0.4,0.9,0.9S6.5,24.6,6,24.6z"/>
<path d="M6,31.1H2.8c-0.5,0-0.9-0.4-0.9-0.9s0.4-0.9,0.9-0.9H6c0.5,0,0.9,0.4,0.9,0.9S6.5,31.1,6,31.1z"/>
<path d="M6,37.6H2.8c-0.5,0-0.9-0.4-0.9-0.9s0.4-0.9,0.9-0.9H6c0.5,0,0.9,0.4,0.9,0.9S6.5,37.6,6,37.6z"/>
<path d="M6,44.1H2.8c-0.5,0-0.9-0.4-0.9-0.9s0.4-0.9,0.9-0.9H6c0.5,0,0.9,0.4,0.9,0.9C6.9,43.8,6.5,44.1,6,44.1z"/>
<path d="M8.7,8.9C8.2,8.9,7.9,8.5,7.9,8V4.8c0-0.5,0.4-0.9,0.9-0.9s0.9,0.4,0.9,0.9V8C9.6,8.5,9.2,8.9,8.7,8.9z"/>
<path d="M15.2,8.9c-0.5,0-0.9-0.4-0.9-0.9V4.8c0-0.5,0.4-0.9,0.9-0.9s0.9,0.4,0.9,0.9V8C16.1,8.5,15.7,8.9,15.2,8.9z"/>
<path d="M21.8,8.9c-0.5,0-0.9-0.4-0.9-0.9V4.8c0-0.5,0.4-0.9,0.9-0.9s0.9,0.4,0.9,0.9V8C22.6,8.5,22.2,8.9,21.8,8.9z"/>
<path d="M28.2,8.9c-0.5,0-0.9-0.4-0.9-0.9V4.8c0-0.5,0.4-0.9,0.9-0.9s0.9,0.4,0.9,0.9V8C29.1,8.5,28.7,8.9,28.2,8.9z"/>
<path d="M34.8,8.9c-0.5,0-0.9-0.4-0.9-0.9V4.8c0-0.5,0.4-0.9,0.9-0.9s0.9,0.4,0.9,0.9V8C35.6,8.5,35.2,8.9,34.8,8.9z"/>
<path d="M41.3,8.9c-0.5,0-0.9-0.4-0.9-0.9V4.8c0-0.5,0.4-0.9,0.9-0.9s0.9,0.4,0.9,0.9V8C42.1,8.5,41.8,8.9,41.3,8.9z"/>
<path d="M8.7,50.1c-0.5,0-0.9-0.4-0.9-0.9l0,0V46c0-0.5,0.4-0.9,0.9-0.9s0.9,0.4,0.9,0.9v3.3C9.6,49.7,9.2,50.1,8.7,50.1L8.7,50.1z"
	/>
<path d="M15.2,50.1c-0.5,0-0.9-0.4-0.9-0.9l0,0V46c0-0.5,0.4-0.9,0.9-0.9s0.9,0.4,0.9,0.9v3.3C16.1,49.7,15.7,50.1,15.2,50.1
	L15.2,50.1z"/>
<path d="M21.8,50.1c-0.5,0-0.9-0.4-0.9-0.9l0,0V46c0-0.5,0.4-0.9,0.9-0.9s0.9,0.4,0.9,0.9v3.3C22.6,49.7,22.2,50.1,21.8,50.1
	L21.8,50.1z"/>
<path d="M28.2,50.1c-0.5,0-0.9-0.4-0.9-0.9l0,0V46c0-0.5,0.4-0.9,0.9-0.9s0.9,0.4,0.9,0.9v3.3C29.1,49.7,28.7,50.1,28.2,50.1
	L28.2,50.1z"/>
<path d="M34.8,50.1c-0.5,0-0.9-0.4-0.9-0.9l0,0V46c0-0.5,0.4-0.9,0.9-0.9s0.9,0.4,0.9,0.9v3.3C35.6,49.7,35.2,50.1,34.8,50.1
	L34.8,50.1z"/>
<path d="M41.3,50.1c-0.5,0-0.9-0.4-0.9-0.9l0,0V46c0-0.5,0.4-0.9,0.9-0.9s0.9,0.4,0.9,0.9v3.3C42.1,49.7,41.8,50.1,41.3,50.1
	L41.3,50.1z"/>
<path d="M37.2,11.8H12.8c-1.7,0-3,1.4-3,3v24.4c0,1.7,1.4,3,3,3h24.4c1.7,0,3-1.4,3-3V14.8C40.2,13.1,38.9,11.8,37.2,11.8z
	 M37.3,38.2c0,0.6-0.4,1.1-1.1,1.1H13.8c-0.6,0-1.1-0.4-1.1-1.1V15.8c0-0.6,0.4-1.1,1.1-1.1h22.3c0.6,0,1.1,0.4,1.1,1.1v22.4H37.3z"
	/>
<path class="st0" d="M14.8,37.2H35V16.8H14.8V37.2z M18.9,19.8c1.1,0,1.9,0.9,1.9,1.9c0,1.1-0.9,1.9-1.9,1.9S17,22.8,17,21.8
	C17,20.7,17.8,19.8,18.9,19.8z"/>
</svg>
