<?xml version="1.0" encoding="utf-8"?>
<!-- Generator: Adobe Illustrator 21.0.0, SVG Export Plug-In . SVG Version: 6.00 Build 0)  -->
<svg version="1.1" id="Layer_1" xmlns="http://www.w3.org/2000/svg" xmlns:xlink="http://www.w3.org/1999/xlink" x="0px" y="0px"
	 viewBox="0 0 30 30" style="enable-background:new 0 0 30 30;" xml:space="preserve">
<style type="text/css">
	.st0{fill:#fff;}
</style>
<g>
	<polygon class="st0" points="12.7,18.3 19.9,18.3 19.9,22.1 29.6,15.1 19.9,8.2 19.9,12 12.7,12 	"/>
	<path class="st0" d="M4.8,29.2h13.5c2.1,0,3.8-1.7,3.8-3.8v-1.6H19v1.6c0,0.4-0.3,0.7-0.7,0.7H4.8c-0.4,0-0.7-0.3-0.7-0.7V4.9
		c0-0.4,0.3-0.7,0.7-0.7h13.5c0.4,0,0.7,0.3,0.7,0.7v1.4h3.2V4.9c0-2.1-1.7-3.8-3.8-3.8H4.8C2.7,1,1,2.8,1,4.9v20.5
		C1,27.5,2.7,29.2,4.8,29.2z"/>
</g>
</svg>
